<svg xmlns="http://www.w3.org/2000/svg" viewBox="0 0 433 402" width="250" height="232">
	<style>
		tspan { white-space:pre }
		.shp0 { fill: #1b1320 } 
		.shp1 { fill: #ffffff } 
		.shp2 { fill: #d28682 } 
		.shp3 { fill: #f9cdb9 } 
		.shp4 { fill: #d1697b } 
	</style>
	<g id="g12">
		<path id="path514" class="shp0" d="M298.08 175.08C298 175.08 297.9 175.06 297.81 175.04L267.62 165.81C267.14 165.66 266.87 165.15 267.02 164.67C267.16 164.18 267.67 163.91 268.16 164.06L297.49 173.03C305.81 145.64 267.79 120.98 267.4 120.74C267.04 120.51 266.89 120.06 267.03 119.66C267.18 119.26 267.58 119 268 119.06L302.06 123.31C302.71 109.32 297.24 98.05 285.8 89.79C277.01 83.44 267.78 81.35 267.69 81.33C267.28 81.23 266.98 80.87 266.98 80.44C266.97 80.02 267.26 79.65 267.68 79.55L296.71 72.66C281.6 46.32 237.54 66.38 237.09 66.58C236.69 66.78 236.2 66.64 235.95 66.27C235.7 65.89 235.76 65.39 236.09 65.09L266.06 37.16C225.55 28.82 189.04 56.61 188.67 56.9C188.34 57.15 187.88 57.16 187.55 56.9C187.22 56.64 187.11 56.19 187.28 55.81L197.12 33.57C142.73 41.76 133.4 114.22 133.31 114.96C133.25 115.46 132.79 115.83 132.29 115.76C131.79 115.7 131.44 115.25 131.5 114.75C131.59 113.99 141.26 38.7 198.5 31.54C198.84 31.5 199.15 31.64 199.35 31.9C199.54 32.16 199.58 32.51 199.45 32.81L190.28 53.53C199.75 47.14 232.58 27.56 268.16 35.75C268.48 35.83 268.75 36.07 268.83 36.4C268.92 36.73 268.82 37.07 268.57 37.3L240.93 63.07C253.17 58.52 286.42 48.92 298.89 72.84C299.02 73.09 299.03 73.39 298.91 73.65C298.79 73.9 298.57 74.09 298.29 74.15L271.49 80.52C275.07 81.7 280.97 84.06 286.82 88.27C295.26 94.35 305.07 105.55 303.83 124.39C303.81 124.64 303.69 124.88 303.5 125.04C303.3 125.19 303.05 125.27 302.8 125.24L271.42 121.33C280.63 128.11 307.15 150.19 298.95 174.46C298.82 174.84 298.46 175.08 298.08 175.08" />
		<path id="path516" class="shp1" d="M63.08 139.52C63.08 139.52 23.56 155.13 4.91 134.83C4.91 134.83 12.97 190.16 62.75 170.92C62.75 170.92 76.17 152.51 63.08 139.52" />
		<path id="path518" fill-rule="evenodd" class="shp0" d="M43.27 175.89C43.27 175.89 43.27 175.89 43.27 175.89C10.36 175.89 4.07 135.37 4.01 134.97C3.95 134.57 4.16 134.18 4.52 134.01C4.88 133.84 5.31 133.92 5.58 134.22C11.76 140.93 20.97 144.34 32.98 144.34C48.22 144.34 62.6 138.73 62.74 138.67C63.08 138.54 63.46 138.62 63.72 138.87C77.21 152.26 63.63 171.26 63.49 171.45C63.38 171.59 63.24 171.7 63.08 171.77C56 174.5 49.33 175.89 43.27 175.89ZM12.73 154.51C19.89 167.49 30.16 174.07 43.27 174.07C43.27 174.07 43.27 174.07 43.27 174.07C49.03 174.07 55.39 172.76 62.16 170.16C62.82 169.2 65.51 165.06 66.96 159.8C69.07 152.11 67.68 145.65 62.84 140.58C59.98 141.63 46.83 146.16 32.98 146.16C21.74 146.16 12.81 143.27 6.38 137.55C7.21 141.22 9.08 147.9 12.73 154.51Z" />
		<path id="path520" class="shp2" d="M259.13 250.61C264.57 246.42 275.15 91.44 192.89 67.59C110.64 43.75 109.58 125.81 56.86 116.44C56.86 116.44 16.05 234.03 143.07 163.71C143.07 163.71 148.63 225.08 65.3 199.48C65.3 199.48 85.79 238.51 115.12 251.62C129.64 258.11 154.33 331.29 259.13 250.61Z" />
		<path id="path522" class="shp2" d="M206.84 79.33C206.84 79.33 197.82 31.11 238.38 28.84C238.38 28.84 257.81 75 213.73 87.97L206.84 79.33" />
		<path id="path524" class="shp2" d="M144.3 76.37C144.3 76.37 113.56 31.73 150.58 15C150.58 15 185.33 51.07 148.87 79.04L144.3 76.37Z" />
		<path id="path526" class="shp3" d="M64.57 183.33C64.57 183.33 80.23 113.74 62.28 113.29C44.33 112.85 43.43 132.8 43.43 132.8C43.43 132.8 38.94 113.74 24.58 123.62C10.21 133.49 48.37 177.5 64.57 183.33Z" />
		<path id="path528" class="shp0" d="M55.1 162.97C54.65 162.97 54.26 162.64 54.2 162.19C53.55 157.6 50.59 134.57 55.73 132.13C57.84 131.13 60 133.46 60.7 134.22C61.05 134.59 61.02 135.17 60.66 135.51C60.29 135.85 59.71 135.83 59.37 135.46C58.13 134.12 57.09 133.5 56.51 133.77C53.62 135.15 54.47 151.07 56 161.94C56.07 162.43 55.72 162.9 55.22 162.96C55.18 162.97 55.14 162.97 55.1 162.97" />
		<path id="path530" class="shp0" d="M46.15 163.83C45.71 163.83 45.32 163.5 45.25 163.05C43.38 150 31.29 139.68 31.17 139.57C30.79 139.25 30.74 138.68 31.06 138.29C31.39 137.91 31.96 137.86 32.35 138.18C32.87 138.62 45.09 149.06 47.06 162.79C47.13 163.29 46.78 163.75 46.28 163.82C46.24 163.83 46.2 163.83 46.15 163.83" />
		<path id="path532" class="shp0" d="M219.37 79.95C218.97 79.95 218.6 79.68 218.49 79.27C218.36 78.79 218.65 78.29 219.14 78.16C226.76 76.12 227.18 57.04 226.64 48.37C214.28 54.27 215.33 73.09 215.35 73.29C215.38 73.79 215 74.23 214.49 74.26C214.05 74.31 213.56 73.91 213.53 73.41C213.47 72.53 212.31 51.91 227.12 46.17C227.39 46.06 227.69 46.09 227.94 46.25C228.18 46.4 228.34 46.66 228.36 46.94C228.46 48.17 230.74 76.94 219.61 79.92C219.53 79.94 219.45 79.95 219.37 79.95" />
		<path id="path534" class="shp0" d="M153.84 63.94C153.76 63.94 153.68 63.93 153.6 63.91C153.12 63.78 152.83 63.28 152.96 62.79C153.02 62.58 158.47 41.96 149.21 33.89C147.13 37.9 139.68 53.75 146.91 62.45C147.23 62.83 147.18 63.41 146.79 63.73C146.41 64.05 145.84 64 145.51 63.61C136.42 52.68 147.65 32.89 148.13 32.05C148.27 31.82 148.48 31.67 148.73 31.61C148.99 31.56 149.25 31.62 149.46 31.76C160.87 40.04 154.98 62.32 154.72 63.27C154.61 63.67 154.25 63.94 153.84 63.94" />
		<path id="path536" class="shp0" d="M130.04 116.55C129.74 116.55 129.36 116.46 128.98 116.15C126.67 114.24 126.21 103.25 126.12 99.93C126.11 99.43 126.51 99.01 127.01 99C127.51 99.03 127.93 99.38 127.94 99.88C128.14 107.31 129.15 114.11 130.15 114.75C131.2 114.38 134.29 107.47 136.74 99.64C136.89 99.16 137.4 98.89 137.88 99.04C138.37 99.19 138.63 99.7 138.48 100.18C137 104.93 133.23 116.04 130.3 116.52C130.22 116.54 130.13 116.55 130.04 116.55" />
		<path id="path538" class="shp0" d="M151.93 116.55C151.63 116.55 151.25 116.46 150.87 116.15C148.57 114.24 148.1 103.25 148.01 99.93C148 99.43 148.4 99.01 148.9 99C149.46 99.03 149.82 99.38 149.84 99.88C150.03 107.31 151.04 114.11 152.05 114.75C153.1 114.38 156.19 107.47 158.63 99.64C158.79 99.16 159.29 98.89 159.78 99.04C160.26 99.19 160.53 99.7 160.38 100.18C158.89 104.93 155.12 116.04 152.19 116.52C152.11 116.54 152.03 116.55 151.93 116.55" />
		<path id="path540" class="shp4" d="M179.7 128.78C179.7 134.36 175.18 138.88 169.6 138.88C164.03 138.88 159.51 134.36 159.51 128.78C159.51 123.2 164.03 118.68 169.6 118.68C175.18 118.68 179.7 123.2 179.7 128.78Z" />
		<path id="path542" class="shp2" d="M133.81 207.08C133.81 207.08 100.29 264.69 110.34 306.5C120.38 348.31 324.58 345.68 350.32 310.77C436.12 194.38 273.67 201.65 255.77 150.66C248.26 129.27 133.81 207.08 133.81 207.08" />
		<path id="path544" class="shp1" d="M141.46 151.23C141.46 151.23 99.43 157.42 85.9 133.4C85.9 133.4 90.05 189.79 142.9 182.4C142.9 182.4 151.25 166.86 141.46 151.23Z" />
		<path id="path546" fill-rule="evenodd" class="shp0" d="M133.69 183.98C89.22 183.98 85.02 133.98 84.99 133.47C84.96 133.05 85.22 132.66 85.63 132.53C86.05 132.41 86.48 132.59 86.69 132.96C95.55 148.68 117.4 151.03 129.64 151.03C136.43 151.03 141.28 150.33 141.33 150.32C141.68 150.28 142.04 150.43 142.23 150.74C152.19 166.64 143.79 182.67 143.71 182.83C143.57 183.08 143.32 183.26 143.03 183.3C139.82 183.75 136.67 183.98 133.69 183.98ZM133.69 182.15C136.44 182.15 139.34 181.95 142.3 181.56C143.47 179.08 149.07 165.65 140.99 152.21C139.48 152.4 135.26 152.85 129.64 152.85C117.93 152.85 97.66 150.73 87.34 137.25C89.34 148.84 98.18 182.15 133.69 182.15Z" />
		<path id="path548" class="shp2" d="M158.36 302.56C158.36 302.56 160.69 358.12 176.83 377.09L201.47 378.06C201.47 378.06 194.02 316.65 201.47 295.66L158.36 302.56Z" />
		<path id="path550" class="shp2" d="M110.86 298.85C110.86 298.85 87.5 349.31 93.17 373.56L114.62 385.71C114.62 385.71 136.11 327.7 152.34 312.44L110.86 298.85" />
		<path id="path552" class="shp2" d="M320.78 296.72C320.78 296.72 324.56 352.2 341.21 370.74L365.86 371.07C365.86 371.07 356.79 309.87 363.69 288.69L320.78 296.72Z" />
		<path id="path554" class="shp2" d="M272.47 302.56C272.47 302.56 274.8 358.12 290.94 377.09L315.58 378.06C315.58 378.06 308.13 316.65 315.58 295.66L272.47 302.56Z" />
		<path id="path556" class="shp0" d="M142.24 257.2C123.79 257.2 109.49 249.77 109.3 249.67C108.85 249.43 108.69 248.88 108.92 248.43C109.16 247.99 109.7 247.82 110.15 248.06C110.41 248.19 135.67 261.3 162.07 252.13C180.22 245.82 194.72 230.63 205.15 206.98C205.35 206.52 205.89 206.31 206.35 206.52C206.81 206.72 207.02 207.26 206.82 207.72C196.17 231.86 181.31 247.38 162.64 253.86C155.62 256.3 148.68 257.2 142.24 257.2" />
		<path id="path558" class="shp0" d="M149.45 273.09C129.24 273.09 114.87 263.47 114.61 263.29C114.19 263 114.09 262.43 114.38 262.02C114.66 261.61 115.23 261.5 115.64 261.78C116.11 262.1 162.24 292.92 205.28 241.59C205.61 241.2 206.18 241.15 206.57 241.48C206.95 241.8 207 242.37 206.68 242.76C186.74 266.54 166.11 273.09 149.45 273.09" />
		<path id="path560" fill-rule="evenodd" class="shp0" d="M384.54 230.26C384.29 230.26 384.04 230.24 383.79 230.19C382.88 230.02 380.75 229.24 380.75 225.64C380.75 221.38 380.75 215.44 382.12 210.36C381.82 210.16 381.51 209.96 381.18 209.76C376.26 206.71 371.83 206.03 368 207.73C358.71 211.87 355.59 228.67 355.56 228.84C355.47 229.33 354.99 229.65 354.5 229.57C354.01 229.48 353.68 229.01 353.77 228.52C353.9 227.79 357.08 210.6 367.26 206.06C371.66 204.1 376.67 204.82 382.14 208.21C382.33 208.33 382.51 208.44 382.68 208.55C383.69 205.73 385.22 203.31 387.56 201.79C391.28 199.36 396.53 199.61 403.16 202.53C403.62 202.74 403.83 203.27 403.62 203.73C403.42 204.19 402.88 204.4 402.42 204.2C396.4 201.54 391.73 201.24 388.55 203.31C386.48 204.67 385.13 206.93 384.24 209.61C393.37 216.16 392.3 222.34 391.34 224.81C390.13 227.94 387.15 230.26 384.54 230.26ZM382.57 225.64C382.57 226.77 382.84 228.16 384.13 228.4C385.84 228.72 388.55 226.97 389.64 224.15C390.42 222.13 391.23 217.13 383.71 211.48C382.57 216.18 382.57 221.67 382.57 225.64Z" />
		<path id="path562" class="shp0" d="M184.01 393.16C183.84 393.16 183.67 393.13 183.5 393.07C180.81 392.06 175.75 377.96 173.69 371.94C173.53 371.47 173.79 370.95 174.26 370.78C174.73 370.63 175.26 370.88 175.42 371.35C178.39 380.04 182.38 389.79 183.96 391.22C185.05 389.95 186.6 383.56 187.45 377.93C187.5 377.54 187.81 377.23 188.2 377.17C188.6 377.09 188.97 377.3 189.16 377.65C192.19 383.55 196.52 389.62 198.05 389.21C199.38 388.88 199.58 380.56 198.47 371.76C198.41 371.26 198.77 370.8 199.26 370.74C199.76 370.67 200.22 371.03 200.28 371.53C200.98 377.07 202.19 390.05 198.5 390.98C195.44 391.72 191.18 385.06 188.81 380.85C188.05 385.13 186.58 391.88 184.67 392.98C184.46 393.1 184.24 393.16 184.01 393.16" />
		<path id="path564" class="shp0" d="M105.06 394.86C104.41 394.86 103.84 394.59 103.39 394.07C101.6 391.99 102.01 385.51 102.43 381.76C99.94 383.88 95.46 387.47 92.58 388.47C91.66 388.79 91.06 388.4 90.78 388.14C88.56 386.03 91.7 374.35 93.15 369.42C93.3 368.94 93.81 368.67 94.29 368.81C94.77 368.95 95.04 369.46 94.9 369.94C92.49 378.13 91.17 385.86 92.04 386.82C95.71 385.45 102.95 378.88 103.03 378.81C103.31 378.56 103.73 378.5 104.07 378.68C104.41 378.87 104.6 379.24 104.54 379.62C103.9 383.9 103.4 391.29 104.77 392.88C104.91 393.04 105 393.04 105.06 393.04C107.33 393.04 111.68 388.22 113.89 385.17C114.18 384.76 114.75 384.68 115.16 384.97C115.57 385.27 115.66 385.84 115.36 386.24C114.72 387.12 108.99 394.86 105.06 394.86" />
		<path id="path566" class="shp0" d="M296.72 391.55C294.59 391.55 291.1 384.97 286.34 371.96C286.17 371.49 286.41 370.96 286.88 370.79C287.36 370.62 287.88 370.86 288.05 371.33C291.13 379.73 295.34 389.16 296.78 389.75C297.66 389.41 299.88 383.61 301.37 377.32C301.45 376.96 301.75 376.69 302.12 376.63C302.5 376.58 302.86 376.76 303.04 377.08C306.07 382.34 310.37 387.97 312.09 387.97C312.1 387.97 312.12 387.97 312.13 387.97C313.39 387.36 314.11 378.52 313.67 368.66C313.64 368.15 314.03 367.73 314.54 367.7C315.1 367.61 315.46 368.07 315.49 368.57C315.84 376.42 315.89 389.6 312.22 389.79C309.18 389.97 304.92 383.66 302.6 379.9C301.31 384.88 299.19 391.29 296.83 391.55C296.8 391.55 296.76 391.55 296.72 391.55" />
		<path id="path568" class="shp0" d="M348.54 384.24C348.22 384.24 347.9 384.16 347.59 384C344.38 382.25 338.37 369.14 337.69 367.65C337.49 367.19 337.69 366.65 338.15 366.45C338.6 366.24 339.15 366.44 339.35 366.9C341.81 372.31 346.45 381.3 348.46 382.39C350.24 381.68 352.43 375.13 353.48 370.7C353.56 370.36 353.83 370.1 354.17 370.02C354.5 369.94 354.86 370.07 355.08 370.34C358.93 375.11 364.06 380.09 365.7 379.82C366.71 378.98 365.83 370.78 363.73 361.92C363.61 361.44 363.92 360.94 364.41 360.83C364.9 360.7 365.39 361.01 365.5 361.5C366.14 364.19 369.21 377.75 367.21 380.78C366.84 381.36 366.35 381.55 366.01 381.61C363.11 382.12 357.61 376.18 354.81 372.88C353.88 376.33 351.82 382.97 349.38 384.06C349.1 384.18 348.82 384.24 348.54 384.24" />
		<path id="path570" class="shp0" d="M285.79 355.33C285.65 355.33 285.5 355.3 285.36 355.23C282.59 353.73 282.33 348.6 282.31 348.02C282.29 347.52 282.68 347.1 283.19 347.08C283.2 347.08 283.21 347.08 283.22 347.08C283.71 347.08 284.11 347.46 284.13 347.95C284.18 349.16 284.65 352.78 286.23 353.62C286.67 353.86 286.84 354.41 286.6 354.86C286.43 355.16 286.12 355.33 285.79 355.33" />
		<path id="path572" class="shp0" d="M284.51 343.33C284.36 343.33 284.21 343.29 284.08 343.22C281.3 341.73 281.04 336.59 281.02 336.01C281 335.51 281.39 335.09 281.9 335.07C281.91 335.07 281.92 335.07 281.93 335.07C282.42 335.07 282.82 335.46 282.84 335.95C282.89 337.15 283.37 340.77 284.94 341.61C285.38 341.85 285.55 342.4 285.31 342.85C285.15 343.15 284.83 343.33 284.51 343.33" />
		<path id="path574" class="shp0" d="M292.53 346.55C292.39 346.55 292.24 346.51 292.1 346.44C289.34 344.95 289.07 339.81 289.05 339.23C289.03 338.73 289.43 338.31 289.93 338.29C289.94 338.29 289.95 338.29 289.96 338.29C290.45 338.29 290.86 338.67 290.87 339.16C290.92 340.37 291.4 343.99 292.97 344.83C293.41 345.07 293.58 345.62 293.34 346.07C293.17 346.37 292.86 346.55 292.53 346.55" />
		<path id="path576" class="shp0" d="M224.02 331.34C222.33 331.34 220.82 330.98 220.53 330.91C220.04 330.79 219.74 330.29 219.86 329.81C219.98 329.32 220.47 329.02 220.97 329.14C222.14 329.43 225.75 329.97 226.99 328.7C227.34 328.34 227.92 328.33 228.28 328.68C228.64 329.03 228.65 329.61 228.29 329.97C227.25 331.04 225.56 331.34 224.02 331.34" />
		<path id="path578" class="shp0" d="M233.96 322.22C232.27 322.22 230.76 321.86 230.47 321.79C229.98 321.66 229.68 321.17 229.8 320.68C229.92 320.19 230.41 319.9 230.91 320.02C232.08 320.31 235.69 320.85 236.93 319.57C237.29 319.21 237.86 319.21 238.22 319.56C238.58 319.91 238.59 320.49 238.24 320.85C237.18 321.92 235.5 322.22 233.96 322.22" />
		<path id="path580" class="shp0" d="M238.83 331.65C237.15 331.65 235.64 331.29 235.34 331.22C234.86 331.1 234.56 330.6 234.68 330.12C234.8 329.63 235.3 329.33 235.78 329.45C236.95 329.74 240.56 330.28 241.81 329C242.16 328.64 242.74 328.64 243.1 328.99C243.46 329.34 243.46 329.92 243.11 330.28C242.06 331.35 240.37 331.65 238.83 331.65" />
		<path id="path582" class="shp0" d="M219.34 324C217.65 324 216.15 323.64 215.85 323.57C215.36 323.45 215.07 322.96 215.19 322.47C215.31 321.98 215.8 321.68 216.29 321.8C217.46 322.09 221.07 322.63 222.32 321.35C222.67 320.99 223.25 320.99 223.61 321.34C223.97 321.69 223.97 322.27 223.62 322.63C222.57 323.7 220.88 324 219.34 324" />
		<path id="path584" class="shp0" d="M208.12 330.8C206.43 330.8 204.92 330.44 204.63 330.37C204.14 330.25 203.84 329.75 203.96 329.26C204.08 328.77 204.59 328.48 205.07 328.6C206.24 328.89 209.85 329.43 211.09 328.15C211.44 327.79 212.02 327.79 212.38 328.14C212.74 328.49 212.75 329.07 212.39 329.43C211.34 330.5 209.66 330.8 208.12 330.8" />
		<path id="path586" class="shp0" d="M247.69 324.54C246 324.54 244.49 324.19 244.2 324.12C243.71 323.99 243.41 323.5 243.53 323.01C243.65 322.52 244.15 322.23 244.64 322.35C245.81 322.64 249.42 323.18 250.66 321.9C251.01 321.54 251.59 321.54 251.95 321.89C252.31 322.24 252.32 322.82 251.97 323.17C250.91 324.25 249.23 324.54 247.69 324.54" />
		<path id="path588" class="shp0" d="M252.44 332.19C250.75 332.19 249.25 331.84 248.95 331.77C248.46 331.64 248.17 331.15 248.29 330.66C248.41 330.17 248.91 329.88 249.39 330C250.56 330.29 254.17 330.82 255.42 329.55C255.77 329.19 256.34 329.18 256.7 329.53C257.06 329.89 257.07 330.46 256.72 330.82C255.67 331.9 253.98 332.19 252.44 332.19" />
		<path id="path590" class="shp0" d="M263.17 326.69C261.48 326.69 259.97 326.34 259.68 326.26C259.19 326.14 258.89 325.65 259.01 325.16C259.13 324.67 259.62 324.37 260.12 324.49C261.29 324.78 264.89 325.32 266.14 324.05C266.49 323.68 267.07 323.68 267.43 324.03C267.79 324.38 267.8 324.96 267.45 325.32C266.4 326.39 264.71 326.69 263.17 326.69" />
		<path id="path592" class="shp0" d="M327.38 209.51C327.15 209.51 326.92 209.42 326.74 209.25C325.88 208.41 323.04 206.11 321.32 206.59C320.83 206.72 320.33 206.43 320.2 205.95C320.07 205.46 320.35 204.96 320.84 204.83C323.89 204 327.6 207.54 328.02 207.95C328.38 208.3 328.38 208.88 328.03 209.24C327.85 209.42 327.62 209.51 327.38 209.51" />
		<path id="path594" class="shp0" d="M314.57 209.51C314.34 209.51 314.11 209.42 313.93 209.25C313.07 208.41 310.23 206.11 308.5 206.59C308.02 206.72 307.52 206.43 307.39 205.95C307.25 205.46 307.54 204.96 308.03 204.83C311.08 204 314.79 207.54 315.2 207.95C315.56 208.3 315.57 208.88 315.22 209.24C315.04 209.42 314.8 209.51 314.57 209.51" />
		<path id="path596" class="shp0" d="M313.42 199.48C313.19 199.48 312.96 199.4 312.78 199.23C311.92 198.38 309.08 196.08 307.36 196.56C306.87 196.69 306.37 196.41 306.24 195.92C306.11 195.43 306.4 194.93 306.88 194.8C309.91 193.98 313.64 197.52 314.06 197.92C314.42 198.27 314.42 198.85 314.07 199.21C313.89 199.39 313.66 199.48 313.42 199.48" />
		<path id="path598" class="shp0" d="M296.97 203.44C296.74 203.44 296.51 203.35 296.33 203.18C295.47 202.34 292.63 200.04 290.91 200.52C290.42 200.65 289.92 200.36 289.79 199.88C289.66 199.39 289.95 198.89 290.43 198.76C293.48 197.93 297.2 201.47 297.61 201.88C297.97 202.23 297.97 202.81 297.62 203.17C297.44 203.35 297.21 203.44 296.97 203.44" />
		<path id="path600" class="shp0" d="M298.66 192.94C298.43 192.94 298.2 192.86 298.02 192.69C297.16 191.84 294.31 189.55 292.6 190.02C292.11 190.15 291.61 189.86 291.48 189.38C291.35 188.9 291.63 188.39 292.12 188.26C295.17 187.44 298.88 190.98 299.29 191.38C299.65 191.73 299.66 192.31 299.31 192.67C299.13 192.85 298.89 192.94 298.66 192.94" />
		<path id="path602" class="shp0" d="M286.67 194.44C286.44 194.44 286.21 194.35 286.03 194.18C285.17 193.34 282.33 191.04 280.61 191.51C280.12 191.65 279.62 191.36 279.49 190.88C279.36 190.39 279.64 189.89 280.13 189.75C283.18 188.93 286.89 192.47 287.3 192.87C287.66 193.23 287.67 193.8 287.32 194.16C287.14 194.34 286.9 194.44 286.67 194.44" />
		<path id="path604" class="shp0" d="M327.38 220.13C327.15 220.13 326.92 220.04 326.74 219.87C325.88 219.03 323.04 216.74 321.32 217.21C320.83 217.34 320.33 217.05 320.2 216.57C320.07 216.08 320.35 215.58 320.84 215.45C323.89 214.62 327.6 218.16 328.02 218.57C328.38 218.92 328.38 219.5 328.03 219.86C327.85 220.04 327.62 220.13 327.38 220.13" />
		<path id="path606" class="shp0" d="M340.4 212.49C340.17 212.49 339.94 212.41 339.77 212.23C338.91 211.39 336.05 209.11 334.34 209.57C333.85 209.7 333.36 209.41 333.23 208.93C333.09 208.44 333.38 207.94 333.87 207.81C336.91 206.99 340.63 210.53 341.04 210.93C341.4 211.28 341.41 211.86 341.06 212.22C340.88 212.4 340.64 212.49 340.4 212.49" />
		<path id="path608" class="shp0" d="M343.55 221.62C343.32 221.62 343.1 221.53 342.92 221.36C342.06 220.52 339.22 218.23 337.5 218.7C337.01 218.83 336.51 218.54 336.37 218.06C336.24 217.57 336.53 217.07 337.01 216.94C340.07 216.11 343.78 219.65 344.19 220.06C344.55 220.41 344.56 220.99 344.21 221.35C344.03 221.53 343.79 221.62 343.55 221.62" />
		<path id="path610" class="shp0" d="M306.17 213.99C305.94 213.99 305.71 213.9 305.53 213.73C304.68 212.89 301.84 210.59 300.11 211.06C299.62 211.2 299.13 210.91 298.99 210.42C298.86 209.94 299.15 209.44 299.63 209.3C302.69 208.48 306.4 212.02 306.81 212.42C307.17 212.78 307.18 213.35 306.82 213.71C306.65 213.9 306.41 213.99 306.17 213.99" />
		<path id="path612" class="shp0" d="M102.91 220.44C101.07 220.44 99.36 219.98 99.05 219.89C98.56 219.76 98.28 219.25 98.42 218.77C98.56 218.28 99.07 217.99 99.55 218.14C100.71 218.47 104.29 219.13 105.58 217.9C105.95 217.55 106.53 217.56 106.87 217.93C107.22 218.29 107.21 218.87 106.84 219.22C105.85 220.17 104.34 220.44 102.91 220.44Z" />
		<path id="path614" class="shp0" d="M96.7 225.48C94.52 225.48 92.29 224.62 91.94 224.48C91.47 224.29 91.24 223.77 91.43 223.3C91.62 222.83 92.15 222.6 92.61 222.79C93.73 223.23 97.23 224.26 98.64 223.17C99.04 222.86 99.61 222.93 99.92 223.33C100.23 223.72 100.16 224.3 99.76 224.6C98.92 225.26 97.82 225.48 96.7 225.48Z" />
		<path id="path616" class="shp0" d="M90.78 215.93C88.94 215.93 87.23 215.46 86.92 215.37C86.44 215.24 86.16 214.73 86.29 214.25C86.43 213.76 86.94 213.47 87.42 213.62C88.58 213.95 92.17 214.61 93.46 213.38C93.82 213.03 94.4 213.04 94.74 213.41C95.09 213.77 95.08 214.35 94.72 214.7C93.72 215.65 92.21 215.93 90.78 215.93Z" />
		<path id="path618" class="shp0" d="M112.07 213.84C110.23 213.84 108.52 213.37 108.21 213.28C107.72 213.14 107.44 212.64 107.58 212.16C107.72 211.67 108.23 211.39 108.71 211.53C109.86 211.86 113.45 212.52 114.74 211.29C115.11 210.94 115.69 210.96 116.03 211.32C116.38 211.68 116.37 212.26 116 212.61C115.01 213.56 113.5 213.84 112.07 213.84Z" />
		<path id="path620" class="shp0" d="M112.07 224.01C110.23 224.01 108.52 223.54 108.21 223.45C107.72 223.31 107.44 222.81 107.58 222.33C107.72 221.84 108.23 221.55 108.71 221.7C109.86 222.02 113.45 222.69 114.74 221.46C115.11 221.11 115.69 221.12 116.03 221.49C116.38 221.85 116.37 222.43 116 222.77C115.01 223.72 113.5 224.01 112.07 224.01Z" />
		<path id="path622" class="shp0" d="M121.23 216.9C119.39 216.9 117.68 216.44 117.37 216.34C116.89 216.21 116.6 215.7 116.74 215.22C116.88 214.74 117.39 214.44 117.87 214.59C119.02 214.92 122.62 215.58 123.91 214.35C124.27 214 124.85 214.02 125.19 214.38C125.54 214.74 125.53 215.32 125.17 215.67C124.17 216.62 122.66 216.9 121.23 216.9" />
		<path id="path624" class="shp0" d="M124.82 210.88C124.34 210.88 123.94 210.51 123.91 210.03C123.88 209.52 124.26 209.09 124.76 209.05C125.95 208.97 129.56 208.37 130.35 206.78C130.57 206.33 131.13 206.14 131.57 206.37C132.02 206.59 132.21 207.14 131.98 207.59C130.58 210.41 125.46 210.84 124.88 210.87C124.86 210.88 124.84 210.88 124.82 210.88Z" />
		<path id="path626" class="shp0" d="M197.45 77.9C197.33 77.9 197.21 77.87 197.09 77.82C195.99 77.34 192.52 76.2 191.08 77.25C190.67 77.54 190.1 77.46 189.8 77.05C189.51 76.64 189.6 76.07 190.01 75.77C192.55 73.93 197.29 75.92 197.82 76.15C198.28 76.35 198.49 76.89 198.29 77.35C198.14 77.69 197.8 77.9 197.45 77.9Z" />
		<path id="path628" class="shp0" d="M169.6 80.49C169.48 80.49 169.36 80.47 169.24 80.41C168.14 79.93 164.67 78.8 163.23 79.84C162.82 80.14 162.25 80.05 161.95 79.64C161.66 79.23 161.75 78.66 162.16 78.37C164.7 76.51 169.44 78.51 169.97 78.74C170.43 78.95 170.64 79.48 170.44 79.94C170.29 80.28 169.95 80.49 169.6 80.49" />
		<path id="path630" class="shp0" d="M168.98 72.56C168.86 72.56 168.74 72.54 168.62 72.49C167.52 72.01 164.05 70.87 162.61 71.92C162.2 72.21 161.63 72.12 161.33 71.71C161.04 71.31 161.13 70.74 161.54 70.44C164.08 68.59 168.82 70.58 169.35 70.82C169.81 71.02 170.02 71.56 169.82 72.02C169.67 72.36 169.34 72.56 168.98 72.56" />
		<path id="path632" class="shp0" d="M184.51 83.72C184.39 83.72 184.27 83.69 184.15 83.64C183.05 83.16 179.58 82.03 178.13 83.07C177.73 83.36 177.16 83.27 176.86 82.87C176.57 82.46 176.66 81.89 177.06 81.59C179.61 79.74 184.35 81.74 184.88 81.97C185.34 82.17 185.55 82.71 185.35 83.17C185.2 83.51 184.86 83.72 184.51 83.72" />
		<path id="path634" class="shp0" d="M183.16 73.64C183.04 73.64 182.91 73.62 182.8 73.57C181.69 73.08 178.22 71.95 176.78 72.99C176.38 73.29 175.8 73.2 175.51 72.79C175.21 72.38 175.3 71.81 175.71 71.52C178.26 69.67 182.99 71.66 183.53 71.9C183.99 72.1 184.2 72.63 184 73.1C183.85 73.44 183.51 73.64 183.16 73.64" />
		<path id="path636" class="shp0" d="M148.93 76.03C148.69 76.03 148.45 75.94 148.27 75.75C147.92 75.39 147.93 74.81 148.29 74.46C150.56 72.28 155.53 73.59 156.09 73.74C156.57 73.88 156.85 74.38 156.72 74.87C156.58 75.35 156.07 75.63 155.59 75.5C154.44 75.18 150.85 74.54 149.56 75.77C149.38 75.94 149.15 76.03 148.93 76.03Z" />
		<path id="path638" class="shp0" d="M292.53 364.34C292.39 364.34 292.24 364.31 292.1 364.24C289.34 362.75 289.07 357.61 289.05 357.03C289.03 356.53 289.43 356.11 289.93 356.09C289.94 356.09 289.95 356.09 289.96 356.09C290.45 356.09 290.86 356.47 290.87 356.96C290.92 358.17 291.4 361.79 292.97 362.63C293.41 362.87 293.58 363.42 293.34 363.87C293.17 364.17 292.86 364.34 292.53 364.34Z" />
		<path id="path640" class="shp0" d="M293.82 355.33C293.68 355.33 293.53 355.3 293.39 355.23C290.62 353.73 290.36 348.6 290.34 348.02C290.32 347.52 290.71 347.1 291.22 347.08C291.23 347.08 291.24 347.08 291.25 347.08C291.74 347.08 292.14 347.46 292.16 347.95C292.21 349.16 292.69 352.78 294.26 353.62C294.7 353.86 294.86 354.41 294.63 354.86C294.46 355.16 294.15 355.33 293.82 355.33" />
		<path id="path642" class="shp0" d="M333.87 346.32C333.72 346.32 333.57 346.29 333.44 346.21C330.67 344.72 330.41 339.59 330.39 339.01C330.37 338.5 330.76 338.08 331.26 338.06C331.82 338.01 332.19 338.44 332.21 338.94C332.25 340.14 332.73 343.76 334.3 344.61C334.75 344.85 334.91 345.4 334.67 345.84C334.51 346.15 334.19 346.32 333.87 346.32Z" />
		<path id="path644" class="shp0" d="M332.58 334.32C332.44 334.32 332.29 334.28 332.15 334.21C329.38 332.72 329.12 327.58 329.1 327C329.08 326.5 329.47 326.08 329.98 326.06C329.99 326.06 330 326.06 330.01 326.06C330.5 326.06 330.9 326.44 330.92 326.94C330.97 328.14 331.45 331.75 333.02 332.6C333.46 332.84 333.63 333.39 333.39 333.84C333.22 334.14 332.91 334.32 332.58 334.32" />
		<path id="path646" class="shp0" d="M340.62 337.53C340.47 337.53 340.32 337.5 340.18 337.43C337.41 335.93 337.15 330.8 337.13 330.22C337.11 329.72 337.51 329.3 338.01 329.28C338.02 329.28 338.03 329.28 338.04 329.28C338.53 329.28 338.93 329.66 338.95 330.15C339 331.36 339.48 334.97 341.05 335.82C341.49 336.06 341.66 336.61 341.42 337.05C341.25 337.36 340.94 337.53 340.62 337.53Z" />
		<path id="path648" class="shp0" d="M340.62 355.33C340.47 355.33 340.32 355.3 340.18 355.23C337.41 353.73 337.15 348.6 337.13 348.02C337.11 347.52 337.51 347.1 338.01 347.08C338.02 347.08 338.03 347.08 338.04 347.08C338.53 347.08 338.93 347.46 338.95 347.95C339 349.16 339.48 352.78 341.05 353.62C341.49 353.86 341.66 354.41 341.42 354.86C341.25 355.16 340.94 355.33 340.62 355.33" />
		<path id="path650" class="shp0" d="M341.9 346.32C341.76 346.32 341.61 346.29 341.47 346.21C338.7 344.72 338.44 339.59 338.42 339.01C338.4 338.5 338.79 338.08 339.29 338.06C339.88 338.01 340.22 338.44 340.24 338.94C340.28 340.14 340.77 343.76 342.33 344.61C342.78 344.85 342.94 345.4 342.7 345.84C342.54 346.15 342.23 346.32 341.9 346.32Z" />
		<path id="path652" class="shp0" d="M173.31 355.18C173.16 355.18 173 355.14 172.86 355.05C170.13 353.48 170.02 348.34 170.02 347.76C170.02 347.26 170.42 346.85 170.92 346.84C170.93 346.84 170.93 346.84 170.93 346.84C171.43 346.84 171.84 347.25 171.84 347.75C171.85 348.95 172.22 352.58 173.77 353.48C174.2 353.73 174.35 354.28 174.1 354.72C173.93 355.01 173.63 355.18 173.31 355.18" />
		<path id="path654" class="shp0" d="M172.38 343.14C172.23 343.14 172.07 343.1 171.93 343.01C169.2 341.44 169.09 336.3 169.09 335.72C169.09 335.22 169.49 334.81 170 334.8C170 334.8 170 334.8 170 334.8C170.5 334.8 170.91 335.21 170.91 335.71C170.92 336.91 171.29 340.54 172.84 341.44C173.28 341.69 173.42 342.24 173.17 342.68C173.01 342.97 172.7 343.14 172.38 343.14Z" />
		<path id="path656" class="shp0" d="M180.31 346.59C180.16 346.59 180 346.55 179.86 346.47C177.13 344.9 177.03 339.76 177.02 339.18C177.02 338.67 177.42 338.26 177.93 338.26C177.93 338.26 177.93 338.26 177.93 338.26C178.43 338.26 178.84 338.66 178.84 339.17C178.85 340.37 179.23 344 180.77 344.89C181.21 345.14 181.36 345.7 181.1 346.14C180.94 346.43 180.63 346.59 180.31 346.59Z" />
		<path id="path658" class="shp0" d="M179.78 364.39C179.63 364.39 179.47 364.35 179.33 364.26C176.6 362.69 176.49 357.55 176.49 356.97C176.49 356.47 176.89 356.06 177.4 356.05C177.84 356.09 178.31 356.46 178.31 356.96C178.32 358.16 178.69 361.79 180.24 362.69C180.67 362.94 180.82 363.49 180.57 363.93C180.4 364.22 180.1 364.39 179.78 364.39" />
		<path id="path660" class="shp0" d="M181.34 355.42C181.18 355.42 181.02 355.38 180.88 355.29C178.16 353.72 178.05 348.58 178.05 348C178.04 347.5 178.45 347.09 178.95 347.08C178.95 347.08 178.96 347.08 178.96 347.08C179.46 347.08 179.87 347.49 179.87 347.99C179.88 349.19 180.25 352.82 181.79 353.72C182.23 353.97 182.38 354.53 182.13 354.96C181.96 355.25 181.65 355.42 181.34 355.42" />
		<path id="path662" class="shp0" d="M103.82 336.01C103.51 336.01 103.2 335.85 103.03 335.56C101.44 332.85 103.88 328.32 104.17 327.82C104.41 327.38 104.97 327.22 105.41 327.47C105.85 327.71 106 328.27 105.76 328.71C105.17 329.76 103.7 333.1 104.6 334.64C104.86 335.07 104.71 335.63 104.28 335.89C104.13 335.97 103.98 336.01 103.82 336.01" />
		<path id="path664" class="shp0" d="M108.96 325.08C108.64 325.08 108.34 324.92 108.17 324.63C106.58 321.92 109.02 317.4 109.3 316.89C109.55 316.45 110.11 316.3 110.54 316.54C110.98 316.78 111.14 317.34 110.89 317.78C110.31 318.83 108.84 322.17 109.74 323.71C110 324.14 109.85 324.7 109.42 324.96C109.27 325.04 109.11 325.08 108.96 325.08" />
		<path id="path666" class="shp0" d="M114.15 332C113.84 332 113.53 331.84 113.36 331.55C111.77 328.84 114.21 324.32 114.5 323.81C114.74 323.37 115.3 323.22 115.74 323.46C116.17 323.71 116.33 324.26 116.09 324.7C115.5 325.75 114.03 329.09 114.93 330.63C115.19 331.07 115.04 331.63 114.61 331.88C114.46 331.96 114.3 332 114.15 332" />
		<path id="path668" class="shp0" d="M104.9 347.22C104.59 347.22 104.28 347.06 104.11 346.77C102.52 344.05 104.97 339.53 105.25 339.02C105.49 338.58 106.05 338.43 106.49 338.67C106.93 338.92 107.09 339.47 106.84 339.91C106.25 340.96 104.78 344.31 105.69 345.84C105.94 346.28 105.8 346.84 105.36 347.09C105.22 347.17 105.05 347.22 104.9 347.22Z" />
		<path id="path670" class="shp0" d="M110.68 340.18C110.37 340.18 110.06 340.02 109.89 339.73C108.3 337.02 110.75 332.5 111.03 331.99C111.28 331.55 111.83 331.39 112.27 331.64C112.71 331.89 112.87 332.44 112.62 332.88C112.03 333.93 110.56 337.27 111.47 338.81C111.72 339.24 111.58 339.8 111.14 340.06C111 340.14 110.84 340.18 110.68 340.18" />
	</g>
</svg>