<svg xmlns="http://www.w3.org/2000/svg" viewBox="0 0 417 440" width="250" height="264">
	<style>
		tspan { white-space:pre }
		.shp0 { fill: #fac009 } 
		.shp1 { fill: none;stroke: #ffffff;stroke-width: 8.169 } 
	</style>
	<path id="path54" class="shp0" d="M412 226C352.72 245.98 348.67 265.02 395.97 305.41C334.02 299.64 323.42 315.24 352.25 370.25C297.24 341.42 281.64 352.02 287.41 413.97C247.02 366.67 227.98 370.72 208 430C188.02 370.72 168.98 366.67 128.59 413.97C134.35 352.02 118.76 341.42 63.75 370.25C92.57 315.24 81.98 299.64 20.03 305.41C67.33 265.02 63.28 245.98 4 226C63.28 206.02 67.33 186.98 20.03 146.59C81.98 152.35 92.57 136.76 63.75 81.75C118.76 110.57 134.35 99.98 128.59 38.03C168.98 85.33 188.02 81.28 208 22C227.98 81.28 247.02 85.33 287.41 38.03C281.64 99.98 297.24 110.57 352.25 81.75C323.42 136.76 334.02 152.35 395.97 146.59C348.67 186.98 352.72 206.02 412 226" />
	<path id="path56" class="shp0" d="M349.08 226C349.08 303.91 285.91 367.08 208 367.08C130.08 367.08 66.92 303.91 66.92 226C66.92 148.08 130.08 84.92 208 84.92C285.91 84.92 349.08 148.08 349.08 226" />
	<path id="path58" class="shp1" d="M349.08 226C349.08 303.91 285.91 367.08 208 367.08C130.08 367.08 66.92 303.91 66.92 226C66.92 148.08 130.08 84.92 208 84.92C285.91 84.92 349.08 148.08 349.08 226L349.08 226Z" />
</svg>