<svg xmlns="http://www.w3.org/2000/svg" viewBox="0 0 1000 667" width="1000" height="667">
	<style>
		tspan { white-space:pre }
		.shp0 { fill: #fddeb1 } 
		.shp1 { fill: #f4c88d } 
		.shp2 { fill: #f68aa2 } 
		.shp3 { fill: #213643 } 
		.shp4 { fill: #f78d17 } 
		.shp5 { fill: #349bb9 } 
		.shp6 { fill: #ffffff } 
		.shp7 { fill: #bf303c } 
		.shp8 { fill: #8d4328 } 
		.shp9 { fill: #ba603e } 
		.shp10 { fill: #753621 } 
		.shp11 { fill: #3e3f42 } 
		.shp12 { fill: #f2506b } 
		.shp13 { fill: #1f6b89 } 
		.shp14 { fill: #a3dbe2 } 
		.shp15 { fill: #72c4d4 } 
		.shp16 { fill: #6d7173 } 
		.shp17 { fill: #2c2d2f } 
		.shp18 { fill: #181919 } 
		.shp19 { fill: #879c3a } 
		.shp20 { fill: #50a288 } 
		.shp21 { fill: #182832 } 
		.shp22 { fill: #c3c5c2 } 
		.shp23 { fill: #df7381 } 
		.txt24 { font-size: 33px;fill: #ffffff;font-family: "' Open  Sans'" } 
		.shp25 { fill: #616264 } 
		.shp26 { fill: #4a4b4d } 
		.shp27 { fill: #c2ac8c } 
		.shp28 { fill: #bc9d71 } 
		.shp29 { opacity: 0.459;fill: #202f55 } 
	</style>
	<g id="g10">
		<g id="g12">
			<path id="path18" class="shp0" d="M126.14 574.95L877.31 574.95C877.31 574.95 904.68 546.34 897.84 505.29C890.99 464.24 847.21 449.19 822.58 416.35C797.95 383.51 766.48 316.7 667.97 297.43C569.45 278.16 513.17 265.22 455.8 214.22C398.42 163.23 325.56 127.24 225.62 179.71C102.42 244.41 78.25 459.55 126.14 574.95Z" />
			<path id="path20" class="shp1" d="M894.45 545.07C869.84 528.26 833.82 520.72 790.47 521.62C750.49 522.44 729.14 446.01 647.28 423.9C618.04 416 585.31 418.81 551.83 421.61C491.57 426.66 428.84 431.71 379.54 374.37C309.09 292.43 229.9 275.83 124.15 311.95C94.59 399.27 97.23 505.28 126.14 574.95L877.31 574.95C877.31 574.95 888.11 563.65 894.45 545.07Z" />
			<path id="path22" class="shp1" d="M103.18 575.68L906.96 575.68L906.96 574.22L103.18 574.22L103.18 575.68Z" />
			<path id="path24" class="shp2" d="M756.9 262.65C756.9 354.52 682.42 428.99 590.56 428.99C498.69 428.99 424.22 354.52 424.22 262.65C424.22 170.79 498.69 96.31 590.56 96.31C682.42 96.31 756.9 170.79 756.9 262.65" />
			<path id="path26" class="shp3" d="M771.13 206.5L615.51 206.5C610.96 206.5 607.26 202.81 607.26 198.25L607.26 92.68C607.26 88.13 610.96 84.43 615.51 84.43L771.13 84.43C775.69 84.43 779.39 88.13 779.39 92.68L779.39 198.25C779.39 202.81 775.69 206.5 771.13 206.5Z" />
			<path id="path28" class="shp4" d="M663.65 99.79L629.17 99.79C627.94 99.79 626.94 98.8 626.94 97.57L626.94 97.29C626.94 96.06 627.94 95.07 629.17 95.07L663.65 95.07C664.88 95.07 665.87 96.06 665.87 97.29L665.87 97.57C665.87 98.8 664.88 99.79 663.65 99.79Z" />
			<path id="path30" class="shp4" d="M673.77 113.83L639.29 113.83C638.07 113.83 637.07 112.83 637.07 111.61L637.07 111.33C637.07 110.1 638.07 109.1 639.29 109.1L673.77 109.1C675 109.1 676 110.1 676 111.33L676 111.61C676 112.83 675 113.83 673.77 113.83" />
			<path id="path32" class="shp5" d="M761.84 113.83L683.37 113.83C682.14 113.83 681.14 112.83 681.14 111.61L681.14 111.33C681.14 110.1 682.14 109.1 683.37 109.1L761.84 109.1C763.07 109.1 764.06 110.1 764.06 111.33L764.06 111.61C764.06 112.83 763.07 113.83 761.84 113.83" />
			<path id="path34" class="shp4" d="M693.32 123.81L639.29 123.81C638.07 123.81 637.07 122.82 637.07 121.59L637.07 121.31C637.07 120.08 638.07 119.09 639.29 119.09L693.32 119.09C694.55 119.09 695.55 120.08 695.55 121.31L695.55 121.59C695.55 122.82 694.55 123.81 693.32 123.81Z" />
			<path id="path36" class="shp2" d="M761.84 123.81L707.81 123.81C706.58 123.81 705.59 122.82 705.59 121.59L705.59 121.31C705.59 120.08 706.58 119.09 707.81 119.09L761.84 119.09C763.07 119.09 764.06 120.08 764.06 121.31L764.06 121.59C764.06 122.82 763.07 123.81 761.84 123.81Z" />
			<path id="path38" class="shp4" d="M710.03 133.8L639.29 133.8C638.07 133.8 637.07 132.81 637.07 131.58L637.07 131.3C637.07 130.07 638.07 129.07 639.29 129.07L710.03 129.07C711.26 129.07 712.25 130.07 712.25 131.3L712.25 131.58C712.25 132.81 711.26 133.8 710.03 133.8Z" />
			<path id="path40" class="shp2" d="M761.7 133.8L729.53 133.8C728.23 133.8 727.17 132.74 727.17 131.44C727.17 130.13 728.23 129.07 729.53 129.07L761.7 129.07C763.01 129.07 764.06 130.13 764.06 131.44C764.06 132.74 763.01 133.8 761.7 133.8Z" />
			<path id="path42" class="shp6" d="M631.67 111.47C631.67 112.77 630.61 113.83 629.31 113.83C628 113.83 626.94 112.77 626.94 111.47C626.94 110.16 628 109.1 629.31 109.1C630.61 109.1 631.67 110.16 631.67 111.47Z" />
			<path id="path44" class="shp6" d="M631.67 121.45C631.67 122.76 630.61 123.81 629.31 123.81C628 123.81 626.94 122.76 626.94 121.45C626.94 120.15 628 119.09 629.31 119.09C630.61 119.09 631.67 120.15 631.67 121.45Z" />
			<path id="path46" class="shp6" d="M631.67 131.44C631.67 132.74 630.61 133.8 629.31 133.8C628 133.8 626.94 132.74 626.94 131.44C626.94 130.13 628 129.07 629.31 129.07C630.61 129.07 631.67 130.13 631.67 131.44Z" />
			<path id="path48" class="shp7" d="M691.81 141.98L628.46 141.98C627.63 141.98 626.94 141.3 626.94 140.46C626.94 139.62 627.63 138.94 628.46 138.94L691.81 138.94C692.64 138.94 693.32 139.62 693.32 140.46C693.32 141.3 692.64 141.98 691.81 141.98Z" />
			<path id="path50" class="shp4" d="M673.77 164.23L639.29 164.23C638.07 164.23 637.07 163.23 637.07 162.01L637.07 161.72C637.07 160.5 638.07 159.5 639.29 159.5L673.77 159.5C675 159.5 676 160.5 676 161.72L676 162.01C676 163.23 675 164.23 673.77 164.23" />
			<path id="path52" class="shp5" d="M709.05 164.23L683.51 164.23C682.2 164.23 681.14 163.17 681.14 161.86C681.14 160.56 682.2 159.5 683.51 159.5L709.05 159.5C710.35 159.5 711.41 160.56 711.41 161.86C711.41 163.17 710.35 164.23 709.05 164.23Z" />
			<path id="path54" class="shp4" d="M674.89 174.21L639.29 174.21C638.07 174.21 637.07 173.22 637.07 171.99L637.07 171.71C637.07 170.48 638.07 169.49 639.29 169.49L674.89 169.49C676.11 169.49 677.11 170.48 677.11 171.71L677.11 171.99C677.11 173.22 676.11 174.21 674.89 174.21Z" />
			<path id="path56" class="shp2" d="M761.84 174.21L683.37 174.21C682.14 174.21 681.14 173.22 681.14 171.99L681.14 171.71C681.14 170.48 682.14 169.49 683.37 169.49L761.84 169.49C763.07 169.49 764.06 170.48 764.06 171.71L764.06 171.99C764.06 173.22 763.07 174.21 761.84 174.21" />
			<path id="path58" class="shp4" d="M710.03 184.2L639.29 184.2C638.07 184.2 637.07 183.2 637.07 181.98L637.07 181.7C637.07 180.47 638.07 179.47 639.29 179.47L710.03 179.47C711.26 179.47 712.25 180.47 712.25 181.7L712.25 181.98C712.25 183.2 711.26 184.2 710.03 184.2Z" />
			<path id="path60" class="shp2" d="M761.7 184.2L720.89 184.2C719.59 184.2 718.53 183.14 718.53 181.84C718.53 180.53 719.59 179.47 720.89 179.47L761.7 179.47C763.01 179.47 764.06 180.53 764.06 181.84C764.06 183.14 763.01 184.2 761.7 184.2Z" />
			<path id="path62" class="shp6" d="M631.67 161.86C631.67 163.17 630.61 164.23 629.31 164.23C628 164.23 626.94 163.17 626.94 161.86C626.94 160.56 628 159.5 629.31 159.5C630.61 159.5 631.67 160.56 631.67 161.86Z" />
			<path id="path64" class="shp6" d="M631.67 171.85C631.67 173.16 630.61 174.21 629.31 174.21C628 174.21 626.94 173.16 626.94 171.85C626.94 170.55 628 169.49 629.31 169.49C630.61 169.49 631.67 170.55 631.67 171.85Z" />
			<path id="path66" class="shp6" d="M631.67 181.84C631.67 183.14 630.61 184.2 629.31 184.2C628 184.2 626.94 183.14 626.94 181.84C626.94 180.53 628 179.47 629.31 179.47C630.61 179.47 631.67 180.53 631.67 181.84Z" />
			<path id="path68" class="shp7" d="M691.81 192.38L628.46 192.38C627.63 192.38 626.94 191.7 626.94 190.86C626.94 190.02 627.63 189.34 628.46 189.34L691.81 189.34C692.64 189.34 693.32 190.02 693.32 190.86C693.32 191.7 692.64 192.38 691.81 192.38Z" />
			<path id="path70" class="shp8" d="M642.92 466.07L634.21 466.07L632.86 394.42L644.27 394.42L642.92 466.07" />
			<path id="path72" class="shp9" d="M676.65 475.02L600.48 475.02L600.48 463.74L676.65 463.74L676.65 475.02Z" />
			<path id="path74" class="shp8" d="M661.7 399.39L682.64 575.63L691.6 575.63L675.79 399.39L661.7 399.39Z" />
			<path id="path76" class="shp8" d="M615.42 399.39L594.49 575.63L585.53 575.63L601.34 399.39L615.42 399.39Z" />
			<path id="path78" class="shp10" d="M644.27 394.42L632.86 394.42L633.24 414.72L643.91 413.12L644.27 394.42Z" />
			<path id="path80" class="shp10" d="M613.25 417.72L615.42 399.39L601.34 399.39L599.51 419.78L613.25 417.72Z" />
			<path id="path82" class="shp10" d="M675.79 399.39L661.7 399.39L662.99 410.26L676.58 408.23L675.79 399.39Z" />
			<path id="path84" class="shp11" d="M681.62 399.39L595.5 399.39C592.6 399.39 590.25 397.04 590.25 394.14L590.25 387.4C590.25 384.5 592.6 382.15 595.5 382.15L681.62 382.15C684.52 382.15 686.87 384.5 686.87 387.4L686.87 394.14C686.87 397.04 684.52 399.39 681.62 399.39Z" />
			<path id="path86" class="shp12" d="M568.03 547.78C568.03 547.78 567.89 560.89 569.95 566.44C572 572 571.78 577.78 571.78 577.78C571.78 577.78 532.57 579.06 531 578.17C529.99 577.6 540.13 573.6 547.56 570.79C551.92 569.14 554.49 564.62 553.69 560.03L551.56 547.78L568.03 547.78" />
			<path id="path88" class="shp12" d="M489 547.78C489 547.78 485.72 561.65 485.67 566.67C487.67 572.44 486.25 577.78 486.25 577.78C486.25 577.78 447.05 579.06 445.47 578.17C444.3 577.51 458.13 572.23 465.34 569.55C467.97 568.57 469.93 566.33 470.56 563.59L472.52 547.78L489 547.78" />
			<path id="path90" class="shp1" d="M562.81 150.03C552.61 149.6 548.37 157.23 550.33 163.56C552.99 172.11 551.02 172.69 549.94 178.51C548.86 184.32 549.7 191.23 550.33 195.27C551.67 203.77 545.5 207.28 545.5 207.28C545.5 207.28 576.18 203.47 590.56 199.17C604.94 194.86 620.83 191.1 620.83 191.1C620.83 191.1 618.47 179.49 613.11 176.27C605.77 171.85 611.04 161.91 604 157.67C594.33 151.83 585.87 132.69 562.81 150.03Z" />
			<path id="path92" class="shp5" d="M567.54 216.67C567.54 216.67 552.46 221.5 548.17 239.07C545.47 250.14 539.34 284.22 539.34 284.22L568.25 284.22C568.25 284.22 575.16 255.99 577.35 244C579.53 232.01 573.75 217.63 567.54 216.67" />
			<path id="path94" class="shp12" d="M566.65 288.21L561.75 311.07C560.19 318.33 553.77 323.51 546.35 323.51L461.3 323.51C461.3 323.51 466.45 316.03 473.39 316.04C480.32 316.04 536.54 303.5 536.54 303.5L539.16 288.21L566.65 288.21" />
			<path id="path96" class="shp7" d="M539.16 288.21L536.54 303.5C536.54 303.5 529.84 305 520.79 306.95C525.67 309.83 533.36 315.38 537.03 323.51L546.35 323.51C553.77 323.51 560.19 318.33 561.75 311.07L566.65 288.21L539.16 288.21" />
			<path id="path98" class="shp13" d="M567.54 216.67C567.54 216.67 552.46 221.5 548.17 239.07C547.02 243.76 545.26 252.59 543.61 261.21C545.87 264.69 548.48 267.83 551.2 269.38C556.57 272.43 559.46 279.66 560.81 284.22L568.25 284.22C568.25 284.22 575.16 255.99 577.35 244C579.53 232.01 573.75 217.63 567.54 216.67" />
			<path id="path100" class="shp6" d="M567.02 293.52L536.78 293.52C535.03 293.52 533.72 291.93 534.05 290.21L535.17 284.35C535.42 283.04 536.57 282.09 537.9 282.09L568.14 282.09C569.89 282.09 571.21 283.68 570.88 285.4L569.75 291.26C569.5 292.57 568.35 293.52 567.02 293.52Z" />
			<path id="path102" class="shp6" d="M604.02 333.33C604.02 333.33 516.23 335.62 498.82 356.44C476.07 383.64 461.91 550.75 461.91 550.75L498.82 550.75C498.82 550.75 503.31 536.86 505.07 512.49C505.78 502.67 513.28 486.58 514.19 466.18C515.11 445.78 530.77 412.84 531.83 394.42C531.83 394.42 668.44 388.89 672.89 371.11C677.33 353.33 668.67 330.33 668.67 330.33L604.02 333.33Z" />
			<path id="path104" class="shp14" d="M498.82 434.41C506.15 443.75 511.1 455.79 514.24 465.58C515.42 445.13 530.78 412.66 531.83 394.42C531.83 394.42 668.44 388.89 672.89 371.11C677.33 353.33 668.67 330.33 668.67 330.33L604.02 333.33C604.02 333.33 516.23 335.62 498.82 356.44C491.87 364.75 485.72 386.13 480.53 411.81C485.56 418.92 492.03 425.77 498.82 434.41Z" />
			<path id="path106" class="shp15" d="M559.45 363.79C559.43 363.78 555.08 363.06 549.02 363.06C543.16 363.06 535.71 363.73 528.99 366.41C522.28 369.09 516.27 373.84 513.55 381.93C509.48 393.99 506.85 414.54 504.61 434.47C502.38 454.39 500.54 473.7 498.15 483C495.73 492.5 493.7 509.39 492.26 523.95C490.83 538.51 490 550.7 490 550.7L491.36 550.79C491.36 550.79 491.41 550.04 491.51 548.67C491.86 543.88 492.81 531.64 494.19 518.55C495.57 505.46 497.39 491.5 499.48 483.34C501.91 473.81 503.73 454.54 505.97 434.62C508.2 414.72 510.85 394.17 514.84 382.36C517.43 374.73 523.03 370.28 529.5 367.68C535.96 365.1 543.27 364.42 549.02 364.43C551.99 364.43 554.55 364.6 556.37 364.78C557.27 364.87 557.99 364.96 558.48 365.03C558.97 365.09 559.23 365.14 559.23 365.14L559.45 363.79" />
			<path id="path108" class="shp5" d="M669.35 299.63L669.35 299.62C662.83 263.57 653.4 213.76 650.43 210.59C647.06 207 625.84 205.06 614.2 202.83C609.27 197.94 606.59 195.27 606.59 195.27L578.89 204.56L578.02 212.96L567.54 216.67C567.54 216.67 566.18 232.96 565.39 243.1C563.72 264.58 572.37 277.17 582.36 295.16C588.53 306.27 590.8 319.51 591.63 328C592.11 332.95 596.29 336.7 601.26 336.7L682.68 336.7C691.92 336.7 672.63 317.76 669.35 299.63Z" />
			<path id="path110" class="shp13" d="M669.35 299.62C665.01 275.62 659.38 245.55 655.23 227.17L635.46 220.06C635.46 220.06 622.97 245.82 625.17 262C626.33 270.54 619.22 274.31 617.44 287.18C615.86 298.64 621.06 321.33 646.35 336.7L682.68 336.7C691.92 336.7 672.63 317.76 669.35 299.63L669.35 299.62" />
			<path id="path112" class="shp12" d="M583.6 204.51L584.97 204.38L593.62 215.34L592.88 205.72C599.46 203.36 605.77 199.32 605.77 199.32L594.23 178.89C594.23 178.89 597.61 170.47 593.41 168.49C589.21 166.52 587.09 172.97 587.09 172.97C587.09 172.97 571.64 173.38 564.11 160.61C562.54 161.71 561.62 164.9 561.8 166.81C562.69 176.27 564.17 180 563.87 184.09C564.67 191.35 570.45 198.81 575.18 198.81C579.92 198.81 580.65 197.35 580.65 197.35L583.6 204.51" />
			<path id="path114" class="shp13" d="M565.17 175.75L564.51 175.85C564.59 176.39 564.63 176.93 564.63 177.44C564.63 178.86 564.33 180.12 563.86 181C563.38 181.89 562.78 182.36 562.14 182.44L561.92 182.45C561.55 182.45 561.17 182.33 560.76 182.07C559.53 181.31 558.32 179.24 557.96 176.68C557.88 176.14 557.85 175.61 557.85 175.09C557.84 173.67 558.14 172.41 558.61 171.53C559.09 170.64 559.69 170.17 560.33 170.09L560.55 170.08C560.92 170.08 561.31 170.2 561.71 170.46C562.94 171.22 564.15 173.29 564.51 175.85L565.17 175.75L565.83 175.66C565.55 173.76 564.89 172.08 563.98 170.84C563.52 170.22 563.01 169.7 562.43 169.34C561.86 168.97 561.22 168.75 560.55 168.75C560.42 168.75 560.29 168.75 560.16 168.77C558.96 168.93 558.03 169.78 557.43 170.91C556.83 172.04 556.51 173.49 556.51 175.09C556.51 175.67 556.55 176.27 556.64 176.87C556.92 178.77 557.59 180.45 558.49 181.69C558.95 182.31 559.47 182.83 560.04 183.2C560.61 183.56 561.26 183.79 561.92 183.79C562.05 183.79 562.18 183.78 562.31 183.76C563.51 183.6 564.44 182.75 565.04 181.63C565.64 180.49 565.96 179.04 565.96 177.44C565.96 176.86 565.92 176.27 565.83 175.66L565.17 175.75" />
			<path id="path116" class="shp13" d="M575.57 174.4L574.91 174.49C574.99 175.04 575.03 175.57 575.03 176.08C575.03 177.5 574.73 178.76 574.26 179.64C573.78 180.53 573.18 181 572.54 181.08L572.33 181.09C571.96 181.09 571.57 180.97 571.16 180.72C569.94 179.95 568.72 177.88 568.36 175.33C568.29 174.78 568.25 174.25 568.25 173.73C568.25 172.31 568.54 171.06 569.01 170.17C569.49 169.29 570.09 168.82 570.73 168.74L570.95 168.72C571.32 168.72 571.71 168.84 572.11 169.1C573.34 169.87 574.55 171.93 574.91 174.49L575.57 174.4L576.23 174.3C575.95 172.4 575.29 170.73 574.38 169.48C573.92 168.86 573.41 168.35 572.83 167.98C572.26 167.61 571.62 167.39 570.95 167.39C570.82 167.39 570.69 167.4 570.56 167.41C569.36 167.57 568.43 168.42 567.84 169.55C567.23 170.68 566.92 172.13 566.91 173.73C566.91 174.31 566.96 174.91 567.05 175.52C567.32 177.41 567.99 179.09 568.89 180.34C569.35 180.96 569.87 181.47 570.44 181.84C571.02 182.21 571.66 182.43 572.33 182.43C572.45 182.43 572.58 182.42 572.71 182.4C573.91 182.25 574.84 181.39 575.44 180.27C576.04 179.14 576.36 177.68 576.36 176.08C576.36 175.51 576.32 174.91 576.23 174.3L575.57 174.4" />
			<path id="path118" class="shp13" d="M565.02 175.24L567.68 174.9C568.05 174.85 568.3 174.51 568.26 174.15C568.21 173.78 567.87 173.53 567.51 173.57L564.85 173.92C564.49 173.97 564.23 174.3 564.27 174.67C564.32 175.03 564.66 175.29 565.02 175.24" />
			<path id="path120" class="shp13" d="M575.27 173.33L588.77 171.48C589.13 171.43 589.39 171.1 589.33 170.73C589.29 170.37 588.95 170.11 588.58 170.16L575.09 172.01C574.73 172.06 574.47 172.4 574.52 172.77C574.57 173.13 574.91 173.39 575.27 173.33" />
			<path id="path122" class="shp7" d="M588.67 195.07C590.03 190.83 591.77 184.41 590.29 184.41C588.81 184.41 587.63 188.23 585.75 191.38C583.88 194.54 580.65 197.35 580.65 197.35L583.3 203.77C584.99 201.18 587.73 198.05 588.67 195.07" />
			<path id="path124" class="shp6" d="M594 220.14C594 220.14 594.09 220.55 594.24 221.3C594.69 223.56 595.57 228.84 595.57 234.95C595.57 236.77 595.5 238.65 595.31 240.55C595.15 242.1 595.08 243.74 595.08 245.46C595.08 255.53 597.49 267.84 599.53 273.79C601.88 280.64 604.83 296.17 606.25 306.68C607.68 317.21 609.77 329.32 614.57 336.31L615.14 335.92C610.47 329.16 608.34 317.1 606.93 306.58C605.5 296.04 602.56 280.52 600.18 273.57C598.17 267.72 595.76 255.42 595.77 245.46C595.77 243.76 595.83 242.14 595.99 240.62C596.18 238.69 596.26 236.79 596.26 234.95C596.26 226.71 594.67 220 594.66 219.99L594 220.14" />
			<path id="path126" class="shp5" d="M642.08 207.47C657.4 210.72 668.28 222.42 670.65 241.62C673.02 260.82 676.81 288.21 676.81 288.21L642.08 288.21C642.08 288.21 635.42 257.03 633.01 241.39C630.59 225.74 630.82 205.08 642.08 207.47Z" />
			<path id="path128" class="shp12" d="M674.86 285.09L677.73 305.88C679.03 315.27 671.73 323.65 662.24 323.65L554.27 323.65C554.27 323.65 559.12 315.6 571.58 315.25C577.98 315.08 582.36 316.02 582.36 316.02L644.87 301.3L642.5 285.09L674.86 285.09" />
			<path id="path130" class="shp6" d="M680.5 333.33C680.5 333.33 689.11 342.89 690.44 360.44C691.06 368.53 688.67 380.22 674.67 382.15C661.79 383.92 567.34 394.42 567.34 394.42C567.34 394.42 571 435 570 455.33C569 475.67 573.33 487.33 571 498.67C568.67 510 573.33 542.41 572 552.54L537.33 552.54C537.33 552.54 523.33 428.79 519.33 399.39C515.33 370 531.67 356.33 552 351.67C572.33 347 632.86 336.15 632.86 336.15L680.5 333.33Z" />
			<path id="path132" class="shp14" d="M668.01 330.54C668.02 330.54 668.07 330.7 668.16 331.01C668.8 333.14 671.4 342.29 671.39 350.52C671.4 353.5 671.05 356.36 670.19 358.69C669.32 361.03 667.97 362.82 665.92 363.85C664.61 364.51 661.92 365.2 658.31 365.85C645.63 368.16 621.46 370.2 600.08 372.59C589.39 373.79 579.4 375.08 571.85 376.54C568.08 377.27 564.92 378.04 562.57 378.88C561.39 379.3 560.42 379.74 559.66 380.21C558.9 380.69 558.33 381.21 558.03 381.88C557.61 382.92 557.36 384.46 557.19 386.47C557.02 388.48 556.96 390.94 556.96 393.76C556.96 409.12 559.01 434.86 559.01 450.45C559.01 453.29 558.94 455.8 558.78 457.83C558.62 459.85 558.36 461.41 558.03 462.29C557 465.04 556.66 468.31 556.66 471.79C556.66 479.28 558.22 487.81 558.22 494.07C558.22 495.39 558.15 496.6 557.99 497.68C557.83 498.77 557.76 500.31 557.76 502.21C557.76 516.74 561.76 552.6 561.76 552.61L563.12 552.46C563.12 552.45 562.87 550.22 562.49 546.63C561.37 535.88 559.13 512.97 559.13 502.21C559.13 500.34 559.2 498.84 559.34 497.88C559.52 496.71 559.59 495.44 559.59 494.07C559.58 487.61 558.02 479.11 558.03 471.79C558.03 468.4 558.37 465.27 559.31 462.77C559.73 461.65 559.98 460.03 560.14 457.94C560.31 455.85 560.38 453.32 560.38 450.45C560.38 434.77 558.32 409.02 558.32 393.76C558.32 390.97 558.39 388.53 558.55 386.58C558.71 384.64 558.98 383.17 559.3 382.41C559.41 382.12 559.85 381.66 560.67 381.2C562.19 380.34 564.88 379.47 568.36 378.67C580.59 375.85 602.73 373.64 622.97 371.56C633.09 370.51 642.74 369.5 650.46 368.45C654.33 367.93 657.71 367.39 660.44 366.84C663.17 366.28 665.23 365.72 666.53 365.07C668.96 363.86 670.53 361.72 671.47 359.16C672.42 356.6 672.76 353.61 672.76 350.52C672.76 340.8 669.33 330.16 669.32 330.12L668.02 330.54" />
			<path id="path134" class="shp13" d="M594.36 207.57C594.36 207.57 594.77 208.09 595.44 208.93C596.1 209.77 597.02 210.92 598.02 212.2C599 213.46 599.86 214.67 600.46 215.56C600.76 216.01 601 216.38 601.17 216.63C601.33 216.89 601.42 217.03 601.42 217.03C601.52 217.2 601.7 217.31 601.9 217.34C602.1 217.37 602.3 217.31 602.45 217.18C602.46 217.17 604.61 215.28 607.08 212.77C609.56 210.26 612.36 207.18 613.71 204.66C613.89 204.32 613.77 203.91 613.43 203.73C613.1 203.55 612.69 203.68 612.51 204.01C611.31 206.27 608.55 209.35 606.11 211.81C604.89 213.05 603.75 214.13 602.91 214.91C602.49 215.3 602.15 215.61 601.91 215.83C601.68 216.04 601.55 216.15 601.55 216.15L602 216.67L602.58 216.31C602.57 216.29 601.12 213.94 599.09 211.36C597.09 208.8 595.42 206.72 595.42 206.71C595.19 206.42 594.76 206.37 594.46 206.61C594.17 206.85 594.12 207.28 594.36 207.57" />
			<path id="path136" class="shp13" d="M584.21 207.28L584.21 217.56L584.89 217.56L585.22 216.96L585.09 216.88C584.47 216.53 581.78 214.93 579.93 213.07C579.66 212.8 579.23 212.8 578.96 213.07C578.69 213.34 578.69 213.77 578.96 214.04C581.28 216.36 584.53 218.14 584.56 218.15C584.77 218.27 585.03 218.27 585.24 218.14C585.45 218.02 585.57 217.8 585.57 217.56L585.57 207.28C585.57 206.9 585.27 206.6 584.89 206.6C584.51 206.6 584.21 206.9 584.21 207.28Z" />
			<path id="path138" class="shp6" d="M588.47 249.86C588.72 251.23 588.27 252.45 587.47 252.6C586.67 252.75 585.81 251.77 585.55 250.41C585.3 249.05 585.74 247.82 586.55 247.67C587.35 247.52 588.21 248.5 588.47 249.86Z" />
			<path id="path140" class="shp6" d="M592.31 270.37C592.56 271.73 592.12 272.96 591.31 273.11C590.51 273.26 589.65 272.28 589.39 270.92C589.14 269.56 589.58 268.33 590.39 268.18C591.19 268.03 592.05 269.01 592.31 270.37Z" />
			<path id="path142" class="shp6" d="M596.15 290.88C596.41 292.24 595.96 293.47 595.15 293.62C594.35 293.77 593.49 292.79 593.24 291.43C592.98 290.07 593.43 288.84 594.23 288.69C595.04 288.54 595.89 289.52 596.15 290.88Z" />
			<path id="path144" class="shp6" d="M677.2 293.52L643.29 293.52C641.79 293.52 640.52 292.4 640.33 290.91L639.45 284.22C639.22 282.43 640.61 280.84 642.42 280.84L676.32 280.84C677.82 280.84 679.09 281.95 679.29 283.44L680.16 290.14C680.4 291.93 679 293.52 677.2 293.52Z" />
			<path id="path146" class="shp13" d="M571.78 577.78C571.78 577.78 571.97 572.65 570.28 567.42C568.58 568.16 566.33 569.01 564.08 569.5C560.55 570.27 554.91 567.78 552.51 566.59C551.42 568.47 549.71 569.98 547.56 570.79C540.13 573.6 529.99 577.6 531 578.17C532.57 579.06 571.78 577.78 571.78 577.78" />
			<path id="path148" class="shp13" d="M468.44 567.49C467.58 568.39 466.53 569.1 465.34 569.55C458.13 572.23 444.3 577.51 445.47 578.17C447.05 579.06 486.25 577.78 486.25 577.78C486.25 577.78 487.34 573.68 486.26 568.78C477.36 571.81 471.31 569.32 468.44 567.49" />
			<path id="path150" class="shp16" d="M410.49 575.86L299.97 575.86C295.35 575.86 291.61 572.12 291.61 567.49L291.61 419.7C291.61 415.08 295.35 411.34 299.97 411.34L410.49 411.34C415.11 411.34 418.86 415.08 418.86 419.7L418.86 567.49C418.86 572.12 415.11 575.86 410.49 575.86Z" />
			<path id="path152" class="shp11" d="M319 575.86L280.4 575.86C275.78 575.86 272.03 572.12 272.03 567.49L272.03 419.7C272.03 415.08 275.78 411.34 280.4 411.34L319 411.34C323.62 411.34 327.37 415.08 327.37 419.7L327.37 567.49C327.37 572.12 323.62 575.86 319 575.86" />
			<path id="path154" class="shp6" d="M394.83 466.18L351.39 466.18C346.29 466.18 342.16 462.05 342.16 456.94C342.16 451.84 346.29 447.71 351.39 447.71L394.83 447.71C399.94 447.71 404.07 451.84 404.07 456.94C404.07 462.05 399.94 466.18 394.83 466.18Z" />
			<path id="path156" class="shp6" d="M394.83 506.2L351.39 506.2C346.29 506.2 342.16 502.07 342.16 496.97C342.16 491.86 346.29 487.73 351.39 487.73L394.83 487.73C399.94 487.73 404.07 491.86 404.07 496.97C404.07 502.07 399.94 506.2 394.83 506.2Z" />
			<path id="path158" class="shp6" d="M394.83 546.22L351.39 546.22C346.29 546.22 342.16 542.09 342.16 536.99C342.16 531.89 346.29 527.75 351.39 527.75L394.83 527.75C399.94 527.75 404.07 531.89 404.07 536.99C404.07 542.09 399.94 546.22 394.83 546.22" />
			<path id="path160" class="shp17" d="M272.03 458.2L327.37 458.2L327.37 455.69L272.03 455.69L272.03 458.2Z" />
			<path id="path162" class="shp17" d="M272.03 498.22L327.37 498.22L327.37 495.71L272.03 495.71L272.03 498.22Z" />
			<path id="path164" class="shp17" d="M272.03 538.24L327.37 538.24L327.37 535.73L272.03 535.73L272.03 538.24Z" />
			<path id="path166" class="shp18" d="M296.57 451.63L289.43 451.63L289.43 448.81L296.57 448.81L296.57 451.63Z" />
			<path id="path168" class="shp18" d="M308.19 451.63L301.05 451.63L301.05 448.81L308.19 448.81L308.19 451.63Z" />
			<path id="path170" class="shp18" d="M319.81 451.63L312.67 451.63L312.67 448.81L319.81 448.81L319.81 451.63Z" />
			<path id="path172" class="shp18" d="M312.93 489.55L286.47 489.55C284.71 489.55 283.28 488.13 283.28 486.36C283.28 484.6 284.71 483.17 286.47 483.17L312.93 483.17C314.69 483.17 316.12 484.6 316.12 486.36C316.12 488.13 314.69 489.55 312.93 489.55Z" />
			<path id="path174" class="shp18" d="M312.93 527.47L286.47 527.47C284.71 527.47 283.28 526.05 283.28 524.28C283.28 522.52 284.71 521.09 286.47 521.09L312.93 521.09C314.69 521.09 316.12 522.52 316.12 524.28C316.12 526.05 314.69 527.47 312.93 527.47Z" />
			<path id="path176" fill-rule="evenodd" class="shp4" d="M830.5 443.68L814.59 443.68C813.54 448.31 811.72 452.64 809.27 456.53L820.51 467.78C816.88 472.83 812.45 477.26 807.39 480.89L796.15 469.65C792.25 472.1 787.92 473.92 783.3 474.97L783.3 490.88C780.28 491.37 777.19 491.64 774.03 491.64C770.87 491.64 767.77 491.37 764.75 490.88L764.75 474.97C760.13 473.92 755.8 472.1 751.9 469.65L740.66 480.89C735.61 477.26 731.17 472.83 727.54 467.78L738.78 456.53C736.33 452.64 734.51 448.31 733.46 443.68L717.55 443.68C717.06 440.66 716.79 437.57 716.79 434.41C716.79 431.25 717.06 428.15 717.55 425.14L733.46 425.14C734.51 420.51 736.33 416.18 738.78 412.28L727.54 401.04C731.17 395.99 735.61 391.56 740.66 387.93L751.9 399.17C755.8 396.71 760.13 394.89 764.75 393.84L764.75 377.94C767.77 377.44 770.87 377.18 774.03 377.18C777.19 377.18 780.28 377.44 783.3 377.94L783.3 393.84C787.92 394.89 792.25 396.71 796.15 399.17L807.39 387.93C812.45 391.56 816.88 395.99 820.51 401.04L809.27 412.28C811.72 416.18 813.54 420.51 814.59 425.14L830.5 425.14C830.99 428.15 831.26 431.25 831.26 434.41C831.26 437.57 830.99 440.66 830.5 443.68ZM794.51 434.41C794.51 423.1 785.34 413.93 774.03 413.93C762.71 413.93 753.54 423.1 753.54 434.41C753.54 445.72 762.71 454.89 774.03 454.89C785.34 454.89 794.51 445.72 794.51 434.41Z" />
			<path id="path178" fill-rule="evenodd" class="shp4" d="M884.05 486.85C883.64 489.81 882.72 492.62 881.39 495.2L889.03 501.66C887.02 505.02 884.47 508.03 881.49 510.58L873.85 504.12C871.53 505.86 868.91 507.23 866.06 508.14L866.9 518.12C865.03 518.58 863.1 518.91 861.12 519.08C859.14 519.25 857.18 519.24 855.26 519.09L854.43 509.11C851.47 508.69 848.65 507.78 846.08 506.45L839.62 514.09C836.26 512.08 833.24 509.53 830.7 506.55L837.16 498.91C835.42 496.59 834.05 493.97 833.14 491.12L823.16 491.96C822.69 490.09 822.36 488.16 822.2 486.18C822.03 484.2 822.03 482.24 822.19 480.32L832.17 479.49C832.58 476.53 833.5 473.71 834.83 471.14L827.19 464.68C829.2 461.32 831.75 458.3 834.73 455.76L842.37 462.22C844.69 460.48 847.31 459.11 850.15 458.2L849.32 448.22C851.19 447.75 853.11 447.42 855.1 447.26C857.08 447.09 859.03 447.09 860.96 447.25L861.79 457.23C864.75 457.64 867.56 458.56 870.14 459.89L876.6 452.25C879.96 454.26 882.97 456.81 885.52 459.79L879.06 467.43C880.8 469.75 882.17 472.37 883.08 475.21L893.06 474.38C893.53 476.25 893.85 478.17 894.02 480.16C894.19 482.14 894.18 484.09 894.03 486.02L884.05 486.85ZM870.96 482.09C870.37 474.99 864.13 469.72 857.03 470.32C849.93 470.91 844.66 477.15 845.26 484.25C845.85 491.35 852.09 496.62 859.19 496.02C866.29 495.43 871.56 489.19 870.96 482.09Z" />
			<path id="path180" class="shp19" d="M119 376.23C129.49 372.27 138.1 384.99 140.57 395.64C143.04 406.29 157.2 399.75 161.82 412.39C166.44 425.04 156.94 434.14 163.47 441.21C170.01 448.27 194.62 472.6 183.83 518.06L150.73 533.83C150.73 533.83 123.32 510.1 123.6 488.88C123.87 467.66 124.51 458.45 116.56 442.16C108.62 425.87 115.56 415.43 116.97 406.5C118.38 397.58 110.26 379.52 119 376.23" />
			<path id="path182" class="shp3" d="M122.1 382.02C122.1 382.02 122.62 383.51 123.55 386.22C130.07 405.18 156.57 483.95 163.35 528.69L164.79 528.47C156.99 477.07 123.47 381.56 123.47 381.54L122.1 382.02Z" />
			<path id="path184" class="shp3" d="M145.38 407.78C145.38 407.78 145.38 408.01 145.37 408.46C145.29 411.58 144.72 424.88 140.99 436.5L142.37 436.94C146.72 423.37 146.83 407.83 146.83 407.79L145.38 407.78Z" />
			<path id="path186" class="shp3" d="M119.1 433.41C119.12 433.43 122.59 437.29 127.68 441.58C132.77 445.87 139.46 450.61 146.06 452.36L146.43 450.96C140.22 449.32 133.62 444.7 128.61 440.47C126.11 438.36 123.99 436.35 122.51 434.87C121.77 434.13 121.19 433.52 120.79 433.1C120.59 432.89 120.44 432.72 120.34 432.61L120.18 432.44L119.1 433.41" />
			<path id="path188" class="shp3" d="M163.34 451.55C163.34 451.55 163.33 451.91 163.28 452.56C163.11 454.84 162.6 460.72 161.33 467.23C160.06 473.73 158 480.87 154.86 485.6L156.07 486.4C159.88 480.65 162.02 471.99 163.26 464.73C164.49 457.48 164.79 451.64 164.79 451.63L163.34 451.55" />
			<path id="path190" class="shp3" d="M130.63 485.9C130.69 485.97 140.15 498.62 158.54 501.36L158.75 499.93C149.85 498.6 143.11 494.87 138.58 491.47C136.32 489.77 134.61 488.15 133.48 486.96C132.91 486.37 132.49 485.88 132.21 485.54C132.06 485.38 131.96 485.25 131.89 485.16L131.82 485.06L131.79 485.03L130.63 485.9" />
			<path id="path192" class="shp20" d="M169.6 525.38C169.6 525.38 155.09 487.25 159.83 465.03C164.02 445.37 177.97 455.32 180.95 439.94C183.93 424.57 176.71 410.78 178.21 398.23C179.71 385.69 188.93 384.32 195.81 387.74C202.68 391.16 203.95 369.99 212.23 369.52C220.5 369.04 224.79 376.05 229.76 369.57C234.73 363.1 240.87 355.26 250.67 357.65C260.47 360.05 239.51 385.1 245.95 386.95C252.38 388.81 254.99 400.73 243.96 416.8C238.31 425.02 258.32 426.9 245.68 442.98C241.65 448.1 230.46 457.49 236.01 464.79C241.56 472.09 246.53 481.89 236.29 503.17C226.43 523.67 223.76 524.18 223.76 524.18L169.6 525.38" />
			<path id="path194" class="shp3" d="M242.48 365.15C242.41 365.23 194.59 419.39 194.59 524.81L196.04 524.81C196.04 472.33 207.94 432.64 219.83 406.07C225.78 392.79 231.72 382.79 236.18 376.11C238.4 372.77 240.26 370.27 241.55 368.6C242.2 367.76 242.71 367.14 243.05 366.72C243.22 366.52 243.35 366.36 243.44 366.26L243.57 366.11L242.48 365.15" />
			<path id="path196" class="shp3" d="M215.51 376.63C215.51 376.63 215.48 377.3 215.48 378.46C215.49 382.82 215.86 394.09 219.58 403.65L220.93 403.13C217.33 393.89 216.93 382.72 216.94 378.46C216.94 377.89 216.94 377.45 216.95 377.14C216.96 376.84 216.96 376.69 216.96 376.69L215.51 376.63" />
			<path id="path198" class="shp3" d="M244.96 398.12L244.81 398.28C243.3 399.94 230.35 413.6 213.26 418.93L213.69 420.32C232.4 414.45 246 399.12 246.04 399.08L244.96 398.12" />
			<path id="path200" class="shp3" d="M190.37 394.85C190.37 394.86 190.35 395.17 190.35 395.73C190.35 399.99 191.31 419.15 207.92 434.91L208.92 433.86C192.74 418.51 191.8 399.8 191.81 395.73C191.81 395.46 191.81 395.26 191.81 395.13C191.82 394.99 191.82 394.93 191.82 394.93L190.37 394.85" />
			<path id="path202" class="shp3" d="M240.54 434.04L240.51 434.09C240.19 434.65 237.2 439.79 230.91 445.46C224.62 451.14 215.03 457.36 201.49 460.13L201.78 461.55C216.06 458.64 226.07 451.94 232.5 445.98C238.93 440.02 241.78 434.78 241.81 434.73L240.54 434.04" />
			<path id="path204" class="shp3" d="M171.94 458.52C171.96 458.61 176.37 478.8 196.72 490.93L197.46 489.69C187.56 483.79 181.53 475.91 177.98 469.5C176.2 466.3 175.04 463.47 174.33 461.44C173.97 460.42 173.73 459.61 173.58 459.05C173.5 458.78 173.44 458.56 173.41 458.42C173.37 458.28 173.36 458.21 173.36 458.21L171.94 458.52" />
			<path id="path206" class="shp3" d="M232.9 478.13C232.9 478.13 232.86 478.22 232.76 478.4C231.34 481.09 218.91 503.18 195.41 509.92L195.81 511.31C208.71 507.6 218.3 499.46 224.66 492.27C231.03 485.08 234.18 478.83 234.2 478.79L232.9 478.13" />
			<path id="path208" class="shp3" d="M141.68 585.03L237.53 585.03L237.53 583.57L141.68 583.57L141.68 585.03Z" />
			<path id="path210" class="shp3" d="M132.44 517.2C132.44 545.23 142.36 567.92 147.81 578.25C149.78 582 153.57 584.3 157.66 584.3L206.77 584.3C210.86 584.3 214.65 582 216.62 578.25C222.06 567.92 231.99 545.23 231.99 517.2L132.44 517.2Z" />
			<path id="path212" class="shp21" d="M133.41 532.47C158.45 546.55 186.65 537.78 206.1 530.57C215.86 526.95 225.02 525.03 231.77 524C231.9 521.77 231.99 519.51 231.99 517.2L132.44 517.2C132.44 522.5 132.79 527.6 133.41 532.47Z" />
			<path id="path214" class="shp6" d="M282.75 303.13C282.75 303.13 294.29 299.5 294.72 290.44C295.14 281.37 267.47 281.39 268.68 269.61C269.89 257.82 317.56 257.89 320.52 235.75C323.48 213.61 294.83 213.39 282.75 211.88C270.66 210.37 257.67 208.86 260.39 196.47C263.11 184.08 272.17 168.67 244.98 164.44C217.79 160.21 208.42 162.93 208.42 162.93C208.42 162.93 239.24 162.63 235.31 175.92C231.38 189.22 211.14 198.28 219.3 217.92C227.45 237.56 284.12 220.99 295.67 232.6C307.22 244.21 283.08 253.73 264.62 258.41C243.59 263.74 235.84 273.64 244.98 277.85C255.05 282.48 289.86 280.11 278.37 300.66L282.75 303.13Z" />
			<path id="path216" class="shp12" d="M281.61 297.43C268.4 297.43 264.57 299.71 264.57 299.71C264.57 311.14 269.21 318.8 271.6 321.98C272.39 323.03 273.58 323.65 274.86 323.65L281.61 323.65L288.36 323.65C289.64 323.65 290.84 323.03 291.62 321.98C294.01 318.8 298.65 311.14 298.65 299.71C298.65 299.71 294.83 297.43 281.61 297.43Z" />
			<path id="path218" class="shp12" d="M297.21 306.86L297.23 306.82C297.31 306.57 297.76 305.32 298.71 304.17C299.66 303.02 301.03 302 303.08 302C303.66 302 304.3 302.08 305 302.27C306.24 302.62 306.99 303.24 307.49 304.04C307.99 304.83 308.21 305.83 308.21 306.88C308.21 308.36 307.76 309.92 307.18 310.98C306.53 312.17 305.36 313.19 303.88 314.07C301.66 315.41 298.8 316.42 296.2 317.42C294.91 317.93 293.68 318.42 292.62 318.97C291.56 319.53 290.66 320.12 290.04 320.89L291.1 321.75C291.65 321.05 292.81 320.34 294.29 319.69C296.5 318.69 299.4 317.76 302.05 316.56C304.69 315.35 307.13 313.89 308.38 311.63C309.08 310.36 309.57 308.63 309.58 306.88C309.58 305.65 309.32 304.39 308.66 303.31C307.99 302.23 306.89 301.37 305.36 300.95C304.55 300.73 303.79 300.63 303.08 300.63C300.36 300.63 298.52 302.14 297.43 303.57C296.34 305.02 295.92 306.42 295.9 306.47L297.21 306.86" />
			<path id="path220" class="shp7" d="M279.49 297.45C267.99 297.68 264.57 299.71 264.57 299.71C264.57 311.14 269.21 318.8 271.6 321.98C272.39 323.03 273.58 323.65 274.86 323.65L275.57 323.65C269.57 310.42 274.66 301.99 279.49 297.45Z" />
			<path id="path222" class="shp9" d="M365.69 334.26L395 581L404.24 581L382.11 334.26L365.69 334.26" />
			<path id="path224" class="shp9" d="M278.01 334.26L259.54 590.81L268.78 590.81L294.43 334.26L278.01 334.26" />
			<path id="path226" class="shp9" d="M596.48 334.26L578.01 590.81L587.24 590.81L612.9 334.26L596.48 334.26" />
			<path id="path228" class="shp9" d="M684.15 334.26L713.46 581L722.7 581L700.57 334.26L684.15 334.26" />
			<path id="path230" class="shp9" d="M255.44 591.53L280.07 591.53L280.07 590.08L255.44 590.08L255.44 591.53Z" />
			<path id="path232" class="shp9" d="M389.19 581.73L413.81 581.73L413.81 580.27L389.19 580.27L389.19 581.73Z" />
			<path id="path234" class="shp9" d="M573.23 591.53L597.86 591.53L597.86 590.08L573.23 590.08L573.23 591.53Z" />
			<path id="path236" class="shp9" d="M706.97 581.73L731.6 581.73L731.6 580.27L706.97 580.27L706.97 581.73Z" />
			<path id="path238" class="shp8" d="M692.6 334.26L259.54 334.26L259.54 323.65L692.6 323.65L692.6 334.26Z" />
			<path id="path240" class="shp10" d="M276.8 351.17L292.39 354.65L294.43 334.26L278.01 334.26L276.8 351.17" />
			<path id="path242" class="shp10" d="M382.11 334.26L365.69 334.26L370.17 371.99L385.8 375.47L382.11 334.26" />
			<path id="path244" class="shp8" d="M595.2 351.57L610.8 355.05L612.84 334.65L596.42 334.65L595.2 351.57Z" />
			<path id="path246" class="shp8" d="M700.52 334.65L684.1 334.65L688.58 372.39L704.21 375.87L700.52 334.65Z" />
			<path id="path248" class="shp9" d="M718.08 334.26L578.01 334.26L578.01 323.65L718.08 323.65L718.08 334.26Z" />
			<path id="path250" class="shp22" d="M444.67 182.68C429.36 174.95 418.86 159.08 418.86 140.75C418.86 114.82 439.88 93.8 465.81 93.8C483.75 93.8 499.33 103.87 507.24 118.65C480.99 133.87 459.29 156.06 444.67 182.68" />
			<path id="path252" class="shp23" d="M465.81 187.7C458.2 187.7 451.02 185.89 444.67 182.68C459.29 156.06 480.99 133.87 507.24 118.65C510.76 125.24 512.75 132.76 512.75 140.75C512.75 142.78 512.61 144.77 512.36 146.73L539.03 163.06L507.12 163.06C499.19 177.73 483.66 187.7 465.81 187.7" />
			<path id="path254" class="shp12" d="M541.42 159.44L514.76 143.11C515.01 141.15 515.15 139.16 515.15 137.14C515.15 111.21 494.13 90.19 468.2 90.19C442.27 90.19 421.25 111.21 421.25 137.14C421.25 163.07 442.27 184.09 468.2 184.09C486.05 184.09 501.58 174.12 509.52 159.44L541.42 159.44" />
			<g id="g256">
				<text id="tspan258" style="transform: matrix(1.333,0,0,1.333,430.737,154.376)" >
					<tspan x="0" y="0" class="txt24">&lt;/&gt;</tspan>
				</text>
			</g>
			<path id="path262" class="shp25" d="M480.91 275.46L339.61 275.46L327.56 193.67L468.87 193.67L480.91 275.46" />
			<path id="path264" class="shp26" d="M480.91 275.46L473.96 275.46L461.91 193.67L468.87 193.67L480.91 275.46Z" />
			<path id="path266" class="shp26" d="M412.03 316.23L375.03 316.23L384.77 253.91L421.77 253.91L412.03 316.23Z" />
			<path id="path268" class="shp17" d="M412.03 316.23L407.5 316.23L417.24 253.91L421.77 253.91L412.03 316.23Z" />
			<path id="path270" class="shp17" d="M448.66 323.65L356.41 323.65L356.41 316.23L448.66 316.23L448.66 323.65Z" />
			<path id="path272" class="shp17" d="M531.83 323.65L440.84 323.65L440.84 321.03L531.83 321.03L531.83 323.65Z" />
			<path id="path274" class="shp22" d="M823.26 309.35L750.25 309.35C754.58 294.53 756.9 278.86 756.9 262.65C756.9 258.36 756.73 254.11 756.41 249.9L823.26 249.9L823.26 309.35" />
			<path id="path276" class="shp23" d="M750.25 309.35L708.65 309.35L708.65 249.9L756.41 249.9C756.73 254.11 756.9 258.36 756.9 262.65C756.9 278.86 754.58 294.53 750.25 309.35Z" />
			<path id="path278" class="shp5" d="M818.83 305.45L704.21 305.45L704.21 246L818.83 246L818.83 305.45Z" />
			<g id="g280">
				<text id=" " style="transform: matrix(1.333,0,0,1.333,721.325,291.24)" >
				</text>
			</g>
			<path id="path286" class="shp22" d="M113.88 348.32L83.35 348.32L83.35 270.5L141.41 270.5C129.29 294.44 120.17 320.86 113.88 348.32Z" />
			<path id="path288" class="shp27" d="M113.89 348.32L113.88 348.32C120.17 320.86 129.29 294.44 141.41 270.5L233.39 270.5L233.39 294.25C229.2 293.99 224.96 293.87 220.68 293.87C190.96 293.87 159 300.04 124.15 311.95C120.14 323.77 116.73 335.95 113.89 348.32" />
			<path id="path290" class="shp28" d="M233.39 348.32L113.89 348.32C116.73 335.95 120.14 323.77 124.15 311.95C159 300.04 190.96 293.87 220.68 293.87C224.96 293.87 229.2 293.99 233.39 294.25L233.39 348.32Z" />
			<path id="path292" class="shp12" d="M227.58 343.22L77.54 343.22L77.54 265.4L227.58 265.4L227.58 343.22Z" />
			<g id="g294">
				<text id=" " style="transform: matrix(1.333,0,0,1.333,99.053,317.328)" >
				</text>
			</g>
		</g>
		<path id="Layer 1" class="shp29" d="M-25 -10L1295 -10L1295 711L-25 711L-25 -10Z" />
	</g>
</svg>