<svg xmlns="http://www.w3.org/2000/svg" xmlns:xlink="http://www.w3.org/1999/xlink" width="768" height="1020" xmlns:v="https://vecta.io/nano"><style><![CDATA[.Ag{fill:#390075}.Ah{fill-rule:evenodd}.Ai{fill:#fff}.Aj{fill:#102770}.Ak{fill:#c3b2d5}.Al{fill:#39d5ff}.Am{fill:#1b1320}.An{fill:#fd6ccb}.Ao{fill:#b0eeff}.Ap{fill:#c387c4}.Aq{fill:#3995d5}.Ar{fill:#c24bb1}.As{fill:#fef26b}.At{fill:#c3a96e}.Au{fill:#fffac4}.Av{fill:#fec2e6}.Aw{fill:#d28682}.Ax{fill:#e86546}]]></style><g fill="#fac009"><path d="M762 464.98c-110 37.07-117.5 72.4-29.74 147.34-114.94-10.7-134.6 18.24-81.12 120.3-102.06-53.5-131-33.82-120.3 81.12-74.94-87.76-110.27-80.25-147.34 29.74-37.07-110-72.4-117.5-147.34-29.74 10.7-114.94-18.24-134.6-120.3-81.12 53.47-102.06 33.82-131-81.12-120.3C122.5 537.38 115 502.05 5 464.98c110-37.07 117.5-72.4 29.74-147.33 114.94 10.68 134.6-18.24 81.12-120.3 102.06 53.47 131 33.83 120.3-81.12 74.94 87.76 110.27 80.25 147.34-29.74 37.07 110 72.4 117.5 147.34 29.74-10.7 114.95 18.24 134.6 120.3 81.12-53.5 102.07-33.82 131 81.12 120.3C644.5 392.58 652 427.9 762 464.98z"/><path d="M645.26 464.98c0 144.56-117.2 261.76-261.76 261.76-144.57 0-261.76-117.2-261.76-261.76 0-144.57 117.2-261.76 261.76-261.76 144.55 0 261.76 117.2 261.76 261.76z"/></g><path d="M645.26 464.98c0 144.56-117.2 261.76-261.76 261.76-144.57 0-261.76-117.2-261.76-261.76 0-144.57 117.2-261.76 261.76-261.76 144.55 0 261.76 117.2 261.76 261.76h0z" fill="none" stroke="#fff" stroke-width="8.169"/><path d="M482.96 408.4c0 91.66-74.3 165.96-165.96 165.96s-166-74.3-166-165.96c0-91.68 74.33-165.98 166-165.98s165.96 74.3 165.96 165.98z" fill="#6abcea"/><path d="M423.64 280.9c-9.1 1.16-18.8 5.34-26.14 7.95-8.5 3-18.36 9.3-16.77 18.16.72 4 3.8 7.4 4.05 11.44.33 5.9-5.36 10.34-10.87 12.46-5.52 2.13-11.75 3.26-15.88 7.5-1.72 1.75-2.97 3.98-4.82 5.6-4.87 4.24-12.1 3.3-18.54 3.57-6.95.28-13.7 2.28-20.4 4.23l-34.83 10.34c-7.46 2.2-15.18 4.54-21.16 9.54-6 5.02-9.85 13.44-7.15 20.77 1.48 4.1 4.77 7.28 7.1 11 4.1 6.54 5.2 14.6 9.13 21.26 5.03 8.57 14.03 13.88 22.65 18.8 3.02 1.72 6.15 3.5 9.6 3.98 7.95 1.15 15.3-4.7 19.93-11.26 4.6-6.6 7.66-14.3 13.23-20.1 5.5-5.72 13.5-9.23 21.36-8.4 7.9.82 15.3 6.4 17.47 14.03 2.13 7.64-1.85 16.77-9.23 19.64-4.34 1.67-9.16 1.2-13.8 1.6-4.62.36-9.72 2.03-11.77 6.2-1.3 2.57-1.13 5.62-1.82 8.44-3.52 14.23-26.55 17.36-28.4 31.93-.72 5.85 2.56 11.5 6.74 15.67 11.93 11.9 31.65 15.72 39.47 30.65 2.36 4.6 3.46 9.97 7.1 13.6 3.65 3.65 9.03 4.75 14 6.3 3.5 1.05 6.97 2.46 10.28 4.1 16.88-7.46 32.26-17.7 45.63-30.08-.93-5.2-3.52-10.2-4.3-15.52-1.84-13.1 7.5-24.77 12.67-36.96 5.08-11.95 6.24-25.56 3.23-38.2-1.66-6.95-4.8-13.95-10.66-18.03-3.3-2.28-7.52-3.77-9.26-7.36-2.3-4.7 1.07-10.36 5.46-13.23 4.36-2.85 9.64-4.03 14.08-6.72 4.46-2.72 8.18-8.05 6.36-12.95 4.4-.1 8.6 1.8 12.72 3.7 4.87 2.2 9.67 4.44 14.77 3.44 2.47-.52 4.62-1.77 6.4-3.52-5.92-41.4-27.08-77.86-57.65-103.5zM151 409.58c0 68.32 41.32 127.03 100.3 152.47 3.2-4.62 3-11.2 1.87-16.93-3.28-16.64-12.34-32.1-25.24-43.13-7.18-6.16-16.26-12.26-16.92-21.7-.6-8.5 6.13-15.6 12.7-21 1.5-1.24 3.13-2.57 3.77-4.4 1.05-2.98-.72-6.2-2.77-8.62a31.92 31.92 0 0 0-16.87-10.23c-3.65-.87-7.52-1.1-10.85-2.82-4.57-2.36-7.52-7.26-12.24-9.3-4.87-2.07-10.97-.87-15.18-4.07-4.7-3.62-4.23-11.5-.15-15.8s10.5-5.6 16.4-5.16c5.36.4 10.82 1.95 15.98.52 3.54-1 6.56-3.3 9.18-5.85 15.3-14.93 18.8-40.55 8.03-59-1.85-3.13-4.05-6.18-4.64-9.74-.47-3.08.33-6.18.66-9.24 1.6-14.7-2.95-23.3-10.82-27.8-32.7 30.35-53.2 73.7-53.2 121.8z" fill="#4daa6c"/><path d="M211.33 280.37c4.7 5.4 16.9 2.67 23.16 2.44 10.3-.4 10.06 6.57 17.2 13.4 6.64 6.36 15.15 10.5 23.33 14.46 5.2 2.52 12.34 4.65 15.98.16 1.7-2.05 2.05-5.13 4.13-6.8 3.7-2.9 8.77.62 12.6 3.34 8.6 6.18 19.7 8.74 30.14 7 6.72-1.13 14.26-5.8 13.62-12.57-.16-1.74-.9-3.6-.23-5.23 1.15-2.85 5.1-2.75 8.18-2.64 6 .23 12.23-1.5 16.56-5.65 4.34-4.15 6.34-10.9 4.06-16.44-.98-2.33-2.62-4.38-3.34-6.8-.87-2.9-.36-6.08-1.23-8.98-.46-1.5-1.18-2.74-2.13-3.82-17.6-6.36-36.57-9.82-56.34-9.82-40.14 0-76.94 14.26-105.67 37.95z" fill="#9ce5e5"/><path d="M317 574.36h-1.03H317c91.66 0 165.96-74.3 165.96-165.96h0c0 91.66-74.3 165.96-165.96 165.96zm-1.08 0h-.03.03zm-.54 0h-.15.15zm-.25 0h-.08.08zm-.3 0h0zm-.8-.02h-.5.5zm-.54 0h-.4.4zm-.8-.03h-.23.23zm-.25-.03h-.16.16zm-1.08-.02h-.02zm171.58-166.3v-.05.05zm0-.47v-.07.07zm0-.46v-.02.02zm0-.43v-.05.05zm0-.46v-.08.08zm0-.47v-.05.05zm-.03-.43v-.05.05zm0-.44v-.1.1zm0-.5v-.05.05zm-.02-.43v-.05.05zm0-.44v-.07.07zm-.03-.46v-.08.08zm-.03-.5v-.02.02zm0-.4v-.07.07zm-.02-.46v-.08.08zm0-.5s0-.02-.03-.02c.03 0 .03.02.03.02zm-.03-.4v-.05.05zm-.02-.43v-.08.08zm-.03-.5zm-.02-.44zm-.03-.43v-.08.08zm-.03-.46v-.05.05zm-.05-.9v-.05.05zm-.02-.46v-.05.05zm-.08-.9v-.03.03zm-.03-.44v-.05.05zm-.05-.9v-.03.03zm-.05-.44v-.05.05zm-.02-.46v-.03.03zm-.1-.9h0z" fill="#2f424f" class="Ah"/><path d="M317 574.36h-2.16c-.25 0-.54-.02-.8-.02h-.95c-.13-.03-.26-.03-.4-.03h-.23c-.02 0-.02 0-.02-.03h-.28c-.26 0-.54 0-.8-.02-21.05-.7-41.1-5.3-59.47-13.13 2.6-4.57 2.33-10.67 1.28-16a75.12 75.12 0 0 0-4.51-14.64c25.62-1.3 49.7-8.4 70.96-20.03 11.7 8.18 26.62 12.9 33.16 25.42 2.36 4.6 3.46 9.97 7.1 13.6 3.65 3.65 9.03 4.75 14 6.3 3.5 1.05 6.97 2.46 10.28 4.1 16.88-7.46 32.26-17.7 45.63-30.08-.93-5.2-3.52-10.2-4.3-15.52-1.84-13.1 7.5-24.77 12.67-36.96 5.08-11.95 6.24-25.56 3.23-38.2-1.66-6.95-4.8-13.95-10.66-18.03-3.3-2.28-7.52-3.77-9.26-7.36-2.3-4.7 1.07-10.36 5.46-13.23 4.36-2.85 9.64-4.03 14.08-6.72 4.46-2.72 8.18-8.05 6.36-12.95h.36c4.28 0 8.33 1.84 12.36 3.7s8.03 3.67 12.16 3.67c.87 0 1.72-.05 2.6-.23 2.47-.52 4.6-1.77 6.36-3.5.4 2.87.75 5.74 1 8.64h0c.03.3.08.57.1.87v.03c0 .15 0 .28.02.4v.05c0 .15.03.28.05.4v.03c0 .15 0 .28.03.43h0c0 .13.02.28.02.4v.05c0 .16.03.3.03.4v.03l.08.85v.05c0 .13.02.28.02.4v.05a7.92 7.92 0 0 1 .05.85v.05c.03.13.03.25.03.38v.08a1.8 1.8 0 0 1 .03.41c0 .15.02.28.02.44 0 .15 0 .3.03.43v.08c0 .13.02.25.02.38v.44c.03 0 .03.02.03.02v.5c0 .13.02.26.02.4v.48a1.8 1.8 0 0 1 .03.41v.08a1.71 1.71 0 0 1 .03.39v.5c0 .13.02.26.02.38v.98c0 .13.03.25.03.38v2.77c0 91.66-74.3 165.96-165.96 165.96zm72.63-281.8c-2.6-5.4-5.5-10.62-8.64-15.67.02-1.72-.3-3.44-.95-5.06-.98-2.33-2.62-4.38-3.34-6.8-.87-2.9-.36-6.08-1.23-8.98a10.65 10.65 0 0 0-2.1-3.82c18.36 6.64 35.24 16.4 49.93 28.7-9 1.23-18.54 5.33-25.8 7.92-2.6.93-5.36 2.16-7.87 3.7z" fill="#5c95b7"/><path d="M384.2 559.87c-3.3-1.64-6.77-3.05-10.28-4.1-4.98-1.54-10.36-2.64-14-6.3-3.64-3.64-4.74-9.02-7.1-13.6-6.54-12.52-21.47-17.24-33.16-25.42 51.52-28.2 86.48-82.9 86.48-145.72 0-25.88-5.93-50.35-16.5-72.17 2.5-1.54 5.26-2.77 7.87-3.7 7.26-2.6 16.8-6.7 25.8-7.92 30.68 25.62 52 62.1 57.96 103.5-1.77 1.72-3.9 2.97-6.36 3.5-.9.18-1.74.23-2.6.23-4.13 0-8.13-1.82-12.16-3.67s-8.08-3.7-12.36-3.7h-.36c1.82 4.9-1.9 10.23-6.36 12.95-4.44 2.7-9.72 3.87-14.08 6.72-4.4 2.87-7.75 8.54-5.46 13.23 1.74 3.6 5.95 5.08 9.26 7.36 5.87 4.08 9 11.08 10.66 18.03 3 12.65 1.85 26.26-3.23 38.2-5.18 12.2-14.5 23.86-12.67 36.96.77 5.3 3.36 10.3 4.3 15.52-13.37 12.38-28.75 22.62-45.63 30.08zm-132.3 1.26c-19.67-8.4-37.42-20.52-52.35-35.45a166.44 166.44 0 0 0 40.55 5c2.9 0 5.74-.08 8.57-.2a75.12 75.12 0 0 1 4.51 14.64c1.05 5.34 1.3 11.44-1.28 16z" fill="#498962"/><path d="M381 276.9a166.7 166.7 0 0 0-23.45-29.47c5.4 1.36 10.67 2.95 15.83 4.82a10.65 10.65 0 0 1 2.1 3.82c.87 2.9.36 6.08 1.23 8.98.72 2.4 2.36 4.46 3.34 6.8.66 1.62.97 3.34.95 5.06z" fill="#7eb1b4"/><path d="M224.98 472.98c-4 0-8.03-.64-11.77-1.92 2.4-4.52 6.48-8.47 10.5-11.77 1.5-1.24 3.13-2.57 3.77-4.4 1.05-2.98-.72-6.2-2.77-8.62a31.92 31.92 0 0 0-16.87-10.23c-3.65-.87-7.52-1.1-10.85-2.82-4.57-2.36-7.52-7.26-12.24-9.3-1.1-.46-2.25-.77-3.43-1-.75-7.95-.4-16.03.5-24.05a39.25 39.25 0 0 1 1.87-.05c.72 0 1.44.02 2.13.07 3.75.3 7.5 1.1 11.18 1.1 1.62 0 3.23-.16 4.8-.6 3.54-1 6.56-3.3 9.18-5.85 15.3-14.93 18.8-40.55 8.03-59-1.26-2.15-2.72-4.26-3.67-6.54 11.26-7.38 25.16-12.08 38.2-12.08 1.65 0 3.3.1 4.93.23 7.2.72 14.44 4.08 18.26 10.24 3.28 5.3 3.6 12.05 2.28 18.15-1.33 6.13-4.13 11.8-6.8 17.47l-1.28 2.77c-4.56 1.67-8.95 3.74-12.67 6.85-6 5.02-9.85 13.44-7.15 20.77 1.48 4.1 4.77 7.28 7.1 11 .4.62.75 1.26 1.1 1.9-.94 13.2.2 26.62-2.23 39.62-.95 5.2-2.48 10.3-5.36 14.75-5.72 8.8-16.2 13.26-26.77 13.26z" fill="#82c7ed"/><path d="M259.34 405.35l-1.1-1.9c-2.33-3.72-5.62-6.9-7.1-11-2.7-7.33 1.15-15.75 7.15-20.77 3.72-3.1 8.1-5.18 12.67-6.85-4.67 10.2-8.82 20.7-10.64 31.75-.46 2.9-.77 5.85-.98 8.77zm-46.14 65.7c-1.1-.36-2.18-.8-3.24-1.3-14.18-6.56-23.46-21.1-26.98-36.3-.8-3.46-1.33-6.98-1.66-10.52 1.18.23 2.33.54 3.43 1 4.72 2.03 7.67 6.93 12.24 9.3 3.33 1.72 7.2 1.95 10.85 2.82a31.92 31.92 0 0 1 16.87 10.23c2.05 2.4 3.82 5.64 2.77 8.62-.64 1.82-2.26 3.15-3.77 4.4-4.03 3.3-8.1 7.25-10.5 11.77zM197 400.02c-3.7 0-7.43-.82-11.18-1.1-.7-.05-1.4-.07-2.13-.07a39.25 39.25 0 0 0-1.87.05c.46-4 1.05-8 1.72-11.95 2.92-17.6 7.62-35.8 19.77-48.86 3.44-3.7 7.52-7.05 12.03-10.03.95 2.28 2.4 4.4 3.67 6.54 10.77 18.44 7.28 44.06-8.03 59-2.62 2.54-5.64 4.85-9.18 5.85-1.57.43-3.18.6-4.8.6z" fill="#6ab884"/><path d="M272.53 314.84c-4.98 0-9.9-1.07-14.75-2.12-4.72-1.03-9.75-2.26-12.9-5.9-3.33-3.85-3.64-9.67-1.8-14.42.6-1.5 1.36-2.9 2.26-4.23 1.7 2.34 3.4 5.2 6.34 8.03 6.64 6.36 15.15 10.5 23.33 14.46 2.16 1.03 4.67 2.03 7.08 2.5-2.64 1.05-5.56 1.57-8.44 1.67-.38 0-.76.02-1.12.02z" fill="#a3d5f2"/><path d="M282.1 313.15c-2.4-.46-4.92-1.46-7.08-2.5-8.18-3.97-16.7-8.1-23.33-14.46-2.95-2.82-4.65-5.7-6.34-8.03 1.92-2.87 4.5-5.33 7.18-7.5 6.4-5.18 19.42-12.5 30.06-12.5 6.4 0 11.93 2.66 14.62 10.05 2.33 6.4-.03 13.4-2.5 19.72-1.6 4.05-3.3 8.2-6.4 11.26-1.77 1.75-3.9 3.05-6.2 3.95z" fill="#c2efef"/><path d="M549.26 617.46c-38.2 40.1-101.68 41.67-141.8 3.47-40.12-38.2-41.67-101.68-3.48-141.8 38.2-40.12 101.7-41.67 141.8-3.47 40.1 38.2 41.66 101.68 3.46 141.8z" fill="#5ec6d1"/><path d="M454.6 506.27c-22.12-2.6-44.6-3.8-66.96-3.93-5.6 10.84-9.1 22.47-10.5 34.3 41.13-2.47 82.2-5.28 123.5-5.94 24.6-.4 49.9-.34 75.05 1.25-.36-2.17-.8-4.33-1.3-6.48-39.74-7.7-79.57-14.47-119.8-19.2zm53.02 111.78c-36.53-4.33-73.22-6.32-109.93-7.93 3 3.82 6.3 7.47 9.9 10.9a102.72 102.72 0 0 0 12.15 9.9c34.63-1.03 69.3-.6 103.9.78l8.4.4a101.16 101.16 0 0 0 11.64-9c-12-2-24.02-3.64-36.05-5.06zm-130.85-77.58c-.74 9.38-.16 18.83 1.73 28.06 43.5-3.44 87.2-5.75 130.7-5.38 22.13.2 44.25 1.03 66.3 2.8a107.95 107.95 0 0 0 1.09-7.99c-32.35-5.73-65.2-9.35-97.1-12.44-34.16-3.3-68.43-4.82-102.73-5.04zM476.9 468l-53.7-4.44c-6.84 4.32-13.26 9.54-19.1 15.67a100.32 100.32 0 0 0-14.49 19.43l10.9-.3 120.43-3.64 40.33-.33c-3.93-6.15-8.6-11.96-14-17.3-23.28-4.2-46.94-7.02-70.37-9.08zm29.6 114.3c-42.08-4.44-83.96-5-126.1-6.1a99.45 99.45 0 0 0 9.13 21.71l11.94-.2c46.74-1.58 93.35-1 140.04 1.62l20.93 1.24c2.07-3.4 3.92-6.87 5.55-10.43-20.4-3.16-40.92-5.67-61.48-7.83z" fill="#378bef"/><path d="M476.6 648.6h-.01.01zm.02 0c19.26 0 38.5-5.53 55.15-16.5h0c-16.65 10.97-35.9 16.5-55.15 16.5z" fill="#374855"/><path d="M476.6 648.6h-.01c-19.86 0-39.75-5.87-56.84-17.66 13.1-.4 26.22-.57 39.33-.57 21.53 0 43.06.5 64.55 1.35l8.14.4c-16.64 10.96-35.9 16.5-55.15 16.5z" fill="#549ca6"/><path d="M549.37 617.35c-.03.04-.07.07-.1.1l.1-.1zm.4-.44c-.02.02-.04.04-.05.06.01-.03.03-.04.05-.06zm.25-.26l-.05.05c.01-.01.03-.04.05-.05zm.7-.78l.04-.04c-.01.02-.03.03-.04.04zm.56-.6c0-.01.01-.02.02-.03-.01.02-.01.02-.02.03zm-1.73 1.87c-.01.02-.03.04-.05.06.02-.02.03-.04.05-.06zm1.08-1.16c.01-.01.02-.02.03-.02-.02.01-.02.01-.03.02zm-1.03 1.1l.06-.06-.06.06zm1.33-1.44zm-7.47 7.43h0l5.06-4.86-5.06 4.86zm-135.74-1.88l-.27-.26.27.26zm-.4-.38zm141.5-2.92c.02-.02.06-.06.08-.1-.02.03-.06.07-.08.1zm.56-.58c.02-.03.04-.05.06-.07-.02.02-.04.04-.06.07zm.42-.45c.03-.03.05-.06.08-.08-.03.02-.05.05-.08.08zm.25-.27c.01-.02.03-.03.05-.05-.02.02-.04.03-.05.05zm.1-.1l.05-.05-.05.05zm.1-.1c.01-.02.02-.03.04-.05-.02.02-.03.03-.04.05zm.1-.1c.01-.02.02-.02.03-.04-.01.02-.02.02-.03.04zm.46-.5c0-.01.01-.02.02-.03-.01.01-.02.02-.02.03zm.55-.6c0-.01 0-.01.01-.02-.01.01-.01.01-.01.02zm.1-.1z" fill="#374855" class="Ah"/><path d="M414.8 627.28l-7.07-6.1-.27-.26-.12-.12c-20-19.1-30.37-44.5-31-70.12.05.07.1.14.13.2.15 5.92.82 11.82 2 17.63l11.36-.87 2.17 2.12a102.52 102.52 0 0 0 8.07 6.92l-19.72-.5a99.45 99.45 0 0 0 9.13 21.71l11.94-.2a1527.05 1527.05 0 0 1 48.77-.86c3.64.4 7.3.6 10.96.6a100.68 100.68 0 0 0 9.97-.49c23.44.27 46.87 1.07 70.34 2.38l20.77 1.23c-2.96 4.83-6.37 9.47-10.22 13.87h0l-.54.6c-.03.05-.06.07-.1.1-.01.01-.01.01-.01.02l-.08.08c-.01.01-.02.02-.02.03-.12.12-.23.25-.35.38-.03.04-.05.06-.08.1-.01.01-.02.02-.02.03l-.1.1c-.02.02-.04.05-.06.08-.01 0-.02.01-.03.02-.08.1-.15.17-.23.25-.01.02-.02.02-.03.04-.02.02-.04.05-.06.06-.02.02-.03.03-.04.05l-.1.1c-.02.02-.03.04-.05.06s-.04.03-.05.05-.04.04-.05.06l-.05.05c-.03.03-.05.05-.07.08-.03.02-.05.05-.08.08l-.05.05c-.02.02-.04.04-.05.06a.12.12 0 0 0-.05.05l-.06.06c-.01.02-.03.03-.05.05-.01.02-.03.04-.05.06a.12.12 0 0 0-.05.05c-.02.02-.04.04-.06.07-.02.01-.03.02-.04.04l-.1.1-.33.34c-.02.03-.06.07-.08.1-.1.1-.2.2-.3.32-1.64 1.7-3.33 3.3-5.06 4.86-11.93-1.96-23.9-3.6-35.86-5.02-36.53-4.33-73.22-6.32-109.93-7.93 3 3.82 6.3 7.47 9.9 10.9 2.33 2.22 4.74 4.3 7.22 6.25zm153-37.16c-18.18-2.8-36.45-5.1-54.76-7.1 7.47-4.5 14.46-10.08 20.77-16.7l2.37-2.6c13.08.45 26.14 1.17 39.17 2.2-1.47 8.28-3.98 16.4-7.55 24.2zm8.65-32.2c-10.6-1.88-21.25-3.53-31.9-5 4.64-6.93 8.34-14.3 11.06-21.94l19.96.95c1.4 8.6 1.7 17.33.88 26zm-2.17-32.5l-16.02-3.05a100.97 100.97 0 0 0 3.18-27.65c6.05 9.58 10.34 19.96 12.84 30.7z" fill="#549ca6"/><path d="M575.6 531.93l-19.96-.95 2.65-8.6 16.02 3.05a103.38 103.38 0 0 1 1.29 6.49zM531.78 632.1h0l-8.14-.4c-21.5-.86-43.02-1.35-64.55-1.35-13.1 0-26.22.18-39.33.57-1.68-1.16-3.33-2.37-4.95-3.65-2.48-1.95-4.9-4.03-7.22-6.25a105.45 105.45 0 0 1-9.9-10.9c36.7 1.6 73.4 3.6 109.93 7.93 11.96 1.4 23.93 3.06 35.86 5.02h0a102.05 102.05 0 0 1-11.7 9.03zM378.5 568.53c-1.2-5.8-1.86-11.7-2-17.63 3.78 5.94 8.24 11.57 13.37 16.76l-11.36.87zm196.87-2.6c-13.03-1.04-26.1-1.76-39.17-2.2a100.44 100.44 0 0 0 8.37-10.8c10.65 1.48 21.3 3.13 31.9 5a103.17 103.17 0 0 1-1.1 8zm-13.1 34.63l-20.77-1.23c-23.47-1.3-46.9-2.1-70.34-2.38 14.62-1.46 28.98-6.1 41.9-13.94 18.3 2 36.58 4.3 54.76 7.1a101.59 101.59 0 0 1-5.56 10.44zM389.5 597.9a99.45 99.45 0 0 1-9.13-21.71l19.72.5c14.94 11.5 32.33 18.2 50.12 20.15a1527.05 1527.05 0 0 0-48.77.86c-3.9.14-7.9.18-11.94.2z" fill="#3a74bb"/><path d="M430.96 541.96l-17.56-.74c-2.68-1.6-5.05-3.8-6.86-6.38l36.22-2.06c-2.4 2.36-4.86 4.6-7.58 6.57-1.34.98-2.75 1.87-4.22 2.6zm46.07-32.85l-22.44-2.84c-15.43-1.8-31.04-2.94-46.65-3.5 1.03-1.67 2.16-3.27 3.38-4.8l81.92-2.7c-.02.13-.05.25-.07.38-.78 3.7-3.45 6.77-6.57 8.9-2.93 2-6.26 3.27-9.57 4.55z" fill="#78cfd8"/><path d="M406.54 534.84a21.13 21.13 0 0 1-2.32-4.28c-3.47-8.77-1.47-19 3.32-27.14l.4-.66c15.6.57 31.22 1.7 46.65 3.5l22.44 2.84c-.22.1-.45.17-.68.26-6.87 2.68-13.7 5.7-19.6 10.13-5.12 3.88-9.4 8.76-14 13.28l-36.22 2.06zM423 544c-3.34 0-6.65-1.02-9.6-2.77l17.56.74a19.17 19.17 0 0 1-4.27 1.6c-1.23.3-2.46.43-3.7.43zm-11.68-46.04c4.47-5.62 10.1-10.34 15.85-14.67 8.6-6.48 18.26-12.5 29-13.13.7-.04 1.4-.07 2.13-.07 11.16 0 23.84 5.08 31.13 13.5 2.78 3.2 4.52 7.53 3.8 11.7L411.3 498z" fill="#579ef2"/><path d="M375.83 600.17s-21.3 26.2-17.5 37.74c3.78 11.54 30.27 13.37 70.8-4.53 40.53-17.9 129.5-72.55 160.84-110.07 21.16-25.3 27-52.62 17.83-59.04-8.27-5.8-34.16.35-34.16.35s33.7-8.45 39.06-.82c5.6 7.96 6.06 29.83-13.67 54.12-44.97 55.35-114.9 93.83-158.18 116.4-39.34 20.5-81.28 22.84-86.23 8.33-4.96-14.52 21.2-42.5 21.2-42.5z" fill="#61c5d6"/><path d="M386.9 444.56c0 1.07.86 1.93 1.92 1.93 1.07 0 1.93-.86 1.93-1.93 0-1.06-.86-1.92-1.93-1.92a1.92 1.92 0 0 0-1.92 1.92zm-33.17-29.4a1.93 1.93 0 1 0 3.86 0c0-1.07-.86-1.93-1.93-1.93s-1.93.86-1.93 1.93zm6.05-67.83a1.93 1.93 0 1 0 1.92-1.93 1.93 1.93 0 0 0-1.92 1.93zm37.52-23.12a1.93 1.93 0 0 0 1.93 1.93 1.93 1.93 0 0 0 1.92-1.93c0-1.07-.86-1.93-1.92-1.93-1.07 0-1.93.86-1.93 1.93zm187.1 195.35a2.89 2.89 0 0 0 2.88 2.89 2.89 2.89 0 0 0 2.89-2.89c0-1.6-1.3-2.88-2.9-2.88a2.88 2.88 0 0 0-2.88 2.88zm33.9-109.72c.06 1.07.97 1.9 2.03 1.83a1.94 1.94 0 0 0 1.83-2.03 1.95 1.95 0 0 0-2.03-1.83 1.95 1.95 0 0 0-1.83 2.03zm16.52-44.17c.05 1.06.96 1.88 2.03 1.83a1.94 1.94 0 0 0 1.82-2.03c-.06-1.07-.97-1.9-2.03-1.83s-1.88.97-1.82 2.03zM611.8 472.4a1.93 1.93 0 0 0 1.92 1.93 1.93 1.93 0 0 0 1.93-1.93c0-1.07-.86-1.93-1.93-1.93-1.06 0-1.92.86-1.92 1.93zm-2.72-138.6c.05 1.06.96 1.88 2.02 1.82a1.92 1.92 0 0 0 1.83-2.03c-.06-1.06-.97-1.88-2.03-1.82-1.07.05-1.88.96-1.82 2.03zM354.12 523.45a1.93 1.93 0 0 0 1.93 1.93 1.94 1.94 0 0 0 1.93-1.93 1.94 1.94 0 0 0-1.93-1.93 1.93 1.93 0 0 0-1.93 1.93zm10.48 41.78a1.94 1.94 0 0 0 1.93 1.93 1.93 1.93 0 0 0 1.93-1.93c0-1.07-.86-1.93-1.93-1.93a1.93 1.93 0 0 0-1.93 1.93zm73.63-271.27a1.93 1.93 0 1 0 1.93-1.93 1.93 1.93 0 0 0-1.93 1.93zm-36.76 270.17a1.93 1.93 0 0 0 1.93 1.93 1.94 1.94 0 0 0 1.93-1.93 1.93 1.93 0 0 0-1.93-1.93c-1.07 0-1.93.86-1.93 1.93zm168.36-5.45a1.93 1.93 0 1 0 3.86 0 1.94 1.94 0 0 0-1.93-1.93 1.94 1.94 0 0 0-1.93 1.93zm-12.65-53.78c0 1.07.86 1.93 1.93 1.93 1.06 0 1.92-.86 1.92-1.93a1.93 1.93 0 0 0-1.92-1.93 1.93 1.93 0 0 0-1.93 1.93zm-177.9-115.64c0 1.07.86 1.93 1.92 1.93 1.07 0 1.93-.86 1.93-1.93a1.93 1.93 0 0 0-1.93-1.93 1.93 1.93 0 0 0-1.92 1.93zM614.9 545.7a1.94 1.94 0 0 0 1.93 1.93 1.93 1.93 0 1 0 0-3.86 1.94 1.94 0 0 0-1.93 1.93z" class="Ai"/><path d="M433.16 382.23c5.26 38.33 44.13 64.66 86.8 58.8S593 399.34 587.73 361c-5.27-38.34-44.14-64.67-86.82-58.8-42.68 5.86-73.02 41.68-67.75 80.02z" fill="#64cbff"/><g class="Ag Ah"><path d="M512.75 301.6c37.65 0 70 24.84 74.76 59.43 2.53 18.48-3.1 36.94-15.85 52-12.76 15.08-31.13 24.93-51.72 27.76-42.5 5.84-81.33-20.46-86.57-58.6-2.54-18.48 3.1-36.95 15.85-52.02s31.13-24.92 51.72-27.76a87.69 87.69 0 0 1 11.81-.81zM520 441.25c20.7-2.84 39.16-12.75 52-27.9s18.5-33.76 15.95-52.36c-5.28-38.4-44.33-64.86-87.07-59-20.7 2.84-39.17 12.75-52 27.9s-18.5 33.76-15.95 52.36c4.78 34.8 37.33 59.8 75.2 59.8 3.9 0 7.87-.26 11.87-.8z"/><path d="M486.48 440.42l-4.3-1.25-.47-.16-.37-.1c-15.18-5.04-27.97-14.07-36.98-26.13-6.78-9.08-11-19.3-12.5-30.36-5.36-39 25.55-75.57 68.9-81.52s82.96 20.94 88.3 59.93c5.35 39-25.55 75.57-68.9 81.52-4.06.57-8.1.84-12.1.84-7.3 0-14.52-.92-21.56-2.76zm14.6-136.9c-41.9 5.75-71.77 40.98-66.6 78.53 1.45 10.6 5.5 20.4 12 29.13 8.68 11.6 21 20.32 35.66 25.2l.82.26a75.62 75.62 0 0 0 4.18 1.22c10.56 2.76 21.55 3.4 32.64 1.86 41.9-5.75 71.77-40.98 66.62-78.52-4.67-34.03-36.55-58.47-73.66-58.47a85.48 85.48 0 0 0-11.66.8z"/></g><path d="M459.08 422.12a79.6 79.6 0 0 0 11.02 5.32c3.6 1.42 7.4 2.63 11.3 3.6.37-.77.63-1.6.74-2.45a7.94 7.94 0 0 0-.01-2.23c-.36-2.34-1.1-4.57-2.07-6.7-8.3-7.38-18.17-13.06-17.76-22.14v-.12c.17-3.4.88-5.97 1.8-7.9.86-1.83 1.9-3.1 2.86-3.97-1.67-.77-4.66-1.36-7.54-.75-2.04 1.45-4.04 3.33-5.76 5.57-.94 1.23-1.75 2.56-2.45 4-1.05 2.18-1.85 4.58-2.43 7.13-.01.06-.02.12-.04.18-1.74 7.83 2.3 15.76 10.34 20.47z" class="Al"/><g class="Ah"><path d="M481.35 431.27c-3.9-.97-7.72-2.2-11.34-3.62-3.9-1.53-7.6-3.32-11.04-5.34-8.1-4.73-12.2-12.86-10.45-20.7.01-.06.03-.12.04-.17.6-2.67 1.42-5.08 2.45-7.2.7-1.47 1.54-2.82 2.47-4.02 1.64-2.15 3.64-4.1 5.8-5.63.03-.01.06-.03.1-.03 2.82-.6 5.88-.05 7.67.75.07.04.12.1.13.18s-.01.15-.07.2c-1.13 1.02-2.06 2.33-2.8 3.9-1.02 2.2-1.62 4.82-1.77 7.85v.1c-.33 7.14 5.94 12.25 12.56 17.65l5.12 4.3c.03.01.05.04.06.07 1.07 2.35 1.75 4.56 2.08 6.77.12.77.12 1.54.02 2.3a8.25 8.25 0 0 1-.77 2.52c-.04.08-.12.14-.2.14-.02 0-.04-.01-.06-.02zm-6.54-15.72c-6.72-5.48-13.07-10.66-12.73-18.02v-.13c.16-3.07.77-5.77 1.82-8 .7-1.5 1.6-2.77 2.64-3.8-1.74-.7-4.47-1.14-7.02-.6a26.86 26.86 0 0 0-5.68 5.49c-.9 1.18-1.72 2.5-2.42 3.95-1 2.08-1.82 4.46-2.42 7.07 0 .06-.02.13-.03.2-1.7 7.65 2.3 15.6 10.23 20.22 3.42 2 7.12 3.78 10.98 5.3a93.39 93.39 0 0 0 11.1 3.56 7.49 7.49 0 0 0 .64-2.22c.1-.7.1-1.43-.01-2.16-.33-2.15-1-4.32-2.03-6.6-1.65-1.48-3.4-2.9-5.07-4.26zm-15.73 6.57h0z" class="Aj"/><path d="M487.92 433.82l-.87-.16c-10.57-1.96-20.2-5.45-28.65-10.38-8.52-4.98-12.83-13.6-10.97-21.92l.03-.2c1.06-4.67 2.8-8.6 5.13-11.64 2.17-2.83 4.86-5.25 7.8-6.98 2.45-1.46 6.68-.54 7.92 1.18.64.87.53 1.95-.3 2.66-1.8 1.6-4.03 4.8-4.34 11.05 0 .06-.01.1-.01.16-.3 6.57 5.47 11.27 12.15 16.72 4.7 3.83 9.55 7.8 12.84 12.9a1.33 1.33 0 0 1 .15 1.16c.03.43.2 1.45.68 3.84a1.38 1.38 0 0 1-1.33 1.62 1.64 1.64 0 0 1-.23-.02zm-13.82-17.4c-6.94-5.67-13.5-11.02-13.14-18.92 0-.07 0-.13.01-.2.33-6.5 2.56-10.24 4.6-12.33-.93-.4-2.73-.75-3.8-.1-2.64 1.56-5.07 3.74-7.03 6.3-2.1 2.75-3.66 6.3-4.63 10.6l-.04.17c-1.6 7.28 2.1 14.56 9.7 19 7.87 4.6 16.84 7.9 26.67 9.84-.24-1.27-.35-2.04-.35-2.56-3.07-4.54-7.6-8.24-12-11.8z" class="Ag"/></g><path d="M471.17 426.42c-1.44-2.36-3.63-4.67-6.55-6.88-8-6.08-12.77-12.72-14.1-19.47 0 .04-.02.08-.03.12.25 7.35 4.82 14.82 13.9 21.72 1.47 1.12 2.7 2.2 3.73 3.27l3.04 1.24z" class="Aq"/><path d="M472.1 428.2c-.26-.6-.58-1.2-.94-1.8l-3.04-1.24c.76.77 1.4 1.53 1.97 2.26l2 .77zM450.5 400.2c.01-.04.03-.08.03-.12l-.03-.2v.33z" class="Ag"/><path d="M465.44 418.46c4.6 3.5 6.9 6.8 8 9.44.54 1.42.4 3.22.03 4.98l.77.33c1.3.54 2.64 1.06 4 1.55l3.83-6.47c.03-.06.07-.1.1-.17l.06-.1c.04-.08.08-.15.12-.23.4-.82.7-1.7.84-2.65a8.27 8.27 0 0 0-.02-2.22c-2.2-14.76-19.73-24.77-14.95-37.1.34-.9.7-1.72 1.08-2.48v-.01a.33.33 0 0 0 .01-.22c-.28-1.14-5.87-3.1-10.44-1.32a8.4 8.4 0 0 0-4.2 3.56 34.18 34.18 0 0 0-.81 1.46c-5.33 10.33-1.68 21.6 11.57 31.64z" class="An"/><g class="Ah"><path d="M478.18 434.97l-4.02-1.55-.46-.2-.3-.13c-.1-.04-.15-.14-.13-.26.43-2.03.42-3.66-.02-4.84-1.38-3.25-4.05-6.4-7.94-9.34-13.02-9.88-17.16-21.23-11.63-31.94.26-.5.52-1 .82-1.47a8.56 8.56 0 0 1 4.31-3.65c3.64-1.43 7.82-.5 9.6.43.47.25 1.04.62 1.14 1.04a.5.5 0 0 1-.02.36c0 .01-.01.02-.01.03-.4.8-.75 1.62-1.08 2.46-2.63 6.82 1.74 13.04 6.37 19.63 3.75 5.33 7.62 10.83 8.6 17.35.1.77.1 1.54.01 2.3-.13.93-.4 1.85-.88 2.76l-.1.2-.03.04-.02.05c-.03.04-.05.1-.08.14l-.02.03c-.67 1.2-2.3 3.98-3.83 6.48-.04.07-.12.1-.2.1-.02 0-.05 0-.07-.02zm-9.08-51.73c.01-.02.01-.03 0-.06-.04-.16-.3-.43-.9-.75-1.7-.9-5.73-1.8-9.22-.4-1.75.68-3.12 1.85-4.1 3.46-.3.47-.55.95-.8 1.44-5.42 10.5-1.33 21.63 11.5 31.36 3.95 3 6.67 6.2 8.08 9.54.47 1.25.5 2.86.1 4.93l.12.05c.16.06.32.13.47.2a81.06 81.06 0 0 0 3.81 1.49l3.75-6.35c.02-.03.05-.07.08-.13l.16-.3a8.17 8.17 0 0 0 .82-2.58 7.45 7.45 0 0 0-.02-2.16c-.96-6.4-4.8-11.87-8.5-17.15-4.7-6.7-9.15-13.02-6.43-20.07.33-.84.7-1.68 1.1-2.48v-.02z" class="Aj"/><path d="M477.8 436.03l-4.07-1.58-.77-.32c-.6-.25-.93-.9-.8-1.53.38-1.8.4-3.22.03-4.2-1.3-3.05-3.84-6.03-7.57-8.86-13.5-10.25-17.75-22.1-11.95-33.35a40.41 40.41 0 0 1 .85-1.53c3.8-6.33 12.12-5.43 15.53-3.56 2.1 1.14 1.65 2.47 1.47 2.85a26.89 26.89 0 0 0-1.04 2.37c-2.42 6.25 1.6 11.96 6.24 18.58 3.82 5.43 7.77 11.05 8.78 17.83.3 1.93-.04 3.9-.94 5.66-.05.1-.1.2-.16.3-.02.03-.03.06-.05.1-.03.06-.07.12-.1.18a279.34 279.34 0 0 1-3.83 6.49c-.25.42-.7.65-1.16.65-.15 0-.3-.03-.45-.08zm-16-53.54c-2.7.27-4.7 1.48-5.96 3.57a24.39 24.39 0 0 0-.77 1.38c-5.13 9.95-1.16 20.6 11.18 29.95 4.12 3.13 6.96 6.5 8.45 9.98 0 .02.01.03.01.05.48 1.26.57 2.78.3 4.63.88.37 1.77.72 2.66 1.06l3.23-5.48c0-.01.02-.03.02-.04.03-.04.04-.07.06-.1.01-.03.02-.05.04-.07.01-.02.03-.06.04-.07.02-.04.04-.1.08-.16.67-1.3.9-2.68.7-4.07-.9-6.15-4.68-11.5-8.32-16.67-4.88-6.95-9.5-13.5-6.55-21.1.25-.65.5-1.27.8-1.88-.96-.53-3.36-1.24-5.95-.97z" class="Ag"/></g><path d="M476.96 428.2l-.48-.4c.1.18.26.32.48.4zm-10.62-17.77l-.8-4.33c-4.6-4.05-7.73-8.58-9.18-13.32l-.3-1c.1 5.8 2.93 12.45 10.26 18.65z" class="Ar"/><path d="M484.93 365.1s-10.12-.14-14.4 10.93c-4.78 12.33 23.8 20.55 18.93 37.13-1.36 4.64-6.82 8.66-11.13 10.2-.7.26-1.47-.32-1.14-.9 1.42-2.5 2.9-7.88-5.38-13.3-16.32-10.68-17.18-23.58-12.74-31.33 6.5-11.36 19.8-16.95 25.63-15.27l.23 2.55z" class="As"/><path d="M467.37 384.82l1.33-4.1.1-.26c-.3-1.58-.2-3.2.48-4.93.56-1.45 1.22-2.73 1.94-3.85-1.62 1.56-3.12 3.68-4.22 6.55-.9 2.3-.63 4.48.38 6.58z" class="At"/><path d="M459 381.23c3.77-6.02 9.44-10.3 14.7-12.58a16.44 16.44 0 0 1 1.51-1.31c.54-.87 1-1.58 1.38-2.1-.13-.1-.26-.2-.4-.3-5.6 2.16-12.13 6.85-15.96 13.54-.48.85-.9 1.77-1.23 2.75z" class="Au"/><path d="M476.22 423.97a1.92 1.92 0 0 1-.21-2.18c1.56-2.75 1.97-6.98-4.94-11.5-7.64-5-12.72-11.05-14.7-17.5-1.68-5.44-1.13-11 1.53-15.63 7-12.24 21-17.67 27.18-15.9.53.16.92.62.97 1.18l.23 2.55a1.27 1.27 0 0 1-.36 1.03c-.25.28-.6.44-1 .44-.32 0-9.3.1-13.14 10.07-1.93 4.97 2.74 9.4 8.15 14.53 6.38 6.07 13.62 12.93 10.8 22.5-1.46 5-7.13 9.36-11.97 11.1a2.51 2.51 0 0 1-.81.14c-.67 0-1.32-.28-1.75-.8zm7.23-60.3c-5.72-.75-17.47 4.8-23.2 14.8-4.12 7.2-3.37 19.27 12.3 29.54 7.9 5.18 7.63 10.53 6.5 13.6 3.83-1.7 8.02-5.13 9.1-8.83 2.34-7.98-3.97-13.97-10.08-19.77-5.6-5.32-11.4-10.8-8.8-17.47 3.56-9.2 11.02-11.22 14.2-11.67l-.02-.2z" class="Ag Ah"/><path d="M467.27 408.5l.2 1 .46 1.88c.52 1.94 1.2 3.9 2.05 5.88 7.34 16.94 32.32 20.14 41.5 20 9.17.15 34.15-3.05 41.5-20 .83-1.9 1.5-3.82 2-5.7.1-.37.2-.74.28-1.1a37.91 37.91 0 0 0 .4-1.78c4.62-23.15-11.18-43.8-11.18-43.8s12.73-7.7 6.92-17.46c-4.54-7.63-19.65-4.72-23.48 6.72h-32.88c-3.84-11.44-18.96-14.35-23.5-6.72-5.8 9.76 6.93 17.46 6.93 17.46s-15.73 20.55-11.2 43.62z" class="Ai"/><path d="M511.5 437.48c-5.17.1-13.54-.8-21.52-3.6-10.18-3.55-16.97-9.1-20.18-16.52a44.09 44.09 0 0 1-2.07-5.91c-.16-.6-.3-1.23-.46-1.9l-.2-1.02c-4.25-21.72 9.53-41.45 11.1-43.6-1.62-1.06-12.22-8.5-6.78-17.63 1.87-3.15 5.66-4.74 10.13-4.26 4.78.5 11.2 3.67 13.7 10.88h32.57c2.5-7.22 8.92-10.37 13.7-10.88 4.47-.48 8.26 1.1 10.14 4.26 5.43 9.14-5.17 16.57-6.8 17.63 1.58 2.16 15.43 21.98 11.08 43.8l-.4 1.8c-.1.37-.2.74-.3 1.1-.53 1.94-1.2 3.87-2.02 5.74-3.2 7.4-10 12.97-20.2 16.52-7.64 2.67-15.64 3.6-20.84 3.6-.22 0-.45 0-.66-.01zm30.03-94c-4.68.5-11 3.6-13.4 10.73-.03.1-.1.15-.2.15h-32.88c-.1 0-.2-.06-.2-.15-2.4-7.12-8.7-10.24-13.38-10.73-4.3-.46-7.93 1.05-9.7 4.05-5.63 9.45 6.72 17.08 6.84 17.15.05.04.1.1.1.15.02.06 0 .13-.04.18-.16.2-15.6 20.74-11.17 43.45l.22 1a36.82 36.82 0 0 0 .45 1.87c.53 1.97 1.22 3.94 2.04 5.85 7.25 16.73 32.27 20 41.3 19.86 9.02.15 34.04-3.13 41.28-19.86.8-1.85 1.48-3.76 2-5.68l.3-1.1c.14-.58.27-1.17.4-1.77 4.55-22.78-10.97-43.4-11.13-43.62-.04-.05-.05-.12-.04-.18s.04-.1.1-.15c.13-.07 12.47-7.7 6.85-17.15-1.58-2.65-4.6-4.14-8.22-4.14a12.54 12.54 0 0 0-1.49.09zm-74.25 65.02h-.01.01z" class="Ag Ah"/><path d="M484.55 349.94c2.76 1.68 3.85 4.93 2.43 7.25-1.4 2.32-4.8 2.84-7.55 1.16s-3.85-4.92-2.44-7.24c1.42-2.32 4.8-2.84 7.56-1.17zm54 0c-2.77 1.68-3.86 4.93-2.44 7.25 1.4 2.32 4.8 2.84 7.55 1.16s3.85-4.92 2.44-7.24c-1.42-2.32-4.8-2.84-7.55-1.17z" fill="#f883a0"/><path d="M467.94 411.83c.52 1.95 1.2 3.9 2.05 5.88 7.34 16.95 32.32 20.14 41.5 20 9.17.14 34.15-3.05 41.5-20 .83-1.9 1.5-3.82 2-5.7-10.33-5.94-26.06-9.73-43.68-9.73-17.45 0-33.05 3.72-43.37 9.56z" fill="#ffebf6"/><path d="M512.1 435.94c9.3 0 32.8-3.38 39.66-19.2.63-1.45 1.16-2.9 1.6-4.37-7.66 14.4-31.7 17.4-41.38 17.4h-1.24c-9.46 0-32.57-2.85-40.8-16.36.37 1.1.8 2.23 1.28 3.34 6.86 15.84 30.44 19.2 39.74 19.2.2 0 .38 0 .56-.01.2.01.4.01.6.01z" fill="#c3a4cf"/><path d="M510.82 438.6h.7c5.22.1 13.74-.83 21.85-3.66 10.34-3.6 17.54-9.54 20.84-17.13 4.8-11.1 4.83-23.92.07-37.07-2.75-7.6-6.3-13.2-7.9-15.5 4.75-3.36 10.9-10.57 6.18-18.5-2.1-3.54-6.3-5.33-11.2-4.8-5.13.55-12.06 3.97-14.68 11.78a1.33 1.33 0 0 0 .83 1.69c.7.23 1.45-.15 1.7-.84 2.07-6.2 7.75-9.48 12.44-9.98 3.86-.4 7.1.9 8.64 3.52 5.06 8.5-6 15.35-6.46 15.64a1.31 1.31 0 0 0-.62.89 1.32 1.32 0 0 0 .25 1.05c.2.26 19.3 25.73 8.32 51.06-7 16.17-31.43 19.34-40.25 19.2-8.87.14-33.3-3.02-40.3-19.2-10.97-25.33 8.13-50.8 8.32-51.06a1.32 1.32 0 0 0 .25-1.05c-.07-.38-.3-.7-.62-.9-.47-.3-11.52-7.14-6.46-15.64 1.56-2.62 4.8-3.93 8.64-3.52 4.7.5 10.36 3.78 12.45 9.98.23.7 1 1.07 1.68.84.7-.23 1.07-1 .84-1.7-2.62-7.8-9.55-11.23-14.7-11.78-4.9-.52-9.1 1.27-11.2 4.8-4.72 7.92 1.43 15.13 6.17 18.5-1.6 2.3-5.14 7.9-7.9 15.5-4.76 13.15-4.73 25.97.07 37.07 3.3 7.6 10.5 13.52 20.84 17.13 7.77 2.7 15.9 3.67 21.2 3.67z" class="Ag"/><path d="M473.97 403.86c0 2.92 3.6 5.3 8.03 5.3s8.02-2.37 8.02-5.3-3.6-5.3-8.02-5.3c-4.44 0-8.03 2.37-8.03 5.3zm58.73.08c0 2.88 3.53 5.2 7.9 5.2s7.9-2.33 7.9-5.2-3.54-5.2-7.9-5.2-7.9 2.33-7.9 5.2z" fill="#fdc1e5"/><path d="M544.5 366.2a1.35 1.35 0 0 0 .83-.29c.58-.45.68-1.28.22-1.86-.1-.14-2.64-3.37-4.53-5.17-.53-.5-1.38-.5-1.88.05-.5.52-.5 1.37.05 1.87 1.74 1.67 4.24 4.85 4.27 4.9a1.33 1.33 0 0 0 1.04.51z" class="Ag"/><path d="M479.15 358.83s.3 1.27 1.1 2.98c-.4-1.48-.54-2.64-.58-3.07l-.5.1z" fill="#b5e5fb"/><path d="M480.04 361.9c-.78-1.7-1.1-2.96-1.1-3.02-.02-.06-.01-.12.03-.18.04-.05.1-.1.16-.1l.5-.08c.06-.02.13 0 .18.03a.26.26 0 0 1 .09.16 19.46 19.46 0 0 0 .57 3.03c.03.1-.03.23-.14.27-.02.01-.04.01-.07.01-.1 0-.16-.04-.2-.13zm-.62-2.9l.08.24c-.02-.1-.03-.17-.04-.25-.01.01-.03.01-.04.01z" class="Ag Ah"/><path d="M479.64 358.56s0 .07.02.18l.76-.18h-.78z" fill="#b5e5fb"/><g class="Ag"><path d="M479.66 358.96h.04l.8-.2c.1-.03.17-.14.16-.25-.03-.1-.13-.2-.24-.2-.47.03-.75.01-.75.01-.07 0-.13.02-.18.07-.04.05-.06.1-.06.17l.02.18a.18.18 0 0 0 .09.16c.03.03.08.04.13.04zm58.14 33.82a1.2 1.2 0 0 0 .28-.03c.73-.16 1.18-.87 1.02-1.58-1.12-5.16-4.28-8.46-8.45-8.8-3.87-.33-7.53 2.07-9.1 5.97a1.33 1.33 0 0 0 .73 1.74 1.34 1.34 0 0 0 1.73-.74c1.13-2.8 3.7-4.55 6.42-4.32 2.95.25 5.22 2.76 6.07 6.72.14.62.7 1.05 1.3 1.05z"/><path d="M540.88 389.2c-.07.02-.23.1-.35.12a3.01 3.01 0 0 1-.41.09c-.27.04-.55.04-.8.01a2.18 2.18 0 0 1-.76-.19c-.23-.1-.46-.23-.67-.37l-.03-.02c-.5-.32-1.18-.2-1.5.3-.34.5-.2 1.2.3 1.52.05.03.1.07.16.1.4.17.8.32 1.22.4.43.1.86.1 1.28.08s.83-.12 1.22-.26c.2-.06.4-.14.57-.23a3.39 3.39 0 0 0 .56-.33c.33-.22.42-.67.2-1a.73.73 0 0 0-.84-.27l-.14.05z"/><path d="M540.27 386.84c-.07.05-.2.16-.34.23-.13.08-.26.15-.4.2a2.3 2.3 0 0 1-.85.17c-.3 0-.57-.01-.86-.1-.13-.03-.27-.1-.4-.15l-.4-.2-.1-.04a1.09 1.09 0 0 0-1.45.51c-.27.54-.04 1.2.5 1.46.04.02.1.04.14.06l.67.2c.23.05.45.12.7.13.48.07.97.03 1.45-.05.5-.1.94-.28 1.35-.52a4.03 4.03 0 0 0 .58-.41c.2-.16.33-.3.53-.54.25-.3.2-.76-.1-1a.72.72 0 0 0-.87-.02l-.13.1z"/><path d="M538.74 384.3l-.3.33a2.2 2.2 0 0 1-.4.3c-.28.16-.56.27-.85.3-.3.02-.6.01-.9-.08-.15-.03-.3-.1-.46-.15l-.46-.23-.07-.04a1.1 1.1 0 0 0-1.47.5 1.08 1.08 0 0 0 .5 1.46 1.96 1.96 0 0 0 .14.06l.72.23c.26.05.5.12.77.14a4.31 4.31 0 0 0 1.63-.13c.53-.14 1.02-.42 1.43-.76a3.56 3.56 0 0 0 .54-.56 4.01 4.01 0 0 0 .45-.68.7.7 0 0 0-.3-.97c-.3-.16-.66-.08-.87.17l-.1.1zm-56.22 8.48c.6 0 1.16-.43 1.3-1.05.86-3.96 3.13-6.47 6.08-6.72 2.7-.23 5.28 1.5 6.4 4.32a1.35 1.35 0 0 0 1.74.74 1.34 1.34 0 0 0 .73-1.74c-1.58-3.9-5.23-6.3-9.1-5.97-4.18.35-7.34 3.65-8.46 8.8-.16.7.3 1.42 1.02 1.58.1.02.2.03.28.03z"/><path d="M478.65 390.42c.22.15.37.24.57.33a3.88 3.88 0 0 0 .56.23c.4.14.8.23 1.22.26a4.6 4.6 0 0 0 1.28-.08 5.81 5.81 0 0 0 1.22-.4c.55-.25.8-.88.56-1.44-.24-.55-.88-.8-1.43-.56-.06.02-.1.05-.16.08l-.03.02c-.22.14-.44.28-.68.37-.23.1-.5.17-.75.2-.26.03-.54.03-.8-.01a3.15 3.15 0 0 1-.42-.09c-.12-.03-.28-.1-.35-.12l-.14-.05a.71.71 0 0 0-.91.44c-.1.32 0 .65.27.83z"/><path d="M478.93 387.77c.2.24.35.38.53.54.18.15.38.3.58.4.4.24.87.43 1.35.52.48.08.98.12 1.46.05.24-.01.46-.08.7-.13l.67-.2c.57-.2.9-.8.7-1.38-.2-.58-.8-.9-1.38-.7-.05.02-.1.03-.14.06l-.1.04-.4.2c-.14.05-.28.12-.42.15-.28.1-.57.1-.85.1a2.26 2.26 0 0 1-.85-.17 2.22 2.22 0 0 1-.41-.2 2.98 2.98 0 0 1-.33-.23l-.13-.1c-.32-.23-.76-.17-1 .15-.2.27-.18.63.01.88z"/><path d="M480.3 385a4.01 4.01 0 0 0 .45.68c.16.2.34.4.55.56.4.34.9.62 1.43.76.53.15 1.1.2 1.62.13.27-.02.5-.1.77-.14l.73-.23c.57-.2.88-.8.7-1.38-.18-.57-.8-.9-1.38-.7-.05.01-.1.02-.13.05l-.1.04-.45.23c-.16.04-.3.12-.47.15a2.45 2.45 0 0 1-.89.08c-.3-.03-.58-.14-.85-.3-.14-.08-.27-.18-.4-.3a2.26 2.26 0 0 1-.31-.33l-.1-.1c-.25-.3-.7-.34-1-.1-.26.22-.33.6-.18.9z"/></g><path d="M382.1 519.34a.34.34 0 0 0-.19.64c3.4 1.4 7.6 2.22 12.82 2.18 23.08-.18 29.1-24.2 45.5-15.22l1.1-7.68c-4.04-3.73-12.9-10.12-22.78-5.65-12.95 5.87-14.75 29.26-36.47 25.73z" class="As"/><path d="M403.35 512.62l2.66-.75c4.4-5.88 8-12.5 14.1-15.25 2.4-1.1 4.73-1.53 6.95-1.53 2.62 0 5.08.62 7.3 1.55l.27-.53c-2.63-1.47-5.73-2.57-9.08-2.57-2.05 0-4.2.4-6.37 1.4h0c-.4.2-.82.4-1.2.62-3.88 2.24-6.74 6.3-9.74 10.6l-1.7 2.38c-1 1.4-2.05 2.78-3.18 4.08z" class="Au"/><path d="M381.36 521.32c-.84-.34-1.3-1.26-1.05-2.14.25-.88 1.12-1.42 2-1.28 12.66 2.06 17.93-5.46 23.5-13.4 3.4-4.84 6.9-9.83 12.14-12.2 10.5-4.75 19.77 1.66 24.37 5.9a1.44 1.44 0 0 1 .45 1.27l-1.1 7.68c-.07.48-.37.9-.8 1.1-.43.2-.94.2-1.35-.03-7.8-4.26-12.78-.45-19.7 4.84-6.42 4.9-13.7 10.47-25.12 10.56h-.37c-4.93 0-9.3-.77-13-2.3zm57.73-16.56l.7-4.95c-4.23-3.73-12.06-8.76-20.63-4.87-4.5 2.04-7.64 6.5-10.95 11.22-4.2 5.95-8.78 12.5-16.9 14.43a41.69 41.69 0 0 0 3.4.11c10.45-.08 17.32-5.33 23.37-9.97 4.84-3.7 9.48-7.25 15.1-7.25 1.85 0 3.8.38 5.9 1.28zm-57.23 16h0z" class="Ag Ah"/><use xlink:href="#B" class="An"/><use xlink:href="#C" class="Ah Aj"/><use xlink:href="#B" class="An"/><use xlink:href="#C" class="Ah Aj"/><path d="M387.23 508.2c7.64-5.75 15.77-14.54 22.95-17.55 3.9-1.63 7.7-2.26 11.27-2.26 2.54 0 4.96.32 7.2.83-.97-.73-1.92-1.56-2.78-2.48-1.44-.2-2.94-.34-4.48-.34a31.32 31.32 0 0 0-2.72.13c-2.57.26-5.24.88-7.93 2-.07.03-.14.06-.2.1-4.22 1.83-8.97 5.87-13.6 9.9l-.7.62c-3.18 2.78-6.4 5.58-9.58 7.82a10.01 10.01 0 0 0 .59 1.23z" fill="#fec4ea"/><path d="M379.17 520.23c-.16-.04-.32-.1-.46-.18-4.25-2.37-7.46-5.9-9.56-10.5-.33-.73-.13-1.6.5-2.12s1.5-.55 2.17-.1c5.84 4.12 14.3-3.26 22.5-10.4 5.1-4.45 10.4-9.05 15.3-11.1 15.4-6.44 29.62 2.07 33.6 4.83a1.45 1.45 0 0 1 .62 1.41l-1.06 7.37a1.48 1.48 0 0 1-.96 1.17c-.5.18-1.07.06-1.47-.3-4.07-3.75-12.22-9.44-21.2-5.38-4.5 2.04-7.64 6.5-10.95 11.22-5 7.1-10.53 15-21.87 15-2.17 0-4.55-.28-7.18-.92zm61.12-23.8l.55-3.85c-4.48-2.93-16.9-9.58-30.1-4.05-4.5 1.88-9.6 6.32-14.53 10.62-7 6.1-14.17 12.35-20.63 12.34-.75 0-1.48-.08-2.2-.26 1.7 2.6 3.93 4.68 6.62 6.2 14.34 3.42 19.92-4.53 25.83-12.94 3.4-4.84 6.9-9.83 12.14-12.2 2.63-1.2 5.18-1.67 7.6-1.67 5.97 0 11.15 3 14.72 5.82zm-60.44 20.97h0zm-9.37-8.44h-.01.01z" class="Ag Ah"/><path d="M369.9 507.63a.28.28 0 0 0 .1.14c10.73 9.78 27.04-15.08 40.18-20.58 14.56-6.1 27.96 1.74 32.22 4.7l.05-.35c-5.7-5.64-18.74-15.95-33.2-10.3-19.06 7.45-23.12 24.5-40.28 11.3-.42-.32-1.04-.06-1.08.48-.2 2.55-.33 8.65 2 14.6z" class="Al"/><path d="M410.1 486.98c-4.74 1.98-9.95 6.52-14.98 10.9-8.96 7.8-18.22 15.86-24.96 9.72-.01-.01-.03-.03-.04-.05-2.34-5.98-2.17-12.14-2-14.5a.44.44 0 0 1 .26-.37.43.43 0 0 1 .45.05c11.4 8.78 17.13 4.33 25.06-1.8 4.18-3.24 8.92-6.9 15.45-9.45 13.67-5.36 25.98 3.53 32.4 9.7-3.4-2.2-11.1-6.44-20.38-6.44-3.58 0-7.4.63-11.28 2.26zm-14.68 11.25c5-4.36 10.2-8.88 14.85-10.82 14.6-6.12 28.2 2.02 32 4.66.06.04.15.05.22.02s.13-.1.14-.18l.05-.35c.01-.07-.02-.14-.07-.2-6.34-6.26-19.14-15.93-33.44-10.33-6.6 2.57-11.35 6.26-15.56 9.5-7.77 6.02-13.4 10.38-24.5 1.82-.26-.2-.6-.25-.92-.1-.3.13-.5.4-.53.75-.18 2.4-.35 8.64 2.03 14.7.03.08.08.15.15.22 1.77 1.6 3.7 2.3 5.73 2.3 6.04 0 13.02-6.08 19.84-12zm-25.5 9.4h0z" class="Ah Aj"/><path d="M385.28 499.1c6.98-2.5 13.03-10.8 24.83-15.42a23.35 23.35 0 0 1 8.62-1.64c1.43 0 2.83.13 4.2.36-.13-.3-.25-.6-.36-.9-1.5-.3-3.04-.47-4.62-.47-2.63 0-5.36.46-8.15 1.55-6.36 2.5-11.03 6.1-15.14 9.28-3.23 2.5-6.2 4.8-9.37 6.05v1.18z" class="Ao"/><path d="M409.62 485.85c-4.92 2.06-10.2 6.66-15.3 11.1-8.85 7.7-17.2 14.98-23.14 9.9-1.78-4.7-1.98-9.5-1.9-12.28 11.38 8.13 17.6 3.33 25.38-2.7 4.1-3.18 8.78-6.8 15.14-9.28 8.22-3.2 15.97-1 22.14 2.58-3.14-.98-6.7-1.68-10.55-1.68-3.73 0-7.7.66-11.76 2.36zm-13.4 13.3c4.94-4.3 10.04-8.74 14.53-10.62 14.02-5.87 27.14 2 30.83 4.55.42.28.95.34 1.4.13a1.46 1.46 0 0 0 .86-1.12l.05-.36c.07-.45-.1-.92-.42-1.24-5.28-5.2-19.24-16.67-34.75-10.6-6.75 2.65-11.6 6.4-15.86 9.7-7.88 6.1-12.64 9.8-23 1.8-.63-.48-1.45-.58-2.17-.25a2.1 2.1 0 0 0-1.25 1.77c-.2 2.5-.36 8.95 2.1 15.26.1.26.26.5.47.68 2.06 1.87 4.26 2.67 6.55 2.67 6.44 0 13.63-6.26 20.64-12.37zm-26.3 8.48h0z" class="Ag Ah"/><path d="M396.7 520.62c9.36-.67 15.73-5.55 21.4-9.9 4.06-3.1 7.97-6.1 12.43-7l1.66-3c-2.74.02-5.43.82-7.82 2.2l-6.73 3.9c-3.48 1.84-7.55 3.74-11.62 5.03-2.6 3.5-5.5 6.75-9.32 8.75z" class="At"/><path d="M394.37 520.7h.35l1.97-.08c3.83-2 6.7-5.25 9.32-8.75a36.34 36.34 0 0 1-2.66.75c-3.1 3.64-6.85 6.75-12.03 7.97a37.82 37.82 0 0 0 3.05.11z" fill="#c3afac"/><path d="M392.36 522.78c3.87 0 10.7-.93 18.68-6.12l.93-.9c7.14-6.43 13.02-9.15 17.5-10.12l1.06-1.9c-4.46.9-8.37 3.9-12.43 7-5.67 4.34-12.04 9.22-21.4 9.9-.64.05-1.3.08-1.97.08h-.35a37.82 37.82 0 0 1-3.05-.11c-1.52.36-3.17.56-4.97.56-.68 0-1.38-.03-2.1-.08 1.46.56 3.03 1.03 4.75 1.43 0 0 1.22.28 3.36.28z" class="Ag"/><path d="M386.36 518.25c5.27 0 9.08-1.95 12.24-4.84-.5.03-1 .06-1.47.06-4.2 0-7.8-1.43-9.9-5.27-4.1 3.07-8.03 5.28-11.62 5.28-.18 0-.35-.01-.53-.02 1.4 1.58 3.05 2.9 4.92 3.97 2.34.56 4.44.82 6.36.82z" class="Ar"/><path d="M375.6 513.48c3.6 0 7.53-2.2 11.62-5.28a10.01 10.01 0 0 1-.59-1.23c-3.8 2.7-7.55 4.55-11.06 4.55a9.27 9.27 0 0 1-2.17-.26c.5.78 1.07 1.52 1.67 2.2.18.01.35.02.53.02z" fill="#c389c7"/><path d="M386.35 521.15c1.8 0 3.45-.2 4.97-.56 5.18-1.22 8.92-4.33 12.03-7.97-1.62.4-3.2.68-4.75.8-3.16 2.9-6.97 4.84-12.24 4.84-1.92 0-4.02-.26-6.36-.82-1.87-1.06-3.52-2.4-4.92-3.97-.6-.68-1.16-1.42-1.67-2.2-.63-.15-1.25-.37-1.86-.67 2.45 4.16 6.4 8.05 12.7 10.48.72.05 1.42.08 2.1.08z" class="Ag"/><path d="M375.66 508.55c3.04 0 6.46-1.84 10.1-4.52-.3-1.44-.47-3.07-.5-4.93-1.3.48-2.66.75-4.08.75-3.22 0-6.84-1.38-11.37-4.87-.13-.1-.27-.14-.4-.14-.05 0-.1.01-.15.02-.06 2.82.18 7.46 1.9 12 1.37 1.18 2.88 1.7 4.5 1.7z" class="Aq"/><path d="M381.2 499.85c1.42 0 2.77-.27 4.08-.75v-1.18c-1.56.6-3.18.97-4.9.97-3.2 0-6.78-1.22-11.1-4.3v.28c.05-.01.1-.02.15-.02.14 0 .28.05.4.14 4.53 3.5 8.15 4.87 11.37 4.87z" fill="#8ca6d5"/><path d="M375.58 511.52c3.5 0 7.25-1.86 11.06-4.55-.36-.87-.66-1.85-.87-2.94-3.65 2.68-7.07 4.52-10.1 4.52-1.6 0-3.12-.5-4.5-1.7-1.72-4.54-1.96-9.18-1.9-12v-.28c4.32 3.1 7.9 4.3 11.1 4.3 1.73 0 3.35-.36 4.9-.97.02-.8.07-1.66.13-2.55 0 0-2.58 1.76-6.53 1.76-3.07 0-6.96-1.06-11.1-4.83 0 0-1.3 9.7 3.78 18.3.6.3 1.23.52 1.86.67a9.27 9.27 0 0 0 2.17.26z" class="Ag"/><path d="M438.97 493.05s-15.4-4.7-15.82-15.35c-.6-14.95 12.25-45.86 21.04-48 8.24-2 17.2 5.75 17.2 5.75l-22.43 57.6z" class="Ai"/><path d="M438.97 493.28c.1 0 .2-.06.22-.16.03-.1-.04-.24-.15-.28-.16-.05-15.25-4.76-15.66-15.15-.28-6.92 2.46-18.2 6.98-28.7 4.64-10.8 9.96-18.12 13.88-19.07 8.04-1.97 16.92 5.62 17 5.7.1.08.24.07.32-.03.07-.1.07-.22-.03-.3-.1-.07-9.15-7.8-17.4-5.8-4.12 1-9.42 8.24-14.2 19.34-4.54 10.58-7.3 21.92-7 28.9.42 10.7 15.82 15.5 15.97 15.56.02.01.04.01.06.01z" class="Ag"/><path d="M437.12 490.94c1.02-2.23 1.94-4.48 2.66-6.8l.32-1.02c-1.74-.7-3.8-1.7-5.74-3.02-.46.55-.92.92-1.36 1.06a2.43 2.43 0 0 1-.73.11c-1.04 0-2.32-.54-3.46-1.5-1.93-1.6-2.9-3.8-2.64-5.9.15-1.16.7-3.1 1.35-5.2-.16-3.43.24-7.56 1.05-11.94-2.75 8-4.3 15.74-4.1 20.92.3 7.25 8.55 11.6 12.64 13.3z" class="Ak"/><g class="Ag"><path d="M438.97 494.38a1.32 1.32 0 0 0 1.27-.93c.22-.7-.18-1.45-.87-1.66-.2-.07-14.5-4.57-14.9-14.15-.26-6.76 2.44-17.84 6.9-28.22 4.44-10.34 9.6-17.57 13.14-18.44 7.48-1.83 15.93 5.4 16.02 5.47.55.48 1.4.42 1.88-.14s.4-1.4-.14-1.88c-.38-.33-9.6-8.18-18.4-6.03-6.43 1.57-12.6 14.5-14.95 19.97-4.67 10.88-7.4 22.14-7.1 29.38.46 11.47 16.1 16.38 16.76 16.58.12.04.26.05.38.05z"/><path d="M457.6 443.87a1.3 1.3 0 0 0 .57-.12c.66-.32.95-1.1.63-1.77-3.88-8.24-15.02-12.78-15.48-12.97a1.33 1.33 0 0 0-1.73.74c-.28.68.05 1.45.73 1.73.1.04 10.64 4.34 14.08 11.63.22.48.7.76 1.2.76z"/></g><path d="M440.23 465.58s-5.24-2.72-9.3-6.15c0 0-4.1 10.98-4.55 14.47-.54 4.22 4.22 7.8 6.54 7.06 3.23-1.02 7.3-15.38 7.3-15.38z" class="Ai"/><path d="M428.8 479.78c-1.93-1.6-2.9-3.8-2.64-5.9.44-3.47 4.4-14.07 4.56-14.52.03-.07.1-.12.15-.14.07-.02.15 0 .2.05 3.98 3.38 9.2 6.1 9.25 6.13.1.04.14.15.1.25-.17.6-4.14 14.48-7.44 15.53a2.43 2.43 0 0 1-.73.11c-1.04 0-2.32-.54-3.46-1.5zm2.23-19.98c-.66 1.77-4.03 11.02-4.43 14.13-.25 1.94.68 4 2.48 5.5 1.32 1.1 2.8 1.62 3.77 1.3 2.9-.92 6.63-13.44 7.1-15.06-.9-.47-5.34-2.9-8.92-5.9z" class="Ag Ah"/><path d="M432.25 480.84c.22 0 .43-.03.6-.1.96-.3 2-1.87 3-3.9h-.1c-2.46 0-6.35-3.32-5.86-7.16.23-1.8 1.42-5.55 2.53-8.78l-1.4-1.1c-.66 1.77-4.03 11.02-4.43 14.13-.25 1.94.68 4 2.48 5.5 1.06.9 2.24 1.4 3.16 1.4z" class="Ak"/><g class="Ag"><path d="M432.26 481.06a2.09 2.09 0 0 0 .67-.1c1.03-.32 2.14-2 3.18-4.13l-.24.02c-1 2.03-2.05 3.6-3 3.9-.18.06-.4.1-.6.1-.92 0-2.1-.5-3.16-1.4-1.8-1.5-2.73-3.57-2.48-5.5.4-3.1 3.77-12.36 4.43-14.13a31.02 31.02 0 0 0 1.4 1.11c.02-.08.04-.15.07-.23-.53-.4-1.06-.82-1.57-1.25 0 0-4.1 10.98-4.56 14.47-.48 3.84 3.42 7.16 5.88 7.16z"/><path d="M428.1 480.63c-2.22-1.84-3.35-4.42-3.03-6.9.46-3.6 4.46-14.3 4.63-14.76a1.29 1.29 0 0 1 .91-.83 1.32 1.32 0 0 1 1.19.27c3.88 3.3 9 5.97 9.04 6 .56.3.84.94.67 1.54-1 3.53-4.54 15.13-8.18 16.3-.33.1-.68.16-1.06.16-1.3 0-2.82-.62-4.17-1.76zm3.45-19c-1.16 3.2-3.52 9.95-3.85 12.44-.3 2.33 1.53 4.05 2.1 4.52 1.1.93 2.24 1.27 2.73 1.1 1.3-.4 4.08-6.58 6.13-13.46-1.47-.82-4.37-2.5-7.1-4.6z" class="Ah"/></g><path d="M534.9 444.17s11.27-2.2 27.77-10.37c9.2-4.56 19.27 4.38 15.86 14.07-.06.14-.1.3-.16.43-3.98 10.85-25.9 20.33-44.5 20.04-18.62-.3-18.47 3.96-18.47 3.96l19.5-28.13z" class="Ai"/><path d="M515.4 472.5h.01c.12 0 .22-.1.2-.22.01 0 .01-.37.53-.87 1.18-1.15 5.06-3.06 17.72-2.86l.85.01c18.86 0 40-9.68 43.86-20.2.05-.15.1-.3.16-.44 1.6-4.57.35-9.4-3.27-12.62s-8.56-3.86-12.9-1.72c-16.28 8.06-27.6 10.33-27.7 10.35-.12.02-.2.14-.17.26.02.12.14.2.26.17.1-.02 11.48-2.3 27.82-10.38 4.17-2.07 8.92-1.44 12.4 1.65s4.7 7.74 3.13 12.15c-.04.14-.1.28-.15.42-3.86 10.53-25.38 20.2-44.3 19.9-12.94-.2-16.9 1.8-18.08 3.04-.6.6-.6 1.1-.6 1.14.01.12.1.2.22.2z" class="Ag"/><path d="M558.28 436.96s1.8 21.66 14.3 20l3.98-4.92 2.4-4.3.64-3.74-1.22-4.82-2.34-3-4.4-2.43-6.46-1.1-6.9 4.3z" class="Av"/><path d="M542.5 466.5c10.06-1.3 19.98-4.98 26.7-9.68-2.4-.56-4.3-2.12-5.77-4.14-6.15 2.5-13.14 4.25-20 4.85-.07 1.2-.3 4.33-.95 8.97z" class="Ak"/><path d="M569.2 456.82c3.92-2.74 6.76-5.82 7.92-8.98l.15-.4c.43-1.22.63-2.46.6-3.67-3.47 3.44-8.57 6.53-14.44 8.92 1.48 2.02 3.37 3.58 5.77 4.14z" class="Ap"/><path d="M515.4 473.62h.05c.66-.02 1.2-.52 1.27-1.16.17-.3 2.13-3.04 17.13-2.8 9.15.13 19.46-2.03 28.3-5.96 9.24-4.1 15.45-9.4 17.48-14.95.05-.15.1-.3.16-.45 1.76-5 .4-10.3-3.58-13.82-3.95-3.5-9.37-4.23-14.12-1.88-16.12 7.97-27.32 10.23-27.43 10.25a1.33 1.33 0 0 0-1.05 1.56 1.33 1.33 0 0 0 1.56 1.05c.47-.1 11.63-2.33 28.1-10.48 3.76-1.86 8.05-1.3 11.18 1.5 3.15 2.8 4.23 6.98 2.83 10.95l-.15.4C573.4 458 552.4 467.3 533.9 467c-10.2-.16-16.55.97-18.9 3.37-.88.9-.92 1.73-.92 1.96.03.72.62 1.28 1.33 1.28zm1.33-1.37h0z" class="Ag Ah"/><path d="M415.46 534.7c0 3.02.98 6.04 2.93 8.54 4.2 5.4 11.74 6.97 17.7 3.6 11.06-6.25 18.94-17.97 20.92-21.12l.45-.74c.01-.01.01-.02.02-.03l.01-.02 23.37 9.6c-1.2 5.04-3.45 11.53-5.52 17.07-2.5 6.73.67 14.24 7.26 17.1 1.73.76 3.56 1.12 5.37 1.12 4.08 0 8.07-1.85 10.67-5.25a195.76 195.76 0 0 0 3.89-5.22c35.3-48.84 39.53-96.84 39.63-102.42.1-6.1-.47-11.04-.47-11.04l-35.4-.98-6.2-3.45-48.42-8.7c-.97 7.52-2 14.26-3.1 20.35-2.38 13.34-5 23.56-7.7 32.06-3.63 11.35-17.68 33.95-23 41.72-1.6 2.37-2.4 5.1-2.4 7.82z" class="Ai"/><path d="M482.5 568.92c-6.7-2.9-9.93-10.54-7.38-17.37 2.6-6.95 4.44-12.63 5.47-16.87l-23.02-9.45c-.08.14-.2.35-.4.63-2.13 3.4-9.95 14.95-21 21.2-5.98 3.38-13.7 1.8-17.97-3.66a14.18 14.18 0 0 1-2.99-8.68c0-2.84.85-5.6 2.46-7.95 4.84-7.07 19.26-30.08 22.96-41.66 3.02-9.5 5.55-19.97 7.7-32.03 1.1-6.23 2.15-13.07 3.1-20.34.01-.06.04-.1.1-.15.05-.03.1-.05.17-.04l48.4 8.7c.03.01.05.01.07.03l6.17 3.42 35.34.98c.1.01.2.1.2.2.01.05.58 5.03.47 11.07-.01.5-1.96 50.34-39.67 102.54a227.18 227.18 0 0 1-3.89 5.23c-2.6 3.38-6.57 5.33-10.85 5.33-1.9 0-3.73-.38-5.46-1.13zm23.8-123.78c-.04 0-.07-.01-.1-.02l-6.18-3.44-48.15-8.66c-.93 7.18-1.97 13.96-3.07 20.12-2.15 12.1-4.68 22.6-7.7 32.1-3.72 11.63-18.17 34.7-23.02 41.8-1.55 2.27-2.38 4.93-2.38 7.7a13.76 13.76 0 0 0 2.9 8.41c4.13 5.3 11.6 6.82 17.4 3.54 10.95-6.2 18.72-17.66 20.84-21.03l.43-.7.02-.03c0-.01.01-.02.02-.03.01-.02.03-.04.04-.06.07-.06.16-.08.24-.05l23.38 9.6c.1.04.16.15.13.26-1.03 4.28-2.9 10.04-5.53 17.1a13.27 13.27 0 0 0 7.14 16.82 13.31 13.31 0 0 0 5.28 1.09c4.15 0 7.98-1.88 10.5-5.16 1.34-1.74 2.64-3.5 3.88-5.22 37.63-52.08 39.58-101.8 39.6-102.3.1-5.34-.34-9.85-.45-10.82l-35.2-.98zm-48.6 79.92h0z" class="Ag Ah"/><path d="M477.63 545.14s9.86 14.3 26.56 10.18l-3 6.08-3.08 3.93-5 3.28h-5.55l-4.54-.26-3.13-1.9-2.75-3.04-2.85-4.7.62-5.52 2.7-8.06zm-57.13-22.58s9.3 15.5 27.45 13.72l-4.32 4.3-3.07 3.92-5 3.3H430l-4.54-.27-3.13-1.9-2.75-3.03-2.85-4.7-1.1-6.05 4.87-9.3z" class="Av"/><path d="M481.18 549.04c.67-2 1.7-3.77 2.95-4.9 2.65-2.36 5.94-4.05 7.3-4.7-2.9-.7-5.7-1.65-8.5-2.66l-1.18-.44c-.74 2.83-1.8 6.2-3.14 10.06.6.7 1.45 1.63 2.55 2.63z" class="Ak"/><path d="M487.97 568.5c3.68 0 7.26-1.67 9.6-4.73l2.15-2.85c-4.24 2.23-7.76 3.34-10.65 3.34-2.24 0-4.1-.66-5.67-2-3.43-2.95-3.7-8.73-2.23-13.23-1.1-1-1.96-1.93-2.55-2.63l-2.05 5.68c-2.27 6.07.6 12.83 6.54 15.4a12.18 12.18 0 0 0 4.85 1z" class="Ap"/><g class="Ak"><path d="M492.13 538.67c.1-1.55.1-6.45-3.2-10.02-5.86-6.32-14.55-7.86-20.95-7.86-2.48 0-4.6.23-6.1.5-2.72.5-4.62 1.7-5.26 2.65.24-.2.55-.3.86-.3.17 0 .34.03.5.1l8.66 3.52 8.68 3.48c2.9 1.17 5.75 2.4 8.6 3.7 2.8 1.27 5.56 2.63 8.2 4.25z"/><path d="M419.58 542.6l-1.74-2.88.44.93a12.42 12.42 0 0 0 2.25 2.99l-.95-1.04zm9.02-21.07c5.78-9 15.67-25 20.73-45.08 1.35-5.37 1.8-9.7 1.72-13.15l-.36.48c.1.08.1.22.04.32a.23.23 0 0 1-.17.08c-.05 0-.1-.01-.14-.05a50.48 50.48 0 0 1-2.26-1.9c-.87 4.18-1.82 8.34-2.9 12.48-.9 3.44-1.87 6.85-2.95 10.24-1.07 3.47-2.57 6.75-4.12 9.96-3.13 6.4-6.65 12.55-10.28 18.63a348.13 348.13 0 0 1-5.6 9.03l-.87 1.35c.7.95 1.8 2.3 3.3 3.77 1.03-1.76 2.35-3.77 3.87-6.16z" class="Ah"/></g><path d="M429.37 547.3l.8-.02a12.48 12.48 0 0 0 4.59-1.23c.7-.3 1.44-.82 2.16-1.25.74-.42 1.43-.93 2.13-1.43l1.05-.75 1-.8 1-.8.98-.85.96-.88c-4.1 2.8-8.17 4.38-11.68 4.38-2.32 0-4.4-.7-6-2.2-5.32-4.9-4.98-8.03-1.62-13.77-1.5-1.47-2.6-2.82-3.3-3.77l-2.43 3.66-.32.5c-.23.33-.4.7-.58 1.04-.2.35-.33.73-.5 1.1-.14.38-.26.76-.38 1.14a13.3 13.3 0 0 0-.38 4.74 12.95 12.95 0 0 0 .98 3.62l1.74 2.88.95 1.04c1.38 1.36 3.07 2.4 4.9 3a12.54 12.54 0 0 0 3.93.64z" class="Ap"/><g class="Ag"><path d="M487.97 571.17c4.5 0 8.85-2.04 11.72-5.78 41.66-54.22 43.78-107.9 43.8-108.42.1-6.1-.45-11-.47-11.22a1.35 1.35 0 0 0-1.48-1.17c-.73.1-1.25.75-1.17 1.48.01.05.57 4.94.46 10.86 0 .14-.44 14.42-7.17 36.65-7.68 25.44-19.82 49.05-36.07 70.2a12.12 12.12 0 0 1-14.46 3.73c-5.93-2.58-8.8-9.34-6.54-15.4 2.66-7.12 4.53-12.92 5.57-17.23a1.34 1.34 0 0 0-.99-1.61 1.33 1.33 0 0 0-1.6.98c-1 4.2-2.85 9.9-5.47 16.93-2.77 7.4.74 15.64 7.97 18.77a14.72 14.72 0 0 0 5.91 1.24z"/><path d="M492.26 538.74c-2.7-1.65-5.5-3.02-8.34-4.32l-8.6-3.7-8.68-3.48-8.66-3.52c-.62-.25-1.3-.01-1.65.54l-.01.01-2.87 4.3-1.55 2.08-1.63 2.03c-2.23 2.66-4.62 5.2-7.2 7.47l-.98.85c-.33.28-.67.53-1 .8l-1 .8c-.34.27-.7.5-1.05.75-.7.5-1.4 1-2.13 1.43-.72.43-1.46.94-2.16 1.25a12.48 12.48 0 0 1-4.59 1.23 12.62 12.62 0 0 1-4.72-.62 12.76 12.76 0 0 1-7.16-6 12.92 12.92 0 0 1-1.42-4.55 13.3 13.3 0 0 1 .38-4.74c.12-.38.24-.76.38-1.14.16-.36.3-.74.5-1.1.18-.35.35-.7.58-1.04l.32-.5.37-.56c1-1.47 1.97-2.96 2.93-4.45a348.13 348.13 0 0 0 5.6-9.03c3.63-6.08 7.15-12.23 10.28-18.63 1.55-3.2 3.05-6.5 4.12-9.96 1.08-3.4 2.05-6.8 2.95-10.24 1.8-6.87 3.25-13.82 4.5-20.8 1.17-6.97 2.92-13.9 2.33-21.1a.45.45 0 0 0-.49-.42.5.5 0 0 0-.4.3c-2.42 6.8-2.74 13.84-4.07 20.75-1.25 6.92-2.7 13.8-4.47 20.6a191.41 191.41 0 0 1-2.9 10.1c-1.02 3.28-2.46 6.44-3.98 9.6-3.07 6.28-6.57 12.4-10.17 18.43l-5.56 8.97-2.88 4.4-.37.55-.38.6a11.37 11.37 0 0 0-.71 1.27c-.24.42-.4.88-.6 1.32a36.94 36.94 0 0 0-.45 1.38 15.7 15.7 0 0 0-.46 5.75c.23 1.92.8 3.8 1.72 5.5 1.83 3.42 5 6.08 8.67 7.27 1.83.6 3.8.88 5.7.75a15.12 15.12 0 0 0 5.59-1.49c.9-.42 1.62-.92 2.4-1.38s1.52-1 2.26-1.52c.37-.27.76-.5 1.1-.8l1.06-.85 1.07-.85 1.02-.9c2.7-2.4 5.18-5 7.48-7.76.58-.68 1.13-1.4 1.7-2.1l1.6-2.15c1.05-1.46 2.05-2.92 3-4.5l-1.65.56 8.64 3.57 8.62 3.6c2.88 1.2 5.8 2.34 8.7 3.42 2.93 1.07 5.9 2.06 8.97 2.77.24.06.48-.1.54-.33a.46.46 0 0 0-.2-.5zm42.94-94.44c.12 0 .24-.02.36-.05a1.33 1.33 0 0 0 .92-1.64l-2.37-8.43c-.2-.7-.93-1.12-1.64-.92-.7.2-1.12.94-.92 1.65l2.38 8.42a1.31 1.31 0 0 0 1.27.97z"/></g><use xlink:href="#D" class="Ai"/><path d="M496.6 449.95c-22.15-2.63-40.92-9.86-44.7-17.23l1.44-12.1a.45.45 0 0 1 .34-.41.48.48 0 0 1 .53.18c5.57 7.04 23.26 13.42 44 15.88 20.76 2.45 39.45.38 46.5-5.17a.47.47 0 0 1 .56-.04c.18.1.26.27.24.47l-1.43 12.1c-5.4 6.3-25.33 8.94-47.5 6.32zm47.88-6.08c.02-.04.04-.08.05-.12l1.44-12.18c.05-.38-.13-.73-.46-.9a.92.92 0 0 0-1.05.09c-6.97 5.47-25.53 7.5-46.2 5.07-20.64-2.45-38.2-8.77-43.7-15.72-.25-.3-.63-.43-1-.33-.37.1-.62.4-.66.8l-1.45 12.17c0 .05 0 .1.02.13 3.78 7.5 22.73 14.88 45.08 17.53 5.72.67 11.3 1 16.53 1 15.18 0 27.37-2.74 31.4-7.52z" class="Ag Ah"/><use xlink:href="#D" fill="#9027f4"/><path d="M487.5 434.15l-1.55-.65-4.78-.98-.12.2 6.45 1.42z" fill="#a2e0ff"/><path d="M478.32 432.02c.03-.04.06-.1.1-.14l-3.3-.85v.07l3.2.92z" fill="#fea7e0"/><g fill="#8866ac"><path d="M481.05 432.73l.12-.2-2.76-.64-.1.14 2.73.7zm-5.93-1.63v-.07l-1.87-.52 1.87.6zm39.9 5.74l8.8-.34-5.63.12c-6.1 0-12.83-.4-19.88-1.22-4.3-.5-8.44-1.15-12.36-1.9l1.55.65a148.81 148.81 0 0 0 10.76 1.67c5.83.68 11.48 1.02 16.77 1.02z"/><path d="M498.24 436.04c-11.4-1.35-21.73-3.87-29.65-6.98 1.47.5 3.03.98 4.66 1.45l1.87.6c1.04.32 2.1.63 3.2.92.9.25 1.8.48 2.73.7 2.08.5 4.23.98 6.45 1.42a148.81 148.81 0 0 0 10.76 1.67c5.83.68 11.48 1.02 16.77 1.02 3.07 0 6-.1 8.8-.34 1.7-.07 3.3-.18 4.86-.32-4.12.57-8.77.88-13.78.88-5.23 0-10.84-.33-16.66-1.02zm-45.57-11.8l.3-2.42-.3 2.43zm.3-2.45h0z" class="Ah"/></g><path d="M517.74 440.4c12.17 0 21.8-1.58 26.24-4.4.13-.08.28-.1.43-.1.4 0 .78.27.74.65l.45-3.78c.04-.37-.34-.66-.74-.66-.15 0-.3.04-.44.12-3.06 1.94-8.6 3.3-15.74 3.94-4.12.57-8.77.88-13.78.88-5.23 0-10.84-.33-16.66-1.02-11.4-1.35-21.73-3.87-29.65-6.98-6.78-2.3-11.84-4.9-14.37-7.5-.16-.17-.38-.25-.6-.25-.3 0-.6.17-.66.46l-.3 2.46.43.87c.02-.01.05-.01.08-.01a.84.84 0 0 1 .59.24c5.5 5.65 22.97 11.33 44.1 13.84 7.04.83 13.77 1.23 19.87 1.23z" fill="#bc7df8"/><path d="M512.32 451.13c15.7 0 28-3.08 32.07-8.18l.68-5.73c-4.06 5.1-16.4 8.18-32.07 8.18-4.97 0-10.27-.3-15.76-.96-18.55-2.2-34.17-7.7-41.3-13.88 2.4 4.38 4.55 7.8 6.16 10.18 8.28 4.27 20.56 7.78 34.47 9.42 5.5.66 10.8.97 15.76.97z" fill="#761bce"/><path d="M496.4 451.5c-23.06-2.73-41.95-10.2-45.94-18.13a1.32 1.32 0 0 1-.13-.75l1.44-12.18c.1-.83.68-1.5 1.48-1.73s1.64.05 2.14.7c5.23 6.64 22.9 12.95 43 15.33 20.1 2.38 38.76.38 45.4-4.86a2.03 2.03 0 0 1 2.25-.18 2.04 2.04 0 0 1 1.03 2.03l-.95 8.06c-.45 3.8-2.9 7.1-6.35 8.64-6.1 2.68-15.6 4.1-26.56 4.1-5.33 0-11-.34-16.8-1.02zm47.85-18.7c-8 5.1-26.16 6.95-46.18 4.57-20-2.36-37.24-8.4-43.82-15.23l-1.23 10.38c3.46 6.02 19.37 13.47 43.7 16.35 17.24 2.04 33.32.94 41.96-2.88 2.6-1.15 4.45-3.64 4.8-6.5l.8-6.68z" class="Ag Ah"/><path d="M464.9 445s-7.16-8.7-14.55-25.22c-4.13-9.22-17.34-8.75-20.82.74-.05.13-.1.28-.15.42-3.77 10.72 6.9 31.6 21.2 43.03L464.9 445z" class="Ai"/><path d="M450.56 464.18a.23.23 0 0 0 .17-.08c.07-.1.06-.24-.03-.32-14.5-11.6-24.78-32.4-21.12-42.78l.15-.4c1.58-4.3 5.4-7.1 9.98-7.24 4.56-.16 8.56 2.33 10.43 6.5 7.32 16.36 14.5 25.2 14.58 25.28.08.1.22.1.3.03.1-.07.1-.2.04-.3-.08-.08-7.24-8.9-14.53-25.18-1.95-4.34-6.1-6.93-10.85-6.77-4.76.17-8.74 3.05-10.38 7.53l-.15.43c-3.7 10.54 6.62 31.57 21.26 43.27.04.04.1.05.14.05z" class="Ag"/><path d="M452.5 424.4s-5.83 12.93-23.12 10.15l-.78-8.3.5-4.47 3.46-4.92.73-2.42 4.28-1.05 4.93-.28 5.22 2.33 2.62 4.32 2.17 4.64z" class="Av"/><path d="M450.63 463.74a13.28 13.28 0 0 0-2.91-13.5c-4.4-4.64-8.2-10.03-11.02-15.42a26.8 26.8 0 0 1-2.59.12c-1.18.01-2.42-.07-3.73-.24 3.14 9.95 10.8 21.45 20.25 29.04z" class="Ak"/><path d="M450.56 463.96a2.73 2.73 0 0 0 .07-.22c-9.46-7.6-17.1-19.1-20.25-29.04-.1-.01-.17-.03-.26-.04 3.18 10.13 11.02 21.77 20.44 29.3z" class="Ag"/><path d="M429.5 421.23l2.16-3.06a9.86 9.86 0 0 1-.01-.94 11.23 11.23 0 0 0-1.92 3.36l-.15.4-.08.23z" class="Ak"/><path d="M428.94 429.77l-.33-3.5.5-4.47.4-.56.08-.23.15-.4a11.23 11.23 0 0 1 1.92-3.36l.01-.36c-.9 1-1.62 2.23-2.14 3.63l-.15.43c-.87 2.48-.97 5.5-.43 8.84z" class="Ag"/><path d="M434.1 434.94l2.6-.12c-3.05-5.87-4.9-11.75-5.04-16.65l-2.16 3.06-.4.56-.5 4.47.33 3.5c.25 1.57.65 3.2 1.18 4.9.1.01.17.03.26.04 1.3.17 2.55.25 3.73.24z" class="Ap"/><path d="M465.24 444.7c-.82-2.13-1.9-4.03-3.04-5.9l-3.46-5.6-3.2-5.75-2.9-5.92-1.04-2.26-.4-.82a12.79 12.79 0 0 0-2.18-3c-1.74-1.78-4.05-3-6.48-3.45s-5-.22-7.3.72-4.3 2.6-5.66 4.7l-.47.8-.42.83-.35.85-.3.84c-.4 1.17-.57 2.38-.7 3.57-.18 2.4.06 4.73.53 7 .95 4.52 2.7 8.76 4.8 12.77 2.1 4 4.63 7.78 7.48 11.3.7.88 1.44 1.74 2.2 2.58l2.26 2.54c.4.4.8.82 1.22 1.2l.66.55c.22.17.43.35.67.52.47.33.95.64 1.46.9.53.25 1.06.5 1.66.65a.49.49 0 0 0 .59-.36c.03-.1.02-.22-.03-.32l-.01-.02c-.25-.55-.58-1.02-.9-1.47-.32-.47-.66-.9-1.03-1.3a38.35 38.35 0 0 0-2.26-2.34c-.78-.75-1.57-1.5-2.3-2.3a61.72 61.72 0 0 1-2.12-2.48c-2.73-3.4-5.16-7.03-7.2-10.87s-3.67-7.9-4.55-12.07c-.44-2.08-.64-4.2-.5-6.24.1-1 .24-2.02.57-2.95a5.2 5.2 0 0 1 .26-.72l.28-.7.33-.66.38-.63c1.06-1.64 2.62-2.94 4.43-3.68 1.8-.75 3.85-.94 5.78-.57 1.92.37 3.72 1.3 5.08 2.7a10.34 10.34 0 0 1 1.72 2.37l.34.68 1.05 2.28c.94 2.02 1.94 4.03 2.96 6.02l3.2 5.9c1.07 1.97 2.2 3.9 3.52 5.74 1.3 1.83 2.72 3.6 4.66 4.95.2.14.5.1.64-.12a.43.43 0 0 0 .05-.42v-.03zM477 534.3c.4 0 .8-.18 1.05-.52 12.23-15.85 19.2-37.52 22.9-52.9 4-16.63 5.13-29.72 5.14-29.85a1.34 1.34 0 0 0-1.22-1.44c-.72-.05-1.37.5-1.43 1.22-.04.5-4.6 51.68-27.5 81.35-.44.58-.34 1.42.25 1.86a1.24 1.24 0 0 0 .8.28z" class="Ag"/><path d="M522.35 350.7c.22-16.82-6.6-30.55-9.32-30.58-2.7-.04-9.88 13.5-10.1 30.33l19.4.25z" fill="#fdd800"/><path d="M516.75 339.47c.13 0 .24-.06.33-.2 2.06-3.38-1.8-12.48-3.33-13.14-.1-.04-.18-.06-.25-.06-.82 0-1 2.03-.97 4.07.03 2.9.96 5.75 2.73 8.05.56.74 1.1 1.28 1.5 1.28z" fill="#fee659"/><path d="M504.9 342.4c.7-.5 1.54-1.02 2.54-1.5-.8-.6-1.46-1.17-2-1.68l-.55 3.17zm5.08-2.42l1-.23c-1.68-1.72-2.58-4.18-2.17-6.76.5-3.22 1.24-6.2 2.07-8.86-1.56 2.6-3.48 6.96-4.85 12.52.66.72 1.96 2 3.95 3.33z" fill="#c29723"/><g class="Ag"><path d="M522.35 352.04c.73 0 1.32-.58 1.33-1.3.13-10.14-2.23-18.17-3.64-22.06-.84-2.3-3.82-9.82-7-9.87-3.18 0-6.34 7.42-7.24 9.7-1.5 3.85-4.07 11.82-4.2 21.96-.01.73.58 1.33 1.3 1.35a1.34 1.34 0 0 0 1.35-1.32c.2-16.15 6.84-28.04 8.75-29 1.88 1 8.2 13.06 8 29.2-.01.74.58 1.35 1.3 1.35h.02z"/><path d="M522.2 346.68a1.11 1.11 0 0 0 1.1-.98c.08-.6-.36-1.16-.96-1.23-11.44-1.42-16.76-8.34-16.8-8.4-.36-.5-1.06-.6-1.55-.22a1.09 1.09 0 0 0-.22 1.54c.23.32 5.88 7.75 18.3 9.3.05 0 .1.01.14.01zm-1.53-10.1c.53 0 1-.4 1.1-.93.1-.6-.3-1.18-.92-1.27-.12-.02-8.6-1.5-12.36-7.22-.34-.52-1.03-.66-1.54-.32a1.1 1.1 0 0 0-.31 1.53c4.32 6.56 13.47 8.13 13.86 8.2a1.1 1.1 0 0 0 .18.02z"/></g><path d="M523.77 344.68c7.22-.56 13.76 4.32 15.07 11.44.53 2.9.34 6.2-1.5 9.6-4.46 8.22-14.6 8.38-25.16 5.97 0 0 10.98-19.13 7.74-26.34 0 0 1.54-.48 3.85-.67z" class="As"/><path d="M535.26 351.13c-2.1-2.84-5.37-4.73-9.03-5.1.36.76.62 1.58.78 2.42 3.04.02 5.9 1 8.25 2.68z" class="Au"/><path d="M522.7 371.72c6.62 0 11.06-2.2 13.45-6.63 1.47-2.72 1.94-5.65 1.38-8.73-.13-.64-.3-1.26-.5-1.86-.2 1.65-.7 3.37-1.66 5.12-2.5 4.6-6.8 6.68-11.93 7.2-.4.56-.84 1.1-1.32 1.66a14.77 14.77 0 0 1-3.6 2.99c1.5.17 2.88.26 4.18.26z" class="At"/><path d="M511.88 372.98c-.4-.1-.75-.38-.92-.76s-.14-.83.06-1.2c2.96-5.16 10.1-19.73 7.68-25.13-.16-.35-.16-.75 0-1.1a1.35 1.35 0 0 1 .82-.73c.07-.02 1.72-.53 4.15-.72 7.96-.63 15.05 4.75 16.48 12.52.67 3.7.12 7.2-1.65 10.47-2.9 5.37-8.1 8.04-15.72 8.04-3.2 0-6.83-.47-10.9-1.4zm12-26.97c-.9.08-1.66.2-2.26.3 1.5 7.06-4.88 19.8-7.4 24.44 11.45 2.3 18.64.45 21.95-5.67 1.47-2.72 1.94-5.65 1.38-8.73-1.12-6.08-6.44-10.4-12.6-10.4-.35 0-.7.02-1.06.04z" class="Ag Ah"/><path d="M520.85 342.44a8.68 8.68 0 0 1 4.89 6.49c.74 4.7.84 12.47-4.6 18.66-8.42 9.57-25.15 2.12-25.15 2.12s8.7-19.47 7.8-24.6c0 0 6.5-7.6 17.06-2.68z" class="An"/><path d="M525.52 348.96c.8 5.15.68 12.53-4.55 18.48-7.7 8.75-22.72 2.96-24.68 2.16 1-2.24 8.47-19.36 7.74-24.4.73-.78 7.03-7.07 16.72-2.54 2.55 1.2 4.33 3.55 4.77 6.3zm-4.2 18.78c5.63-6.4 5.34-14.55 4.66-18.85a8.89 8.89 0 0 0-5.03-6.66c-10.6-4.95-17.26 2.66-17.32 2.74-.05.05-.07.12-.05.18.86 5-7.7 24.28-7.8 24.47-.02.06-.02.12 0 .18.02.05.06.1.12.12.1.05 6.3 2.75 13.05 2.75 4.4 0 9.03-1.15 12.36-4.93z" class="Ah Aj"/><path d="M508.95 371.13c4.03 0 8.22-1.04 11.2-4.42 4.95-5.63 5.07-12.66 4.3-17.58a9.48 9.48 0 0 0-.2-.89c-.06 4.3-1.15 9.4-4.97 13.73-3.28 3.75-7.85 4.9-12.2 4.9-1.44 0-2.85-.13-4.2-.32-1.33 1.23-2.77 2.12-4.23 2.76 2.3.77 6.22 1.83 10.3 1.83z" class="Ar"/><path d="M523.4 346.4c-.74-1.17-1.8-2.13-3.1-2.74-2.4-1.12-4.56-1.55-6.45-1.55-3.15 0-5.57 1.17-7.1 2.23a5.23 5.23 0 0 1 .41.63 5.92 5.92 0 0 1 .54 1.03c1.7-1.06 4.2-2.1 7.3-2.1 2.07 0 4.4.45 7 1.66.5.24.98.52 1.42.84z" fill="#fec4ea"/><path d="M520.3 343.65c2.2 1.03 3.76 3.1 4.14 5.48.78 4.92.66 11.95-4.3 17.58-6.4 7.3-18.5 3.7-22.37 2.27 1.94-4.47 7.6-18.02 7.4-23.4 1.43-1.4 6.88-5.8 15.12-1.94zm1.84 24.82c5.93-6.74 5.63-15.27 4.93-19.75-.52-3.27-2.63-6.07-5.65-7.48-11.34-5.3-18.56 2.93-18.63 3-.26.3-.36.7-.3 1.1.6 3.46-4.28 16.14-7.7 23.82-.14.33-.16.7-.03 1.02s.38.6.7.74c.43.2 6.64 2.9 13.5 2.9 4.64 0 9.58-1.24 13.2-5.36z" class="Ag Ah"/><path d="M501.96 342.52c2.74-.12 5.17 1.72 5.77 4.4.73 3.16 1.14 7.9-.78 12.95-2.87 7.56-8.67 9.97-13.3 10.52-11.32 1.34-14.5-11.56-14.5-11.56s7.36-.8 10.2-8.75a9.83 9.83 0 0 1 5.04-5.57c2.03-.96 4.65-1.85 7.57-2z" class="Al"/><path d="M507.5 346.96c.7 3.08 1.14 7.8-.78 12.83-2.9 7.63-8.73 9.85-13.12 10.37-10.14 1.2-13.67-9.4-14.18-11.15 1.36-.24 7.58-1.73 10.13-8.86.87-2.4 2.62-4.35 4.93-5.44 2.5-1.2 5.03-1.84 7.48-1.96h.25c2.52 0 4.73 1.73 5.3 4.2zm-13.85 23.66c4.52-.54 10.52-2.82 13.5-10.67 1.96-5.15 1.52-9.95.8-13.1-.64-2.77-3.16-4.7-6-4.57-2.5.12-5.1.8-7.65 2-2.43 1.14-4.26 3.17-5.17 5.7-2.76 7.72-9.94 8.6-10 8.6s-.13.04-.17.1c-.03.05-.04.12-.03.18.03.13 3.03 11.84 13.1 11.84.52 0 1.07-.03 1.63-.1z" class="Ah Aj"/><path d="M487.36 353.42l.57-.87c-.18.3-.38.57-.58.83 0 .02.01.03.01.04z" class="Ai"/><path d="M480.42 358.1a10.18 10.18 0 0 0 .84-.08c1.74-.63 4.2-1.95 6.1-4.6 0-.01-.01-.02-.01-.04-2.28 3.04-5.25 4.26-6.93 4.73z" fill="#fccdd9"/><path d="M491.45 346.3a9.99 9.99 0 0 1 2.85-2.01c2.56-1.22 5.14-1.9 7.65-2h.3l.03-.22h-.05l-.26.01c-2.9.14-5.54 1.02-7.57 1.98-1.14.54-2.16 1.3-3 2.2.02.01.04.03.06.04z" fill="#c1eaff"/><path d="M490.16 347.9c.37-.58.8-1.1 1.3-1.6-.02-.01-.04-.03-.06-.04-.47.5-.88 1.05-1.23 1.64zm14.3-5.17l.16-.12a5.67 5.67 0 0 0-2.36-.54l-.03.22a5.95 5.95 0 0 1 2.23.44z" fill="#b099c8"/><path d="M507.15 344.96a5.23 5.23 0 0 0-.41-.63c-.01 0-.03.01-.04.02.16.2.3.4.45.6z" fill="#ffe7f7"/><path d="M506.7 344.35c.01-.01.03-.02.04-.02-.55-.74-1.28-1.33-2.1-1.72a2.22 2.22 0 0 0-.16.12 6.08 6.08 0 0 1 2.23 1.62z" fill="#b099c8"/><path d="M483.28 357.62c2.47-.7 5.66-2.4 7.92-6.36 1.3-2.27 3.42-3.94 5.93-4.62 1.6-.45 3.52-.8 5.6-.8.72 0 1.45.05 2.2.15a5.44 5.44 0 0 1 2.31.83v-.73c-.84-2-2.8-3.34-5.02-3.34h-.25c-2.45.12-4.97.77-7.48 1.96-2.3 1.1-4.06 3.03-4.93 5.44-1.43 4.02-4.04 6.24-6.28 7.47z" class="Ao"/><path d="M481.26 358.03a14.18 14.18 0 0 0 2.02-.41c2.24-1.23 4.85-3.45 6.28-7.47.87-2.4 2.62-4.35 4.93-5.44 2.5-1.2 5.03-1.84 7.48-1.96h.25c2.22 0 4.18 1.34 5.02 3.34l-.03-.57a5.11 5.11 0 0 1 .52 1.4c.03.1.05.2.07.3.04.03.07.06.12.1l-.2-.85a5.5 5.5 0 0 0-.58-1.51c-.14-.22-.3-.42-.45-.6a6.08 6.08 0 0 0-2.23-1.62 5.95 5.95 0 0 0-2.23-.44h-.3c-2.5.12-5.1.8-7.65 2a9.99 9.99 0 0 0-2.85 2.01c-.48.5-.92 1.02-1.3 1.6-.32.54-.6 1.12-.8 1.72-.4 1.1-.88 2.07-1.42 2.92l-.57.87c-1.9 2.66-4.36 3.98-6.1 4.6z" fill="#9fa9c6"/><path d="M492.04 370.26c.5 0 1.03-.04 1.57-.1 4.4-.52 10.22-2.74 13.12-10.37 1.9-5.02 1.48-9.7.8-12.78-.1-.07-.2-.13-.28-.2-.03 2.27-.4 4.8-1.4 7.44-2.87 7.56-8.68 9.97-13.3 10.52-.56.06-1.1.1-1.62.1-5.17 0-8.44-3.12-10.38-6.13a8.39 8.39 0 0 1-1.11.26c.48 1.66 3.67 11.25 12.6 11.25z" class="Aq"/><path d="M492 370.5a15.32 15.32 0 0 0 1.63-.1c4.64-.55 10.44-2.96 13.3-10.52 1.86-4.9 1.53-9.48.85-12.64-.08-.08-.18-.15-.28-.22.7 3.07 1.12 7.76-.8 12.78-2.9 7.63-8.73 9.85-13.12 10.37-.54.06-1.07.1-1.57.1-8.94 0-12.13-9.6-12.6-11.25a8.39 8.39 0 0 0 1.11-.26c-.05-.07-.1-.13-.13-.2-.77.22-1.26.27-1.26.27S482 370.5 492 370.5z" fill="#1c1b72"/><path d="M507.52 347c0-.02 0-.03-.01-.05-.06-.3-.16-.6-.27-.87v.73l.28.2z" fill="#8ca6d5"/><path d="M507.8 347.23l-.07-.3a5.11 5.11 0 0 0-.52-1.4l.03.57c.1.28.2.58.27.87a.09.09 0 0 1 .01.05c.1.07.2.14.28.22z" fill="#8076ae"/><path d="M477.85 359.15a1.34 1.34 0 0 1 .2-1.08 1.33 1.33 0 0 1 .94-.56c.27-.03 6.6-.86 9.1-7.88 1-2.8 3.04-5.06 5.72-6.32 2.7-1.28 5.42-2 8.08-2.1 3.38-.16 6.38 2.12 7.14 5.42.74 3.28 1.2 8.32-.85 13.72-3.35 8.8-10.45 10.9-14.4 11.37a15.03 15.03 0 0 1-1.75.1c-8.7 0-13.06-8.1-14.2-12.66zm24.37-15.3h-.2c-2.3.1-4.68.73-7.06 1.86-2.04.96-3.6 2.67-4.36 4.8-2.3 6.4-7.22 8.6-9.75 9.3 1.1 3.04 4.56 10.2 12.63 9.25 4.1-.48 9.52-2.56 12.23-9.67 1.8-4.78 1.4-9.27.73-12.2a4.32 4.32 0 0 0-4.22-3.36z" class="Ag Ah"/><path d="M528.62 482.4c.75-3.22-1.7-6.28-5-6.28-5.13.01-12.86-.2-21.23-1.27-9.44-1.2-18.22-4.14-23.5-6.2-2.77-1.08-5.88.44-6.74 3.3l-7.03 23.2c-.78 2.6.6 5.37 3.14 6.3 8.36 3.05 27.27 8.84 47.8 7.76 1.83-.1 3.45-1.17 4.27-2.8 1.92-3.8 5.42-11.73 8.3-24z" class="Ai"/><path d="M501.54 509.02a1.34 1.34 0 0 0 1.29-1.02l3.54-14.53 6.15-2.3c.4-.15.7-.48.8-.9l3.76-13.9c.2-.7-.23-1.43-.94-1.62-.7-.2-1.44.22-1.63.93l-3.58 13.25-6.17 2.32c-.4.15-.72.5-.82.93l-3.7 15.22c-.17.7.26 1.43.98 1.6a1.17 1.17 0 0 0 .32.04z" class="Ag"/><use xlink:href="#E" fill="#22a7f0"/><path d="M484.55 494c-2.7-.6-4.3-3.85-3.58-7.27.74-3.43 3.54-5.75 6.25-5.16l3.94.84v.18c0 .22-.13 5.16-.36 6.24-.15.68-2.14 5.63-2.23 5.84l-.07.17-3.95-.84zm6.16-11.23l-3.58-.77c-2.47-.53-5.04 1.63-5.72 4.82-.7 3.2.77 6.2 3.24 6.74l3.58.77 2.14-5.6c.2-.93.32-5.05.34-5.97z" class="Ag Ah"/><use xlink:href="#E" class="Al"/><path d="M488.32 494.82l-3.77-.8c-2.7-.58-4.32-3.84-3.6-7.28.74-3.43 3.55-5.74 6.26-5.16l3.77.8c.1.02.18.1.18.22l-.36 6.25c-.15.67-2.14 5.62-2.23 5.83-.04.1-.12.15-.2.15-.02 0-.04-.01-.05-.01zm2.4-12.03l-3.58-.77c-2.47-.53-5.03 1.63-5.72 4.8-.68 3.2.77 6.2 3.24 6.73l3.58.77 2.13-5.58c.2-.93.32-5.03.35-5.96z" class="Ah Aj"/><path d="M483.34 484.52c.75-.5 1.6-.8 2.45-.8.27 0 .53.03.8.1.04.01.07.01.1.02l.4-.36c.2-.17.42-.33.63-.47l-.78-.16c-.2-.04-.4-.07-.6-.07-1.12 0-2.2.67-3.02 1.75z" class="Ao"/><path d="M485.6 492.9c-.14-.2-.27-.44-.4-.68-.5-1.04-.72-2.26-.64-3.5-.96-.27-1.75-.9-2.33-1.75v.03c-.6 2.73.57 5.3 2.6 5.73l.78.17z" fill="#398bcf"/><path d="M487 495.4l-2.6-.56c-3.17-.68-5.07-4.4-4.24-8.28.84-3.88 4.1-6.5 7.25-5.8l2.64.57c1.16.24 1.98 1.3 1.94 2.48l-.34 5.22c-.04.17-.14.63-1.83 4.88a2.47 2.47 0 0 1-2.29 1.55 3.15 3.15 0 0 1-.52-.05zm2.85-11.67c.01-.16-.1-.3-.26-.33l-2.63-.56c-2.02-.43-4.13 1.44-4.7 4.17-.6 2.73.57 5.3 2.6 5.73l2.6.56c.15.04.3-.04.37-.2l1.73-4.54c.04-.18.17-1.08.3-4.84z" class="Ag Ah"/><path d="M494.35 489.6c-.7 3.3-3.4 5.54-5.98 4.98-2.6-.55-4.12-3.7-3.4-7s3.38-5.55 5.98-5c2.6.56 4.12 3.7 3.4 7z" class="Al"/><path d="M488.32 494.82c-1.33-.28-2.43-1.2-3.1-2.6-.66-1.37-.83-3.04-.48-4.7s1.2-3.1 2.37-4.07c1.18-1 2.56-1.38 3.9-1.1 1.32.28 2.43 1.2 3.1 2.6.67 1.37.84 3.03.5 4.7-.67 3.07-3 5.25-5.4 5.25a4.02 4.02 0 0 1-.85-.09zm-.93-11c-1.1.9-1.88 2.27-2.2 3.82s-.17 3.1.45 4.4c.6 1.26 1.6 2.1 2.8 2.34 2.46.53 5.02-1.63 5.7-4.8.33-1.56.17-3.1-.45-4.4-.62-1.26-1.6-2.1-2.78-2.34a3.33 3.33 0 0 0-.76-.08c-.95 0-1.9.36-2.75 1.07z" class="Ah Aj"/><path d="M493.8 487.7l.42-.8c-.1-.6-.27-1.2-.53-1.72-.62-1.26-1.6-2.1-2.78-2.34a3.33 3.33 0 0 0-.76-.08c-.95 0-1.9.36-2.75 1.07-.9.74-1.58 1.78-1.98 2.98.07.28.17.54.27.8 1.02-1.66 2.6-2.7 4.25-2.7.27 0 .53.03.8.1 1.38.3 2.46 1.32 3.06 2.72z" class="Ao"/><path d="M494.37 486.5l-.16.38c-.1-.6-.27-1.2-.53-1.72-.62-1.26-1.6-2.1-2.78-2.34a3.33 3.33 0 0 0-.76-.08c-.95 0-1.9.36-2.75 1.07-.9.74-1.58 1.78-1.98 2.98-.04-.13-.07-.26-.1-.4 0 .01 0 .02-.01.03.9-2.34 2.83-3.9 4.84-3.9a3.68 3.68 0 0 1 .8.08c2.6.56 4.12 3.7 3.4 7 .23-1.08.23-2.14.02-3.1zm-9.1-.04c.01-.01.02-.03.02-.04 0 .02-.01.03-.02.04zm-.32 1.12l.18-.7-.18.7z" fill="#9fa9c6" class="Ah"/><path d="M489.17 494.45c2.2 0 4.34-2.03 4.96-4.9l.08-.45c-.1-.5-.23-.98-.42-1.42-1 1.66-2.6 2.7-4.24 2.7-.27 0-.54-.03-.8-.1-1.38-.3-2.46-1.32-3.06-2.72-.26.44-.5.9-.67 1.42-.02 1.08.18 2.12.62 3.02.6 1.26 1.6 2.1 2.8 2.34.25.05.5.08.75.08z" fill="#398bcf"/><path d="M489.17 494.68c2.32 0 4.55-2.1 5.18-5.07h0a1.74 1.74 0 0 0-.05.22l-.1-.72-.08.45c-.62 2.86-2.75 4.9-4.96 4.9-.26 0-.5-.03-.75-.08-1.2-.25-2.18-1.08-2.8-2.34-.44-.9-.64-1.94-.62-3.02-.08.23-.15.47-.2.72a7.99 7.99 0 0 1 .04-1.46c-.38 3.06 1.1 5.8 3.53 6.32a3.57 3.57 0 0 0 .8.09zm-4.03-7.8l.14-.4-.14.4z" fill="#1e1972"/><path d="M494.2 489.1c.1-.76.1-1.5 0-2.22l-.42.8c.2.44.33.9.42 1.42zm-9.2-.1c.18-.5.4-.98.67-1.42-.1-.25-.2-.5-.27-.8-.1.27-.17.55-.23.84a8.14 8.14 0 0 0-.17 1.37z" fill="#869bcf"/><path d="M494.3 489.83a1.74 1.74 0 0 1 .05-.22h0c.23-1.08.23-2.14.02-3.1l-.16.38c.1.7.1 1.46 0 2.22l.1.72zm-9.5-.1l.2-.72a8.14 8.14 0 0 1 .17-1.37c.06-.3.14-.57.23-.84-.04-.13-.07-.26-.1-.4-.01.03-.01.05-.03.07l-.14.4-.18.7-.12.68a7.99 7.99 0 0 0-.04 1.46z" fill="#7b6eaa"/><path d="M488.14 495.64c-1.58-.34-2.9-1.42-3.68-3.04-.75-1.54-.94-3.4-.55-5.23.4-1.84 1.33-3.45 2.65-4.55 1.4-1.15 3.02-1.6 4.6-1.26 1.6.34 2.9 1.42 3.7 3.04.74 1.54.94 3.4.55 5.23-.75 3.47-3.43 5.92-6.25 5.92a5.65 5.65 0 0 1-1-.1zm2-12.06c-.75 0-1.52.3-2.2.88-.95.8-1.63 2-1.92 3.36-.3 1.36-.16 2.73.38 3.84.5 1.02 1.27 1.7 2.2 1.9 2.02.43 4.13-1.44 4.7-4.17.3-1.37.16-2.73-.38-3.84-.5-1.02-1.27-1.7-2.2-1.9-.2-.04-.4-.07-.58-.07zm-23.34 18.75a5.39 5.39 0 0 1-3.25-6.58l7.67-25.3c.43-1.44 1.46-2.64 2.8-3.3 1.36-.65 2.93-.7 4.32-.14 4.7 1.88 14.12 5.24 24.2 6.5 8.93 1.13 17.1 1.3 22.4 1.26 1.63-.02 3.2.7 4.22 1.98 1.04 1.3 1.43 2.95 1.07 4.55-3.08 13.74-6.98 22.38-9.03 26.3-.87 1.66-2.57 2.76-4.44 2.87-1.94.1-3.87.17-5.78.17-19.67 0-37.16-5.7-44.18-8.34zm60.83-21.58a2.73 2.73 0 0 0-.53-2.3c-.52-.65-1.28-1-2.1-1h-.03c-5.37.05-13.67-.12-22.74-1.27-10.38-1.3-20.03-4.75-24.86-6.68a2.65 2.65 0 0 0-2.17.07c-.7.33-1.2.92-1.43 1.66l-7.66 25.3a2.71 2.71 0 0 0 1.64 3.32c7.54 2.83 27.4 9.28 48.86 8a2.7 2.7 0 0 0 2.24-1.45c2-3.8 5.78-12.2 8.8-25.65z" class="Ag Ah"/><path d="M448.02 382.83a3.34 3.34 0 0 0 1.78-.52 3.23 3.23 0 0 0 1.29-1.55l.12-.3a20.38 20.38 0 0 0 .94-3.06l.67-2.93.54-2.84.44-2.8c.45-3.73 1.17-7.43 2.24-11.08 1.07-3.64 2.47-7.22 4.14-10.74l1.3-2.64 1.4-2.62 1.5-2.6.78-1.3.77-1.33.1-.18a3.05 3.05 0 0 0-1.22-4.16c-.46-.26-.97-.38-1.47-.38a2.99 2.99 0 0 0-1.82.6c-.46.34-.9.68-1.34 1.03l-1.3 1.07-2.47 2.32c-.78.8-1.54 1.66-2.3 2.5l-2.13 2.67c-2.72 3.67-4.97 7.76-6.63 12.1-1.67 4.34-2.78 8.93-3.16 13.6-.04 1.17-.06 2.34 0 3.5.12 1.17.24 2.33.47 3.48.27 1.15.58 2.3.98 3.4.45 1.1.95 2.2 1.6 3.22a3.31 3.31 0 0 0 2.79 1.54zm27.98-54.3c.4 0 .78-.03 1.15-.06.73-.04 1.4-.16 2.04-.28a17.2 17.2 0 0 0 1.88-.49 13.94 13.94 0 0 0 1.77-.66c.57-.23 1.12-.53 1.68-.8l1.67-.8 3.4-1.58 6.93-3.05 3.57-1.55 1.8-.8 1.83-.87.13-.07a3.15 3.15 0 0 0 1.35-4.25c-.48-.92-1.36-1.5-2.3-1.66l-2.18-.26-2.18-.1h-.3l-1.9.05-2.17.17c-2.9.3-5.76.9-8.56 1.77l-4.13 1.5-3.97 1.9c-.63.37-1.24.8-1.82 1.24a18.22 18.22 0 0 0-1.66 1.52c-1.02 1.12-1.94 2.38-2.53 4.04a3.74 3.74 0 0 0 2.26 4.79c.27.1.54.16.8.2l.3.03c.4.05.78.07 1.14.07z" fill="#b2e5ff"/><path d="M512.28 404.65c-.5.66-.62 1.43-.25 1.72.37.28 1.1-.03 1.6-.7s.62-1.43.25-1.72c-.37-.28-1.1.02-1.6.7zm-5.06-.03c.5.67.6 1.44.24 1.72-.38.28-1.1-.04-1.6-.7-.5-.68-.6-1.45-.23-1.73s1.08.04 1.58.7zm9.78 8.68c.05 2.1-.46 4-1.36 5.56-1.27 2.2-3.32 3.63-5.66 3.7-2.34.05-4.46-1.28-5.83-3.4-.98-1.5-1.6-3.4-1.63-5.5-.13-5 14.36-5.35 14.48-.35z" class="Ag"/><path d="M515.65 418.86c-1.27 2.2-3.32 3.63-5.66 3.7-2.34.05-4.46-1.28-5.83-3.4 1.27-2.2 3.32-3.64 5.65-3.7 2.35-.06 4.46 1.28 5.84 3.4z" fill="#ff4f90"/><path d="M501.43 413.68c-.08-3.35 4.08-4.95 8.22-5.05 2.06-.06 4 .27 5.47.9 1.9.82 2.95 2.15 3 3.75.07 2.67-.7 5.2-2.2 7.15-1.53 2.02-3.63 3.16-5.9 3.22h-.16c-4.53 0-8.28-4.43-8.42-9.97zm8.28-2.86c-3.03.07-6.13 1.14-6.1 2.8.1 4.4 2.96 7.92 6.34 7.82 1.6-.03 3.1-.87 4.2-2.34 1.18-1.55 1.8-3.6 1.75-5.78-.02-.7-.58-1.3-1.67-1.78s-2.6-.74-4.2-.74c-.12 0-.24 0-.35.01z" class="Ag Ah"/><path d="M381.78 476.35c-.07 0-.17-.02-.26-.04l-29.95-9.15a.91.91 0 0 1-.6-1.14c.14-.48.65-.75 1.13-.6l29.1 8.9c8.25-27.17-29.46-51.64-29.85-51.87a.92.92 0 0 1-.37-1.08c.15-.4.55-.65.97-.6l33.78 4.22c.65-13.88-4.78-25.06-16.13-33.26-8.72-6.3-17.87-8.37-17.96-8.4-.4-.1-.7-.46-.7-.88-.01-.42.28-.8.7-.9l28.8-6.83c-15-26.13-58.7-6.23-59.15-6.03-.4.2-.88.06-1.13-.3a.9.9 0 0 1 .14-1.17l29.73-27.7c-40.2-8.27-76.4 19.3-76.77 19.6a.93.93 0 0 1-1.11 0c-.33-.26-.44-.7-.27-1.1l9.76-22.06c-53.95 8.13-63.2 80-63.3 80.74a.91.91 0 0 1-1.01.8c-.5-.06-.84-.5-.78-1 .1-.75 9.68-75.44 66.46-82.54.34-.04.65.1.84.36.2.25.23.6.1.9l-9.1 20.55c9.4-6.34 41.96-25.76 77.25-17.63.32.07.6.3.67.64.1.33-.01.66-.26.9l-27.42 25.57c12.14-4.52 45.13-14.04 57.5 9.7a.9.9 0 0 1 .02.8c-.12.25-.34.44-.62.5l-26.58 6.32c3.55 1.17 9.4 3.5 15.2 7.7 8.37 6.03 18.1 17.14 16.87 35.83-.02.24-.14.48-.33.64-.2.15-.44.23-.7.2l-31.13-3.88c9.13 6.73 35.44 28.63 27.3 52.7-.13.37-.5.6-.87.6z" class="Am"/><path d="M148.66 441.08s-39.2 15.48-57.7-4.66c0 0 8 54.9 57.38 35.8 0 0 13.3-18.26.32-31.14z" class="Ai"/><path d="M129 477.15c-32.64 0-38.88-40.2-38.94-40.6s.14-.78.5-.95.8-.1 1.05.2c6.13 6.65 15.27 10.04 27.18 10.04 15.12 0 29.4-5.57 29.53-5.63a.92.92 0 0 1 .97.2c13.38 13.28-.1 32.13-.23 32.32-.1.14-.25.25-.4.32-7.02 2.7-13.64 4.08-19.65 4.08zm-30.3-21.2c7.1 12.87 17.3 19.4 30.3 19.4 5.72 0 12.03-1.3 18.74-3.88.66-.95 3.32-5.06 4.76-10.28 2.1-7.63.72-14.03-4.08-19.06-2.84 1.04-15.9 5.53-29.63 5.53-11.15 0-20-2.86-26.38-8.54.82 3.64 2.68 10.27 6.3 16.83z" class="Ah Am"/><g class="Aw"><path d="M343.15 551.28c5.4-4.16 15.9-157.9-65.7-181.56-81.6-23.65-82.65 57.76-134.95 48.46 0 0-40.48 116.65 85.52 46.9 0 0 5.52 60.88-77.14 35.5 0 0 20.32 38.7 49.42 51.72 14.4 6.44 38.9 79.03 142.86-1z"/><path d="M291.27 381.37s-8.94-47.84 31.3-50.1c0 0 19.28 45.8-24.45 58.66l-6.84-8.57zm-62.04-2.94s-30.5-44.28 6.23-60.88c0 0 34.48 35.78-1.7 63.53l-4.54-2.65z"/></g><path d="M150.14 484.54s15.54-69.04-2.27-69.48-18.7 19.35-18.7 19.35-4.45-18.9-18.7-9.1c-14.25 9.8 23.6 53.45 39.67 59.24z" fill="#f9cdb9"/><path d="M140.75 464.34c-.45 0-.84-.33-.9-.78-.64-4.55-3.58-27.4 1.52-29.82 2.1-1 4.24 1.32 4.93 2.08.35.36.32.94-.04 1.28-.36.33-.94.3-1.28-.05-1.23-1.33-2.26-1.95-2.83-1.68-2.87 1.37-2.03 17.16-.5 27.95a.9.9 0 0 1-.77 1.01c-.04.01-.08.01-.12.01zm-8.88.86a.91.91 0 0 1-.89-.77c-1.86-12.95-13.85-23.2-13.97-23.3a.89.89 0 0 1-.11-1.26c.33-.38.9-.43 1.28-.1.52.43 12.64 10.8 14.6 24.4.07.5-.28.95-.77 1.02-.04.01-.08.01-.13.01zm171.83-83.22c-.4 0-.76-.27-.87-.67-.13-.48.16-.98.65-1.1 7.56-2.03 7.97-20.96 7.44-29.56-12.27 5.86-11.22 24.53-11.2 24.72.03.5-.35.94-.86.97-.43.05-.92-.35-.95-.85-.06-.87-1.2-21.32 13.48-27.02.27-.1.57-.08.82.08.23.15.4.4.4.7.1 1.22 2.36 29.76-8.68 32.7-.08.02-.16.03-.24.03zm-65-15.88c-.08 0-.16-.01-.24-.03a.9.9 0 0 1-.63-1.1c.05-.2 5.46-20.66-3.72-28.67-2.07 3.98-9.46 19.7-2.3 28.33.32.38.27.95-.12 1.27-.37.32-.94.27-1.27-.12-9-10.84 2.13-30.47 2.6-31.3a.97.97 0 0 1 .6-.43c.26-.05.5.01.72.15 11.32 8.2 5.48 30.3 5.22 31.26a.91.91 0 0 1-.87.66zm-23.6 52.2c-.3 0-.68-.1-1.05-.4-2.3-1.9-2.75-12.8-2.84-16.1a.91.91 0 0 1 .88-.92c.5.03.92.38.93.87.2 7.37 1.2 14.12 2.2 14.75 1.04-.36 4.1-7.22 6.53-15a.93.93 0 0 1 1.14-.6c.48.14.74.65.6 1.13-1.47 4.7-5.2 15.73-8.1 16.2a1.09 1.09 0 0 1-.26.03zm21.7 0c-.3 0-.67-.1-1.05-.4-2.28-1.9-2.75-12.8-2.84-16.1a.91.91 0 0 1 .89-.92c.55.03.9.38.93.87.2 7.37 1.2 14.12 2.2 14.75 1.04-.36 4.1-7.22 6.53-15 .16-.47.65-.74 1.14-.6a.91.91 0 0 1 .6 1.13c-1.48 4.7-5.22 15.73-8.13 16.2a1.03 1.03 0 0 1-.26.03z" class="Am"/><path d="M264.35 430.42c0 5.54-4.48 10.02-10.02 10.02a10.02 10.02 0 0 1-10.01-10.02c0-5.53 4.5-10.02 10-10.02a10.02 10.02 0 0 1 10.02 10.02z" fill="#d1697b"/><path d="M218.83 508.1s-33.25 57.14-23.28 98.62c9.96 41.48 212.52 38.87 238.06 4.24 85.1-115.46-76.04-108.25-93.8-158.83-7.45-21.22-120.98 55.97-120.98 55.97z" class="Aw"/><path d="M226.42 452.7s-41.7 6.14-55.12-17.7c0 0 4.12 55.94 56.55 48.6 0 0 8.28-15.4-1.43-30.92z" class="Ai"/><path d="M218.7 485.18c-44.12 0-48.28-49.6-48.3-50.1-.03-.4.23-.8.63-.93a.92.92 0 0 1 1.06.43c8.78 15.6 30.46 17.92 42.6 17.92 6.74 0 11.55-.7 11.6-.7a.91.91 0 0 1 .89.42c9.88 15.77 1.55 31.67 1.47 31.83a.93.93 0 0 1-.68.47c-3.18.44-6.3.67-9.26.67zm0-1.82c2.73 0 5.6-.2 8.54-.58 1.16-2.46 6.72-15.78-1.3-29.12-1.5.2-5.68.64-11.26.64-11.6 0-31.72-2.1-41.96-15.48 1.98 11.5 10.75 44.54 45.98 44.54z" class="Ah Am"/><path d="M243.18 602.8s2.3 55.12 18.32 73.94l24.45.96s-7.4-60.92 0-81.74l-42.77 6.84zm-47.12-3.67s-23.17 50.06-17.55 74.1l21.28 12.06s21.32-57.55 37.42-72.7l-41.15-13.48zm208.24-2.1s3.75 55.03 20.27 73.43l24.45.32s-9-60.7-2.15-81.72l-42.57 7.97zm-47.92 5.78s2.3 55.12 18.32 73.94l24.45.96s-7.4-60.92 0-81.74l-42.77 6.84z" class="Aw"/><g class="Am"><path d="M227.2 557.8c-18.3 0-32.5-7.37-32.68-7.47-.44-.23-.6-.78-.37-1.23a.9.9 0 0 1 1.22-.36c.26.13 25.3 13.13 51.5 4.04 18-6.26 32.4-21.33 42.74-44.8.2-.46.73-.67 1.2-.46.45.2.66.73.46 1.2-10.56 23.95-25.3 39.34-43.82 45.77-6.97 2.42-13.85 3.3-20.24 3.3zm7.14 15.78c-20.05 0-34.3-9.55-34.56-9.72-.4-.3-.5-.86-.23-1.26.28-.4.85-.52 1.25-.24.47.32 46.23 30.9 88.93-20.03a.88.88 0 0 1 1.28-.1.92.92 0 0 1 .11 1.27c-19.78 23.6-40.25 30.1-56.78 30.1z"/><path d="M467.55 531.1a3.78 3.78 0 0 1-.74-.07c-.9-.17-3.02-.94-3.02-4.5 0-4.23 0-10.12 1.36-15.16-.3-.2-.6-.4-.93-.6-4.88-3.02-9.27-3.7-13.07-2-9.22 4.1-12.3 20.77-12.34 20.94-.1.5-.57.8-1.06.73-.48-.1-.8-.56-.72-1.05.13-.72 3.28-17.77 13.38-22.28 4.37-1.94 9.34-1.23 14.76 2.14l.54.33c1-2.8 2.52-5.2 4.84-6.7 3.7-2.4 8.9-2.17 15.47.73.46.2.67.74.46 1.2a.9.9 0 0 1-1.19.47c-5.97-2.64-10.6-2.94-13.76-.88-2.05 1.34-3.4 3.6-4.27 6.25 9.05 6.5 8 12.62 7.04 15.07-1.2 3.1-4.16 5.4-6.75 5.4zm-1.95-4.58c0 1.12.27 2.5 1.55 2.73 1.7.32 4.38-1.4 5.46-4.2.78-2 1.58-6.97-5.88-12.57-1.13 4.66-1.13 10.1-1.13 14.05z" class="Ah"/><path d="M268.63 692.7a1.24 1.24 0 0 1-.5-.1c-2.67-1-7.7-15-9.73-20.96-.16-.47.1-.98.56-1.15.47-.15 1 .1 1.16.56 2.94 8.62 6.9 18.3 8.47 19.7 1.08-1.26 2.62-7.6 3.46-13.18a.87.87 0 0 1 .74-.75c.4-.08.77.12.96.47 3 5.85 7.3 11.88 8.8 11.47 1.32-.33 1.52-8.58.42-17.3a.91.91 0 0 1 .79-1.01c.5-.07.95.28 1 .78.7 5.5 1.9 18.37-1.77 19.3-3.03.74-7.26-5.87-9.6-10.04-.76 4.24-2.2 10.94-4.1 12.03a1.25 1.25 0 0 1-.65.18zm-78.33 1.67a2.12 2.12 0 0 1-1.66-.78c-1.77-2.06-1.37-8.5-.95-12.2-2.47 2.1-6.92 5.66-9.77 6.65-.9.32-1.5-.06-1.8-.32-2.2-2.1.92-13.68 2.35-18.57a.92.92 0 0 1 1.13-.61.89.89 0 0 1 .6 1.12c-2.4 8.13-3.7 15.8-2.84 16.75 3.64-1.36 10.83-7.88 10.9-7.95.28-.25.7-.3 1.04-.13.33.2.52.56.46.94-.63 4.24-1.13 11.57.23 13.15.14.16.23.16.3.16 2.25 0 6.57-4.78 8.76-7.8.3-.4.85-.48 1.26-.2.4.3.5.87.2 1.26-.64.88-6.32 8.55-10.22 8.55zm190.14-3.27c-2.12 0-5.58-6.53-10.3-19.43-.17-.47.07-1 .53-1.16.48-.17 1 .07 1.17.53 3.05 8.33 7.23 17.7 8.66 18.27.87-.33 3.07-6.1 4.55-12.33.08-.35.38-.62.74-.68a.91.91 0 0 1 .92.45c3 5.2 7.27 10.8 8.97 10.8h.04c1.25-.6 1.97-9.38 1.53-19.16-.03-.5.36-.92.86-.95.56-.1.92.37.95.86.34 7.8.4 20.87-3.25 21.05-3 .18-7.24-6.08-9.54-9.8-1.28 4.94-3.38 11.3-5.73 11.56h-.1zm51.4-7.26a2.02 2.02 0 0 1-.94-.24c-3.2-1.74-9.15-14.74-9.82-16.22-.2-.45 0-1 .45-1.2a.9.9 0 0 1 1.2.45c2.44 5.36 7.04 14.28 9.03 15.36 1.77-.7 3.94-7.2 4.98-11.6a.92.92 0 0 1 .69-.68c.32-.08.68.05.9.32 3.82 4.73 8.9 9.67 10.53 9.4 1-.83.13-8.96-1.95-17.75-.12-.48.2-.97.67-1.08a.88.88 0 0 1 1.09.66c.63 2.67 3.68 16.12 1.7 19.13a1.74 1.74 0 0 1-1.19.82c-2.87.5-8.33-5.4-11.1-8.66-.92 3.42-2.96 10-5.4 11.1-.27.12-.55.18-.83.18zm-62.24-28.68c-.14 0-.28-.03-.42-.1-2.75-1.5-3-6.58-3.03-7.15-.02-.5.37-.9.87-.93h.03c.5 0 .9.37.9.86.05 1.2.5 4.8 2.08 5.62a.92.92 0 0 1 .37 1.23.92.92 0 0 1-.8.47zm-1.28-11.9c-.15 0-.3-.04-.42-.1-2.76-1.48-3.02-6.58-3.04-7.16-.02-.5.37-.9.87-.93h.03c.5 0 .9.4.9.87.05 1.2.52 4.8 2.08 5.62.44.24.6.78.37 1.23a.92.92 0 0 1-.8.48zm7.96 3.2a.98.98 0 0 1-.43-.11c-2.74-1.48-3-6.58-3.02-7.15-.02-.5.37-.9.87-.93h.03c.5 0 .9.37.9.86.05 1.2.53 4.8 2.1 5.62.43.24.6.8.36 1.23-.17.3-.47.48-.8.48zm-67.96-15.1c-1.68 0-3.18-.36-3.46-.42-.5-.12-.8-.62-.67-1.1a.91.91 0 0 1 1.1-.66c1.16.3 4.74.82 5.97-.44.35-.35.93-.36 1.28-.02.36.35.37.93.01 1.28-1.03 1.06-2.7 1.36-4.23 1.36zm9.86-9.06c-1.68 0-3.18-.35-3.46-.42-.5-.13-.8-.62-.67-1.1a.89.89 0 0 1 1.1-.66c1.16.3 4.74.83 5.97-.44.36-.36.93-.36 1.28-.01.36.34.37.92.02 1.28-1.05 1.06-2.7 1.35-4.24 1.35zm4.82 9.37c-1.67 0-3.17-.36-3.46-.43-.48-.12-.78-.6-.66-1.1a.91.91 0 0 1 1.09-.66c1.16.28 4.74.82 5.98-.45.35-.36.93-.36 1.28-.01.36.35.36.92.01 1.28-1.04 1.06-2.7 1.36-4.24 1.36zm-19.33-7.6c-1.67 0-3.16-.36-3.46-.43a.9.9 0 1 1 .44-1.76c1.16.3 4.74.82 5.98-.45.35-.36.92-.36 1.28-.01s.36.92.01 1.28c-1.04 1.06-2.72 1.36-4.25 1.36zm-11.13 6.75c-1.67 0-3.17-.36-3.46-.43-.48-.12-.78-.62-.66-1.1a.9.9 0 0 1 1.1-.66c1.16.3 4.74.83 5.97-.44.35-.36.92-.36 1.28-.01.36.34.37.92.01 1.28-1.04 1.06-2.7 1.36-4.24 1.36zm39.26-6.2c-1.68 0-3.18-.35-3.46-.42-.5-.13-.8-.62-.67-1.1a.9.9 0 0 1 1.1-.66c1.16.3 4.74.83 5.97-.44.35-.36.93-.36 1.28-.01a.89.89 0 0 1 .02 1.27c-1.05 1.07-2.7 1.36-4.24 1.36zm4.7 7.58c-1.68 0-3.16-.34-3.46-.4-.5-.13-.78-.62-.66-1.1a.9.9 0 0 1 1.1-.66c1.16.3 4.75.82 6-.44a.89.89 0 0 1 1.27-.02.92.92 0 0 1 .02 1.28c-1.05 1.07-2.72 1.35-4.25 1.35zm10.65-5.45c-1.67 0-3.17-.35-3.46-.43a.9.9 0 0 1-.66-1.09c.12-.48.6-.78 1.1-.66 1.16.28 4.73.82 5.97-.44.35-.37.92-.37 1.28-.02s.37.92.02 1.28c-1.04 1.06-2.72 1.36-4.25 1.36zm63.7-116.25a.94.94 0 0 1-.63-.26c-.86-.84-3.67-3.12-5.38-2.64-.5.13-.98-.16-1.1-.64s.15-.98.63-1.1c3.03-.82 6.7 2.7 7.13 3.1a.92.92 0 0 1 .01 1.28.91.91 0 0 1-.65.27z"/><path d="M398.14 510.5a.91.91 0 0 1-.63-.26c-.85-.84-3.67-3.12-5.4-2.64-.47.13-.97-.16-1.1-.64a.88.88 0 0 1 .64-1.1c3.02-.82 6.7 2.7 7.1 3.1.36.35.37.92.02 1.28-.18.18-.42.27-.65.27zm-1.14-9.94a.9.9 0 0 1-.63-.25c-.86-.85-3.67-3.13-5.38-2.65-.5.13-.98-.15-1.1-.64-.13-.48.16-.98.63-1.1 3-.8 6.7 2.7 7.13 3.1a.92.92 0 0 1 .01 1.28.91.91 0 0 1-.65.27zm-16.32 3.92a.92.92 0 0 1-.63-.25c-.85-.84-3.67-3.12-5.38-2.64a.91.91 0 0 1-1.11-.64.91.91 0 0 1 .64-1.11c3.02-.82 6.7 2.7 7.12 3.1.36.34.36.92.01 1.28-.18.18-.4.26-.65.26zm1.68-10.4c-.23 0-.46-.08-.63-.25-.86-.84-3.68-3.1-5.38-2.65-.5.13-.98-.16-1.1-.63-.13-.48.15-1 .63-1.1 3.03-.82 6.7 2.7 7.12 3.1a.92.92 0 0 1 .02 1.28c-.18.18-.42.27-.65.27zm-11.9 1.5c-.23 0-.46-.1-.64-.26-.85-.83-3.67-3.12-5.38-2.65a.88.88 0 0 1-1.1-.63c-.12-.48.15-.98.64-1.12 3.02-.8 6.7 2.7 7.1 3.1.36.36.37.92.02 1.28-.18.18-.42.28-.64.28zm40.38 25.48a.94.94 0 0 1-.63-.26c-.86-.83-3.67-3.1-5.38-2.64a.902.902 0 0 1-.48-1.74c3.03-.83 6.7 2.7 7.13 3.1a.92.92 0 0 1 .01 1.28.91.91 0 0 1-.65.27zm12.92-7.58c-.23 0-.46-.08-.63-.26-.85-.83-3.7-3.1-5.38-2.63-.5.12-.98-.16-1.1-.64-.13-.5.15-.98.64-1.1 3-.8 6.7 2.7 7.1 3.1.36.35.37.93.02 1.28-.18.18-.42.27-.65.27zm3.13 9.06c-.23 0-.44-.1-.62-.26-.86-.83-3.67-3.1-5.38-2.64-.5.13-.98-.16-1.12-.63-.13-.5.16-.98.63-1.1 3.04-.83 6.72 2.68 7.13 3.1a.92.92 0 0 1 .02 1.28.93.93 0 0 1-.66.27zm-37.1-7.57a.94.94 0 0 1-.63-.26c-.85-.83-3.67-3.1-5.38-2.65-.5.14-.97-.15-1.1-.63a.9.9 0 0 1 .63-1.1c3.04-.82 6.72 2.7 7.13 3.1.35.36.36.93.01 1.28-.17.2-.4.28-.65.28zm-201.62 6.4a14.97 14.97 0 0 1-3.83-.55.89.89 0 0 1-.63-1.11c.14-.48.65-.77 1.12-.62 1.15.32 4.7.98 5.98-.24.37-.35.95-.34 1.28.03.35.36.34.93-.03 1.28-.98.94-2.48 1.2-3.9 1.2zm-6.16 5c-2.17 0-4.38-.86-4.73-1-.46-.2-.7-.7-.5-1.17s.7-.7 1.17-.5c1.1.44 4.58 1.46 5.98.38.4-.3.96-.24 1.27.16.3.38.24.96-.16 1.26-.83.65-1.92.87-3.03.87zm-5.88-9.48c-1.82 0-3.52-.46-3.83-.55-.47-.13-.75-.64-.62-1.1.14-.5.64-.78 1.12-.63 1.15.33 4.7 1 6-.24a.9.9 0 0 1 1.27.03c.35.36.34.94-.02 1.28-1 .95-2.5 1.22-3.9 1.22zm21.12-2.07c-1.82 0-3.52-.47-3.83-.55-.48-.14-.76-.64-.62-1.12s.64-.76 1.12-.62c1.14.33 4.7.98 5.98-.24.37-.35.94-.33 1.28.03.35.36.34.93-.03 1.28-.98.94-2.48 1.22-3.9 1.22zm0 10.1c-1.82 0-3.52-.47-3.83-.56a.89.89 0 0 1-.62-1.11c.14-.48.64-.77 1.12-.62 1.14.32 4.7.98 5.98-.24.37-.35.94-.34 1.28.03.35.36.34.93-.03 1.27-.98.94-2.48 1.23-3.9 1.23zm9.1-7.06a14.43 14.43 0 0 1-3.83-.56.9.9 0 0 1-.63-1.1c.14-.48.65-.77 1.13-.62 1.14.32 4.7.98 6-.24.35-.35.93-.33 1.27.03.34.35.33.93-.02 1.28-1 .94-2.5 1.22-3.9 1.22zm3.55-5.98a.89.89 0 0 1-.9-.84c-.03-.5.34-.93.84-.97 1.18-.08 4.76-.68 5.55-2.25a.87.87 0 0 1 1.2-.4c.44.22.63.76.4 1.2-1.4 2.8-6.46 3.23-7.04 3.25-.02.01-.04.01-.06.01zm72.06-131.9c-.12 0-.24-.03-.36-.08-1.1-.48-4.53-1.6-5.96-.57a.91.91 0 0 1-1.27-.2.9.9 0 0 1 .21-1.26c2.52-1.83 7.22.14 7.75.37a.91.91 0 0 1 .46 1.19c-.15.34-.48.55-.83.55zm-27.63 2.57a.72.72 0 0 1-.35-.08c-1.1-.48-4.54-1.6-5.97-.57-.4.3-.97.2-1.27-.2a.91.91 0 0 1 .21-1.26c2.52-1.84 7.22.14 7.75.37.46.2.66.74.47 1.2a.94.94 0 0 1-.84.55zm-.6-7.87a.92.92 0 0 1-.36-.07c-1.1-.47-4.53-1.6-5.96-.56a.93.93 0 0 1-1.27-.21c-.3-.4-.2-.96.2-1.26 2.52-1.84 7.22.14 7.74.37.46.2.67.74.47 1.2a.91.91 0 0 1-.83.53zm15.4 11.07c-.12 0-.24-.03-.35-.08-1.1-.47-4.54-1.6-5.98-.56a.92.92 0 0 1-1.26-.2.94.94 0 0 1 .2-1.27c2.53-1.84 7.23.15 7.76.38.46.2.66.73.47 1.2-.15.33-.5.54-.84.54zm-1.34-10c-.12 0-.24-.02-.35-.07-1.1-.48-4.55-1.6-5.98-.57a.9.9 0 1 1-1.06-1.46c2.53-1.84 7.23.14 7.76.38.46.2.67.72.47 1.2-.15.33-.5.53-.84.53zm-33.95 2.38a.93.93 0 0 1-.66-.27c-.34-.36-.33-.94.02-1.28 2.25-2.17 7.18-.87 7.74-.72.48.14.75.64.63 1.12a.93.93 0 0 1-1.13.63c-1.14-.32-4.7-.96-5.98.27-.18.16-.4.25-.62.25zm142.45 286c-.14 0-.3-.03-.43-.1-2.74-1.48-3-6.58-3.02-7.15-.02-.5.37-.92.87-.94h.03a.89.89 0 0 1 .9.87c.05 1.2.53 4.8 2.1 5.62.43.24.6.8.36 1.23a.91.91 0 0 1-.8.47zm1.28-8.94c-.14 0-.3-.03-.43-.1-2.75-1.5-3-6.58-3.02-7.15a.89.89 0 0 1 .87-.93h.03a.88.88 0 0 1 .9.86c.05 1.2.53 4.8 2.1 5.62.43.24.6.8.36 1.23a.91.91 0 0 1-.8.47zm39.74-8.94c-.15 0-.3-.03-.43-.1-2.75-1.48-3-6.56-3.02-7.14a.89.89 0 0 1 .86-.94c.56-.05.92.37.94.87.04 1.2.52 4.78 2.08 5.63.44.23.6.78.36 1.22-.16.3-.47.47-.8.47zm-1.3-11.9a.98.98 0 0 1-.43-.11c-2.75-1.48-3-6.58-3.02-7.15a.9.9 0 0 1 .87-.94h.03a.89.89 0 0 1 .9.88c.05 1.2.53 4.77 2.1 5.6.43.24.6.8.36 1.23-.17.3-.47.48-.8.48zm7.98 3.18c-.14 0-.3-.03-.43-.1-2.75-1.48-3-6.57-3.03-7.15-.02-.5.38-.9.88-.93h.03a.9.9 0 0 1 .9.86c.05 1.2.52 4.78 2.08 5.63.44.23.6.78.37 1.22a.92.92 0 0 1-.8.47zm0 17.66c-.14 0-.3-.03-.43-.1-2.75-1.5-3-6.58-3.03-7.15-.02-.5.38-.9.88-.93h.03c.48 0 .88.37.9.86.05 1.2.52 4.8 2.08 5.62a.91.91 0 0 1 .37 1.23.92.92 0 0 1-.8.47zm1.27-8.94a.85.85 0 0 1-.42-.11c-2.75-1.48-3-6.56-3.03-7.14a.9.9 0 0 1 .87-.94c.58-.05.92.37.94.87.04 1.2.52 4.78 2.07 5.63.45.23.6.78.37 1.22-.16.3-.47.47-.8.47zM258 655c-.15 0-.3-.04-.44-.13-2.7-1.56-2.82-6.65-2.82-7.23a.91.91 0 0 1 .89-.91c.5 0 .9.4.9.9.01 1.2.38 4.8 1.92 5.68a.91.91 0 0 1 .33 1.23.9.9 0 0 1-.8.46zm-.9-11.93a.86.86 0 0 1-.45-.13c-2.7-1.56-2.8-6.66-2.8-7.23 0-.5.4-.9.9-.92h0c.5 0 .9.4.9.9.01 1.2.38 4.8 1.92 5.68.43.25.57.8.32 1.23-.16.3-.46.46-.78.46zm7.86 3.43a.92.92 0 0 1-.45-.12c-2.7-1.56-2.8-6.66-2.82-7.23a.9.9 0 0 1 .91-.91h0c.5 0 .9.4.9.9.01 1.2.4 4.8 1.9 5.67.44.25.6.8.33 1.24a.89.89 0 0 1-.78.45zm-.53 17.65a.86.86 0 0 1-.45-.13c-2.7-1.56-2.8-6.66-2.8-7.23 0-.5.4-.9.9-.92.44.04.9.4.9.9.01 1.2.38 4.8 1.92 5.68.42.25.57.8.32 1.23-.16.3-.46.46-.78.46zm1.55-8.9c-.16 0-.32-.04-.46-.13-2.7-1.56-2.8-6.66-2.8-7.23a.89.89 0 0 1 .9-.9h.01c.5 0 .9.4.9.9.01 1.2.38 4.8 1.9 5.68.44.25.6.8.34 1.23a.89.89 0 0 1-.78.46zM189.08 636a.95.95 0 0 1-.8-.44c-1.57-2.7.85-7.18 1.14-7.68.23-.44.8-.6 1.23-.35a.91.91 0 0 1 .34 1.23c-.58 1.04-2.04 4.36-1.15 5.9.26.42.1.98-.32 1.24-.14.07-.3.1-.45.1zm5.1-10.85c-.32 0-.62-.16-.8-.44-1.57-2.7.85-7.18 1.12-7.68a.91.91 0 0 1 1.23-.35c.44.24.6.8.35 1.23-.57 1.04-2.03 4.36-1.14 5.88.26.43.1.98-.32 1.24a.95.95 0 0 1-.45.12zm5.15 6.87a.96.96 0 0 1-.8-.45c-1.58-2.7.85-7.17 1.13-7.68.24-.43.8-.58 1.23-.35.43.25.6.8.35 1.23-.6 1.05-2.04 4.36-1.15 5.9a.9.9 0 0 1-.32 1.24.98.98 0 0 1-.45.12zm-9.18 15.08c-.3 0-.62-.15-.78-.44-1.58-2.7.85-7.18 1.13-7.7.23-.44.8-.58 1.23-.35.43.25.6.8.34 1.23-.58 1.04-2.04 4.37-1.14 5.9a.91.91 0 0 1-.32 1.24.93.93 0 0 1-.46.12zm5.73-6.97c-.3 0-.6-.16-.78-.45-1.58-2.68.85-7.17 1.13-7.67.25-.44.8-.6 1.23-.35s.6.8.35 1.23c-.6 1.04-2.05 4.35-1.14 5.88.24.43.1.98-.33 1.24a.93.93 0 0 1-.46.12z"/></g><path d="M408.7 606l-6.42-10.26c-4.67 1.3-9.5 4.04-12.22 9-1.52 2.76-2.28 6.04-4.06 8.57l3.4-.82c-2.94 2.92-5 7.15-5.65 11.53l8.53-3.18c-.6 1.05-1.07 2.18-1.42 3.36 1.74-.95 3.44-2 5.08-3.22l-.58 2.78c3.6-.9 6.66-4.26 8.9-7.97 2.24-3.7 5.02-10.37 4.45-9.8z" fill="#ce573f"/><path d="M403.66 597.95c-4.45 1.64-8.17 3.63-10.92 8.3.44-.1.87-.2 1.3-.32-1.1 3.5-2.42 6.9-3.93 10.2 2.54-.66 4.98-2.23 6.95-4.43-.16 1.47-.72 2.9-1.56 4.06a8 8 0 0 0 2.48-1.27l.2 1.25c2.4-1.1 4.44-3.33 6-5.85 1.57-2.53 1.92-3.4 3.06-6.2l-3.6-5.75z" fill="#e2d02a"/><path d="M415.92 589.15c-3.78-4.75-6.57-3.48-6.57-3.48L391.1 598.5l17.1 17.15 10.03-15.74s1.96-5.37-2.3-10.75z" fill="#a7a7a7"/><path d="M432.13 629.73l-6.02-9.88c-4.4 1.3-8.98 3.96-11.58 8.77-1.45 2.68-2.2 5.85-3.88 8.3l3.2-.8c-2.8 2.84-4.78 6.93-5.4 11.17l8.1-3.12c-.57 1.02-1.03 2.1-1.37 3.25 1.65-.92 3.26-1.96 4.82-3.14l-.56 2.7c3.4-.88 6.3-4.17 8.45-7.76 2.13-3.6 4.8-10.05 4.25-9.5z" fill="#ce573f"/><path d="M427.4 621.98c-4.2 1.6-7.72 3.55-10.35 8.1.4-.12.82-.22 1.23-.33a89.16 89.16 0 0 1-3.77 9.89c2.4-.66 4.72-2.18 6.6-4.32-.17 1.4-.7 2.8-1.5 3.92.8-.25 1.6-.68 2.35-1.24l.18 1.22c2.28-1.08 4.2-3.25 5.7-5.7 1.5-2.46 1.83-3.3 2.93-6.02l-3.37-5.54z" fill="#e2d02a"/><path d="M439.05 613.4c-3.55-4.58-6.2-3.33-6.2-3.33l-17.3 12.5 16.04 16.5 9.56-15.28s1.9-5.2-2.12-10.38z" fill="#a7a7a7"/><path d="M432.97 547.85s-35.36-24.13-55.76 4.78c-23.83 33.8-32.4 64.9-32.4 64.9l15.37 15.05 72.78-84.73zm49.1 48.43s23.55 33.28-4.93 54.25c-33.3 24.53-62.92 35.3-62.92 35.3l-15.38-15.06 83.23-74.5zm114.2-108.93c12.84-28.68 11.55-66.9 11.18-66.94-.03-.36-38.28-.87-66.7 12.55-17.97 8.5-43.35 33.17-43.35 33.17l66.6 65.24s24.14-25.88 32.27-44.02z" class="Ax"/><path d="M530.02 498.08l-29.25-28.66-98.44 113.86 45.13 44.2 111.82-100.74-29.26-28.66z" fill="#eaeaea"/><path d="M580.83 484.6c-7.66 10.58-22.07 23.26-32.25 31.6l15.44 15.13s24.15-25.87 32.27-44c12.46-27.82 11.62-64.6 11.22-66.83-1.93 9.62-9.93 40.97-26.68 64.1z" fill="#cc5740"/><path d="M561.42 432.23c-14.1 4.9-28.14 11-39.22 21.04-2.66 2.4-5.2 5.15-6.38 8.55s-.63 7.6 2.1 9.93c2.52 2.15 6.34 2.22 9.4.94 3.05-1.27 5.5-3.67 7.67-6.16 2.94-3.35 5.57-6.96 8.6-10.22 8.2-8.84 19-14.9 30.2-19.3 3.7-1.44 7.56-6.02 1.74-7.52-4.25-1.1-10.14 1.37-14.1 2.73z" fill="#f09d89"/><g fill="#d3d3d3"><path d="M500.77 469.42l-5.4 6.25s23.05 18.83 29.23 33.67c8.5 20.36-3.26 28.48-3.26 28.48l-82.9 80.83 9.03 8.83 111.82-100.74-58.5-57.32z"/><path d="M514.06 547.96c-7.74 7.9-20.4 8.02-28.3.28-7.9-7.72-8.03-20.4-.3-28.3 7.74-7.9 20.4-8.02 28.3-.3 7.9 7.74 8.03 20.4.3 28.3z"/></g><path d="M514.48 541.72c-7.74 7.9-20.4 8.02-28.3.28-7.9-7.73-8.02-20.4-.3-28.3 7.74-7.9 20.4-8.03 28.3-.3 7.9 7.73 8.02 20.4.3 28.3z" class="Ax"/><path d="M510.6 537.92c-5.65 5.75-14.9 5.85-20.64.2-5.76-5.64-5.85-14.88-.2-20.63 5.64-5.76 14.87-5.85 20.63-.2s5.85 14.87.22 20.63z" fill="#274150"/><path d="M498.97 517.2c-2.95.4-5.94 1.46-7.78 3.8-1.85 2.36-2.42 6.06-.37 8.24.76.82 1.92 1.35 2.98 1.06.55-.16 1-.5 1.42-.88 1.87-1.68 3.25-5.46 5.75-5.68 1.76-.15 3.76.6 5.52.34 5.45-.8-.6-7.78-7.52-6.9z" fill="#75868f"/><path d="M382.1 654.05l-4.14-4.06 77.7-79.3 4.14 4.05-77.7 79.3z" class="Ax"/><path d="M441.6 410.76l-12.28 6.45-6.64-11.43-3.37 11.85-9.15-8.24 6.94 13.98-14.6 3.22 16.13 5.32-4.3 15.52 11.47-8.48 8.32 13.32 1.5-16.8 14.1-1.4-13.67-9.02 5.54-14.27z" fill="#5bd8d8"/><path d="M395.6 332.9c2.15-.65 3.83-1.24 6.16-1.36 3-.16 6.04-1.54 9.03-2.05 4.42-.74 8.9-.96 13.34-.34 3.65.5 7.24 1.38 10.9 1.64 1.94.14 3.87.17 5.8.13 1.7-.04 3.84-.58 5.48-.3-4.84-.82-9.72-1.4-14.65-1.4-.76 0-4.04-.7-3.43-.9.56-.18 9.03-.58 10.82-.98-.78-.28-12.58-.13-17.9-1.26-4.55-.96-9.05-2.1-13.47-3.55-2.4-.78 2.3-9.43 3.82-10.46 1.37-.92 3.14-1.43 4.57-2.3 3-1.84 5.73-4.15 7.97-6.86 2.27-2.74 5-4.93 6.94-8-5.36 2.05-11.2 4.17-15.93 7.37-1.48 1-3.14 1.46-4.8 2.17-2.48 1.06-4.95 1.5-7.38 2.92-2.42 1.42-5.3 1.77-7.9 2.9-1.98.87-3.7 1.17-5.7 1.82-2.4.76-3.5-2.43-4.84-4.08-1.64-2-3.34-3.97-4.55-6.27-1.7-3.23-4.4-6-6.23-9.2-1.5-2.63-3.75-4.9-5.6-7.3-1.1-1.4-2.12-2.68-3.5-3.78-.9-.72-1.77-1.05-1.4-2.48-4.3 7.6-3.27 17.1-.03 24.88 2.12 5.08 3.34 11.1 8.8 13.8-4.63.43-8.8 3.98-9.96 8.48.2-.78 5.13.77 5.77 1.05 2.3.98 4.48 2.75 7.02 2.95 2.22.18 4.5.3 6.7.67 1.52.24 2.5 1.05 3.83 1.6 3.13 1.3 7.1 1.43 10.3.46zm48.17-73.82c1.3-.4 2.3-.74 3.7-.82 1.82-.1 3.65-.93 5.45-1.23 2.67-.45 5.37-.6 8.05-.2l6.58 1 3.5.08c1.02-.02 2.32-.35 3.32-.18-2.93-.5-5.87-.84-8.84-.85-.46-.01-2.44-.42-2.08-.54.34-.1 5.46-.35 6.53-.6-.47-.17-7.6-.08-10.8-.76-2.74-.58-5.46-1.27-8.12-2.14-1.44-.47 1.38-5.7 2.3-6.32.83-.55 1.9-.86 2.76-1.38 1.8-1.1 3.45-2.5 4.8-4.14 1.36-1.65 3.02-2.97 4.18-4.82-3.23 1.23-6.75 2.5-9.6 4.45-.9.6-1.9.88-2.9 1.3-1.5.63-3 .9-4.45 1.76-1.47.85-3.2 1.06-4.77 1.75-1.2.53-2.24.7-3.44 1.1-1.44.46-2.1-1.47-2.92-2.46-1-1.2-2-2.4-2.74-3.8-1.03-1.94-2.66-3.6-3.76-5.54-.9-1.58-2.27-2.95-3.4-4.4-.66-.85-1.28-1.62-2.12-2.28-.54-.44-1.07-.64-.84-1.5-2.6 4.58-1.97 10.3-.01 15 1.28 3.07 2 6.7 5.3 8.32-2.8.26-5.3 2.4-6 5.1.12-.46 3.1.47 3.48.64 1.4.6 2.7 1.66 4.24 1.78 1.34.1 2.7.2 4.04.4.92.15 1.5.64 2.3.97 1.9.8 4.3.87 6.22.28z" fill="#3d4526"/><defs ><path id="B" d="M370.48 508.96c1.7 3.75 4.5 7.33 8.94 9.8.03.02.05.03.1.04 24.2 5.87 25.62-19.1 39.06-25.2 9.87-4.47 18.74 1.92 22.78 5.65l1.06-7.38c-4.26-2.95-17.66-10.8-32.22-4.7-12.75 5.34-28.5 28.9-39.22 21.35-.28-.2-.64.1-.5.42z"/><path id="C" d="M379.46 519.04c-.06-.01-.1-.04-.16-.06-4-2.24-7.05-5.58-9.04-9.93-.1-.23-.04-.5.16-.67.2-.16.47-.17.68-.02 6.63 4.66 15.47-3.03 24.02-10.48 5.03-4.38 10.24-8.92 14.98-10.9 14.8-6.2 28.57 2.04 32.44 4.7.07.05.1.14.1.22l-1.06 7.38c-.02.08-.07.15-.16.18-.07.03-.16.01-.23-.04-4.3-3.97-12.92-9.97-22.53-5.6-4.82 2.18-8.04 6.77-11.45 11.63-5 7.14-10.16 14.48-20.83 14.48-2.08 0-4.38-.28-6.92-.9zm61.72-20.25l.98-6.8c-3.97-2.72-17.43-10.64-31.9-4.58-4.66 1.94-9.84 6.46-14.85 10.82-8.7 7.56-17.66 15.38-24.6 10.5-.05-.03-.1-.01-.12.01-.02.01-.06.05-.03.12 1.95 4.26 4.93 7.53 8.88 9.73 15.27 3.7 21.38-5 27.28-13.4 3.44-4.9 6.7-9.55 11.64-11.8 2.43-1.1 4.8-1.56 7.08-1.56 6.64 0 12.3 3.94 15.62 6.95zm-70.7 10.17h-.01.01z"/><path id="D" d="M451.66 432.76c3.7 7.34 22.1 14.7 44.9 17.4 22.8 2.7 42.45-.15 47.74-6.44l1.44-12.17c.08-.64-.65-1.03-1.16-.63-6.8 5.34-25.2 7.62-46.34 5.12-21.12-2.5-38.5-9.02-43.86-15.8-.4-.5-1.2-.3-1.28.34l-1.44 12.18z"/><path id="E" d="M490.58 488.8c-.14.66-2.2 5.8-2.2 5.8l-3.77-.8c-2.6-.56-4.12-3.7-3.4-7 .7-3.32 3.4-5.55 5.98-5l3.77.8-.36 6.2z"/></defs></svg>