<svg xmlns="http://www.w3.org/2000/svg" viewBox="0 0 315 292" width="315" height="292">
	<style>
		tspan { white-space:pre }
		.shp0 { fill: #fff6ee } 
		.shp1 { fill: #b64c41 } 
		.shp2 { fill: #f9ddbe } 
		.shp3 { fill: #efcdaf } 
		.shp4 { fill: #e2b99a } 
		.shp5 { fill: #fff3e9 } 
		.shp6 { fill: #aa443e } 
		.shp7 { fill: #ffb27d } 
		.shp8 { fill: #2b478b } 
		.shp9 { fill: #e9f3fe } 
		.shp10 { fill: #f99746 } 
	</style>
	<g id="g12">
		<g id="Folder 215">
			<path id="path364" class="shp0" d="M297.73 275.94L18.39 275.94L18.39 16.5L297.73 16.5L297.73 275.94Z" />
			<path id="path366" fill-rule="evenodd" class="shp1" d="M307.97 287.89L8.15 287.89L8.15 7.96L307.97 7.96L307.97 287.89ZM28.63 267.41L287.49 267.41L287.49 28.44L28.63 28.44L28.63 267.41Z" />
			<path id="path368" class="shp2" d="M264.33 54.05L264.33 241.8L51.32 241.8L51.32 54.05L264.33 54.05Z" />
			<path id="path370" class="shp3" d="M264.55 166.81L264.55 241.8L206.3 241.8C206.21 241.55 206.12 241.3 206.03 241.04C202.65 231.1 201.15 221.13 201.34 211.8C201.34 211.77 201.34 211.74 201.34 211.71C200.32 212.13 199.53 212.49 199.08 212.78C194.9 215.48 197.1 235.34 186.59 240.73C176.08 246.1 165.89 225.95 176.86 207.77C183.54 196.68 197.1 189.98 206.65 186.44C208.26 182.83 210.22 179.53 212.51 176.59C212.59 176.48 212.68 176.36 212.76 176.26C205.01 173.29 198.6 167.03 195.71 158.55C194.73 155.69 194.24 152.77 194.17 149.89C194.15 149.89 194.12 149.89 194.1 149.88C188.92 149.03 184.37 145.43 182.57 140.12C179.96 132.45 184.06 124.11 191.74 121.5C197.29 119.61 203.2 121.24 207.02 125.19C209.07 123.83 211.33 122.7 213.77 121.87C215.94 121.13 218.13 120.67 220.31 120.46C221.01 115.08 224.67 110.29 230.15 108.44C237.82 105.82 246.16 109.93 248.77 117.6C250.48 122.64 249.3 127.96 246.13 131.76C247.95 134.17 249.43 136.92 250.45 139.93C253.18 147.93 252.2 156.29 248.43 163.15C252.74 164.04 257.01 165.64 261.16 167.87C262.15 167.54 263.21 167.21 264.33 166.87C264.41 166.85 264.48 166.83 264.55 166.81" />
			<path id="path372" class="shp4" d="M221 241.8L206.3 241.8C206.21 241.55 206.12 241.3 206.03 241.04C202.65 231.1 201.15 221.13 201.34 211.8C202.56 209.92 204.33 208.41 206.65 209.17C211.78 210.82 214.04 234.04 222.11 238.41C224.68 239.8 223.63 240.94 221 241.8Z" />
			<path id="path374" class="shp4" d="M226 171.08C223.37 172.47 217.7 175.08 212.51 176.59C212.59 176.48 212.67 176.36 212.76 176.26C205.01 173.29 198.59 167.03 195.71 158.55C194.73 155.69 194.24 152.77 194.17 149.89C194.14 149.89 194.12 149.88 194.1 149.88C194.37 149.73 194.76 149.86 195.34 150.48C197.52 152.84 210.22 172.63 225.62 168.16C225.62 168.16 229.91 169.02 226 171.08" />
			<path id="path376" class="shp5" d="M227.08 121.44C227.08 121.44 229.86 114.1 235.56 115.16C241.25 116.22 243.05 124 239.77 126.63C239.77 126.63 233.84 122.42 227.08 121.44Z" />
			<path id="path378" class="shp5" d="M201.93 128.81C201.93 128.81 193.58 126.21 190.57 130.88C187.56 135.54 195.38 139.95 195.38 139.95C195.38 139.95 197.88 132.39 201.93 128.81Z" />
			<path id="path380" class="shp6" d="M129.59 69.36C129.59 69.36 109.64 64.91 103.75 80.06C99.69 90.48 107.48 117.73 107.48 117.73L158.97 117.73C158.97 117.73 180.11 63.64 129.59 69.36" />
			<path id="path382" class="shp7" d="M120.19 130.49L120.19 137.52L147.92 137.52L147.92 128.28L120.19 130.49Z" />
			<path id="path384" class="shp7" d="M170.37 208.59C126.18 223.43 95.36 208.1 95.36 208.1C105.52 183.52 100.01 142.06 100.01 142.06C141.77 128.08 168.05 142 168.05 142C163.17 149.6 161.26 158.27 161.02 166.78C160.81 173.81 161.76 180.75 163.12 186.88C165.89 199.4 170.37 208.59 170.37 208.59Z" />
			<path id="path386" class="shp7" d="M126.41 232.92C125.28 236.2 123.69 239.22 122.05 241.8L101.46 241.8C93.66 229.59 93.34 208.59 93.34 208.59C93.34 208.59 93.39 208.57 93.49 208.53C93.78 208.41 94.48 208.13 95.48 207.78L95.49 207.78C101.63 205.67 119.23 201.07 125.96 214.81C125.96 214.81 125.96 214.81 125.97 214.81C125.98 214.84 125.99 214.86 126 214.9C128.95 220.98 128.36 227.31 126.41 232.92" />
			<path id="path388" class="shp8" d="M126.19 241.8L102.73 241.8C102.44 240.91 102.26 239.99 102.18 239.03L101.18 226.26C100.67 219.79 105.32 214.04 111.65 213.11L111.66 213.11C111.93 213.06 112.21 213.03 112.49 213C112.82 212.99 113.14 212.97 113.46 212.97C115.41 212.97 117.27 213.43 118.94 214.27C122.67 216.14 125.38 219.87 125.74 224.33L126.41 232.92L126.74 237.1C126.87 238.73 126.67 240.32 126.19 241.8" />
			<path id="path390" class="shp7" d="M169.73 208.59C169.73 208.59 169.73 208.66 169.72 208.8C169.67 211.03 168.95 230.3 161.61 241.8L141.01 241.8C139.39 239.22 137.79 236.2 136.65 232.93C134.71 227.34 134.12 221.02 137.04 214.95C137.06 214.9 137.08 214.85 137.1 214.81C137.1 214.81 137.12 214.79 137.13 214.75C145.38 198.07 169.73 208.59 169.73 208.59" />
			<path id="path392" class="shp8" d="M161.89 226.26L160.88 239.03C160.81 239.99 160.62 240.91 160.34 241.8L136.88 241.8C136.4 240.32 136.19 238.73 136.33 237.1L136.65 232.93L137.33 224.33C137.67 220 140.24 216.36 143.81 214.43C145.55 213.5 147.54 212.97 149.61 212.97C149.93 212.97 150.26 212.99 150.58 213C151.14 213.05 151.68 213.13 152.22 213.25C158.13 214.53 162.38 220.06 161.89 226.26Z" />
			<path id="path394" class="shp9" d="M100.26 181.26C100.26 181.26 88.39 199.03 93.34 208.6C93.34 208.6 113.81 200.32 125.96 214.81C125.96 214.81 130.66 217.15 137.1 214.81C137.1 214.81 144.95 201.25 169.73 208.6C169.73 208.6 173.49 194.29 161.78 181.26C161.78 181.26 146.49 191.83 100.26 181.26" />
			<path id="path396" class="shp7" d="M168.31 142.14C168.31 142.14 189.38 160.67 189.64 179.62C189.64 179.62 175.63 185.16 166.48 175.63C157.32 166.1 151.86 137.55 168.31 142.14Z" />
			<path id="path398" class="shp7" d="M100.01 142.06C100.01 142.06 78.46 160.03 77.71 178.96C77.71 178.96 91.57 184.88 100.97 175.59C110.36 166.3 116.57 137.9 100.01 142.06Z" />
			<path id="path400" class="shp10" d="M117 137.52C117 137.52 121.18 144.69 132.86 144.69C144.54 144.69 150.34 136.88 150.34 136.88C150.34 136.88 163.9 135.94 172.15 145.89C172.15 145.89 179.58 162.13 163.12 169.67C163.12 169.67 160.96 170.17 161.07 172.03C161.18 173.88 162.72 179.69 162.72 179.69C162.72 179.69 116.43 189.18 100.26 181.26L104.35 169.43C104.35 169.43 86.29 162.25 85.55 153.22C85.55 153.22 96.64 137.39 117 137.52" />
			<path id="path402" class="shp7" d="M189.64 179.62C189.64 179.62 170.76 195.27 150.79 190.58C150.79 190.58 146.87 183.36 148.2 181.34C149.53 179.32 177.67 161.67 189.64 179.62Z" />
			<path id="path404" class="shp7" d="M77.71 178.96C77.71 178.96 96.18 195.11 116.26 190.94C116.26 190.94 120.37 183.83 119.09 181.77C117.81 179.71 90.15 161.34 77.71 178.96" />
			<path id="path406" class="shp7" d="M119.09 181.77C119.09 181.77 124.67 178 128.05 181.51C131.43 185.01 127.55 195.71 116.26 190.94C104.96 186.17 119.09 181.77 119.09 181.77Z" />
			<path id="path408" class="shp7" d="M148.2 181.34C148.2 181.34 139.1 177.59 137.37 183.28C135.64 188.97 146.4 194.17 150.79 190.58C155.18 186.99 148.2 181.34 148.2 181.34Z" />
			<path id="path410" class="shp7" d="M159.21 109.81C162.14 123.68 147.71 133.13 133.53 133.13C119.35 133.13 104.97 124.66 107.85 109.81C111.03 93.42 119.35 84.13 133.53 84.13C147.71 84.13 156.09 95.07 159.21 109.81Z" />
			<path id="path412" class="shp6" d="M133.53 84.13C133.53 84.13 140.02 96.35 150.33 99.02C150.33 99.02 149.28 96.15 149.85 95.1C149.85 95.1 153.58 101.31 157.3 101.02C161.02 100.74 150.52 80.02 133.53 84.13Z" />
			<path id="path414" class="shp6" d="M134.16 84.13C134.16 84.13 127.67 96.35 117.36 99.02C117.36 99.02 118.41 96.15 117.84 95.1C117.84 95.1 114.12 101.31 110.39 101.02C106.67 100.74 117.17 80.02 134.16 84.13Z" />
		</g>
	</g>
</svg>