<svg xmlns="http://www.w3.org/2000/svg" viewBox="0 0 257 278" width="257" height="278">
	<style>
		tspan { white-space:pre }
		.shp0 { fill: #fff6ee } 
		.shp1 { fill: #fcecdb } 
		.shp2 { fill: #ffb27d } 
		.shp3 { fill: #233862 } 
		.shp4 { fill: #ed985f } 
		.shp5 { fill: #2b478b } 
		.shp6 { fill: #ffe8dc } 
		.shp7 { fill: #f8a871 } 
		.shp8 { fill: #6bb7bf } 
		.shp9 { fill: #86d1cd } 
		.shp10 { fill: #b64c41 } 
	</style>
	<g id="g12">
		<g id="Folder 213">
			<path id="path314" class="shp0" d="M239.36 265.39L20.24 265.39L20.24 8.86L239.36 8.86L239.36 265.39Z" />
			<path id="path316" class="shp1" d="M214.72 36.77L214.72 231.14L44.89 231.14L44.89 36.77L214.72 36.77Z" />
			<path id="path318" class="shp2" d="M194.92 196.76L194.92 196.68C194.88 191.38 194.45 186.39 193.74 181.75C193.44 179.81 193.09 177.92 192.71 176.11C191.65 171.12 190.29 166.56 188.78 162.45C188.49 161.67 188.18 160.89 187.88 160.14C181.61 144.4 173.37 135.93 173.12 135.67L173.11 135.67C168.35 135.21 163.85 134.92 159.61 134.79C155.91 134.67 152.65 132.32 151.36 128.86C149.87 124.87 148.53 120.05 147.53 114.47C147.51 114.4 147.51 114.34 147.5 114.28C147.07 111.87 146.71 109.32 146.43 106.63L144.78 107.16L141.08 108.31L140.53 108.47C140.53 108.47 140.53 108.47 140.53 108.48L139.92 108.66L137.26 109.49L130.21 111.68L116.82 115.85L116.76 115.86L116.76 115.86C116.76 115.86 116.76 115.86 116.76 115.87C116.77 115.89 116.78 115.92 116.78 115.96C116.78 115.98 116.79 116 116.79 116.02C116.79 116.09 116.81 116.17 116.83 116.29C117.05 117.55 117.72 121.43 118.38 126.09C118.48 126.78 118.57 127.48 118.67 128.19C118.89 129.85 119.11 131.57 119.29 133.28C119.41 134.31 119.51 135.36 119.6 136.38C119.6 136.43 119.6 136.48 119.6 136.53L119.6 136.55C119.64 137.82 118.81 138.96 117.58 139.32C115.69 139.87 113.95 140.46 112.37 141.04C112.37 141.04 112.34 141.05 112.3 141.07C102.92 144.55 98.83 148.18 98.62 148.37C98.62 148.37 98.62 148.37 98.61 148.37C98.61 148.37 100.34 170.76 107.11 202.55C107.58 204.79 108.08 207.08 108.61 209.4C109.64 213.93 110.77 218.61 112 223.43C112.46 225.21 112.93 227.02 113.42 228.85C113.42 228.85 113.42 228.85 113.42 228.85C113.63 229.62 191.09 231.14 191.09 231.14C191.31 229.47 191.55 227.77 191.82 226C192.2 223.45 192.64 220.8 193.12 218.04C194.27 211.44 194.83 205.2 194.92 199.33L194.92 199.32C194.93 198.46 194.94 197.6 194.92 196.76" />
			<path id="path320" class="shp2" d="M214.72 208.05L214.72 231.14L195.55 231.14C195.36 230.89 195.17 230.64 194.97 230.38L194.97 230.38C193.93 229 192.87 227.54 191.82 226C188.38 220.96 184.95 215.05 181.89 208.46C180.59 205.67 179.35 202.74 178.22 199.71C176.75 195.86 175.45 191.83 174.34 187.65C170.21 172 168.87 154.22 173.11 135.67C173.11 135.67 173.14 135.67 173.19 135.68C174.16 135.84 183.67 137.82 194.48 154.76C194.77 155.19 195.05 155.64 195.32 156.1C195.89 157.03 196.47 158 197.04 159.02C198.08 160.85 199.13 162.82 200.18 164.95C201.07 166.79 201.98 168.73 202.87 170.8C207.03 180.38 211.1 192.56 214.72 208.05" />
			<path id="path322" class="shp3" d="M129.34 88.81C129.34 88.81 147.36 95.23 137.48 115.39C137.48 115.39 152.21 115.16 155.31 110.51C155.31 110.51 155 112.41 154.48 113.39C154.48 113.39 168.29 109.7 172.62 103.71C176.96 97.73 151.98 28.94 116.45 48.35C116.45 48.35 83.57 55.74 97.93 92.01C112.28 128.29 100.15 131.99 100.15 131.99C100.15 131.99 104.04 132.63 105.66 132.13C105.66 132.13 107.77 130.49 107.83 129.03C107.83 129.03 108 131.25 107.59 132.09C107.59 132.09 121.06 129.32 126.09 122.39C131.12 115.44 133.56 95.92 129.34 88.81Z" />
			<path id="path324" class="shp4" d="M116.76 115.86C116.76 115.86 118.72 128.38 119.64 136.86C136.59 131.42 138.17 116.12 140.77 107.66L116.76 115.86" />
			<path id="path326" class="shp3" d="M138.22 106.8C138.22 106.8 145.2 92.64 146.01 81.09C146.58 72.84 151.39 38.56 121.7 46.08C121.7 46.08 100.92 52.6 93.28 59.04C87.21 64.15 78.78 74.7 92.11 99.76L95.8 108.31L138.22 106.8" />
			<path id="path328" class="shp2" d="M112.28 128.29C112.28 128.29 148.9 117.75 141.99 95.05C135.08 72.35 135.16 55.7 111.48 61.46C87.81 67.23 85.93 77.27 86.39 85.4C86.85 93.54 102.58 130.44 112.28 128.29Z" />
			<path id="path330" class="shp3" d="M97.85 67.38C97.85 67.38 92.22 75.61 92.17 81.94C92.11 88.28 94.94 100.42 91.34 101.08C91.34 101.08 78.3 85.28 83.61 72.46C89.26 58.86 97.85 67.38 97.85 67.38" />
			<path id="path332" class="shp5" d="M196.94 177.71C196.53 176.58 196.06 175.46 195.53 174.36C195.53 174.35 195.53 174.35 195.53 174.35C200.9 169.64 200.56 160.3 200.56 160.3C189.74 136.73 173.11 135.67 173.11 135.67L173.11 135.67L173.11 135.67C173.11 135.67 167.04 134.99 164.74 134.91C163.32 134.86 158.95 134.77 158.95 134.77C166.42 148.13 157.96 172.38 157.96 172.38C140.19 173.82 121.09 152.09 114.64 144.01C113.26 142.29 112.47 141.19 112.38 141.06C112.37 141.05 112.37 141.05 112.37 141.04L110.9 158.24L107.11 202.55L106.84 205.67L107.97 209.55L112 223.43L113.68 229.21L194.87 231.14L194.97 230.38L194.97 230.38L197.35 212.48L197.35 212.48L199.25 198.21C199.82 193.93 199.73 189.6 199.01 185.4C198.56 182.78 197.87 180.21 196.94 177.71" />
			<path id="path334" class="shp2" d="M151.51 231.14L115.07 231.14C114.61 230.5 114.14 229.85 113.68 229.21C113.59 229.09 113.51 228.97 113.42 228.85C113.42 228.85 113.42 228.85 113.42 228.85C109.29 223.08 105.16 216.86 101.34 210.66C91.7 195.05 84.06 179.52 83.72 171.49C83.18 159.08 98.24 148.63 98.61 148.37C98.62 148.37 98.62 148.37 98.62 148.37C102.77 150.56 106.88 153.97 110.9 158.24C119.74 167.63 128.05 181.14 135.05 194.55C136.91 198.12 138.68 201.69 140.33 205.17C142.54 209.82 144.56 214.32 146.34 218.49C148.39 223.24 150.13 227.56 151.51 231.14" />
			<path id="path338" class="shp6" d="M103.39 116.81C103.39 116.81 107.34 113.03 116.09 112.33C116.09 112.33 115.96 116.07 111.01 117.86C106.11 119.63 103.39 116.81 103.39 116.81Z" />
			<path id="path340" class="shp3" d="M116.45 48.35C116.45 48.35 93.87 64.03 96.71 68.24C96.73 68.54 96.74 68.71 96.74 68.71C96.74 68.71 112.37 94.42 134.42 97.44C134.42 97.44 123.09 92.26 113.54 83.32C119.5 87.45 126.1 90.62 132.11 90.35C137.04 90.59 144.3 110.41 130.56 115.39C130.56 115.39 148.86 117.32 155.31 110.51C155.31 110.51 155 112.42 154.48 113.39C154.48 113.39 168.29 109.7 172.62 103.71C176.96 97.74 151.97 28.94 116.45 48.35" />
			<path id="path342" class="shp5" d="M112.37 141.04C112.37 141.04 87.55 149.55 82.1 160C76.64 170.46 86 197.42 97.23 210.97C97.23 210.97 125.06 210.68 138.12 190.45C138.12 190.45 117.45 145.55 112.37 141.04Z" />
			<path id="path344" class="shp2" d="M193.62 181.9C193.63 181.93 193.61 182.04 193.56 182.19C193.55 182.26 193.53 182.32 193.5 182.4C193.45 182.57 193.38 182.77 193.29 183.02C193.25 183.15 193.21 183.28 193.15 183.42C192.95 184 192.66 184.74 192.31 185.62C192.26 185.76 192.2 185.91 192.14 186.05C192.07 186.22 192.01 186.39 191.93 186.56C191.74 187.03 191.54 187.54 191.32 188.08C191.12 188.56 190.9 189.08 190.68 189.61C190.6 189.8 190.51 189.99 190.43 190.18C190.3 190.49 190.18 190.79 190.04 191.11C189.19 193.09 188.2 195.31 187.08 197.72C186.98 197.96 186.87 198.19 186.75 198.43C186.31 199.42 185.82 200.44 185.32 201.49C185.16 201.83 185 202.16 184.84 202.5C184.11 204 183.35 205.56 182.55 207.15C182.44 207.37 182.33 207.58 182.22 207.8C182.11 208.02 182 208.23 181.89 208.46C180.26 211.66 178.51 214.98 176.63 218.3C176.35 218.81 176.06 219.32 175.78 219.82C174.95 221.28 174.1 222.72 173.23 224.17C172.9 224.73 172.56 225.28 172.22 225.84C171.12 227.63 169.99 229.4 168.84 231.14L135.02 231.14C136.1 228.63 137.82 226.18 140.42 223.91C141.32 223.12 142.21 222.32 143.11 221.51L143.11 221.5C144.19 220.51 145.28 219.51 146.33 218.5C146.34 218.5 146.34 218.49 146.34 218.49C157.65 207.76 167.67 195.99 174.34 187.65C179.7 180.95 182.9 176.47 182.9 176.47L182.9 176.47L193.62 181.9" />
			<path id="path346" class="shp2" d="M182.9 176.47C182.9 176.47 186.21 167.63 185.22 164.67C184.23 161.71 191.86 157.45 195.39 153.92C195.39 153.92 196.11 156.65 193.51 159.18C190.9 161.72 194.46 162.28 196.85 159.3C199.24 156.32 194.23 150.23 196.85 151.46C199.47 152.68 207.78 159.72 206.9 164.13C206.02 168.55 197.27 176.63 193.62 181.9L182.9 176.47Z" />
			<path id="path348" class="shp7" d="M193.62 181.9C193.63 181.93 193.61 182.04 193.56 182.19C193.55 182.26 193.53 182.32 193.5 182.4C193.45 182.57 193.38 182.77 193.29 183.02C193.25 183.15 193.21 183.28 193.15 183.42C192.95 184 192.66 184.74 192.31 185.62C192.26 185.76 192.2 185.91 192.14 186.05C192.07 186.22 192.01 186.39 191.93 186.56C191.74 187.03 191.54 187.54 191.32 188.08C191.12 188.56 190.9 189.08 190.68 189.61C190.6 189.8 190.51 189.99 190.43 190.18C190.3 190.49 190.18 190.79 190.04 191.11C189.19 193.09 188.2 195.31 187.08 197.72C186.98 197.96 186.87 198.19 186.75 198.43C186.31 199.42 185.82 200.44 185.32 201.49C185.16 201.83 185 202.16 184.84 202.5C184.11 204 183.35 205.56 182.55 207.15C182.44 207.37 182.33 207.58 182.22 207.8C182.11 208.02 182 208.23 181.89 208.46C180.26 211.66 178.51 214.98 176.63 218.3C176.35 218.81 176.06 219.32 175.78 219.82C174.95 221.28 174.1 222.72 173.23 224.17C172.9 224.73 172.56 225.28 172.22 225.84C171.12 227.63 169.99 229.4 168.84 231.14L153.11 231.14C160.7 220.8 170.28 209.1 178.22 199.71C186.9 189.43 193.62 181.9 193.62 181.9" />
			<path id="path350" class="shp8" d="M214.9 198.16C207.46 195.62 199.98 193.69 195.29 194.14C195.29 194.14 199.76 201.73 203.7 209.49C204.26 210.59 204.8 211.68 205.32 212.76C208.77 219.95 211.13 226.39 208.29 226.04C206.34 225.8 202.91 222.46 199.12 217.96C197.72 216.31 196.28 214.51 194.84 212.64C187.53 203.17 180.32 192.17 180.32 192.17C180.32 192.17 172 190.63 163.18 191.64C154.72 192.61 145.81 195.91 143.3 205.17C139.79 218.16 142.59 226.7 146.22 231.14L201.21 231.14L206.37 231.14L214.9 231.14L214.9 230.35L214.9 208.8L214.9 202.93L214.9 198.16" />
			<path id="path352" class="shp8" d="M198.92 227.5C201.39 228.66 203.89 229.88 206.37 231.14L201.21 231.14C189.83 224.96 175.62 218.26 157.89 211.08C158.49 211.27 176.77 217.24 196.98 226.59C196.98 226.59 196.98 226.6 196.98 226.6C197.61 226.89 198.26 227.19 198.9 227.49C198.91 227.49 198.92 227.49 198.92 227.5" />
			<path id="path354" class="shp9" d="M205.32 212.76C207.98 210.85 211.34 209.63 214.9 208.8L214.9 230.35C211.22 230.13 207.76 229.7 204.74 229.08C202.31 228.58 200.39 228.06 198.92 227.5C198.92 227.49 198.91 227.49 198.9 227.49C198.15 227.2 197.51 226.91 196.98 226.6C196.98 226.6 196.98 226.59 196.98 226.59C193.07 224.33 195.08 221.55 199.12 217.96C200.64 216.6 202.44 215.13 204.31 213.54C204.63 213.27 204.97 213.01 205.32 212.76Z" />
			<path id="path356" class="shp9" d="M214.9 146.69C210.39 137.18 203.89 126.19 203.89 126.19C206.77 125.9 210.63 126.47 214.9 127.51L214.9 146.69Z" />
			<path id="path358" class="shp9" d="M214.9 198.16L214.9 158.8C206.05 151.85 187.87 124.07 187.87 124.07C187.87 124.07 153.71 117.75 148.23 137.99C142.75 158.24 151.6 168.36 156.66 169.62C161.73 170.89 194.19 170.47 193.35 174.68C192.5 178.9 170.57 185.65 158.35 181.85C158.35 181.85 160.1 186.18 163.18 191.64C168.63 201.33 178.23 214.56 189.56 213.48C191.45 213.3 193.21 213.01 194.84 212.64C198.24 211.88 201.13 210.76 203.7 209.49C208.02 207.37 211.45 204.84 214.9 202.93L214.9 198.16" />
			<path id="path360" class="shp8" d="M214.9 165.36L214.9 168.4C202.03 161.08 185.4 153.06 163.98 144.37C166.1 145.06 190.7 153.22 214.9 165.36Z" />
			<path id="path362" fill-rule="evenodd" class="shp10" d="M244.65 269.21L13.25 269.21L13.25 3.6L244.65 3.6L244.65 269.21ZM21.05 261.41L236.85 261.41L236.85 11.4L21.05 11.4L21.05 261.41Z" />
		</g>
	</g>
</svg>