<svg xmlns="http://www.w3.org/2000/svg" viewBox="0 0 357 340" width="357" height="340">
	<style>
		tspan { white-space:pre }
		.shp0 { fill: #fff6ee } 
		.shp1 { fill: #2e3552 } 
		.shp2 { fill: #6bb7bf } 
		.shp3 { fill: #ffb27d } 
		.shp4 { fill: #35488b } 
		.shp5 { fill: #f99746 } 
		.shp6 { fill: #b2443b } 
		.shp7 { fill: #c65447 } 
		.shp8 { fill: #e8945b } 
		.shp9 { fill: #739af0 } 
	</style>
	<g id="g12">
		<g id="Folder 211">
			<path id="path280" class="shp0" d="M337.78 322.22L22.18 322.22L22.18 18.32L337.78 18.32L337.78 322.22Z" />
			<path id="path282" fill-rule="evenodd" class="shp1" d="M348.91 331.41L9.87 331.41L9.87 10.29L348.91 10.29L348.91 331.41ZM32.51 308.77L326.27 308.77L326.27 32.92L32.51 32.92L32.51 308.77Z" />
			<path id="path284" class="shp2" d="M314.39 42.91L314.39 297.88L44.84 297.88L44.84 42.91L314.39 42.91" />
			<path id="path286" class="shp3" d="M212.65 126.73C212.65 126.73 225.87 146.64 223.1 165.12L242.55 211.75L278.48 158.71C278.48 158.71 259.79 138.58 252.94 111.24L212.65 126.73" />
			<path id="path288" class="shp3" d="M206.7 143.61C206.7 143.61 255.26 145.95 256.31 117.44C257.37 88.93 270.61 70.04 234.3 67.32C204.44 65.08 194.44 77.21 191.72 86.64C189 96.08 188.71 141.98 206.7 143.61Z" />
			<path id="path290" class="shp4" d="M191.21 116.32C191.21 116.32 181.54 152.96 197.55 158.22C213.56 163.47 256.18 159.58 256.44 114.61C256.44 114.61 234.01 127.52 223.33 127.12C212.65 126.73 205.8 120.67 195.9 125.32C195.9 125.32 192.3 125.06 191.21 116.32" />
			<path id="path292" class="shp5" d="M278.49 158.72C278.48 158.72 278.48 158.72 278.48 158.72C278.41 158.71 278.02 158.69 277.12 158.68C271.69 163.88 259.03 174 241.32 175.92C231.63 176.97 226.75 172.3 224.35 168.12C224.34 168.12 224.34 168.11 224.34 168.1C223.78 167.12 223.36 166.17 223.04 165.34C223.08 165.19 223.09 165.12 223.09 165.12C223.09 165.12 188.06 172.87 179.1 184.3C174.2 190.56 169.72 215.24 165.76 241.28C165.75 241.33 165.74 241.4 165.73 241.46C162.56 262.35 159.73 284.1 157.3 297.88L193.72 297.88L198.38 297.88L309.7 297.88L314.39 297.88L314.39 236.11L314.39 169.05C297.6 159.36 278.93 158.73 278.49 158.72" />
			<path id="path294" class="shp4" d="M254.28 76.3C253.48 73.39 249.82 71.84 249.82 71.84C222.54 60.02 202.48 72.66 202.48 72.66C219.38 50.74 259.81 55.6 268.21 75.51C281.93 108 256.44 114.61 256.44 114.61C256.44 114.61 231.08 104.01 245.88 91C250.79 86.69 253.17 82.84 253.97 79.49L253.97 79.49L253.97 79.49C254.24 78.37 254.33 77.31 254.28 76.3Z" />
			<path id="path296" class="shp6" d="M87.4 105.23C87.4 96.52 92.98 89.11 102.59 91.46C111.24 93.58 119.68 93.48 119.68 102.2C119.68 110.92 112.46 121.02 103.54 121.02C94.63 121.02 87.4 113.96 87.4 105.23Z" />
			<path id="path298" class="shp7" d="M97.63 181.87C97.63 181.87 47.58 137.78 92.89 106.56C92.89 106.56 106.41 103.04 113.28 104.3C113.28 104.3 137.91 97.25 152.33 113.61C166.74 129.98 173 141.8 160.65 156.41C148.29 171.01 97.63 181.87 97.63 181.87" />
			<path id="path300" class="shp3" d="M138.63 181.46C138.63 181.46 138.02 188.06 136.87 196.98C136.31 201.35 135.63 206.26 134.83 211.23C134.26 214.79 133.62 218.39 132.93 221.83L117.43 273.03L81.05 215.43C81.05 215.43 89.6 208.51 101.19 171.01C101.3 170.61 101.38 170.39 101.38 170.39L138.63 181.46" />
			<path id="path302" class="shp8" d="M136.87 196.98C136.31 201.35 134.43 213.28 133.62 218.24C95.09 203.55 100.14 174.92 101.19 171.01C101.3 170.61 101.38 170.39 101.38 170.39C101.38 170.39 121.76 184.55 136.87 196.98" />
			<path id="path304" class="shp3" d="M145.13 202.05C145.13 202.05 100.63 203.45 100.16 176.33C99.7 149.2 93.64 131.12 122.04 129.08C150.43 127.04 156.13 137.3 158.54 146.31C160.94 155.33 156.69 200.99 145.13 202.05Z" />
			<path id="path306" class="shp7" d="M149.01 125.02C149.01 125.02 146.22 170.3 91.97 165.44C91.97 165.44 93.12 102.73 149.01 125.02" />
			<path id="path308" class="shp7" d="M138.63 129.51C138.63 129.51 153.83 147.92 160.73 153.8C160.73 153.8 177.64 130.06 138.63 129.51Z" />
			<path id="path310" class="shp7" d="M138.63 129.51C138.63 129.51 152.29 152.08 159.19 157.95C159.19 157.95 177.64 130.06 138.63 129.51L138.63 129.51Z" />
			<path id="path312" class="shp9" d="M185.12 279.56L185.12 279.55L184.31 276.62L184.31 276.61C184.44 276.21 184.5 276 184.5 276C184.5 276 182.61 257.21 165.76 241.28C164.43 240.01 163 238.77 161.47 237.56C161.46 237.54 161.46 237.54 161.46 237.54C161.45 237.54 161.44 237.53 161.43 237.52C154.39 231.57 145.12 225.99 132.93 221.83C132.93 221.83 132.93 221.83 132.93 221.84L132.91 221.89C132.85 222.05 132.67 222.52 132.4 223.28C132.4 223.28 132.4 223.28 132.39 223.28C130.17 227.51 124.97 233.19 113.37 232.01C94.45 230.09 86.82 220.4 81.05 215.43C80 215.43 69.82 218.24 69.82 218.24C69.81 218.26 69.81 218.27 69.8 218.29C62.99 220.26 53.89 223.33 44.84 227.61L44.84 275.58L44.84 297.88L65.01 297.88L120.92 297.88L177.76 297.88L190.15 297.88L185.12 279.56" />
		</g>
	</g>
</svg>