<svg xmlns="http://www.w3.org/2000/svg" viewBox="0 0 311 338" width="311" height="338">
	<style>
		tspan { white-space:pre }
		.shp0 { fill: #fff6ee } 
		.shp1 { fill: #2e3552 } 
		.shp2 { fill: #ffffff } 
		.shp3 { fill: #ebf3fa } 
		.shp4 { fill: #c6e3f4 } 
		.shp5 { fill: #f8fbff } 
		.shp6 { fill: #a8d29f } 
		.shp7 { fill: #f4a671 } 
		.shp8 { fill: #2c3a64 } 
		.shp9 { fill: #e2af64 } 
		.shp10 { fill: #2b478b } 
		.shp11 { fill: #233862 } 
		.shp12 { fill: #ffb27d } 
		.shp13 { fill: #ed985f } 
		.shp14 { fill: #edbd77 } 
		.shp15 { fill: #ffcf83 } 
		.shp16 { fill: #f99746 } 
		.shp17 { fill: #ed7d2b } 
		.shp18 { fill: #fff2e9 } 
	</style>
	<g id="g12">
		<g id="Folder 209">
			<path id="path204" class="shp0" d="M18.77 11.12L18.77 319.7L297.21 319.7L297.21 11.12L18.77 11.12" />
			<path id="path206" fill-rule="evenodd" class="shp1" d="M303.12 330.3L13.04 330.3L13.04 6.86L303.12 6.86L303.12 330.3ZM23.64 319.7L292.52 319.7L292.52 17.46L23.64 17.46L23.64 319.7Z" />
			<path id="path208" class="shp2" d="M51.37 47.08L51.37 292.08L267.95 292.08L267.95 47.08L51.37 47.08Z" />
			<path id="path210" class="shp3" d="M51.37 47.08L51.37 292.08L267.95 292.08L267.95 47.08L51.37 47.08Z" />
			<path id="path212" class="shp4" d="M267.95 191.34L267.95 292.08L194.31 291.94L189.08 291.93L189.06 291.93L175.29 291.9L166.91 291.89L137.5 291.83L110.01 291.78C110.58 290.2 111.59 287.48 113.03 283.9C114.13 281.14 115.49 277.86 117.08 274.21C119.05 269.69 121.38 264.58 124.04 259.12C125.91 255.3 127.95 251.29 130.14 247.21C130.34 246.84 130.54 246.46 130.74 246.08C132.58 242.68 134.53 239.21 136.58 235.75C142.6 225.58 149.48 215.37 157.09 206.36C160.67 202.11 164.42 198.13 168.3 194.55C172.13 191.02 176.11 187.88 180.2 185.23C180.39 185.11 180.59 184.99 180.79 184.86C183.7 183.02 186.67 181.44 189.7 180.17C197.53 176.84 205.76 175.54 214.29 176.98C240.92 181.47 251.54 184.4 267.95 191.34Z" />
			<path id="path214" class="shp5" d="M267.95 64.55L267.95 250.82L202.4 259.34L201.78 259.42L195.05 260.3L194 260.43L186.62 261.39L185.43 261.54L174.79 262.93L172.05 263.28L161.56 264.64L143.47 266.99L117.08 270.42L109.01 271.47L107.58 271.66L51.37 278.96L51.37 124.71L100.9 110.96L114.44 107.2L116.41 106.64L116.5 106.63L117.61 106.32L119.93 105.67L131.29 102.51L140.93 99.83L143.63 99.09L143.64 99.09L143.67 99.07L156.51 95.51L156.52 95.51L162.34 93.89L164.81 93.2L165.69 92.95L205.96 81.78L267.95 64.55" />
			<path id="path216" class="shp6" d="M51.37 292.08L51.37 159.95C65.05 159.25 79.02 159.55 92.17 161.3L92.18 161.3C93.5 161.49 94.79 161.68 96.1 161.88C102.21 162.85 108.13 164.16 113.72 165.86C114.72 166.16 115.7 166.48 116.68 166.81C116.7 166.81 116.71 166.81 116.71 166.81C117.64 167.12 118.56 167.45 119.47 167.78C119.47 167.78 119.48 167.79 119.48 167.79C119.91 167.95 120.33 168.1 120.75 168.27C121.39 168.51 122.03 168.77 122.67 169.02C128.82 171.54 134.44 174.66 139.34 178.41C145.33 183.01 150.24 188.59 153.71 195.31C154.89 197.57 156.01 199.99 157.09 202.57C161.59 213.36 165.25 226.76 168.22 241.41C168.89 244.72 169.53 248.09 170.13 251.51C170.15 251.62 170.17 251.72 170.19 251.82C170.2 251.88 170.21 251.94 170.22 251.99C170.41 253.07 170.59 254.15 170.77 255.23C171.22 257.89 171.64 260.58 172.05 263.28C172.29 264.85 172.53 266.42 172.75 268.01C173.7 274.66 174.54 281.4 175.29 288.12C175.43 289.44 175.57 290.75 175.71 292.08L51.37 292.08Z" />
			<path id="path218" class="shp5" d="M60.53 47.08L51.37 50.13L51.37 47.08L60.53 47.08Z" />
			<path id="path220" class="shp6" d="M248.3 47.08L267.95 47.08L267.95 161.59C267.12 161.49 266.28 161.38 265.43 161.28C244.35 158.78 229.11 153.22 218.49 145.91C220.97 137.39 228.11 130.25 228.11 130.25C219.85 131.98 213.81 136.37 210.56 139.28C194.59 123.05 195.5 101.5 204.06 84.98C204.64 83.87 205.28 82.8 205.96 81.78C213.93 69.87 229.03 63.26 241.45 53.31C245.88 55.2 252.45 58.92 256.31 65.36C256.31 65.36 254.21 53.99 247.94 47.46C248.06 47.33 248.18 47.2 248.3 47.08" />
			<path id="path222" class="shp7" d="M211.88 275.26C211.64 271.63 203.7 262.68 203.7 262.68C198.36 250.28 193.38 221.18 193.38 221.18C192.47 187.19 188.63 167.52 185.51 156.92C183.52 150.13 181.82 147.06 181.39 146.34C181.32 146.22 181.29 146.16 181.29 146.16C181.24 146.2 181.2 146.24 181.16 146.28C180.03 147.34 178.98 148.43 178.02 149.56C156.64 174.41 174.9 214.21 175.46 223.3C176.04 232.82 196.3 264.05 196.3 264.05L196.3 264.05C197 266.36 197.33 267.93 196.73 269.88C196.03 272.17 199.59 274.66 200.02 276.79C200.45 278.93 201.59 278.83 202.02 278.19C202.45 277.55 201.05 273.55 200.91 272.53C200.77 271.52 203.07 274.93 203.61 277.18C204.13 279.42 201.93 285.02 205.46 284.24C208.98 283.46 212.12 278.89 211.88 275.26" />
			<path id="path224" class="shp8" d="M150.15 101.03C150.15 101.03 149.98 104.81 152.24 105.55C154.51 106.29 149.91 114.44 150.27 119.95C150.63 125.45 153.06 127.66 153.06 127.66C153.06 127.66 151.89 124.63 152.55 122.76C152.55 122.76 152.44 126.66 155.29 128.62C158.14 130.58 157.37 132.29 157.37 132.29C157.37 132.29 163.8 130.36 163.98 125.54C163.98 125.54 164.25 127.72 164.03 128.62C164.03 128.62 169.58 124.45 169.85 119.65C170.12 114.85 165.48 110.79 163.37 110.72C161.25 110.65 156.55 106.51 156.67 104.94C156.8 103.37 150.15 101.03 150.15 101.03" />
			<path id="path226" class="shp9" d="M167.92 74.05C164.18 68.37 149.33 71.55 134.75 81.15C120.17 90.75 111.38 103.13 115.13 108.81C118.86 114.49 133.72 111.31 148.29 101.72C162.87 92.11 171.66 79.73 167.92 74.05" />
			<path id="path228" class="shp10" d="M189.48 292.08L138.24 292.08C138 290.72 137.75 289.37 137.5 288.05C136.75 284 136.04 280.12 135.34 276.45L137.46 275.77L160.38 268.38L161.56 264.64L163.54 258.35L165.12 253.34L170.22 251.99L174.77 250.79C174.78 250.79 174.79 250.79 174.8 250.79L182.18 248.84C182.18 248.84 182.36 249.19 182.68 250.1C183.25 251.74 184.25 255.15 185.43 261.54C186.55 267.5 187.83 276.05 189.06 288.14C189.15 288.94 189.23 289.75 189.31 290.58C189.34 290.9 189.37 291.21 189.4 291.53C189.43 291.71 189.45 291.89 189.48 292.08" />
			<path id="path230" class="shp11" d="M189.48 292.08L138.24 292.08C138 290.72 137.75 289.37 137.5 288.05C136.75 284 136.04 280.12 135.34 276.45L137.46 275.77L160.38 268.38L161.56 264.64L163.54 258.35L165.12 253.34L170.19 251.82L171.83 251.34L185.5 247.27L185.61 248.84C185.74 250.75 186.03 254.6 186.62 261.39C187.15 267.59 187.94 276.26 189.08 288.14C189.15 288.94 189.23 289.75 189.31 290.58C189.34 290.9 189.37 291.21 189.4 291.53C189.43 291.71 189.45 291.89 189.48 292.08" />
			<path id="path232" class="shp8" d="M159.71 74.69L133.5 114.45C133.5 114.45 130.51 108.59 127.18 110.69C121.99 113.97 110.83 102.74 113.16 86.89C113.31 85.85 113.49 84.87 113.7 83.93C118.93 76.4 124.73 68.01 128.9 62.11C140.93 54.84 159.71 74.69 159.71 74.69Z" />
			<path id="path234" class="shp12" d="M171.23 155.01C167.56 158.37 162.8 161.38 156.62 163.71C133.48 172.49 121.58 153.54 116.26 140.15C119.26 137.84 122.27 137.01 124.01 136.56C125.71 136.12 127.51 135.74 129 135.45C131.41 133.04 134.26 124.08 133.37 110.91L134.53 111.05L154.06 113.65C154.06 113.65 154.01 119.75 154.36 125.47C154.64 129.94 155.16 134.18 156.14 135.09C157.66 135.21 158.57 135.3 158.57 135.3C158.57 135.3 158.57 135.31 158.57 135.32C158.88 135.7 165.57 143.94 171.23 155.01" />
			<path id="path236" class="shp13" d="M154.06 113.65C154.06 113.65 154.01 119.75 154.37 125.47C143.55 125.85 137.22 116.37 134.53 111.06L154.06 113.65" />
			<path id="path238" class="shp12" d="M158.02 118.84C158.02 118.84 132.5 120.88 131.48 104.98C130.45 89.07 126.45 78.62 142.7 76.64C158.95 74.66 162.51 80.53 164.14 85.75C165.78 90.98 164.63 117.9 158.02 118.84Z" />
			<path id="path240" class="shp8" d="M162.82 76.96C158.57 72.42 155.65 73.66 154.07 75.21C139.62 68.42 131.35 80.34 131.35 80.34C130.37 91.86 122.56 98.92 122.56 98.92C122.56 98.92 127.39 101.5 137.95 98.06C141.17 97.01 143.95 94.49 146.26 91.51C142.38 99.07 136.8 104.69 136.8 104.69C149.24 97.95 153.25 79.79 153.65 77.87C155.3 79.18 158.57 82.02 159.69 84.94C161.22 88.91 162.32 97.21 164.74 96.78C164.74 96.78 169.2 83.76 162.82 76.96" />
			<path id="path242" class="shp14" d="M112.62 94.72C112.62 94.72 100.75 71.1 117.33 61.76C133.91 52.43 146.04 56.1 155.16 67.51L112.62 94.72Z" />
			<path id="path244" class="shp15" d="M179.41 64.92C176.26 59.87 165.86 60.23 152.95 64.95C151.86 65.35 150.76 65.77 149.65 66.24L149.64 66.24C144.02 68.54 138.02 71.61 131.99 75.36C124.5 80.04 117.99 85.15 112.86 90.14C112.33 90.66 111.82 91.18 111.32 91.69C104.14 99.11 100.17 106.13 100.9 110.96C101.03 111.84 101.31 112.64 101.76 113.36C103.95 116.87 109.65 117.76 117.27 116.39C120.55 115.8 124.2 114.79 128.07 113.39L128.07 113.39C129.28 112.94 130.5 112.47 131.75 111.96C131.7 111.9 131.65 111.84 131.59 111.79C131.39 111.58 131.18 111.38 130.95 111.19C130.87 111.13 130.79 111.07 130.72 111.01C130.47 110.83 130.21 110.67 129.94 110.54C129.88 110.52 129.84 110.49 129.79 110.47L129.78 110.47C129.76 110.47 129.75 110.46 129.74 110.45C129.56 110.38 129.38 110.33 129.21 110.29C129.16 110.28 129.12 110.28 129.07 110.27C129.03 110.26 128.98 110.26 128.94 110.25C128.85 110.24 128.76 110.23 128.67 110.23L128.63 110.23C128.56 110.23 128.5 110.24 128.44 110.24C128.36 110.25 128.3 110.26 128.23 110.27C128.14 110.28 128.06 110.3 127.98 110.33C127.9 110.35 127.83 110.38 127.74 110.4C127.65 110.44 127.56 110.48 127.47 110.53C127.37 110.58 127.28 110.63 127.18 110.69C126.87 110.88 126.55 111.02 126.2 111.12C125.82 111.22 125.4 111.27 124.99 111.26L124.98 111.26C124.9 111.26 124.83 111.25 124.75 111.24C124.66 111.23 124.56 111.22 124.47 111.21C124.37 111.19 124.27 111.18 124.17 111.17C124.01 111.13 123.85 111.09 123.68 111.05C123.68 111.05 123.68 111.05 123.67 111.05C123.55 111 123.41 110.96 123.28 110.91C123.16 110.88 123.04 110.83 122.91 110.78C122.9 110.78 122.88 110.77 122.87 110.76C122.77 110.72 122.67 110.68 122.57 110.63C122.38 110.53 122.18 110.43 121.98 110.33C121.88 110.28 121.79 110.21 121.69 110.16C121.58 110.09 121.49 110.03 121.39 109.97C121.29 109.9 121.19 109.83 121.09 109.76C120.99 109.69 120.89 109.62 120.79 109.55C120.69 109.47 120.6 109.4 120.5 109.32L120.49 109.32C119.72 109.19 119.03 108.98 118.44 108.69C118.38 108.66 118.31 108.63 118.25 108.59C118.24 108.59 118.23 108.58 118.23 108.58C117.65 108.26 117.18 107.86 116.83 107.37C116.78 107.3 116.73 107.23 116.68 107.16C116.58 106.99 116.49 106.83 116.41 106.64C116.09 105.9 116.01 105.03 116.14 104.07C116.14 104.06 116.14 104.06 116.14 104.06C116.74 99.59 121.98 93.13 129.92 87.11C130.09 86.97 130.26 86.85 130.44 86.72C132.16 85.44 134 84.17 135.94 82.96C140.62 80.05 145.28 77.78 149.52 76.26L149.6 76.26C151 75.75 152.28 75.32 153.58 74.98L153.58 74.98C153.94 74.88 154.3 74.8 154.64 74.72L154.64 74.72C156.12 74.38 157.49 74.15 158.76 74.06L158.76 74.06C158.86 74.05 158.96 74.04 159.06 74.03C162.49 73.81 165.03 74.53 166.14 76.31C167.09 77.85 166.88 80 165.71 82.48C165.71 82.49 165.71 82.5 165.71 82.52C165.81 82.91 165.9 83.32 165.96 83.72C166 83.9 166.02 84.08 166.05 84.27C166.05 84.27 166.05 84.28 166.05 84.29C166.07 84.43 166.09 84.57 166.1 84.72L166.1 84.72C166.11 84.79 166.12 84.86 166.13 84.92C166.13 84.93 166.14 84.94 166.14 84.96C166.14 84.98 166.14 84.99 166.14 85.01C166.16 85.15 166.16 85.3 166.18 85.44C166.18 85.51 166.19 85.58 166.19 85.65C166.2 85.8 166.21 85.95 166.22 86.1C166.23 86.3 166.24 86.51 166.24 86.7C166.26 87.66 166.23 88.61 166.16 89.51C166.14 89.69 166.13 89.88 166.11 90.05C166.11 90.11 166.1 90.16 166.09 90.21C177.11 80.16 182.73 70.24 179.41 64.92" />
			<path id="path246" class="shp16" d="M188.12 159.17C184.95 143.29 175.11 138.73 175.11 138.73C175.11 138.73 173.47 136.26 164.33 135.87C162.91 135.81 161.36 135.51 159.63 135.37C159.28 135.35 158.93 135.32 158.57 135.3C158.57 135.3 158.57 135.3 158.58 135.32C158.93 135.85 168.14 150.03 167.63 153.83C167.11 157.71 133.55 156.38 131.12 154.43C129.17 152.85 125.78 142.32 124.52 138.21C124.2 137.18 124.01 136.56 124.01 136.56C124.01 136.56 112.29 138.6 106.78 143.16C106.78 143.16 111 147.79 113.82 153.48C114.08 154.02 114.34 154.56 114.58 155.11C115.08 156.28 115.5 157.48 115.8 158.67C116.21 160.25 115.84 161.88 114.99 163.64C114.22 165.24 113.03 166.96 111.66 168.83C110.76 170.04 109.78 171.33 108.8 172.7C109.49 175.02 110.4 177.79 111.41 180.93C113.48 187.39 115.94 195.36 117.71 203.95C118.37 207.19 118.28 210.52 117.49 213.69C117.17 214.96 116.75 216.2 116.21 217.4C115.37 219.28 115.16 221.86 114.23 224.28C110.39 234.22 105.96 247.17 110.4 253.94C113.36 262.59 181.88 241.58 177.27 232.51C177.27 232.51 180 184.92 181.89 170.18C181.95 169.63 182 169.12 182.03 168.59C182.07 167.76 182.06 166.95 182.02 166.15C187.96 163.44 188.12 159.17 188.12 159.17" />
			<path id="path248" class="shp17" d="M140.84 218.83C130.97 221.99 121.36 223.35 113.74 223.9C114.68 221.47 115.37 219.28 116.21 217.4C116.75 216.2 117.17 214.96 117.49 213.69C118.28 210.52 118.37 207.19 117.71 203.95C115.94 195.36 111.27 180.72 109.19 174.26C114.73 161.91 120.45 168.64 120.45 168.64C120.45 168.64 137.19 176.15 144.31 189.98C151.43 203.82 149.36 216.1 140.84 218.83" />
			<path id="path250" class="shp10" d="M119.48 137.5C119.48 137.5 135.42 147.69 139.49 169.15L144.31 167.62C144.31 167.62 142.44 152.3 124.01 136.56L119.48 137.5" />
			<path id="path252" class="shp10" d="M175.76 169.7L170.72 170.03C171.73 151.41 162.39 138.71 159.62 135.37C161.36 135.51 162.92 135.68 164.33 135.87C177.55 154.99 175.76 169.7 175.76 169.7" />
			<path id="path254" class="shp10" d="M185.61 248.84L182.09 195.5C182.09 195.5 178.67 171.24 178.62 167C178.57 162.77 175.14 160.7 175.14 160.7C175.14 160.7 150.03 162.03 142.94 162.42C135.87 162.82 136.57 166.85 136.57 166.85C136.57 166.85 139.66 179.74 139.98 181.06C144.74 201.32 117.49 213.69 117.49 213.69C117.49 213.69 113.06 225.14 109.63 236.1C103.75 254.89 109 281.85 109 281.85L109 281.85C109.15 284.16 109.31 287.7 109.49 292.08L166.04 292.08C166.28 290.9 166.57 289.56 166.91 288.1C168.19 282.52 170.1 275.13 172.75 268.01C173.39 266.29 174.07 264.59 174.79 262.93C176.82 258.3 179.2 254.01 181.97 250.69C182.08 250.56 182.08 250.46 182.03 250.38L185.61 248.84" />
			<path id="path256" class="shp17" d="M139.29 167.28C138.94 166.17 139.55 164.98 140.67 164.63C141.79 164.27 142.98 164.88 143.33 166C143.68 167.12 143.06 168.31 141.95 168.66C140.84 169.01 139.65 168.39 139.29 167.28" />
			<path id="path258" class="shp16" d="M139.65 167.17C139.3 166.05 139.92 164.87 141.03 164.51C142.15 164.16 143.34 164.77 143.69 165.88C144.04 167 143.42 168.19 142.31 168.55C141.2 168.89 140.01 168.28 139.65 167.17" />
			<path id="path260" class="shp10" d="M140.36 166.52C140.36 166.35 140.5 166.22 140.67 166.22C140.84 166.22 140.98 166.36 140.98 166.52C140.98 166.69 140.84 166.83 140.67 166.83C140.5 166.83 140.36 166.69 140.36 166.52Z" />
			<path id="path262" class="shp10" d="M142.37 166.53C142.37 166.36 142.51 166.22 142.68 166.22C142.85 166.22 142.98 166.36 142.98 166.53C142.98 166.7 142.85 166.83 142.68 166.83C142.51 166.83 142.37 166.7 142.37 166.53Z" />
			<path id="path264" class="shp17" d="M170.44 164.59C170.08 163.48 170.7 162.29 171.82 161.94C172.93 161.58 174.12 162.2 174.47 163.31C174.83 164.43 174.21 165.62 173.1 165.97C171.98 166.33 170.79 165.71 170.44 164.59" />
			<path id="path266" class="shp16" d="M170.8 164.48C170.45 163.37 171.06 162.17 172.18 161.82C173.29 161.47 174.48 162.08 174.84 163.2C175.19 164.31 174.57 165.5 173.46 165.85C172.35 166.21 171.16 165.59 170.8 164.48" />
			<path id="path268" class="shp10" d="M171.51 163.83C171.51 163.66 171.65 163.53 171.82 163.53C171.99 163.53 172.13 163.67 172.13 163.83C172.12 164.01 171.99 164.14 171.82 164.14C171.65 164.14 171.51 164.01 171.51 163.83Z" />
			<path id="path270" class="shp10" d="M173.52 163.84C173.52 163.67 173.66 163.53 173.82 163.53C173.99 163.53 174.13 163.67 174.13 163.84C174.13 164.01 173.99 164.14 173.82 164.14C173.65 164.14 173.52 164.01 173.52 163.84Z" />
			<path id="path272" class="shp8" d="M116.14 104.06C116.14 104.06 115.96 107.84 118.23 108.58C120.5 109.32 115.9 117.47 116.26 122.98C116.62 128.48 119.05 130.69 119.05 130.69C119.05 130.69 117.88 127.66 118.54 125.79C118.54 125.79 118.43 129.69 121.27 131.65C124.12 133.61 123.36 135.32 123.36 135.32C123.36 135.32 129.79 133.39 129.96 128.57C129.96 128.57 130.24 130.75 130.02 131.65C130.02 131.65 135.57 127.49 135.83 122.68C136.1 117.88 131.46 113.82 129.36 113.75C127.25 113.68 122.53 109.54 122.66 107.97C122.79 106.4 116.14 104.06 116.14 104.06" />
			<path id="path274" class="shp18" d="M150.15 109.95C150.15 109.95 153.95 112.26 156.66 111.98C159.34 111.72 160.79 108.49 160.79 108.49C160.79 108.49 155.6 107.72 150.15 109.95" />
			<path id="path276" class="shp12" d="M137.02 232.19C134.65 230.74 132.01 231.82 129.68 233.1C130.53 232.16 130.43 231.39 130.29 230.92C130.16 230.46 128.64 232.05 126.99 232.78C125.35 233.51 124.92 235.37 124.92 235.37C124.33 235.39 121.92 234.05 119.78 232.79C110.47 226.76 94.22 200.81 93.75 198.56C93.28 196.31 114.12 176.11 120.45 168.64C126.78 161.18 116.63 139.31 106.78 143.16C106.78 143.16 78.36 176.73 68.95 195.64C68.95 195.64 78.76 216.98 109.67 236.06L109.63 236.1C109.63 236.1 118.4 241.63 122.45 242.97C126.67 244.37 132.65 241.4 135.08 241.05C137.5 240.69 142.56 242.78 144.05 241.01C145.54 239.25 141.32 234.84 137.02 232.19" />
			<path id="path278" class="shp16" d="M106.78 143.16L94.01 155.64C94.01 155.64 96.93 174.06 116.26 176.46C116.26 176.46 132.12 163.76 122.64 150.53C113.17 137.31 106.78 143.16 106.78 143.16" />
		</g>
	</g>
</svg>