<svg xmlns="http://www.w3.org/2000/svg" viewBox="0 0 443 490" width="443" height="490">
	<style>
		tspan { white-space:pre }
		.shp0 { fill: #fff6ee } 
		.shp1 { fill: #2e3552 } 
		.shp2 { fill: #fcecdb } 
		.shp3 { fill: #a8d29f } 
		.shp4 { fill: #e57970 } 
		.shp5 { fill: #ffb27d } 
		.shp6 { fill: #f99746 } 
		.shp7 { fill: #2c3a64 } 
		.shp8 { fill: #ed985f } 
		.shp9 { fill: #ed7d2b } 
		.shp10 { fill: #2b478b } 
		.shp11 { fill: #233862 } 
	</style>
	<g id="g12">
		<g id="Folder 207">
			<path id="path152" class="shp0" d="M421.92 478.54L15.41 478.54L15.41 4.38L421.92 4.38L421.92 478.54" />
			<path id="path154" fill-rule="evenodd" class="shp1" d="M435.74 485.31L10.4 485.31L10.4 4.38L435.74 4.38C435.74 4.38 435.74 485.31 435.74 485.31ZM24.23 471.48L421.92 471.48L421.92 18.21L24.23 18.21L24.23 471.48Z" />
			<path id="path156" class="shp2" d="M389.91 39.69L389.91 444.69L54.45 444.69L54.45 39.69L389.91 39.69" />
			<path id="path158" class="shp3" d="M389.91 356.51L389.91 444.69L54.45 444.69L54.45 348.72C54.45 348.72 103.73 349.8 139.46 373.52C168.94 393.08 333.25 366.44 389.91 356.51Z" />
			<path id="path160" class="shp4" d="M314.93 39.69C296.89 58.03 268.39 78.71 231.25 79.32C164.15 80.42 174.05 146.42 114.65 160.72C91.54 166.28 71.42 165.19 54.45 159.96L54.45 39.69L314.93 39.69" />
			<path id="path162" class="shp4" d="M389.91 39.69L389.91 76.99C385.07 81.13 378.49 83.67 371.24 83.67C356.36 83.67 335.61 73.41 335.61 60.21C335.61 53.11 343.88 45.35 353.85 39.69L389.91 39.69Z" />
			<path id="path164" class="shp5" d="M195.37 429.75C195.37 429.75 187.71 426.86 185.83 424.72C183.95 422.57 180.78 423.73 181.27 426.39C181.76 429.05 184.18 431.29 188.3 432.23C192.4 433.17 195.37 429.75 195.37 429.75Z" />
			<path id="path166" class="shp5" d="M367.29 387.08L367.81 401.55C367.81 401.55 366.88 401.73 365.23 401.91C360.04 402.51 347.46 404.13 333.09 405.23C311.52 407.07 285.68 408.01 274.52 403.7C257.55 397.22 227.23 373.34 205.64 347.85C205.04 347.24 204.56 346.61 204.08 345.97C192.78 332.41 184.05 318.5 181.36 306.6C179.65 299.33 179.3 292.89 179.79 287.14C180.43 279.56 182.64 273.25 185.22 268.32C185.55 267.53 185.89 266.74 186.47 266.03C190.83 258.36 195.78 254.55 195.78 254.55C198.36 252.87 201.65 253.71 205.42 256.5L205.44 256.61C208.5 258.82 212.05 262.37 215.68 267C215.81 267.09 215.95 267.18 215.97 267.3C216.74 268.24 217.55 269.3 218.48 270.45C218.76 270.64 218.94 270.97 219.1 271.18C220.88 273.62 222.68 276.17 224.5 278.84C244.61 307.38 268.63 351.81 283.93 363.54C290.52 368.58 317.75 375.8 339.3 380.95C354.79 384.58 367.29 387.08 367.29 387.08" />
			<path id="path168" class="shp5" d="M195.61 287.83C187.54 293.56 177.4 298.33 164.63 301.42C116.77 313.05 97.93 272.71 90.71 244.95C97.22 241.13 103.36 240.23 106.91 239.77C110.38 239.32 114.02 239.01 117.04 238.82C122.38 234.64 130.22 217.66 131.7 191.41L133.96 191.99L171.9 201.92C171.9 201.92 170.29 213.96 169.57 225.33C169.02 234.23 169.01 242.73 170.72 244.79C173.68 245.4 175.45 245.79 175.45 245.79C175.45 245.79 175.46 245.8 175.47 245.83C175.99 246.65 187.16 264.57 195.61 287.83" />
			<path id="path170" class="shp6" d="M213.59 317.3C213.41 318.33 213.18 319.35 212.92 320.4C211.23 327 209.8 338.1 208.6 351.27C206.97 369.19 205.77 390.94 204.92 410.43C204.35 423.46 203.94 435.48 203.66 444.69L54.45 444.69L54.45 431.68C59.31 418.85 66.38 406.15 71.61 397.49C72.97 395.25 74.12 392.91 75.05 390.49C77.39 384.42 78.39 377.87 77.88 371.31C77.81 370.5 77.74 369.7 77.67 368.89C77.63 368.37 77.58 367.85 77.53 367.33C77.38 365.7 77.22 364.08 77.05 362.47C76.97 361.74 76.88 361.01 76.8 360.28C76.71 359.49 76.62 358.7 76.52 357.91C76.4 356.9 76.28 355.9 76.14 354.91C76.07 354.32 75.98 353.73 75.91 353.15C75.45 349.78 74.96 346.48 74.45 343.28C74.35 342.65 74.24 342.02 74.14 341.39C74.03 340.68 73.91 339.97 73.79 339.26C73.74 338.96 73.69 338.65 73.64 338.35C73.45 337.25 73.26 336.17 73.07 335.1C72.95 334.38 72.82 333.67 72.7 332.96C72.52 332.01 72.36 331.06 72.19 330.13C72.19 330.11 72.18 330.1 72.18 330.09C72.06 329.43 71.94 328.78 71.82 328.14C71.66 327.29 71.51 326.45 71.35 325.63C71.27 325.2 71.2 324.78 71.11 324.36C71 323.74 70.89 323.13 70.77 322.53C70.7 322.2 70.64 321.87 70.58 321.55C70.43 320.75 70.29 319.96 70.13 319.19C70.12 319.12 70.11 319.06 70.1 319C69.93 318.14 69.77 317.3 69.61 316.47C69.34 315.02 69.08 313.63 68.83 312.29C68.7 311.59 68.57 310.9 68.46 310.23C68.28 309.25 68.12 308.31 67.96 307.4C70.26 304.94 72.49 302.64 74.57 300.47C77.74 297.11 80.52 294 82.44 291.03C84.54 287.78 85.67 284.65 85.26 281.42C84.95 278.98 84.42 276.53 83.71 274.1C83.61 273.74 83.5 273.39 83.38 273.04C83.15 272.24 82.89 271.46 82.62 270.67C79.9 262.88 75.88 255.83 73.43 251.88C72.13 249.8 71.27 248.58 71.27 248.58C71.63 248.35 71.99 248.13 72.37 247.91C72.37 247.91 72.37 247.91 72.38 247.91C84.27 241.08 105.49 239.85 106.85 239.77C106.89 239.77 106.91 239.77 106.91 239.77C106.91 239.77 107.12 241.06 107.51 243.16C108.99 251.59 113.08 273.21 116.54 276.81C119.94 280.32 161.16 287.75 179.8 287.18C184.94 287.01 188.36 286.25 188.79 284.62C189.56 281.7 187.73 275.22 185.19 268.36L185.19 268.35C181.4 258.08 176.02 246.97 175.5 245.88C175.49 245.86 175.47 245.84 175.47 245.83C175.45 245.81 175.45 245.79 175.45 245.79C197.66 250.08 206.32 255.52 206.32 255.52C205.99 255.84 205.68 256.16 205.42 256.5C200.37 262.81 205.53 273.33 209.83 286.25L209.83 286.25C212.93 295.58 215.58 306.17 213.59 317.3Z" />
			<path id="path172" class="shp7" d="M129.66 97.17C129.2 95.08 123.38 72.8 88.76 78C88.76 78 106.05 76.88 110.36 83.78C110.36 83.78 97.13 76.72 88.3 81.42C79.47 86.12 77.01 103.57 77.96 108.99C78.91 114.41 87.35 130.86 93.58 131.24C95.94 131.38 98.51 130.75 100.79 129.91C99.67 132.68 98.62 135.7 97.7 139.02C89.21 169.75 108.48 194.66 119.53 189.46C126.63 186.12 131.09 198.45 131.09 198.45L192.63 126.39C192.63 126.39 155.81 76.29 129.66 97.17" />
			<path id="path174" class="shp8" d="M171.9 201.92C171.9 201.92 170.29 213.95 169.57 225.34C148.13 223.44 137.96 203.15 133.96 192.01L171.9 201.92Z" />
			<path id="path176" class="shp5" d="M178.42 213.14C178.42 213.14 127.54 210.91 129.42 179.24C131.3 147.57 126 125.96 158.56 126.05C191.12 126.13 196.71 138.59 198.66 149.31C200.6 160.03 191.7 212.9 178.42 213.14Z" />
			<path id="path178" class="shp7" d="M198.21 131.62C190.93 121.62 184.87 123.35 181.36 126.01C154.51 109.06 135.24 130.56 135.24 130.56C130.47 153.07 113.29 165.09 113.29 165.09C113.29 165.09 122.21 171.38 143.9 167.18C150.53 165.9 156.63 161.61 161.93 156.28C152.41 170.25 140.01 179.98 140.01 179.98C166.23 169.73 178.62 134.86 179.87 131.17C182.81 134.15 188.56 140.57 190.07 146.62C192.11 154.84 192.25 171.5 197.12 171.23C197.12 171.23 209.13 146.61 198.21 131.62Z" />
			<path id="path180" class="shp6" d="M206.32 255.52C206.32 255.52 221.87 273.83 224.61 278.77C224.61 278.77 209.27 281.01 205.29 293.87C205.29 293.87 197.48 260.01 206.32 255.52" />
			<path id="path182" class="shp9" d="M155.75 433.33C125.95 438.53 95.02 412.32 75.04 390.49C77.4 384.41 78.39 377.86 77.88 371.31C75.85 345.46 70.42 321.9 67.96 307.4L67.96 307.4C70.26 304.94 72.49 302.64 74.57 300.46C77.74 297.11 80.52 294.01 82.43 291.03C114.44 327.68 196.17 426.27 155.75 433.33" />
			<path id="path184" class="shp5" d="M349.45 223.33C349.45 223.33 294.89 249.66 263.44 239.89C263.44 239.89 271.18 230.13 284.73 222.86C283.64 216.54 282.8 211.06 282.31 206.42C280.98 195.7 280.98 189.63 280.98 189.63L302.03 173.07L321.99 157.23C320.42 201.77 349.45 223.33 349.45 223.33" />
			<path id="path186" class="shp10" d="M218.68 444.69C218.69 444.05 218.72 443.41 218.76 442.77L218.76 442.17C218.89 433.59 219.1 424.79 219.38 415.89C219.67 406.9 220.03 397.8 220.46 388.7C220.8 380.69 221.2 372.76 221.67 365C223.51 334.18 226.37 306.3 230.62 289.36C230.71 288.99 230.81 288.61 230.91 288.25C237.47 263.85 251.74 247.62 264.73 235.76L275.62 226.23C276.53 226.41 277.45 226.57 278.36 226.71C288.43 228.24 298.96 227.31 309.49 222.19C322.07 216.1 335.62 209.56 337.79 211.23C337.99 211.37 338.2 211.53 338.39 211.68L338.4 211.68C342.38 214.69 346.03 218.6 349.37 223.28C349.38 223.28 349.38 223.28 349.38 223.28L349.38 223.29C349.4 223.31 349.41 223.32 349.42 223.35C350.19 224.42 350.95 225.54 351.68 226.71C351.7 226.74 351.72 226.76 351.74 226.79C351.76 226.82 351.78 226.86 351.81 226.9C351.84 226.95 351.87 227 351.9 227.05C352.09 227.36 352.41 227.85 352.81 228.53C352.95 228.77 353.1 229.01 353.26 229.29C353.43 229.6 353.63 229.92 353.83 230.29C354.15 230.85 354.49 231.47 354.85 232.15C354.97 232.38 355.1 232.61 355.23 232.85C355.42 233.24 355.63 233.64 355.84 234.05C355.91 234.19 355.98 234.33 356.05 234.47C356.17 234.71 356.3 234.97 356.42 235.21C356.73 235.85 357.06 236.52 357.39 237.22C357.71 237.91 358.04 238.63 358.38 239.38C358.85 240.42 359.32 241.52 359.8 242.68C360.04 243.25 360.29 243.83 360.52 244.43C360.57 244.55 360.61 244.67 360.66 244.78C363.01 250.78 365.1 257.32 366.92 264.32C366.93 264.33 366.93 264.35 366.94 264.36C368.62 270.82 370.07 277.67 371.3 284.83C374.69 304.72 376.38 327 376.26 350.34C376.26 358.92 376.02 367.73 375.53 376.43C374.58 391.92 374.25 406.75 374.3 420.52C374.3 420.98 374.3 421.43 374.3 421.88C374.31 422.79 374.32 423.68 374.32 424.57C374.33 425.24 374.34 425.92 374.35 426.58C374.36 427.35 374.37 428.12 374.38 428.88C374.39 429.57 374.39 430.25 374.41 430.93C374.41 431.01 374.41 431.1 374.41 431.18C374.42 431.62 374.43 432.05 374.44 432.48C374.47 433.78 374.49 435.06 374.52 436.34C374.55 437.18 374.56 438.03 374.59 438.86C374.61 439.8 374.64 440.74 374.67 441.66C374.69 442.37 374.71 443.07 374.73 443.77C374.75 444.08 374.76 444.39 374.77 444.69L218.68 444.69" />
			<path id="path188" class="shp11" d="M376.26 350.34C376.26 358.92 376.02 367.73 375.53 376.43C374.58 391.92 374.25 406.75 374.3 420.52C374.3 420.98 374.3 421.43 374.3 421.88C374.31 422.79 374.32 423.68 374.32 424.57C374.33 425.24 374.34 425.92 374.35 426.58C374.36 427.35 374.37 428.12 374.38 428.88C374.39 429.57 374.39 430.25 374.41 430.93C374.41 431.01 374.41 431.1 374.41 431.18C374.42 431.62 374.43 432.05 374.44 432.48C374.47 433.78 374.49 435.06 374.52 436.34C374.55 437.18 374.56 438.03 374.59 438.86C374.61 439.8 374.64 440.74 374.67 441.66C374.69 442.37 374.71 443.07 374.73 443.77C374.75 444.08 374.76 444.39 374.77 444.69L249.45 444.69C247.56 440.33 246.43 435.76 245.92 431.04C245.72 429.06 245.62 427.05 245.64 425.01C245.69 414.33 248.68 403.02 253.49 391.7C258.89 379 266.58 366.29 275 354.43C285.7 339.36 297.58 325.68 307.43 315.18L307.43 315.18C319.49 302.32 328.47 294.24 328.47 294.24L370.67 284.96L371.3 284.83C374.69 304.72 376.38 327 376.26 350.34" />
			<path id="path190" class="shp8" d="M322.35 174.26C322.35 174.26 308.56 199.39 282.31 206.42C280.98 195.7 280.98 189.63 280.98 189.63L302.03 173.07L322.35 174.26Z" />
			<path id="path192" class="shp5" d="M271.39 188.9C271.39 188.9 323.43 197.41 328.31 165.42C333.2 133.43 343.21 112.98 310.18 106.19C277.16 99.4 268.82 110.65 264.55 120.94C260.29 131.23 257.97 185.86 271.39 188.9" />
			<path id="path194" class="shp7" d="M347.23 102.36C347.7 101.81 348.79 101.38 351.21 101.24C351.21 101.24 349.28 100.04 346.68 99.97C346.18 96.6 344.38 90.63 338.58 89.18C338.58 89.18 341.7 90.84 342.1 94.43C335.38 87.53 320.98 82.5 281.09 85.65C228.53 89.8 245.85 123.45 252.66 127.46C259.46 131.48 276.59 120.48 289.27 121.48C301.95 122.49 304.36 140.81 308.66 143.32C312.97 145.84 311.27 141.4 317.1 138.76C322.91 136.13 323.47 145.77 321.78 152.05C320.11 158.31 328.1 166.59 328.1 166.59C328.1 166.59 328.1 166.59 336.18 157.88C344.26 149.18 351.88 112.32 348.2 104.46C347.88 103.77 347.56 103.07 347.23 102.36" />
			<path id="path196" class="shp10" d="M354.09 384.3C351.21 390.82 347.9 397.47 344.14 404.26C341.37 409.26 338.36 414.33 335.07 419.46C331.85 424.49 325.82 430.2 318.01 436.21C318.01 436.21 318 436.22 317.99 436.22C314.4 438.99 310.42 441.83 306.17 444.69L230.48 444.69C235.56 440.17 240.77 435.54 245.92 431.04C247.58 429.6 249.24 428.16 250.87 426.74C260.88 418.07 270.31 410.15 277.46 404.63L277.47 404.63C283.24 400.19 287.53 397.31 289.44 396.86C292.43 396.16 295.38 385.26 298.34 369.8C301.32 354.3 304.33 334.22 307.43 315.18L307.43 315.18C311.23 291.75 315.18 269.95 319.4 260.28C330.44 234.91 351.68 226.71 351.68 226.71C351.68 226.71 351.69 226.74 351.74 226.79C351.76 226.82 351.78 226.86 351.81 226.9C351.84 226.95 351.87 227 351.9 227.05C352.09 227.36 352.41 227.85 352.81 228.53C352.95 228.77 353.1 229.01 353.26 229.29C353.43 229.6 353.63 229.92 353.83 230.29C354.15 230.85 354.49 231.47 354.85 232.15C354.97 232.38 355.1 232.61 355.23 232.85C355.42 233.24 355.63 233.64 355.84 234.05C355.91 234.19 355.98 234.33 356.05 234.47C356.17 234.71 356.3 234.97 356.42 235.21C356.73 235.85 357.06 236.52 357.39 237.22C357.71 237.91 358.04 238.63 358.38 239.38C358.85 240.42 359.32 241.52 359.8 242.68C360.04 243.25 360.29 243.83 360.52 244.43C360.57 244.55 360.61 244.67 360.66 244.78C362.81 250.19 365.04 256.74 366.92 264.32C366.93 264.33 366.93 264.35 366.94 264.36C368.48 270.56 369.8 277.46 370.67 284.96C373.74 311.28 371.36 345.27 354.09 384.3" />
			<path id="path198" class="shp5" d="M269.58 432.82L268.59 444.69L187.47 444.69C184.87 444.38 182.32 444.05 179.85 443.7C169.56 442.12 160.51 440.06 154.13 437.52C153.49 437.27 152.96 437.01 152.29 436.65C150.79 435.94 149.23 435.04 147.61 433.98C132.66 424.19 113.47 400.39 96.89 374.33C94.34 370.35 91.91 366.34 89.51 362.45C82.88 351.41 76.95 340.38 72.19 330.13C72.19 330.12 72.18 330.12 72.18 330.12C70.67 326.89 69.29 323.73 68.03 320.68C64.81 313.09 62.3 306.09 60.97 300.19C60.46 298.13 59.98 296.17 59.75 294.28C58.63 288.04 58.27 282.69 58.42 278.11C58.41 278.1 58.41 278.09 58.42 278.08C58.41 278.08 58.41 278.07 58.42 278.06C58.41 278.06 58.41 278.04 58.42 278.04C58.42 278.03 58.42 278.03 58.42 278.03L58.42 278.02C59.08 257.86 69.61 252.72 69.61 252.72C69.94 252.53 70.27 252.35 70.72 252.15C71.57 251.85 72.47 251.76 73.43 251.88C75.63 252.17 78.1 253.55 80.79 255.82C84.85 259.2 89.46 264.68 94.42 271.45C95.38 272.76 96.35 274.11 97.33 275.51C106.75 289.29 117.34 307.44 127.45 325.54C133.02 335.47 138.48 345.41 143.79 354.54C146.87 360.11 149.88 365.33 152.7 370.11C158.12 379.22 162.85 386.52 166.69 390.99C169.16 393.91 175.35 397.45 183.41 401.25C189.64 404.22 197.06 407.35 204.92 410.43C209.64 412.28 214.51 414.12 219.38 415.89C224.61 417.79 229.82 419.63 234.82 421.33C238.57 422.64 242.22 423.88 245.64 425.01C247.45 425.61 249.2 426.19 250.87 426.74C252.11 427.15 253.32 427.54 254.46 427.92C263.57 430.92 269.58 432.82 269.58 432.82" />
			<path id="path200" class="shp5" d="M318.01 436.21C318.01 436.21 318 436.22 317.99 436.22C314.79 439.21 311.28 442.28 308.43 444.69L268.59 444.69L269.58 432.82C269.58 432.82 276.93 431.62 280.59 428.33C284.26 425.04 295.33 419.42 300.71 419.01C300.71 419.01 302.81 419.45 302.47 421.42C302.12 423.38 293.78 426.47 294.42 429.92C294.42 429.92 305.15 427.57 308.11 425.6C311.07 423.62 324.06 424.48 326.74 425.46C328.27 426.02 323.62 430.98 318.01 436.21" />
			<path id="path202" class="shp6" d="M97.32 271.58C73.76 269.56 59.73 290.27 59.73 290.27C53.75 256.51 69.67 248.79 69.67 248.79C75.9 244.74 85.9 254.98 97.32 271.58Z" />
		</g>
	</g>
</svg>