<svg xmlns="http://www.w3.org/2000/svg" viewBox="0 0 244 260" width="244" height="260">
	<style>
		tspan { white-space:pre }
		.shp0 { fill: #fff6ee } 
		.shp1 { fill: #f9ddbe } 
		.shp2 { fill: #b2443b } 
		.shp3 { fill: #ea9c68 } 
		.shp4 { fill: #ffb27d } 
		.shp5 { fill: #ffffff } 
		.shp6 { fill: #35488b } 
		.shp7 { fill: #2c3a64 } 
		.shp8 { fill: #2e3552 } 
	</style>
	<g id="g12">
		<g id="Folder 205">
			<path id="path124" class="shp0" d="M223.68 245.22L16.09 245.22L16.09 9.28L223.68 9.28L223.68 245.22Z" />
			<path id="path126" class="shp1" d="M210.83 22.78L210.83 229.52L28.94 229.52L28.94 22.78L210.83 22.78Z" />
			<path id="path128" class="shp2" d="M151.28 69.1C151.03 68.69 140.86 52.61 121.84 49.4C115.54 48.33 109.4 49.53 104.18 52.37C103.92 50.76 103.79 49.82 103.79 49.82C103.79 49.82 101.47 39.58 91.79 39.09C91.79 39.09 94.88 40.93 95.37 42.87C95.37 42.87 89.75 38.16 81.05 41.31C72.34 44.47 59.42 53.33 65.93 73.94C72.43 94.56 59.15 99.67 53.81 112.97C48.47 126.26 66.65 128.82 62.88 139.2C59.11 149.59 70.32 174.11 98.83 163.39C125.22 153.47 132.73 117.51 124.1 104.24L151.28 69.1" />
			<path id="path130" class="shp3" d="M182.76 158.07C192.72 165.05 204.13 173.42 210.83 179.65L210.83 201.9C207.76 201.15 205.13 200.33 203.14 199.45C196.61 196.56 182.69 190.79 169.71 183.86C168.9 183.43 168.08 182.99 167.27 182.54C167.05 182.41 166.83 182.29 166.61 182.17C154.03 175.18 143.05 167.21 141.68 159.92C139.37 147.67 154.7 145.41 160.84 145C162.35 144.9 163.3 144.91 163.3 144.91C163.3 144.91 163.93 145.32 165.05 146.06C168.15 148.1 175.02 152.66 182.76 158.07" />
			<path id="path132" class="shp4" d="M146.62 138.25L117.97 155.26L111.67 135.12C111.67 135.12 114.05 127.75 115.01 115.99C115.42 111.05 115.41 105.33 114.55 99.05L139.46 109.86C139.46 109.86 139.03 112.13 138.86 115.45C138.67 119.03 138.79 123.84 140.09 128.33C141.21 132.19 143.2 135.81 146.62 138.25Z" />
			<path id="path134" class="shp3" d="M140.09 128.33C126.35 128.84 115.01 115.99 115.01 115.99L138.86 115.45C138.67 119.03 138.79 123.84 140.09 128.33Z" />
			<path id="path136" class="shp4" d="M146.26 120.27C146.26 120.27 119.36 129.23 108.53 108.07C96.85 85.23 106.94 67.41 116.16 65.66C134.54 62.18 145.76 68.57 149.49 75.83C153.22 83.09 161.12 115.45 146.26 120.27" />
			<path id="path138" class="shp5" d="M134.63 108.7C134.63 108.7 135.96 111.46 143.08 109.41C143.08 109.41 149.05 107.69 148.16 104.55C148.16 104.55 141.79 103.58 134.63 108.7" />
			<path id="path140" class="shp6" d="M167.13 185.55L167.13 185.55C185.2 174.72 182.83 158.12 182.83 158.12L159.99 139.56L159.99 139.56C157.29 137.26 153.85 135.59 149.48 135.04C147.87 134.83 144.48 134.21 142.59 133.98C142.92 138.24 142.92 141.67 135.48 142.97C130.65 143.83 126.03 142.95 122 141.31C117.78 139.59 114.23 137.05 111.82 134.78C111.46 134.85 111.12 134.91 110.78 134.97C103.66 136.29 99.28 136.85 93.4 139.18C91.3 140.01 89.45 141.25 87.92 142.78L87.91 142.8C86.86 143.85 85.98 145.03 85.26 146.31C83.65 149.19 82.92 152.56 83.32 156L84.33 164.66L84.48 166.02L86.16 180.46L90.01 213.56L90.93 221.53C90.93 221.53 90.77 222.51 90.5 224.2C90.5 224.2 90.5 224.2 90.5 224.21C90.28 225.56 89.99 227.38 89.65 229.52L167.88 229.52C166.91 217.29 166.41 202.66 167.13 185.55L167.13 185.55" />
			<path id="path142" class="shp2" d="M127.41 68.17C127.41 68.17 127.76 89.31 115.59 96.26C115.59 96.26 120.4 86.31 118.78 80.23C118.78 80.23 115.63 99.08 106.01 102.37C96.4 105.65 91.53 67.36 111.43 59.67C131.33 51.97 150.95 61.12 153.29 74.57C155.64 88.03 153.85 90.84 153.85 90.84C153.85 90.84 144.54 65.23 127.41 68.17" />
			<path id="path144" class="shp7" d="M117.69 229.52L89.65 229.52C89.99 227.38 90.28 225.56 90.5 224.21C90.5 224.2 90.5 224.2 90.5 224.2C90.77 222.51 90.93 221.53 90.93 221.53L90.01 213.56L86.16 180.46L84.48 166.02L84.33 164.66L83.32 156C82.92 152.56 83.65 149.19 85.26 146.31C85.78 146.4 86.3 146.64 86.8 147.07C90.82 150.46 94.76 156.46 98.4 163.54C99.74 166.14 101.03 168.89 102.28 171.69C103.14 173.64 103.97 175.6 104.77 177.58C104.77 177.58 104.77 177.58 104.77 177.58C105.08 178.33 105.37 179.06 105.67 179.8C112.68 197.47 117.41 215.06 117.41 215.06C117.41 215.06 118.45 221.04 117.69 229.52" />
			<path id="path146" class="shp4" d="M106.44 173.33C106.44 173.33 105.81 174.95 104.77 177.58C104.77 177.58 104.77 177.58 104.77 177.58C104.15 179.15 103.39 181.09 102.53 183.26C98.81 192.64 93.31 206.3 90.01 213.56C89.2 215.34 88.52 216.73 88.04 217.58C87.58 218.38 88.66 220.91 90.5 224.2C90.5 224.2 90.5 224.2 90.5 224.21C91.4 225.83 92.48 227.64 93.66 229.52L72.88 229.52C71.39 227.46 70.34 225.59 69.94 224.04C68.23 217.58 74.08 191.47 77.92 175.69C78.99 171.29 79.91 167.7 80.46 165.55C80.82 164.15 81.03 163.37 81.03 163.37L84.33 164.66L87.66 165.97L87.67 165.97L102.28 171.69L106.44 173.33" />
			<path id="path148" class="shp6" d="M102.58 183.26C102.58 183.26 86.98 185.98 71.76 170.25C71.76 170.25 84.69 132.43 100.8 140.09C116.92 147.75 113.04 174.14 102.58 183.26Z" />
			<path id="path150" fill-rule="evenodd" class="shp8" d="M231.72 250.15L11.69 250.15L11.69 4.82L231.72 4.82L231.72 250.15ZM19.72 242.12L223.68 242.12L223.68 12.86L19.72 12.86L19.72 242.12Z" />
		</g>
	</g>
</svg>