<svg xmlns="http://www.w3.org/2000/svg" width="2600" height="4616"  xmlns:v="https://vecta.io/nano"><style><![CDATA[.x{fill:#390075}.y{fill-rule:evenodd}.z{fill:#c3b2d5}.AA{fill:#102770}.AB{fill:#fef26b}.AC{fill:#fd6ccb}.AD{fill:#c24bb1}.AE{fill:#39d5ff}.AF{fill:#fec2e6}.AG{fill:#c387c4}.AH{fill:#f1d7ff}]]></style><path d="M1739.1 3226.33c-3.7 82.94 150.36 275.88 398.52 135.9l-57.17-213.83-321.97-114.26-19.38 192.18" class="AB"/><path d="M1968.9 3432.9c-62.64 0-109.88-20.68-139.08-38.62-75.6-46.44-114.15-121.7-112.06-168.9l.1-1.2 22.1-219.24 358.2 127.12 64.33 240.64-14.4 8.12c-68.7 38.74-128.9 52.08-179.18 52.08zm-208.54-205.1c-.93 29.38 27.4 90.56 91.8 130.14 52.44 32.2 139.55 56.3 260.5-6.44l-49.94-186.74-285.77-101.42-16.6 164.46z" class="x y"/><path d="M1880.8 3141.5c-27.57 92.7 168.82 332.84 403.52 157.94l-107.72-296.06-322.85-169.02 27.05 307.14" class="AC"/><path d="M1857.65 2840.17l316.26 165.58 106.4 292.46c-99.96 73.48-208.96 79.46-299.4 16.28-73.32-51.2-109.28-130.3-96.87-172.05.1-.4.16-.83.12-1.25l-26.5-301.02zm428.68 461.94c1.2-.88 1.67-2.44 1.16-3.84l-107.72-296.06c-.3-.78-.86-1.44-1.6-1.82l-322.85-169.02c-1.1-.57-2.4-.5-3.4.18-1.03.7-1.6 1.88-1.5 3.1l27 306.5c-14.12 49.44 31.34 131.13 99.64 178.85 25.2 17.6 74.48 44.64 139.23 44.64 49.07 0 107-15.55 170.05-62.53z" class="y AA"/><path d="M2115.77 3340.43c-48.02 0-87.13-16.9-114.3-33.88-32.95-49.95-64.5-104.7-92.4-155.28 12.58-6.58 24.7-13.8 36.3-21.64 20.16 74.2 111.28 172.08 233.15 172.08 9.56 0 19.32-.6 29.25-1.87 9.85 2 19.9 3.63 30.1 4.88-44.9 26.17-86 35.7-122.08 35.7" class="AD"/><path d="M2116.4 3382.83c-69.5 0-122.56-29.18-149.65-48.1-73.8-51.54-121-137.9-107.52-195.08l-30.16-342.3 364.75 190.96 115.98 318.73-12.73 9.48c-66.8 49.8-128.4 66.3-180.67 66.3zm-237.97-511.48l24 272.32-1.16 3.9c-10.4 34.92 25.86 107.43 89.93 152.2 47.88 33.44 145.04 75.45 267.55-8.28l-99.36-273.04-280.95-147.1z" class="x y"/><path d="M2489.8 3193.2c-111.98 174.38-489.77 103.15-491.34-115.66l-26.42-49.55 69.47-138.44-150.6-692.93 291.84 52.56s86.53 74.58 88.03 269.84c.88 115.53-71.2 304.14-90.27 445.68 43.32-59.9 102.8-119.03 170-121.86 148.68-6.28 254.6 170.88 139.3 350.36" class="AE"/><path d="M1975.83 3027.96l68.7-136.9c.35-.68.44-1.47.28-2.22l-149.53-688.04 285.94 51.5c7.9 7.4 84.82 84.4 86.22 266.73.5 65.4-22.16 152.9-46.14 245.56-17.64 68.1-35.86 138.56-44.1 199.66a3.36 3.36 0 0 0 2.09 3.56c1.43.57 3.07.1 3.96-1.15 38.6-53.37 98.96-117.6 167.43-120.47 65.22-2.76 124.3 30.44 157.8 88.8 42.32 73.75 34.3 169.6-21.48 256.4-60.86 94.75-200.83 113-307.7 82.05-85.3-24.7-176.7-89.13-177.46-195.93-.02-.53-.15-1.07-.4-1.55l-25.6-48zm304.52 266.43c82.54 0 166.52-28.07 212.3-99.35 57.15-88.96 65.24-187.4 21.65-263.37-34.76-60.58-95.88-95.02-163.92-92.16-54.48 2.28-109.82 40.12-164.6 112.48 8.88-57.58 25.7-122.63 42.03-185.7 24.1-93.1 46.86-181.02 46.36-247.3-1.5-194.52-88.3-271.6-89.2-272.36a3.4 3.4 0 0 0-1.6-.76l-291.84-52.56c-1.1-.2-2.24.16-3 .97-.8.8-1.1 1.95-.87 3.04l150.35 691.8-68.94 137.37a3.36 3.36 0 0 0 .04 3.1l26.02 48.8c1.25 110 94.92 176.2 182.32 201.52 31.92 9.24 67.3 14.47 102.92 14.47z" class="y AA"/><path d="M2460.9 3034.15c-31.6.01-30.35-64.84-75.32-80.98-4.98-1.78-10.42-2.52-16.14-2.52-13.12 0-27.7 3.88-41.42 7.75-13.75 3.87-26.64 7.75-36.4 7.75-4.35 0-8.07-.78-10.98-2.64-19.2-12.38-11.97-29-4.1-37.35 11.34-12.07 38.58-33.07 79.38-33.07 15.96 0 34 3.22 54 11.44 64.27 26.46 99.36 127.4 52.1 129.6-.37.03-.73.03-1.1.03" fill="#7ee4ff"/><path d="M2287.43 3265.3c-33.92 0-67.92-5.08-98.6-13.96-82.16-23.8-170.04-82.97-175.86-178.44 13.6-13.34 26.62-27.32 39-41.86 6.26 68.25 49.4 125.8 122.95 163.25 49.28 25.08 105.4 37.5 159.63 37.5 39.3 0 77.6-6.52 111.57-19.45-40.75 37.56-99.6 52.97-158.7 52.97" fill="#3995d5"/><path d="M2334.55 3231.77c-54.24 0-110.35-12.4-159.63-37.5-73.56-37.45-116.7-95-122.95-163.25l6.15-7.35c3.76 68.85 46 127.08 119.8 164.65 48.4 24.63 103.48 36.83 156.67 36.83 44.05 0 86.8-8.36 123.35-24.95-3.75 4.27-7.7 8.3-11.83 12.1-33.97 12.93-72.28 19.45-111.57 19.45" fill="#489cca"/><path d="M2286.37 3307.72c-37.84 0-75.45-5.57-109.4-15.4-124.7-36.12-203.45-121.1-206.85-222.6l-22.06-41.42 71.02-141.54-155.78-716.78 329 59.27 4.4 3.8c3.84 3.3 93.88 83.2 95.44 285.8.52 68.66-22.54 157.7-46.94 252l-25.98 104.37c30.72-28.6 73.48-51.25 130.4-53.66 74.84-3.14 142.08 34.66 180.26 101.16 47 81.9 38.73 187.33-22.1 282.05-47.44 73.87-135 102.95-221.4 102.96zm-290.3-280l16.55 31.08.04 5.24c.72 100.7 91.48 162.77 176.16 187.3 96.8 28.02 226.64 18.2 283.04-69.62 52.06-81.07 59.92-169.95 21-237.76-30.1-52.42-82.82-82.16-141.46-79.78-112.7 4.76-146.88 103.8-151.6 119.6-5.4 50.42-2.75 92.9 14.96 118.7 11.2 16.32 28.63 25.64 53.25 28.47 11.7 1.34 20.1 11.92 18.76 23.62-1.34 11.7-11.97 20.08-23.62 18.76-37.1-4.26-65.22-19.97-83.56-46.7-51.27-74.68-14.56-216.42 24.28-366.48 22.65-87.47 46.06-177.9 45.58-240.96-1.2-158.63-61.28-233.34-77-250.16l-253.9-45.75 145.4 669.12-67.88 135.3z" class="x y"/><path d="M2226.92 4506c.2.74-.08 1.4-.67 1.62-10.36 3.9-102.18 34.3-186.34-77.52-105.98-140.8-44.9-228.72-98.14-362.3-48.9-122.72-220.7-165.08-292.44-177.62 21.74-45.42 44.9-70.58 44.9-70.58s301.42-23.5 415.7 197.5c77.4 149.64-83.77 217.47-21.4 342.24 27.7 55.4 71.17 90.1 110.43 111.44 15.2 8.32 24.53 21.54 27.97 35.22" fill="#b5e5fb"/><path d="M2184.84 4517.6c-37.65 0-94.27-14.62-147.6-85.5-63.65-84.57-67.55-149.24-71.67-217.7-2.72-45.1-5.53-91.75-26.9-145.36-48.27-121.16-218.83-163.15-289.9-175.58l-4.33-.74 1.9-3.98c21.7-45.34 44.5-70.36 45.45-71.4l.9-.96 1.3-.1c3.02-.26 304.95-21.12 418.94 199.3 41.34 79.97 16.04 136.4-8.43 191-21.55 48.05-41.9 93.44-13 151.3 23.12 46.24 59.82 83.25 109.04 110 15.14 8.26 25.64 21.5 29.63 37.32.6 2.42-.55 4.75-2.75 5.58-3.93 1.48-19.77 6.84-42.57 6.84zm-530.6-629.92c74.56 13.54 242.07 57.02 290.62 178.9 21.76 54.6 24.6 101.8 27.36 147.44 4.06 67.43 7.9 131.12 70.33 214.08 79 104.95 164.44 82.57 180.7 77.07-3.82-13.26-12.97-24.4-25.9-31.44-50.44-27.43-88.07-65.4-111.82-112.88-30.33-60.7-9.34-107.47 12.86-157 23.82-53.14 48.48-108.08 8.58-185.22-108.1-209.02-389.28-197.1-411.16-195.78-4.22 4.86-23.24 27.68-41.56 64.84zm570.83 616.82h-.01.01z" class="x y"/><path d="M2226.27 4507.6c-10.35 3.9-102.2 34.3-186.36-77.52-17.22-22.86-30.02-44.34-39.6-64.84-49.56-105.73-13.95-185.56-58.55-297.46-48.9-122.72-220.7-165.08-292.44-177.62 17.3-36.16 35.54-59.5 42.24-67.46 1.7-2.07 2.67-3.12 2.67-3.12s301.4-23.5 415.7 197.5c77.37 149.63-83.8 217.46-21.43 342.24 27.7 55.4 71.17 90.1 110.43 111.44 15.2 8.34 24.53 21.54 27.97 35.23.2.73-.1 1.4-.65 1.6" class="AE"/><path d="M2184.8 4517.63c-37.65 0-94.24-14.64-147.58-85.52-16.63-22.08-29.7-43.5-39.95-65.43-25.87-55.2-28.72-102.36-31.73-152.3-2.72-45.1-5.54-91.73-26.9-145.34-48.26-121.15-218.8-163.12-289.9-175.55-1.04-.2-1.93-.84-2.4-1.77-.48-.94-.5-2.04-.04-3 17.5-36.55 35.7-59.85 42.7-68.2l2.74-3.2a3.33 3.33 0 0 1 2.22-1.09c3.04-.25 304.98-21.12 418.96 199.3 41.36 79.98 16.06 136.42-8.42 191-21.55 48.04-41.9 93.4-12.98 151.27 23.12 46.22 59.8 83.24 109.02 110 15.14 8.28 25.66 21.54 29.62 37.36.6 2.34-.5 4.68-2.65 5.54l-.07.03c-3.94 1.48-19.8 6.87-42.64 6.87zm-530.52-630c74.6 13.56 242.06 57.05 290.6 178.9 21.76 54.6 24.62 101.78 27.36 147.42 2.98 49.28 5.8 95.83 31.1 149.86 10.05 21.52 22.9 42.53 39.23 64.24 78.96 104.9 164.26 82.6 180.62 77.06-3.82-13.22-12.96-24.33-25.88-31.4-50.44-27.43-88.06-65.4-111.8-112.88-30.33-60.7-9.36-107.5 12.85-157.03 23.83-53.13 48.47-108.06 8.6-185.18-108.05-208.95-389.07-197.04-411.12-195.78l-1.67 2c-6.6 7.85-23.33 29.25-39.88 62.8zm571.98 619.97h0zm-2.6-.78v.01-.01z" class="y AA"/><path d="M2185.15 4492.93c-16.1 0-36.67-3.25-59.26-14.73-26.62-20.72-52.18-48.5-70.7-85.53-24.35-48.72-14.62-88.76 1.68-128.38-7.2 31.48-6.75 65.95 12.56 104.6 25.42 50.83 65.57 91.43 119.3 120.63a38.95 38.95 0 0 1 4.88 3.12c-2.65.18-5.48.3-8.45.3m-91.42-323.52c7.9-34.6 6.7-72.92-17.12-119-74.46-143.98-228.34-184.18-326.54-194.72l4.38-14.16c90.03 5.88 259.94 37.2 336.54 185.36 29.58 57.2 19.97 100.3 2.74 142.52z" fill="#7ee4ff"/><path d="M2184.72 4535.52c-42 0-104.24-16.03-161.87-92.6-66.9-88.9-71.14-159.33-75.25-227.45-2.75-45.7-5.35-88.86-25.65-139.8-44.9-112.73-208.18-152.6-276.3-164.5l-27.7-4.84 12.13-25.4c22.85-47.75 47.4-74.7 48.45-75.83l5.68-6.16 8.36-.65c12.9-1 316.9-21.95 436.32 208.97 45.35 87.7 17 150.88-7.98 206.63-21.47 47.85-38.42 85.64-13.3 135.88 21.44 42.87 55.6 77.27 101.53 102.24 19.32 10.55 33.34 28.3 38.48 48.73 2.86 11.28-3.13 22.83-13.92 26.84-4.48 1.68-22.8 7.9-48.97 7.9zm-503.15-660.75c85.06 18.56 233 67.12 280.02 185.12 22.84 57.3 25.77 105.96 28.6 153.02 3.9 64.65 7.56 125.72 66.75 204.36 52.14 69.3 105.9 77.74 136.76 75.44-1.5-1.12-3.15-2.2-5-3.2-53.72-29.2-93.87-69.8-119.3-120.63-34.14-68.33-9.34-123.63 12.54-172.4 23.1-51.52 44.9-100.16 9.02-169.58-95.78-185.22-337.38-187.85-386.38-186.42-5.22 6.62-13.73 18.26-23.04 34.3zm524.67 636.4v.03-.03zm12.5-23.52l-.1.03.1-.03z" class="x y"/><path d="M2171.96 4574.7c-122.5 23.9-277.96-116.82-350.7-304.08-42.3-108.84-142.2-185.57-208.98-226.84 1.76-63.48 18.9-115.58 37.04-153.6 71.75 12.54 243.55 54.9 292.44 177.62 53.24 133.58-7.84 221.5 98.14 362.3 79.68 105.87 166.22 84.26 184 78.35 1.67-.56 3.83 1.16 4.1 3.24 1.8 13.44-2.1 26.72-11.6 35.6-11.9 11.13-26.88 20.46-44.44 27.42z" fill="#f694ab"/><path d="M1615.7 4041.96c1.67-51.56 13.63-101.35 35.56-148.07 72.5 12.98 239.7 55.38 287.42 175.14 21.37 53.6 24.18 100.25 26.9 145.36 4.12 68.46 8.02 133.13 71.67 217.7 81.32 108.04 170.67 85.2 187.47 80.03 1.72 12.92-2.14 24.84-10.6 32.7-11.7 10.96-26.2 19.92-43.1 26.65-117.82 22.65-273.12-112.75-346.67-302.08-41.3-106.33-135.9-182.23-208.67-227.44zm529.12 538.63c9.44 0 18.74-.87 27.8-2.63l.6-.17c17.8-7.04 33.1-16.5 45.5-28.08 10.04-9.36 14.64-23.4 12.64-38.47-.28-2.13-1.56-4.1-3.4-5.24-1.6-1-3.42-1.27-5.04-.72-16.32 5.43-101.74 27.2-180.3-77.2-62.44-82.96-66.27-146.65-70.33-214.08-2.76-45.64-5.6-92.84-27.36-147.44-49.52-124.3-222.78-167.05-294.96-179.67l-2.5-.44-1.1 2.28c-23.3 48.8-35.87 100.94-37.36 154.96l-.05 1.9 1.64 1c72.1 44.56 166.65 119.8 207.6 225.22 69.1 177.92 210.32 308.76 326.65 308.76z" class="x y"/><path d="M2171.96 4574.68c-21.3 4.17-43.63 3.33-66.3-1.85-8.97-2.04-18-4.78-27.06-8.16-99.7-37.14-202.23-152.24-257.32-294.06-42.28-108.84-142.2-185.57-208.96-226.84 1.74-63.28 18.78-115.28 36.86-153.28l.16-.32c39.58 6.9 109.52 22.9 172.56 56.42 51.27 27.26 97.96 66.16 119.88 121.2 53.24 133.58-7.84 221.5 98.14 362.3 79.68 105.87 166.24 84.27 184.02 78.35 1.67-.56 3.82 1.17 4.1 3.25 1.77 13.43-2.1 26.7-11.63 35.58-11.88 11.13-26.88 20.46-44.44 27.4" class="AC"/><path d="M2144.1 4580.7c-12.7 0-25.8-1.53-39.18-4.6-9.06-2.04-18.3-4.84-27.5-8.28-102.48-38.16-204.25-154.34-259.28-295.98-40.94-105.4-135.5-180.64-207.6-225.2a3.35 3.35 0 0 1-1.58-2.95c1.5-53.85 14-105.88 37.18-154.63a6.68 6.68 0 0 1 .47-.82c.75-1.06 2-1.58 3.32-1.36 37.16 6.5 109.15 22.5 173.55 56.76 61 32.44 101.86 73.8 121.42 122.92 21.78 54.6 24.62 101.8 27.36 147.44 4.07 67.42 7.9 131.12 70.34 214.08 78.56 104.37 163.97 82.6 180.3 77.18 1.57-.53 3.4-.3 5 .7a7.49 7.49 0 0 1 3.48 5.29c2 15.1-2.6 29.12-12.66 38.48-12.37 11.6-27.68 21.04-45.5 28.1-.2.07-.4.14-.6.16-9.23 1.82-18.76 2.72-28.5 2.72zm-528.37-538.76c72.76 45.23 167.36 121.12 208.67 227.46 54.37 139.94 154.6 254.6 255.37 292.13 8.92 3.35 17.88 6.04 26.64 8.03 22.6 5.17 44.36 5.82 64.6 1.9 16.9-6.72 31.4-15.68 43.1-26.63 8.44-7.86 12.3-19.77 10.58-32.68-.14-.22-.14-.32-.06-.37-18.06 5.88-106.7 27.57-187.4-79.65-63.66-84.58-67.56-149.24-71.68-217.72-2.72-45.1-5.52-91.75-26.9-145.36-18.96-47.6-58.76-87.8-118.33-119.47-62.2-33.08-131.67-48.95-169.1-55.64-21.86 46.6-33.83 96.45-35.5 148zm556.24 532.75h0zm53.07-63.05h-.03.03z" class="y AA"/><path d="M2188.4 4542.3l-.36-3.93c-.16-1.2-.94-2.27-1.88-2.87a155.69 155.69 0 0 0 12-.52c-3.06 2.58-6.3 5.03-9.76 7.32zm-43.55-1.33c-36.84 0-92.4-14.4-144.93-84.2-105.98-140.8-44.9-228.72-98.14-362.3-21.92-55.04-68.6-93.93-119.88-121.2-8.93-4.74-18-9.14-27.1-13.2-10.23-9.47-20.63-18.1-30.72-25.85l1.28-4c74.5 22.78 164.94 66.04 196.6 145.5 20.3 50.93 22.9 94.1 25.65 139.8 4.1 68.12 8.35 138.54 75.25 227.45 56.76 75.4 118.1 92.03 159.94 92.56-6.6 2.08-20.06 5.48-37.95 5.48" fill="#fe9fdd"/><path d="M1986.53 4481.47c-57.85-52.62-110.76-129.43-145.38-218.58-31.56-81.2-92.38-145.08-152.16-191.8 7.65-38.6 17.64-80.2 31.36-124.96 11.38 4.15 22.93 8.76 34.44 13.9 35.42 32.77 68.98 75.32 82.2 123.85 27.3 100.03 32.3 261.34 149.53 397.58" class="AD"/><path d="M1754.8 3960.04c-11.5-5.15-23.06-9.76-34.44-13.9l3.72-11.94c10.1 7.74 20.5 16.38 30.72 25.85" fill="#c36fbe"/><path d="M2144.24 4598.65c-124.85 0-270.1-132.98-342.87-320.32-41.2-106.06-143.17-181.12-200.3-216.4l-10.45-6.45.34-12.28c1.56-56.55 14.72-111.12 39.1-162.2l6.97-14.62 15.95 2.8c75.17 13.13 255.7 58 308.6 190.73 22.84 57.3 25.77 105.96 28.6 153.02 3.9 64.65 7.56 125.72 66.75 204.36 71.16 94.54 145.98 75.68 160.24 70.93 6.74-2.23 14.12-1.3 20.26 2.53a25.6 25.6 0 0 1 11.71 18.11c2.8 20.96-3.85 40.64-18.2 54.03-14.03 13.12-31.24 23.77-51.16 31.65l-1.83.72-1.93.4c-10.4 2.02-21.04 3.02-31.8 3.02zm-510.1-566.33c73.74 47.25 165.58 123.97 207 230.57 70.18 180.7 215.44 310.7 324.8 291.22 12.38-5.1 23.17-11.52 32.2-19.14-41.06 3.3-111.12-6.78-175.3-92.05-66.9-88.9-71.14-159.33-75.25-227.45-2.75-45.7-5.35-88.86-25.65-139.8-41.66-104.56-185.14-146.43-260.07-161.44-15.95 37.64-25.25 77.25-27.73 118.08zm537.8 542.36h0z" class="x y"/><path d="M2171.96 4574.7c-94.76 37.63-264.27 6-423.68-188.98-108.16-132.26-138.5-249.2-136-341.94 66.8 41.27 166.68 118 208.98 226.84 72.73 187.26 228.2 327.98 350.7 304.08z" class="AB"/><path d="M2013.7 4576.96c-81.4-22.67-175.02-80.72-265.4-191.25-37.6-45.96-65.77-90.07-86.45-131.96l4.68-36.12 14.26-101.3c57.3 83.17 62 173.3 111.67 251.25 53.84 84.5 166.3 169.58 221.25 209.4" fill="#c3a96e"/><path d="M2093 4610.08c-100.5 0-233.02-54.05-361.23-210.87-96.63-118.16-144-237.93-140.8-356l1-37.05 31.54 19.48c75.32 46.54 174.2 125.48 217.64 237.26 70.6 181.76 217.22 312.23 326.72 290.86l11.97 40.77c-24.7 9.8-54.08 15.56-86.85 15.56zm-458.32-526c7.56 94.9 51.2 191.62 130.13 288.1 82.2 100.56 169.03 157.7 245.93 181.67-83.45-54.1-161.85-153.23-209.36-275.54-33.98-87.48-109.3-153.86-166.7-194.24z" class="x y"/><path d="M1784.8 3597.44c-17.44 123.25-47.36 226.35-73.8 302.72-32.06 92.53-48 172.48-58.4 241.33-7.2 47.58-11.74 89.82-17.07 127.3-5.92 41.5-12.85 77.12-25.44 107.57-61.17 147.8-225.8 113.6-276.16-33-27.36-79.8-38.3-159.36-42.2-221.4-4.37-70.6.38-118.56.38-118.56s-42.83 1.07-83.58-4.1c-50.93-6.5-87.4-24.48-87.4-24.48-8.1 45.17-9.33 93.44-11.04 141.86-2.67 75.84-6.45 151.95-39.57 216.54-71.8 140.16-228.6 188.2-316.75-124.9-10.08-35.84-20-76-29.07-118.88l-1.5-7.15c-22.13-106.5-38.6-228.85-38.45-341.44.48-345.33 52.16-534.82 96.74-675.14a39.65 39.65 0 0 0 1.34-5.39c11.14-58.77-98.78-122.3-162.03-425.4-18.3-87.73-22.67-162.5-15.9-222.6 11.62-103.68 56.37-163.68 119.78-171.15 105.98-12.48 146.56 71.84 182.3 177.6 4.96 14.72 10.18 29.23 15.68 43.58 86.34 226.34 228.2 398.93 228.2 398.93l599.63 152a1472.45 1472.45 0 0 1 20.96 89.92c11.84 58.93 19.46 116.2 23.78 171.4 9.23 117.87 3.2 226.5-10.45 322.83z" fill="#fff"/><path d="M1111.3 4112.05c-2.67 75.84-6.46 151.95-39.58 216.54-71.78 140.16-228.58 188.2-316.74-124.9-10.67-37.8-21.12-80.48-30.56-126.03 75.46-22.02 262.3-62.02 386.88 34.4zm542.5 24.8c-15.14 100.16-18.5 176.86-42.5 234.88-61.18 147.8-225.82 113.6-276.16-33-27.36-79.8-38.3-159.36-42.2-221.4 86.88-27.73 245.07-60.2 360.85 19.52z" class="AF"/><path d="M1316.13 4110.36c-3.64-64.6.44-108.48.52-109.32l2.58-26.4-26.5.7-9.6.08c-14.47 0-43.07-.5-70.4-4-46.05-5.88-79.74-22.1-80.02-22.24l-27.9-13.73-5.5 30.6c-7.56 42.06-9.38 86.74-10.9 130.2-27.9-17.15-58.12-28.55-89.04-35.7-9.84-43.68-27.06-86.34-43.1-115.06-38.4-68.74-38.4-108.05-38.4-108.05s127.96 74.2 327.53 74.2l4.25-.01c202.03-1.07 265.55-26.24 265.55-26.24s-9.55 37.28-58.2 104.8c-14.08 19.52-33.38 46.08-52.74 86.56a291.87 291.87 0 0 0-7.06 15.92c-29.6 4.46-57.17 10.93-81.08 17.7" class="z"/><path d="M934.68 4413.9a68.01 68.01 0 0 1-6.99-.34c-59.22-5.9-112.57-82.7-150.18-216.23-4.74-16.8-9.26-33.87-13.55-51.1 35.75 43.7 85.84 85.17 147.5 85.98a79.22 79.22 0 0 0 2.18.02c96.32 0 104.64-87.74 85.72-171.68 30.92 7.14 61.15 18.54 89.04 35.7l-.2 6c-2.6 75.28-5.3 153.12-37.32 215.63-30.73 60-74.58 96-116.2 96m553.28 29.76a81.68 81.68 0 0 1-3.13-.05c-53.74-1.64-105-46.84-127.52-112.47-27.32-79.55-37.72-159.48-41.18-220.76 23.9-6.76 51.48-13.23 81.08-17.7-49.53 121.82 9.43 223.3 90.3 234.96 4.84.7 10.15 1.04 15.8 1.04 31.37 0 73.17-10.86 104.77-33.4-4.6 25.4-10.25 47.77-18.43 67.5-21.3 51.5-58.3 80.85-101.7 80.85" class="AG"/><path d="M1487.83 4490.48c-1.48 0-2.96-.01-4.44-.07-74.23-2.26-141.1-58.82-170.4-144.08-46.7-135.97-47-269.5-44.63-324.2-16.63-.35-39.27-1.4-61.56-4.23-26.28-3.36-49-9.54-65.57-15.12-3.82 32.22-5 65.9-6.2 101.1-2.8 80.4-5.67 163.56-42.44 235.37-42.06 82.12-105.4 127.37-169.54 120.93-56.4-5.62-135.28-53.58-190.62-250.14-43.95-156-70.07-333.14-69.88-473.83.44-330.35 47.3-523.12 97.85-682.23 4.43-13.92-6.03-32.64-28.2-70.3-35-59.44-93.55-158.92-133.12-348.6-33.72-161.53-23.43-290.57 28.95-363.36 24.3-33.77 57.2-53.98 95.13-58.45 125.96-14.87 171.45 87.37 207.24 193.37 73.27 217.03 208.25 395.07 235.1 429.2l605.34 153.48 3.54 13.3c78.5 294.32 65.03 597.32-40 900.58-44.15 127.46-57.3 231.12-67.85 314.42-8.04 63.42-15 118.2-33.56 163.08-28.56 69.04-82.6 109.77-145.12 109.77zm-168.6-515.84l-2.58 26.4c-.16 1.65-15.48 166.68 40.66 330.08 22.53 65.63 73.78 110.83 127.52 112.47 44.74 1.45 83-28.08 104.82-80.8 16.18-39.07 22.44-88.5 30.38-151.06 10.82-85.45 24.32-191.78 70.05-323.85 100.36-289.72 114.64-578.95 42.5-859.9l-593.7-150.53-4.88-5.95c-6.66-8.1-164.08-201.26-248-449.85-37.98-112.53-74.38-171.6-157.36-161.84-24.88 2.93-45.94 16.16-62.6 39.3-43.96 61.1-51.65 180.07-21.12 326.43 38.02 182.12 91.95 273.76 127.64 334.4 26.16 44.42 43.43 73.77 32.48 108.25-49.42 155.53-95.22 344.12-95.66 668.1-.18 136.6 25.28 308.97 68.12 461.05 37.6 133.53 90.96 210.32 150.18 216.23 43.64 4.32 90.75-32.3 123.2-95.67 32.02-62.5 34.7-140.35 37.32-215.63 1.56-45.33 3.2-92.2 11.1-136.2l5.5-30.6 27.9 13.73c.28.15 33.97 16.36 80.02 22.24 38.54 4.92 79.6 3.94 80 3.92l26.5-.7z" class="x y"/><path d="M2227.56 2277.75s-12.52 14.4-33.95 31.25c14.92-16.47 24.5-30.53 27.9-35.8 3.78 3.03 6.05 4.54 6.05 4.54" fill="#b5e5fb"/><path d="M2195.67 2311.6l-4.54-4.85c14.78-16.28 24.2-30.16 27.58-35.36l2-3.1 2.88 2.3c3.58 2.88 5.76 4.33 5.82 4.4l3.14 2.1-2.48 2.87c-.52.58-12.96 14.8-34.4 31.66zm26.62-33.56l-1.2 1.75 1.48-1.53-.28-.22z" class="x y"/><path d="M2303.68 3620.27c-4.43 72.42-117.5 109.76-188.85 110.18-24.86.16-61.07.22-102.88-6.93-68.9-11.8-153.18-43.2-227.15-126.08-14.45-16.16-28.48-34.24-41.92-54.56l37.12-571c19.9 18.35 74.13 132.86 142.4 250.56 48.37 83.52 103.73 168.7 158.83 222.35 25.54 24.9 51.1 43.04 75.78 51.04 93.7 30.3 151.3 48.05 146.67 124.43z" fill="#fff"/><path d="M2303.68 3620.27c-4.43 72.42-117.5 109.76-188.85 110.18-24.86.16-61.07.22-102.88-6.93-40.03-112.12 11.44-236.97 69.28-278.72 25.54 24.9 51.1 43.04 75.78 51.04 93.7 30.3 151.3 48.05 146.67 124.43z" class="AF"/><path d="M2103.6 3753.9c-78.05 0-254.52-8.35-380.27-198.1-7.14-10.77-4.2-25.32 6.58-32.46 10.8-7.15 25.33-4.2 32.48 6.58 118.3 178.5 282.38 177.54 352.3 177.08 65.33-.38 162.33-34.93 165.6-88.2 3.33-54.6-30.12-68.26-127.37-99.7l-3.08-1c-118.08-38.2-242.24-269.7-324.4-422.9-24.66-45.95-52.58-98.02-61.34-106.12-9.48-8.8-10.06-23.62-1.3-33.1 8.8-9.5 23.57-10.1 33.07-1.32 13.9 12.83 32.8 47.48 70.84 118.4 73.82 137.67 197.4 368.08 297.53 400.47l3.08.98c92.44 29.88 165.45 53.5 159.72 147.15-5.47 89.35-129.8 131.7-212.1 132.2l-11.35.04" class="x"/><path d="M1753.8 1865.16c111.03-216.25 291-345.4 325.83-327.5 34.85 17.9 34.8 239.4-76.24 455.64l-249.6-128.13z" fill="#fdd800"/><path d="M2020.47 1903.95c-3.66-.9-7.34-1.55-11.03-1.96-7.43-15.88-19.1-36.18-36.64-56.14 29.36-1.94 53.72-6.82 71.92-11.72-6.83 22.63-14.85 45.98-24.25 69.82m-75.38-90.88c-2.7 0-5.45-.03-8.24-.08-2.8-2.07-5.73-4.08-8.73-6.06 3.33.3 6.67.43 10 .43 47.13 0 92-29.03 108.42-77.04 14.23-41.6 24.7-81.88 32-119.25 1.4 43.58-4.04 108.84-23.2 184.8-18.58 6.43-57.55 17.2-110.22 17.2m-101.16-39.84a258.28 258.28 0 0 0-8.93-1.6l1.55-2.2 7.38 3.8z" fill="#c29723"/><path d="M1906.17 1766.15c-4.32 0-7-1.7-7.26-5.8-3.4-56.5 105.34-145.32 130.68-145.32.25 0 .5 0 .73.02 16.23 1.23 3.85 31.22-11.63 59.55-20.13 36.85-51.08 66.9-89.25 84.4-9.27 4.25-17.64 7.15-23.27 7.15" fill="#fee659"/><g class="x"><path d="M2003.37 2014.64c-3.28 0-6.6-.76-9.72-2.36-10.48-5.4-14.6-18.24-9.24-28.72 105.47-205.4 102.47-397.32 85.12-426.2-33.6 2.74-191.28 112.16-296.74 317.56a21.33 21.33 0 0 1-28.72 9.22c-10.48-5.37-14.62-18.24-9.23-28.72 67.07-130.62 151.68-217.5 196.16-257.65 34.05-30.73 117.65-100 158.4-79.08 40.73 20.9 33.17 129.2 28.04 174.8-6.7 59.53-28 178.93-95.06 309.56-3.78 7.36-11.25 11.6-19 11.6z"/><path d="M1945.77 1846.75c-45.53 0-100.33-7.5-161.18-30.7-8.6-3.28-12.92-12.9-9.64-21.5 3.28-8.62 12.9-12.94 21.5-9.64 155.3 59.16 269.83 6.82 270.96 6.3 8.32-3.9 18.26-.37 22.2 7.93 3.93 8.3.4 18.22-7.88 22.18-3.3 1.56-54.84 25.44-135.95 25.44m39.42-132.08c-60.1 0-108.77-16-112.05-17.12-8.72-2.93-13.4-12.4-10.47-21.1s12.4-13.38 21.1-10.48c1.18.4 119.46 39.08 206.3-8.52a16.7 16.7 0 0 1 22.64 6.62 16.69 16.69 0 0 1-6.61 22.62c-39.02 21.4-82.32 28-120.9 28z"/></g><path d="M1682.6 3286.17c-162.2 0-324.8-63.56-398.48-102.92-116.12-57.22-403.78-254.13-404.26-510.54 22.95 78.12 70.46 155.97 140.95 230.05 86.1 90.44 190.1 158.85 258.87 192.8 67.66 36.1 183.88 80.75 307.53 98 34.45 4.8 67.7 7.2 99.6 7.2 27.15 0 53.32-1.74 78.44-5.16.04.34.08.65.14 1l-5.5 84.37c-25.5 3.6-51.4 5.2-77.3 5.2" class="z"/><path d="M1765.4 3196.6l-.14-1c.06-.02.14-.03.2-.04l-.06 1.04z" class="x"/><path d="M1759.9 3280.96h0l5.56-85.4c35.82-4.9 69.46-13.3 100.67-25.1l36.13 64.18c-33.66 18.85-69.74 31.77-107 39.98-11.68 2.56-23.46 4.7-35.36 6.35h0z" class="z"/><path d="M1902.25 3234.63l-36.13-64.18c7.43-2.8 14.7-5.8 21.84-8.98l34.44 60.98c-6.6 4.3-13.33 8.36-20.15 12.18z" class="x"/><path d="M2051.5 2998.3l-9.42 11.66a600.65 600.65 0 0 1-18.36 21.14c-19.7 21.74-41.5 42.65-65.55 62.38-207.27 170.23-551.17 45.9-668.75-16.9-119.54-58.95-421.04-265.98-403.48-533.6 1.98-30.15 6.07-59.2 11.98-87.12l3.58-16.15c2.07-8.68 4.3-17.17 6.7-25.58 93.84-329.8 434.9-491.8 434.9-491.8s-113.33-183.88 26.44-271.48c109.18-68.43 285.18 69.44 258.9 242.7l424.77 218.08c125.44-122.34 340.07-59.65 348.1 68.95 10.23 164.63-205.2 179.7-205.2 179.7s66.8 369.78-144.6 638.02" fill="#fff"/><path d="M1433.3 1636.33c29.24 0 60.44 9.9 90.2 29.43 57.1 37.48 118 119.5 101.64 227.32l-.36 2.37 429.04 220.27 1.7-1.68c78.05-76.1 180.17-74.45 243.92-49.9 58.53 22.56 95.37 66.17 98.53 116.65 9.9 159.4-200 176.03-202.12 176.17l-3.7.27.65 3.65c.67 3.68 64.07 371.42-143.92 635.35l-9.4 11.6c-6.22 7.5-12.18 14.36-18.26 21.02-19.96 22.05-41.9 42.93-65.2 62.05-204.53 168-549.4 44.48-665.16-17.32-117.6-57.97-418.96-266.3-401.6-530.4 1.9-29.08 5.9-58.24 11.9-86.65l3.57-16.05a609.09 609.09 0 0 1 6.67-25.46c92.33-324.5 429.73-488.06 433.13-489.68l3.35-1.6-1.95-3.16c-1.1-1.8-109.97-182.08 25.38-266.9 18.53-11.63 39.7-17.38 61.98-17.38zM1689.25 3183c109.74 0 200.62-29.1 271.02-86.92 23.54-19.32 45.72-40.43 65.9-62.72 6.13-6.72 12.17-13.67 18.47-21.24l9.48-11.75c198.84-252.3 151.9-598.2 145.84-637.08 28.5-3.04 214.24-28.83 204.68-182.9-3.32-53.16-41.75-98.94-102.8-122.46-65.12-25.08-169.16-26.97-249.24 49.67l-420.53-215.9c15.58-109.78-46.6-193.23-104.92-231.52-54.67-35.88-114.26-40.43-159.4-12.14-130.8 82-43.5 247.98-29.33 272.9-35.24 17.8-345.16 182-433.43 492.27-2.52 8.78-4.72 17.2-6.75 25.74l-3.6 16.22c-6.07 28.72-10.1 58.18-12.03 87.6-7.7 117.12 43.2 234.05 151.23 347.56 84.57 88.84 186.7 156 254 189.18 66.27 35.4 180.37 79.26 301.85 96.2 34.74 4.85 67.94 7.27 99.56 7.27z" class="x y"/><path d="M2216.65 2127.1c-46.77 3.4-82.38 38.06-79.53 77.42 2.85 39.37 43.08 68.53 89.87 65.14 46.77-3.38 82.38-38.05 79.53-77.4-2.85-39.37-43.1-68.53-89.87-65.15zm-697.75-358.25c24.5 40 17.1 89.12-16.56 109.75-33.65 20.63-80.8 4.93-105.3-35.05-24.5-40-17.1-89.14 16.56-109.76 33.65-20.63 80.8-4.92 105.3 35.06" fill="#f883a0"/><path d="M2023.7 3031.1c-19.7 21.74-41.5 42.65-65.55 62.38-207.27 170.23-551.17 45.9-668.75-16.9-119.54-58.95-421.04-265.98-403.48-533.6 1.98-30.15 6.07-59.2 11.98-87.12 172.72-8.24 401.1 47.13 628.8 164.03 225.5 115.77 402.37 267.3 497 411.2z" fill="#ffebf6"/><path d="M1686.8 3200.75c-31.92 0-65.16-2.4-99.6-7.2-123.65-17.25-239.87-61.9-307.53-98-68.78-33.95-172.78-102.36-258.87-192.8-110.05-115.64-164.05-240.52-156.15-361.15 11.55-175.82 96.47-342.06 245.6-480.73 84.65-78.7 166.55-127.36 203.45-147.35-38.92-75.82-69.38-209.33 44.5-280.72 51.25-32.14 118.1-27.52 178.83 12.32 63.2 41.48 130.6 132.28 112.5 251.64-1.77 11.66-12.65 19.64-24.3 17.88-11.64-1.76-19.65-12.64-17.88-24.3 14.12-93-36.9-172.27-93.72-209.56-46.4-30.44-96.02-34.87-132.76-11.84-120.42 75.5-23.77 235.43-19.6 242.2l12.48 20.24-21.46 10.2c-4.2 2-418.87 204-445.03 602.8-16.7 254.3 277.03 456.57 391.6 513.04l.63.32c112.68 60.2 448.2 181 645.13 19.24 308.8-253.68 231.3-708.37 230.48-712.93l-4.2-23.4 23.72-1.67c7.9-.57 194.2-15.7 185.4-157.08-2.7-43.28-35.22-81.02-87-100.98-63.4-24.44-157.55-19.7-224.9 45.97a21.32 21.32 0 0 1-30.16-.37c-8.23-8.44-8.05-21.95.37-30.18 86.43-84.28 199.5-82.42 270.04-55.24 67.78 26.12 110.48 77.78 114.24 138.15 8.35 134.15-117.9 187.2-202.18 199.76 5.25 41.64 13.46 136.55-1.18 251.2-25.78 202-111.37 367.9-247.53 479.73-73.05 60.02-170.32 90.78-284.87 90.78m-149.3-459.87c-14.27 6.86-22.75 18.84-18.93 26.8 3.8 7.95 18.48 8.83 32.74 2 14.27-6.86 22.75-18.86 18.94-26.8-3.82-7.95-18.48-8.83-32.75-1.98m-85.03-43.67c2.75 15.6-2.06 29.48-10.74 31s-17.94-9.87-20.7-25.47c-2.74-15.58 2.07-29.46 10.75-31 8.68-1.53 17.93 9.87 20.7 25.46z" class="x"/><path d="M1984.08 2892.04c-18.48 35.97-77.64 42.45-132.16 14.47-54.52-28-83.75-79.86-65.27-115.84 18.47-35.98 77.64-42.46 132.16-14.47s83.75 79.85 65.27 115.84zm-747.92-385.84c-18.88 36.8-79.4 43.42-135.13 14.8s-85.62-81.64-66.72-118.43c18.88-36.8 79.38-43.43 135.13-14.8 55.73 28.6 85.6 81.64 66.72 118.43z" fill="#fdc1e5"/><path d="M1343.1 1943.7c-8.08 0-15.8-4.6-19.4-12.42-4.92-10.7-.24-23.37 10.46-28.3 2.3-1.06 56.58-25.98 93.07-36.76 11.3-3.34 23.17 3.12 26.5 14.4 3.33 11.3-3.1 23.16-14.42 26.5-33.57 9.92-86.78 34.36-87.32 34.6-2.9 1.33-5.93 1.96-8.9 1.96z" class="x"/><path d="M1744.76 1799c-89.52-55.32-206.36-35.56-270.56 47.82-26 33.76-45.45 77.9-44.2 133.96 3.05 135.76 133.08 205.2 285.44 243.96 0 0-14.95-319.98 74.73-391.56 0 0-16.76-16.48-45.4-34.18z" class="AB"/><path d="M1676.07 1825.27c-29.27-14.47-60.76-21.54-91.95-21.54a207.31 207.31 0 0 0-23.91 1.39c23.6-10.6 49.22-16.08 75.14-16.08 21.68 0 43.57 3.83 64.62 11.65-8.8 7.16-16.85 15.4-23.9 24.58" fill="#fffac4"/><path d="M1630 2175.67c-118.1-45.55-176.77-109.92-178.68-195.38-1-44.34 12.4-84.88 39.78-120.46a183.31 183.31 0 0 1 15.58-17.75c-7.4 21.6-11.58 45.8-11 72.75 1.7 75.24 42.38 130.1 104.26 170.7 1.45 10.55 3.5 21.25 6.24 32.1 5.4 21.45 13.57 40.72 23.82 58.04" fill="#c3a96e"/><path d="M1738.1 2252.5l-27.9-7.1c-197.27-50.18-298.7-139.06-301.5-264.16-1.23-54.34 15.13-103.94 48.6-147.44 70.64-91.78 199.06-114.54 298.7-52.97v.01c30.32 18.74 48.38 36.36 49.14 37.1l17.16 16.88-18.8 15c-66.53 53.1-70.72 287.9-66.72 373.9l1.33 28.76zm-102.74-463.47c-55 0-108.68 24.6-144.24 70.8-27.4 35.58-40.78 76.12-39.78 120.46 2.23 99.54 81.43 170.47 241.9 216.35-1.55-78.57 1.25-279.7 65.8-361.9-6.7-5.15-15.28-11.3-25.48-17.6-30.67-18.96-64.68-28.1-98.2-28.1z" class="x y"/><path d="M1797.44 1789.37c-41.75-1.54-81.65 17.6-106.28 51.34-40.7 55.77-93.56 155.58-64.3 271.7 45.22 179.4 310.8 194.24 310.8 194.24s16.9-309.27 62.37-369.56c0 0-33.54-141.43-202.6-147.7z" class="AC"/><path d="M1937.68 2310h-.2c-2.68-.15-268.58-17.04-313.88-196.76-30.26-120.08 27.63-223.54 64.84-274.5 25.26-34.6 65.95-54.34 109.1-52.72 169.67 6.3 205.43 148.86 205.76 150.3.24.97.01 2-.6 2.8-44.33 58.8-61.53 364.62-61.7 367.7-.05.9-.45 1.74-1.12 2.32-.6.56-1.4.86-2.24.86zm-145-517.35c-39.1 0-75.78 18.48-98.8 50.04-44.6 61.1-91.87 157.36-63.75 268.9 41.38 164.14 273.63 188.88 304.4 191.44 2.07-35.47 19.1-306.15 61.88-366.63-4.23-14.88-43.83-137.9-199.1-143.68-1.55-.05-3.08-.08-4.62-.08z" class="y AA"/><path d="M1943.93 1922.48c-25.24-41.73-77.96-96.53-181.76-100.4-1.53-.05-3.05-.08-4.58-.08a126.59 126.59 0 0 0-13.94.76c14.88-7.88 31.68-12.15 49.04-12.15a103.67 103.67 0 0 1 3.95.08c101.6 3.78 148.77 60.3 169.04 98-7.8 3.42-15.15 8.04-21.75 13.8" fill="#fec4ea"/><path d="M1904.12 2281.2c-70.25-10.95-225.08-49.06-256.56-174-26.4-104.8 18.5-195.9 60.84-253.9 1.13-1.56 2.32-3.1 3.55-4.57-25.9 54.9-43.3 125.56-23.63 203.57 23.55 93.47 106.95 142.27 181.44 167.56 8.57 23.75 20.6 44.05 34.36 61.35" class="AD"/><path d="M1957.8 2329.12l-21.32-1.2c-11.5-.64-281.8-17.92-330.3-210.3-32.07-127.22 28.68-236 67.74-289.5 28.8-39.44 75.1-61.92 124.3-60.08 183.17 6.82 222.2 162.54 222.58 164.1l2.32 9.76-6.04 8c-30.25 40.13-51.7 240.8-58.1 357.88l-1.18 21.32zm-165.12-518.5c-33.37 0-64.65 15.76-84.3 42.67-42.35 58-87.25 149.12-60.84 253.9 33.72 133.8 208.92 168.02 270.17 175.94 4.76-72.57 21.38-280.58 59.1-349.2-9.68-28.04-50.8-118.44-180.2-123.24a103.67 103.67 0 0 0-3.95-.08z" class="x y"/><path d="M2040.95 1915.73c-34.52-19.77-78.22-12-103.8 18.44-30.34 36.1-67 94.5-75.72 172.6-13.03 116.66 45.9 186.32 102.17 224.2 137.36 92.44 263.97-53.2 263.97-53.2s-89.74-59.32-73.82-180.8c4.92-37.48-5.16-75.43-28.2-105.4-19.9-25.9-47.88-54.77-84.6-75.83" class="AE"/><path d="M2000.1 1908.2c13.38 0 26.88 3.4 39.2 10.45 30.85 17.68 59 42.9 83.6 74.96 22.6 29.4 32.38 65.97 27.54 102.93-14.3 108.98 56.13 169.5 72.12 181.72-18.28 19.3-134.1 132.67-257.07 49.92-53.2-35.8-113.87-103.2-100.7-221.02 8.7-77.8 45.55-135.83 74.95-170.82 15.44-18.37 37.72-28.14 60.37-28.14zm58.72 456.64c96.07 0 170.32-83.74 171.3-84.86a3.29 3.29 0 0 0 .78-2.65 3.34 3.34 0 0 0-1.46-2.36c-.88-.57-87.8-59.68-72.34-177.56 5.07-38.73-5.18-77.05-28.86-107.9-25.18-32.76-53.98-58.56-85.62-76.7-35.94-20.58-81.38-12.52-108.04 19.2-29.98 35.7-67.6 94.92-76.48 174.4-13.53 121.16 48.88 190.5 103.63 227.35 33.48 22.53 66.4 31.08 97.1 31.08z" class="y AA"/><path d="M2200.24 2257.6c-29.44-20.8-77.56-67.44-81.2-151.98-1.64-37.78-18.06-73.42-45.92-98.98-24.04-22.08-56.57-45.74-96.4-60.15-9.2-3.3-18.6-4.9-27.93-4.9a81.42 81.42 0 0 0-7.34.34 343.08 343.08 0 0 1 7.6-14.98c14.46-12.3 32.63-18.74 51.04-18.74 13.38 0 26.88 3.4 39.2 10.45 30.85 17.68 59 42.9 83.6 74.96 22.6 29.4 32.38 65.97 27.54 102.93-10.4 79.35 24.1 133.03 49.8 161.06" fill="#b0eeff"/><path d="M2212.8 2265.7c-3.52-2.05-7.8-4.74-12.56-8.1-25.7-28.03-60.2-81.7-49.8-161.06 4.84-36.96-4.95-73.52-27.54-102.93-24.62-32.05-52.76-57.28-83.6-74.96-12.3-7.04-25.8-10.45-39.2-10.45-18.4 0-36.58 6.45-51.04 18.74l4.12-7.4a82.27 82.27 0 0 0-16.02 14.64l-.36.43.36-.44c16.08-19.13 39.33-29.32 62.94-29.32 13.96 0 28.04 3.56 40.87 10.9 36.7 21.02 64.72 49.92 84.6 75.8 23.02 30 33.12 67.9 28.2 105.4-11.8 89.9 34.3 145.73 59.05 168.73" fill="#9fa9c6"/><path d="M2058.9 2358.04c-29.57 0-61.25-8.23-93.4-29.87-53.2-35.8-113.87-103.2-100.7-221.02 8.18-73.15 41.24-128.82 69.6-164.3 2.34-.4 4.7-.73 7.08-.94-13.52 28.37-24.34 61.68-28.58 99.65-13.04 116.65 45.88 186.33 102.16 224.17 33.1 22.28 65.57 30.74 95.78 30.74 37.6 0 71.7-13.1 99.22-28.94 5.33 5.03 9.74 8.6 12.52 10.72-13.5 14.26-80.18 79.8-163.66 79.8" fill="#3995d5"/><path d="M2059.4 2361.68c-30.23 0-62.7-8.45-95.8-30.73-56.28-37.86-115.2-107.52-102.17-224.18 8.7-77.78 45.1-136.02 75.36-172.17-2.48 2.97-5 6.08-7.52 9.33 1.68-.4 3.38-.77 5.1-1.08-28.36 35.48-61.42 91.15-69.6 164.3-13.16 117.8 47.5 185.22 100.7 221.02 32.16 21.64 63.84 29.87 93.4 29.87 83.48.01 150.16-65.53 163.66-79.8-2.78-2.12-7.2-5.7-12.52-10.72l2.92-1.7c8.6 7.97 14.6 11.93 14.6 11.93s-72.95 83.92-168.17 83.92" fill="#1c1b72"/><path d="M1934.37 1942.85l5.35-6.52c2.9-3.44 6-6.57 9.33-9.4a343.08 343.08 0 0 0-7.6 14.98c-2.37.2-4.74.53-7.08.94" fill="#8ca6d5"/><path d="M1929.27 1943.93c2.53-3.25 5.04-6.36 7.52-9.33a16.33 16.33 0 0 1 .36-.43 82.27 82.27 0 0 1 16.02-14.64l-4.12 7.4c-3.32 2.83-6.44 5.96-9.33 9.4l-5.35 6.52c-1.72.3-3.42.67-5.1 1.08" fill="#8076ae"/><g class="x"><path d="M2059.12 2382.73c-34.6 0-71.1-9.6-107.43-34.06-48.2-32.44-126.76-107.3-111.46-244.27 9.37-83.93 49-146.36 80.58-183.96 32.24-38.37 87.23-48.16 130.74-23.2 33.7 19.3 64.3 46.66 90.92 81.33 26.62 34.65 38.13 77.68 32.44 121.17-14.03 107.03 63.64 159.72 64.42 160.24l20.3 13.42-15.97 18.37c-33.64 38.7-103.9 90.97-184.55 90.97zm-105.64-434.84c-27.8 33.08-62.65 87.92-70.84 161.24-12.16 108.88 43.8 171.1 92.87 204.14 95.32 64.12 185.32-1.67 220.53-34-28.5-27.14-76.13-88.2-63.44-185.08 4.23-32.2-4.3-64.03-23.96-89.64-23.17-30.16-49.52-53.82-78.3-70.3-9.5-5.44-19.92-8.07-30.25-8.07-17.48 0-34.68 7.54-46.6 21.72z" class="y"/><path d="M1708.73 2927.56l-1.25 3.93c-11.32 32.1-52.27 48.98-93.8 37.86-12.64-3.4-23.93-9-33.33-16.12-22.82-17.14-34.67-43.08-28.1-67.58 9.25-34.58 42.04-16.73 85.24-5.16 43.2 11.56 80.52 12.48 71.25 47.07z"/></g><path d="M1707.48 2931.5c-11.32 32.1-52.27 48.98-93.8 37.86-12.64-3.4-23.93-9-33.33-16.12 11.32-32.1 52.2-49 93.78-37.86 12.64 3.38 23.95 9 33.35 16.12z" fill="#ff4f90"/><g class="x"><path d="M1639.1 2988.72c-9.66 0-19.6-1.27-29.56-3.93-51.66-13.84-84.3-60.15-72.76-103.24 3.44-12.84 9.96-22 19.38-27.23 17.63-9.76 39.36-3.1 64.55 4.6l20.9 6.12c7.3 1.94 14.42 3.58 21.15 5.14 25.67 5.9 47.83 11.02 58.2 28.28 5.55 9.24 6.63 20.43 3.2 33.26v.01c-9.32 34.8-44.6 57-85.05 57zm-67.42-106.4c-2.02 1.12-3.38 5.17-4 7.5-6.97 26.04 15.52 54.77 50.14 64.04 34.57 9.28 68.44-4.38 75.42-30.43.62-2.32 1.48-6.5.3-8.5-3.4-5.63-22.56-10.04-37.96-13.6l-22.26-5.42c-7.66-2.05-15-4.3-21.97-6.42-12.08-3.7-26.53-8.1-34.77-8.1-2.07 0-3.75.28-4.9.92zm137.02 45.25h0z" class="y"/><path d="M1343.63 2198.6l12.72 32.84a15.72 15.72 0 0 1-9 20.34c-8.1 3.15-17.2-.88-20.35-8.97a16.35 16.35 0 0 1-1.04-6.33l1.44-35.2c.2-4.63 4.1-8.23 8.74-8.04 3.42.14 6.3 2.34 7.48 5.36zm-49.5 14.6l19.47 30.02c4.7 7.26 2.64 16.96-4.6 21.65a15.68 15.68 0 0 1-21.66-4.6c-1.05-1.63-1.77-3.44-2.17-5.23l-7.52-35a9.08 9.08 0 0 1 6.97-10.77 9.1 9.1 0 0 1 9.52 3.93zm-50.63 36.04l26 17.5c7.23 4.86 9.15 14.68 4.28 21.9a15.78 15.78 0 0 1-21.91 4.28c-1.98-1.33-3.6-3.12-4.77-5.04l-15.97-26.98c-2.46-4.15-1.08-9.48 3.05-11.94 3-1.77 6.6-1.54 9.3.27"/><path d="M1462.16 2411.87c5.4-29.72 1.47-58.52-11.16-82.6-12.48-24.08-32.97-42.87-57.6-52.84a111.81 111.81 0 0 0-38.87-7.96c-3.33-.02-6.68.24-10.04.3l-10 1.27-9.96 2.04-9.77 3.03c-25.88 9.24-48.58 28.32-63.7 54.28l-.04.04a6.22 6.22 0 0 1-8.51 2.24 6.25 6.25 0 0 1-2.93-6.76c7.47-32.5 31.36-61.96 63-77.66 31.44-16.12 70.54-17.97 104.2-5.02 33.82 12.64 61.86 40.42 74.33 73.85 12.72 33.2 10.12 71.68-7.45 100.27-1.82 2.93-5.67 3.85-8.62 2.04a6.27 6.27 0 0 1-2.88-6.43l.03-.1m553.5 152.1l-29.35 19.48a15.73 15.73 0 0 1-21.8-4.41c-4.8-7.24-2.82-17 4.42-21.8 1.82-1.23 3.9-2.02 5.94-2.4l34.7-6.12c4.56-.8 8.9 2.23 9.72 6.8.6 3.4-.94 6.65-3.63 8.44m9.72 52.32l-33.82 11.7c-8.16 2.83-17.08-1.5-19.9-9.68a15.65 15.65 0 0 1 9.68-19.91c1.84-.64 3.76-.9 5.6-.85l35.76 1.1c5 .14 8.94 4.33 8.78 9.34-.12 3.87-2.65 7.1-6.1 8.3m-10.85 60.93l-31.36.32c-8.72.08-15.86-6.92-15.95-15.63a15.8 15.8 0 0 1 15.63-15.94c2.4-.03 4.74.52 6.8 1.46l28.45 13.2a8.7 8.7 0 0 1 4.24 11.56c-1.45 3.15-4.56 5-7.8 5.04"/><path d="M1755.97 2550.32c15.35-29.85 46.9-52 81.9-58.32 35.04-6.65 73.35 2.95 101.67 25.32 28.5 22.08 47.18 56.5 49.68 91.75 2.96 35.17-9.87 70.86-33.8 94.1-2.47 2.4-6.4 2.33-8.8-.13-1.95-2-2.27-4.98-1-7.3l.03-.05c14.36-26.4 18.92-55.7 13.42-82.62l-2.48-9.92-3.4-9.57-4.1-9.23-4.95-8.74c-7.2-11.27-16.33-21.12-26.95-29.12-21.3-15.9-47.97-23.7-75.02-21.9-27.15 1.68-53.83 13.23-76.44 33.25l-.06.06c-2.58 2.3-6.54 2.05-8.84-.54a6.32 6.32 0 0 1-.88-7.01M728.65 3121.4c-12.93 0-23.42-10.48-23.42-23.42v-1465c0-12.93 10.5-23.4 23.42-23.4 12.95 0 23.43 10.48 23.43 23.4v1465a23.42 23.42 0 0 1-23.43 23.42z"/></g><path d="M689.8 1532l-45.52 76.03c-18.3 30.55 3.35 69.44 38.95 70l88.6 1.4c35.6.56 58.47-37.62 41.15-68.73l-43.08-77.44c-17.3-31.1-61.82-31.8-80.1-1.27z" fill="#ff1563"/><path d="M772.6 1682.8h-.8l-88.6-1.42c-17.92-.28-33.83-9.8-42.55-25.46-8.7-15.67-8.4-34.2.8-49.6l45.5-76c9.2-15.4 25.52-24.3 43.33-24.1 17.92.28 33.83 9.8 42.55 25.47l43.06 77.42c8.72 15.67 8.43 34.2-.77 49.6-9.07 15.15-24.92 24.1-42.52 24.1zm-43.15-169.94c-15.22 0-28.93 7.76-36.78 20.88l-45.5 76.02c-7.97 13.32-8.24 29.36-.7 42.92 7.54 13.56 21.3 21.8 36.82 22.04l88.6 1.4c15.63.2 29.54-7.56 37.5-20.87 7.97-13.32 8.22-29.36.7-42.92L767 1534.9c-7.55-13.56-21.3-21.8-36.83-22.04-.24-.02-.48-.02-.72-.02z" fill="#000072" class="y"/><path d="M764.9 1658l-81.34-1.3c-12.97-.2-19.26-9.02-21.37-12.8s-6.28-13.78.4-24.92l41.12-68.68c8.04.33 16.15.5 24.27.5h4.98l33.35 59.93c8.9 15.97 7.17 33.8-1.4 47.28z" fill="#d71167"/><path d="M772.6 1700.8h-1.12l-88.58-1.42c-24.43-.38-46.1-13.36-58-34.72-11.88-21.34-11.48-46.6 1.08-67.57l45.5-76.03c12.54-20.96 34.36-33.33 59.05-32.85 24.44.4 46.12 13.36 58 34.72l43.07 77.43c11.88 21.34 11.48 46.6-1.07 67.57-12.36 20.64-33.96 32.87-57.95 32.87zm-43.1-169.94c-4.55 0-14.9 1.3-21.4 12.12h-.01L662.6 1619c-6.68 11.14-2.5 21.14-.4 24.92s8.4 12.6 21.37 12.8l88.6 1.4c12.68.32 19.56-8.4 21.78-12.12 2.22-3.7 6.7-13.56.4-24.92l-43.08-77.43c-6.3-11.34-17.06-12.72-21.38-12.8h-.38zm-39.7 1.16h0z" class="x y"/><path d="M1365.32 805.8c0 399.67-285.35 723.67-637.33 723.67-352 0-637.35-324-637.35-723.67C90.64 406.12 376 82.12 728 82.12c351.98 0 637.33 324 637.33 723.68z" fill="#ff1563"/><path d="M728 1532.8c-353.27 0-640.68-326.13-640.68-727 0-400.88 287.4-727 640.68-727 353.26 0 640.66 326.12 640.66 727 0 400.87-287.4 727-640.66 727zm0-1447.33C378.4 85.47 93.97 408.6 93.97 805.8c0 397.2 284.42 720.33 634.02 720.33 349.58 0 634-323.14 634-720.33 0-397.2-284.42-720.33-634-720.33z" fill="#000072" class="y"/><path d="M156.4 1064l-1.92-1.8c-27.43-79.47-42.5-165.97-42.5-256.4 0-387.27 276.35-702.33 616.02-702.33 132.68 0 255.7 48.06 356.34 129.73-93.06-60.4-200.9-94.96-315.8-94.96-352 0-637.33 324-637.33 723.68 0 70.13 8.8 137.95 25.2 202.08z" fill="#ff73a1"/><path d="M688 1489.5c-68.2 0-133.9-12.17-195.5-34.7-149.57-70.82-269.58-207-332.48-377.07L156.4 1064l6.32 5.9c114.4 124.27 269.54 200.62 440.38 200.62 352 0 637.34-324 637.34-723.68 0-52.94-5.06-104.5-14.58-154.2 17.75 27.72 33.76 56.98 47.86 87.56 33.2 87.62 51.62 184.17 51.62 285.62 0 399.68-285.33 723.68-637.33 723.68" fill="#c30f68"/><path d="M160 1077.72l-5.54-15.52 1.92 1.8 3.62 13.72z" fill="#c35094"/><path d="M728 1550.8c-363.2 0-658.68-334.2-658.68-745S364.8 60.8 728 60.8c363.18 0 658.66 334.2 658.66 745s-295.48 745-658.66 745zm0-1447.33c-339.67 0-616.02 315.06-616.02 702.33S388.32 1508.13 728 1508.13c339.66 0 616-315.06 616-702.33s-276.34-702.33-616-702.33z" class="x y"/><path d="M427.52 832.47c-32.68 0-69.08-22.68-106.32-79.2-43-65.24-54.25-230.4 85.53-354.4 50.32-44.64 99.1-61.02 137.88-61.02 50.3 0 83.74 27.57 81.8 56.74-3.44 51.66-49.43 82.07-70.23 251.15-11.5 93.45-62.4 186.7-128.65 186.7" fill="#ff5c92"/><path d="M806.6 3031c-4.6-21.08-17.55-43.1-34.03-71.1l-20.5-35.47V2830c34.44 105 87.4 134.96 60.3 190.04-1.93 3.9-3.85 7.56-5.77 10.95" class="z"/><path d="M782.83 3060.32c4.24-22.4-9.1-45.5-30.75-82.3v-53.6l20.5 35.47c16.48 28 29.44 50 34.03 71.1-7.97 14.04-15.9 23.6-23.77 29.32" class="x"/><path d="M705.23 2827.8c-20.36-49.52-40.74-111.64-58.06-191.7 11.2-12.5 29.4-29.07 58.06-46.7v238.42z" class="z"/><path d="M705.23 2892.28c-26.02-53.63-54.24-125.52-77.48-225.76l3.26-7.8c.1-.23 4-9.04 16.16-22.64 17.32 80.07 37.7 142.2 58.06 191.7v64.5" class="x"/><path d="M752.08 2700.63v-136.16c15.88-7.32 33.76-14.6 53.87-21.64 28.12-9.86 51.82-35.87 67.18-70.83-4.1 23-6.93 46.23-8.48 69.6-.3 4.5-.5 9.02-.62 13.54-13.74 37.3-34.7 70.28-59.18 91.2-1.33 1.12-2.66 2.18-4.05 3.25-22.4 17.05-38.27 34.1-48.72 51.03" class="z"/><path d="M864.03 2555.15c.13-4.52.33-9.04.62-13.54 1.55-23.38 4.38-46.6 8.48-69.6 2.9-6.6 5.5-13.5 7.78-20.67 1.77 34.4-4.7 70.8-16.88 103.82zm-111.95 422.88c-13.23-22.48-29.55-50.07-46.85-85.75v-302.9c13.26-8.17 28.77-16.57 46.85-24.9v136.16c-15.72 25.5-19.2 50.76-14.17 75.5 4.05 19.96 8.9 37.8 14.17 53.9v148.02" class="x"/><path d="M627.93 2657.44s27.5-65.45 176.9-117.75c104.04-36.4 126.6-284.73-21.68-327.96-21.44-6.24-159.25-9.04-188.16 126.22-28.9 135.26 32.93 319.5 32.93 319.5" class="AF"/><path d="M615.47 2284.48v-.03c14.37-24 33.4-40.64 53.54-52-.08.04-.14.1-.2.13-20.05 11.38-39 27.98-53.33 51.9z" class="AH"/><path d="M668.8 2232.57c.07-.04.13-.1.2-.13 11.94-6.75 24.26-11.64 36.22-15.13h0c-12.03 3.52-24.43 8.45-36.43 15.26z" fill="#b099c8"/><path d="M796.56 2216.37a144.6 144.6 0 0 0-13.4-4.64c-4.1-1.18-12.47-2.26-23.5-2.26-2.4 0-4.93.05-7.57.16h0c2.64-.1 5.15-.16 7.55-.16 11.05 0 19.4 1.06 23.52 2.26 4.64 1.35 9.1 2.9 13.4 4.64" class="AH"/><path d="M705.23 2217.3h0c17.06-5 33.4-7.12 46.85-7.68h0c-13.45.57-29.8 2.7-46.85 7.68z" fill="#b099c8"/><path d="M800.4 2218h-.02c.01.01.01.01.02.01zm-.5-.2l-.05-.03c.01.01.04.01.05.03zm-.28-.12c-.03-.02-.07-.03-.1-.04.04.01.06.02.1.04zm-.43-.2c-.05-.03-.1-.04-.16-.07.06.03.1.04.16.07zm-.33-.15c-.07-.02-.15-.05-.2-.1.06.04.14.07.2.1zm-.4-.16c-.08-.04-.16-.08-.25-.1.1.02.17.06.25.1zm-.37-.16c-.1-.05-.22-.1-.34-.13l.34.13zm-.36-.16l-.35-.13.35.13zm-.42-.16l-.76-.32.76.32z" class="AH"/><path d="M876.67 2398.85c-8.9-59.05-41.03-112.66-102.8-130.7-4.1-1.2-12.48-2.25-23.52-2.25-35.22 0-97.7 10.84-136.3 63.14-.16-13.06.15-25.7.95-37.7l.47-6.88c14.32-23.93 33.28-40.53 53.33-51.9 12-6.8 24.4-11.74 36.43-15.26 17.05-4.98 33.4-7.1 46.85-7.68 2.64-.1 5.17-.16 7.57-.16 11.04 0 19.4 1.08 23.5 2.26a144.6 144.6 0 0 1 13.4 4.64h.01l.76.32c.03.02.06.02.07.03a4.96 4.96 0 0 0 .35.13c0 .02.01.02.02.03.12.04.23.08.34.13.05.02.08.03.12.06.1.02.17.06.25.1.07.03.12.06.2.07.06.04.14.07.2.1a1.3 1.3 0 0 0 .17.08c.06.03.1.04.16.07.1.05.22.1.34.15.02.01.06.02.1.04.08.02.16.06.23.1a.32.32 0 0 1 .05.03c.16.06.3.13.47.2h.02c61.62 27.12 88.15 93.72 88.2 159.7l-3.03 5.9c-2.78 5.42-5.76 10.52-8.9 15.26" fill="#ffe7f5"/><path d="M628.76 2649c-10.1-32.82-48.76-168.5-35.24-281.6 3.97-10.64 8.72-20.22 14.08-28.8.01.33.01.68.03 1.02 1.45 44.74 24 84.4 61.9 108.82 22.3 14.36 47.88 21.68 73.58 21.68 17.48 0 35-3.4 51.56-10.27 11-4.57 22.7-9.03 34.7-13.23 18.37-6.4 34.88-19.34 48.57-37.92.83 7.78 1.27 15.63 1.34 23.47-11.83 51.6-39.96 91.92-75.52 104.37-122.07 42.74-163.4 93.83-175 112.46" fill="#d28fb8"/><path d="M879.27 2432.16c-.07-7.84-.5-15.7-1.34-23.47 2.23-3.02 4.4-6.2 6.46-9.52-.98 11.38-2.7 22.42-5.12 33zm-285.75-64.77c1.17-9.78 2.73-19.38 4.73-28.72 2.34-10.9 5.44-21.2 9.3-30.76-.28 9.92-.27 20.18.05 30.68-5.36 8.58-10.1 18.16-14.08 28.8" fill="#d2a8c3"/><path d="M584.96 2387.97c1.12-17.36 3.28-34.4 6.76-50.7 3.77-17.57 9.5-33.6 17-47.7l7.3-13.66-.57 8.54c-8.9 14.86-16 32.52-20.48 53.52a262.64 262.64 0 0 0-2.56 13.36c-3.03 11.62-5.5 23.84-7.47 36.64z" fill="#ab6bd5"/><g class="x"><path d="M627.6 2666.88l-2.8-8.4c-.55-1.62-47.9-144.54-39.83-270.52 1.96-12.8 4.44-25.02 7.47-36.64-1.7 10.12-2.92 20.48-3.74 30.96-7.58 95.08 17.82 200.9 31.34 248.92l.77 3.72 6.95 31.6-.15.36m257.96-250.1a247.76 247.76 0 0 0 3.05-39.1l3.68-7.15-.42 14.7c-.12 4-.32 7.96-.63 11.9-2 6.53-3.9 13.1-5.68 19.66"/><path d="M880.9 2451.33l-.7-9.48c2.2-8.14 4-16.53 5.36-25.08l5.68-19.66c-1.44 19.13-5 37.4-10.33 54.22"/></g><path d="M647.17 2636.08l-.86-4.08c11.73-12.77 30.3-29.2 58.92-46.6v3.96c-28.67 17.64-46.86 34.2-58.06 46.7z" fill="#997cb8"/><path d="M627.75 2666.52l-6.95-31.6-.77-3.72c4.65 16.55 7.9 26.23 7.9 26.23s4.23-10.07 18.38-25.44l.86 4.08c-12.16 13.6-16.06 22.4-16.16 22.64l-3.26 7.8" class="x"/><path d="M752.08 2564.47v-3.68c15.63-7.14 33.15-14.23 52.76-21.1 33.3-11.66 58.27-45.05 71.95-86.46-1.32 6.25-2.54 12.5-3.66 18.77-15.36 34.96-39.06 60.97-67.18 70.83-20.1 7.04-38 14.32-53.87 21.64z" fill="#997cb8"/><path d="M873.13 2472c1.12-6.28 2.34-12.52 3.66-18.77 1.22-3.74 2.37-7.52 3.4-11.38a198.45 198.45 0 0 1 .71 9.48c-2.28 7.18-4.88 14.08-7.78 20.67zm-167.9 117.37v-3.96c13.33-8.1 28.84-16.38 46.85-24.62v3.68c-18.08 8.33-33.6 16.73-46.85 24.9" class="x"/><path d="M627.93 2657.44s-3.25-9.68-7.9-26.23c-13.52-48-38.92-153.84-31.34-248.94a184.07 184.07 0 0 1 4.83-14.88c-13.52 113.1 25.15 248.78 35.24 281.6 11.6-18.63 52.92-69.72 175-112.46 35.56-12.45 63.7-52.76 75.52-104.37.02 4.63-.07 9.25-.28 13.87 6.3-21.5 9.62-44.88 9.6-68.34v-.02a247.76 247.76 0 0 1-3.05 39.1c-1.36 8.55-3.15 16.94-5.36 25.08-1.04 3.86-2.2 7.64-3.4 11.38-13.68 41.4-38.64 74.8-71.95 86.46-19.6 6.87-37.13 13.96-52.76 21.1-18 8.24-33.52 16.53-46.85 24.62-28.63 17.4-47.2 33.82-58.92 46.6-14.15 15.37-18.38 25.44-18.38 25.44M743.1 2470.1c-25.7 0-51.28-7.32-73.58-21.68-37.9-24.43-60.45-64.08-61.9-108.82-.02-.34-.02-.7-.03-1.02a157.3 157.3 0 0 1 6.45-9.54l.24 10.35c1.38 42.5 22.83 80.2 58.84 103.4 21.2 13.67 45.55 20.64 69.98 20.64 16.6 0 33.26-3.22 49-9.77 11.12-4.63 22.9-9.12 35.04-13.36 18.95-6.6 35.84-20.8 49.5-41.47.5 3.27.9 6.55 1.26 9.84-13.7 18.58-30.2 31.5-48.57 37.92-12 4.2-23.68 8.66-34.7 13.23-16.56 6.88-34.08 10.27-51.56 10.27" class="AG"/><path d="M592.43 2351.33a262.64 262.64 0 0 1 2.56-13.36c4.48-21 11.58-38.66 20.48-53.52v.03c-8.88 14.84-16 32.5-20.47 53.47a316.6 316.6 0 0 0-2.47 12.98c-.04.14-.08.27-.1.4" fill="#b996d5"/><path d="M588.7 2382.3c.82-10.48 2.03-20.84 3.74-30.96.02-.13.06-.26.1-.4-1.73 10.24-2.98 20.72-3.84 31.34z" fill="#8c6baf"/><path d="M879 2446.03c.2-4.62.3-9.24.28-13.87 2.4-10.57 4.14-21.6 5.12-33-2.07 3.32-4.23 6.5-6.46 9.52-.36-3.3-.77-6.57-1.26-9.84 3.14-4.74 6.12-9.84 8.9-15.26l3.03-5.9c.01 23.46-3.32 46.83-9.6 68.34zm-290.3-63.76c.86-10.62 2.1-21.1 3.84-31.34a316.6 316.6 0 0 1 2.47-12.98c4.48-20.98 11.6-38.63 20.47-53.47l-.47 6.88c-.8 12-1.1 24.63-.95 37.7a157.3 157.3 0 0 0-6.45 9.54c-.32-10.5-.33-20.76-.05-30.68-3.86 9.56-6.96 19.85-9.3 30.76-2 9.34-3.56 18.94-4.73 28.72a184.07 184.07 0 0 0-4.83 14.88" fill="#c3a1ce"/><g class="x"><path d="M625.3 2724.17l-19.58-59.28c-2.6-7.77-63.54-191.9-33.64-331.84 11.23-52.54 39.48-93.64 81.7-118.84 55.46-33.13 119.04-29.88 135.92-24.96 73 21.28 119.84 90.84 122.24 181.52 2.04 76.94-31.44 167.26-99.38 191.03-39.28 13.75-73.25 29.64-101 47.24-49.42 31.36-62.1 57.6-62.22 57.88l-24.04 57.25zm51.74-469.3c-30.74 18.65-50.65 48.24-59.13 87.97-19.08 89.2 4.13 203.38 19.92 264.3 11.75-11.38 27.55-24.28 48.64-37.67 30.76-19.5 67.97-36.97 110.6-51.9 40.62-14.22 69.84-76.8 68.03-145.58-.7-26.48-9.16-114.65-88.52-137.78-2.68-.75-8.52-1.4-16.44-1.4-20.13 0-53.7 4.24-83.1 22.05z" class="y"/><path d="M1113.4 3991.73c-10.73-3.17-20.28-6.96-29.93-11.36-4.84-2.1-9.58-4.4-14.24-6.8a243.88 243.88 0 0 1-13.91-7.43c-18.43-10.16-35.8-22.26-52.68-34.92-16.8-12.82-32.83-26.77-47.83-41.72-14.7-15.34-28.45-31.72-39.4-49.8a3.4 3.4 0 0 1 1.15-4.67c1.17-.72 2.6-.62 3.67.1l.1.05c17.12 11.67 34.1 22.4 51.52 32.36 17.52 9.84 35.2 19.07 53.04 28l53.9 25.77c17.72 8.7 35.94 17.6 52.52 27.36l.68.4c11.16 6.6 14.86 20.96 8.3 32.12-5.6 9.47-16.8 13.56-26.88 10.57m176.07-16c8.5-2.9 18.48-5.73 27.85-8.5l28.6-8.34c19.03-5.76 38.2-11.27 57.1-17.96 19-6.5 37.44-14.34 55.8-22.94 18.54-8.46 35.92-18.94 54.06-29.88l.16-.08c1.6-.97 3.68-.45 4.65 1.15.7 1.17.6 2.6-.12 3.68-12.24 17.6-26.84 34.1-43.37 48.3-16.56 14.1-34.36 27.14-53.35 37.88-18.93 10.88-38.57 20.74-59.17 27.96-10.28 3.66-20.7 6.9-31.38 9.38-10.77 2.62-21.1 4.5-33.12 5.4-12.88.97-24.12-8.68-25.1-21.58-.8-10.86 5.92-20.54 15.77-23.9l1.63-.55"/></g><path d="M2004.52 3698.4c-75.7-15.16-167.93-56.52-242.13-168.48a23.34 23.34 0 0 0-11.47-9.05c8.36-11.6 22.03-18.25 36.1-18.25 10.8 0 21.82 3.92 30.84 12.56 59.88 57.25 124.47 84.5 181.23 97.38-2.73 27.94-1.4 57.07 5.44 85.84z" class="z"/><path d="M2102.85 3707.07c-25.42 0-59.72-.92-98.33-8.66-6.83-28.77-8.17-57.9-5.44-85.84a432.55 432.55 0 0 0 22.57 4.5c36.12 6.17 68.07 6.97 92.12 6.97l10.76-.04c45.36-.28 107.52-15.47 147.95-45.08 6.45 10.64 8.8 23.4 7.8 39.9-3.27 53.27-100.27 87.82-165.6 88.2l-11.83.06" class="AG"/><path d="M2104.07 3730.5c-24.06 0-56-.8-92.12-6.97-82.35-14.08-186.56-56.16-269.07-180.64l.01-.16c.78-8.45 3.68-15.8 8.03-21.84a23.34 23.34 0 0 1 11.47 9.05c74.2 111.96 166.44 153.32 242.13 168.48 38.6 7.74 72.9 8.66 98.33 8.66l11.83-.06c65.33-.38 162.33-34.93 165.6-88.2 1-16.5-1.35-29.25-7.8-39.9 6.6-4.83 12.6-10.03 17.87-15.6 10.08 14.6 14.77 32.9 13.33 56.96-4.43 72.42-117.5 109.76-188.85 110.18l-10.76.04" class="x"/></svg>