<svg xmlns="http://www.w3.org/2000/svg" viewBox="0 0 2600 4616" width="2600" height="4616">
	<style>
		tspan { white-space:pre }
		.shp0 { fill: #fef26b } 
		.shp1 { fill: #390075 } 
		.shp2 { fill: #fd6ccb } 
		.shp3 { fill: #102770 } 
		.shp4 { fill: #c24bb1 } 
		.shp5 { fill: #39d5ff } 
		.shp6 { fill: #7ee4ff } 
		.shp7 { fill: #3995d5 } 
		.shp8 { fill: #489cca } 
		.shp9 { fill: #b5e5fb } 
		.shp10 { fill: #f694ab } 
		.shp11 { fill: #fe9fdd } 
		.shp12 { fill: #c36fbe } 
		.shp13 { fill: #c3a96e } 
		.shp14 { fill: #ffffff } 
		.shp15 { fill: #fec2e6 } 
		.shp16 { fill: #c3b2d5 } 
		.shp17 { fill: #c387c4 } 
		.shp18 { fill: #fdd800 } 
		.shp19 { fill: #c29723 } 
		.shp20 { fill: #fee659 } 
		.shp21 { fill: #f883a0 } 
		.shp22 { fill: #ffebf6 } 
		.shp23 { fill: #fdc1e5 } 
		.shp24 { fill: #fffac4 } 
		.shp25 { fill: #fec4ea } 
		.shp26 { fill: #b0eeff } 
		.shp27 { fill: #9fa9c6 } 
		.shp28 { fill: #1c1b72 } 
		.shp29 { fill: #8ca6d5 } 
		.shp30 { fill: #8076ae } 
		.shp31 { fill: #ff4f90 } 
		.shp32 { fill: #ff1563 } 
		.shp33 { fill: #000072 } 
		.shp34 { fill: #d71167 } 
		.shp35 { fill: #ff73a1 } 
		.shp36 { fill: #c30f68 } 
		.shp37 { fill: #c35094 } 
		.shp38 { fill: #ff5c92 } 
		.shp39 { fill: #f1d7ff } 
		.shp40 { fill: #b099c8 } 
		.shp41 { fill: #ffe7f5 } 
		.shp42 { fill: #d28fb8 } 
		.shp43 { fill: #d2a8c3 } 
		.shp44 { fill: #ab6bd5 } 
		.shp45 { fill: #997cb8 } 
		.shp46 { fill: #b996d5 } 
		.shp47 { fill: #8c6baf } 
		.shp48 { fill: #c3a1ce } 
	</style>
	<g id="g10">
		<g id="g12">
			<path id="path16" class="shp0" d="M1739.09 3226.33C1735.4 3309.27 1889.45 3502.21 2137.61 3362.24L2080.44 3148.41L1758.47 3034.15L1739.09 3226.33" />
			<path id="path18" fill-rule="evenodd" class="shp1" d="M1968.91 3432.91C1906.27 3432.91 1859.03 3412.23 1829.83 3394.29C1754.23 3347.85 1715.68 3272.6 1717.77 3225.39L1717.87 3224.19L1739.96 3004.95L2098.16 3132.07L2162.49 3372.71L2148.09 3380.83C2079.39 3419.57 2019.19 3432.91 1968.91 3432.91ZM1760.37 3227.81C1759.44 3257.19 1787.76 3318.37 1852.17 3357.95C1904.61 3390.16 1991.72 3414.24 2112.67 3351.51L2062.73 3164.77L1776.96 3063.35L1760.37 3227.81Z" />
			<path id="path20" class="shp2" d="M1880.81 3141.49C1853.24 3234.19 2049.63 3474.33 2284.33 3299.43L2176.61 3003.37L1853.76 2834.35L1880.81 3141.49" />
			<path id="path22" fill-rule="evenodd" class="shp3" d="M1857.65 2840.17L2173.91 3005.75L2280.32 3298.21C2180.36 3371.69 2071.36 3377.67 1980.91 3314.49C1907.59 3263.28 1871.63 3184.19 1884.04 3142.44C1884.15 3142.04 1884.2 3141.61 1884.16 3141.19C1884.16 3141.19 1857.65 2840.17 1857.65 2840.17ZM2286.33 3302.11C2287.53 3301.23 2288 3299.67 2287.49 3298.27L2179.77 3002.21C2179.48 3001.43 2178.91 3000.77 2178.17 3000.39L1855.32 2831.37C1854.23 2830.8 1852.92 2830.87 1851.91 2831.55C1850.88 2832.24 1850.31 2833.43 1850.41 2834.64L1877.41 3141.15C1863.29 3190.59 1908.75 3272.28 1977.05 3320C2002.24 3337.59 2051.53 3364.64 2116.28 3364.64C2165.35 3364.64 2223.29 3349.09 2286.33 3302.11Z" />
			<path id="path24" class="shp4" d="M2115.77 3340.43C2067.75 3340.43 2028.64 3323.53 2001.47 3306.55C1968.52 3256.6 1936.96 3201.84 1909.07 3151.27C1921.65 3144.69 1933.76 3137.48 1945.36 3129.63C1965.52 3203.83 2056.64 3301.71 2178.51 3301.71C2188.07 3301.71 2197.83 3301.11 2207.76 3299.84C2217.61 3301.83 2227.67 3303.47 2237.85 3304.72C2192.96 3330.89 2151.85 3340.43 2115.77 3340.43" />
			<path id="path26" fill-rule="evenodd" class="shp1" d="M2116.41 3382.83C2046.91 3382.83 1993.85 3353.65 1966.76 3334.73C1892.97 3283.19 1845.75 3196.83 1859.24 3139.65L1829.08 2797.35L2193.83 2988.31L2309.81 3307.04L2297.08 3316.52C2230.28 3366.31 2168.69 3382.81 2116.41 3382.83ZM1878.44 2871.35L1902.43 3143.67L1901.27 3147.57C1890.87 3182.49 1927.13 3255 1991.2 3299.76C2039.08 3333.2 2136.24 3375.21 2258.75 3291.48L2159.39 3018.44C2159.39 3018.44 1878.44 2871.35 1878.44 2871.35Z" />
			<path id="path28" class="shp5" d="M2489.81 3193.21C2377.83 3367.59 2000.04 3296.36 1998.47 3077.55L1972.05 3028L2041.52 2889.56L1890.92 2196.63L2182.76 2249.19C2182.76 2249.19 2269.29 2323.77 2270.79 2519.03C2271.67 2634.56 2199.6 2823.17 2180.52 2964.71C2223.84 2904.81 2283.31 2845.68 2350.52 2842.85C2499.2 2836.57 2605.13 3013.73 2489.81 3193.21" />
			<path id="path30" fill-rule="evenodd" class="shp3" d="M1975.83 3027.96L2044.52 2891.07C2044.87 2890.39 2044.96 2889.6 2044.8 2888.85L1895.27 2200.81L2181.21 2252.32C2189.11 2259.73 2266.03 2336.73 2267.43 2519.05C2267.92 2584.44 2245.27 2671.96 2221.29 2764.61C2203.65 2832.72 2185.43 2903.17 2177.19 2964.27C2176.99 2965.79 2177.84 2967.25 2179.28 2967.83C2180.71 2968.4 2182.35 2967.92 2183.24 2966.68C2221.83 2913.31 2282.2 2849.09 2350.67 2846.21C2415.89 2843.45 2474.97 2876.65 2508.47 2935.01C2550.79 3008.76 2542.76 3104.6 2486.99 3191.4C2426.13 3286.15 2286.16 3304.41 2179.29 3273.45C2094 3248.76 2002.59 3184.32 2001.83 3077.52C2001.81 3076.99 2001.68 3076.45 2001.43 3075.97C2001.43 3075.97 1975.83 3027.96 1975.83 3027.96ZM2280.35 3294.39C2362.89 3294.39 2446.87 3266.32 2492.64 3195.04C2549.79 3106.08 2557.88 3007.63 2514.29 2931.67C2479.53 2871.09 2418.41 2836.65 2350.37 2839.51C2295.89 2841.79 2240.55 2879.63 2185.76 2951.99C2194.64 2894.41 2211.47 2829.36 2227.79 2766.29C2251.88 2673.2 2274.65 2585.27 2274.15 2519C2272.65 2324.48 2185.84 2247.4 2184.96 2246.64C2184.51 2246.25 2183.95 2245.99 2183.36 2245.88L1891.52 2193.32C1890.41 2193.12 1889.28 2193.48 1888.51 2194.29C1887.72 2195.09 1887.4 2196.24 1887.64 2197.33L2037.99 2889.12L1969.05 3026.49C1968.56 3027.47 1968.57 3028.63 1969.09 3029.59L1995.11 3078.4C1996.36 3188.4 2090.03 3254.6 2177.43 3279.92C2209.35 3289.16 2244.72 3294.39 2280.35 3294.39Z" />
			<path id="path32" class="shp6" d="M2460.91 3034.15C2429.31 3034.16 2430.56 2969.31 2385.59 2953.17C2380.61 2951.39 2375.17 2950.65 2369.45 2950.65C2356.33 2950.65 2341.76 2954.53 2328.03 2958.4C2314.28 2962.27 2301.39 2966.15 2291.63 2966.15C2287.28 2966.15 2283.56 2965.37 2280.65 2963.51C2261.44 2951.13 2268.68 2934.51 2276.55 2926.16C2287.89 2914.09 2315.13 2893.09 2355.93 2893.09C2371.89 2893.09 2389.93 2896.31 2409.92 2904.53C2474.19 2930.99 2509.28 3031.93 2462.01 3034.12C2461.64 3034.15 2461.28 3034.15 2460.91 3034.15" />
			<path id="path34" class="shp7" d="M2287.43 3265.29C2253.51 3265.29 2219.51 3260.21 2188.83 3251.33C2106.67 3227.53 2018.79 3168.36 2012.97 3072.89C2026.57 3059.55 2039.59 3045.57 2051.97 3031.03C2058.23 3099.28 2101.36 3156.83 2174.92 3194.28C2224.2 3219.36 2280.31 3231.77 2334.55 3231.77C2373.84 3231.77 2412.15 3225.25 2446.12 3212.32C2405.37 3249.88 2346.51 3265.29 2287.43 3265.29" />
			<path id="path36" class="shp8" d="M2334.55 3231.77C2280.31 3231.77 2224.2 3219.36 2174.92 3194.28C2101.36 3156.83 2058.23 3099.28 2051.97 3031.03C2054.04 3028.59 2056.08 3026.15 2058.12 3023.68C2061.88 3092.53 2104.13 3150.76 2177.93 3188.33C2226.32 3212.96 2281.41 3225.16 2334.6 3225.16C2378.65 3225.16 2421.39 3216.8 2457.95 3200.21C2454.2 3204.48 2450.25 3208.52 2446.12 3212.32C2412.15 3225.25 2373.84 3231.77 2334.55 3231.77" />
			<path id="path38" fill-rule="evenodd" class="shp1" d="M2286.37 3307.72C2248.53 3307.72 2210.92 3302.15 2176.96 3292.31C2052.25 3256.19 1973.51 3171.2 1970.11 3069.71L1948.05 3028.29L2019.07 2886.75L1863.29 2169.97L2192.28 2229.24L2196.69 2233.04C2200.53 2236.35 2290.57 2316.25 2292.13 2518.85C2292.65 2587.51 2269.59 2676.56 2245.19 2770.84C2236.32 2805.08 2227.13 2840.53 2219.21 2875.21C2249.93 2846.6 2292.69 2823.96 2349.61 2821.55C2424.45 2818.41 2491.69 2856.21 2529.87 2922.71C2576.87 3004.6 2568.6 3110.04 2507.76 3204.76C2460.32 3278.63 2372.77 3307.71 2286.37 3307.72ZM1996.08 3027.71L2012.63 3058.79L2012.67 3064.03C2013.39 3164.72 2104.15 3226.8 2188.83 3251.33C2285.63 3279.35 2415.47 3269.52 2471.87 3181.71C2523.93 3100.64 2531.79 3011.76 2492.87 2943.95C2462.77 2891.53 2410.05 2861.79 2351.41 2864.17C2238.71 2868.93 2204.53 2967.96 2199.8 2983.77C2194.4 3034.19 2197.05 3076.68 2214.76 3102.48C2225.96 3118.8 2243.39 3128.12 2268.01 3130.95C2279.72 3132.29 2288.12 3142.87 2286.77 3154.57C2285.43 3166.28 2274.8 3174.65 2263.15 3173.33C2226.04 3169.07 2197.93 3153.36 2179.59 3126.63C2128.32 3051.95 2165.03 2910.21 2203.87 2760.15C2226.52 2672.68 2249.93 2582.24 2249.45 2519.19C2248.25 2360.56 2188.17 2285.85 2172.45 2269.03L1918.55 2223.28L2063.96 2892.4C2063.96 2892.4 1996.08 3027.71 1996.08 3027.71Z" />
			<path id="path40" class="shp9" d="M2226.92 4505.99C2227.11 4506.73 2226.84 4507.4 2226.25 4507.61C2215.89 4511.52 2124.07 4541.92 2039.91 4430.09C1933.93 4289.29 1995.01 4201.37 1941.77 4067.79C1892.88 3945.07 1721.08 3902.71 1649.33 3890.17C1671.07 3844.75 1694.23 3819.59 1694.23 3819.59C1694.23 3819.59 1995.65 3796.08 2109.93 4017.09C2187.32 4166.73 2026.16 4234.56 2088.52 4359.33C2116.23 4414.73 2159.69 4449.44 2198.95 4470.77C2214.16 4479.09 2223.48 4492.31 2226.92 4505.99" />
			<path id="path42" fill-rule="evenodd" class="shp1" d="M2184.84 4517.59C2147.19 4517.59 2090.57 4502.97 2037.24 4432.09C1973.59 4347.52 1969.69 4282.85 1965.57 4214.39C1962.85 4169.28 1960.04 4122.64 1938.67 4069.03C1890.4 3947.87 1719.84 3905.88 1648.76 3893.45L1644.43 3892.71L1646.32 3888.73C1668.01 3843.39 1690.81 3818.37 1691.77 3817.32L1692.67 3816.36L1693.97 3816.27C1696.99 3816.01 1998.92 3795.15 2112.91 4015.56C2154.25 4095.53 2128.95 4151.97 2104.48 4206.55C2082.93 4254.6 2062.57 4299.99 2091.49 4357.84C2114.61 4404.08 2151.31 4441.09 2200.53 4467.85C2215.67 4476.11 2226.17 4489.36 2230.16 4505.17C2230.77 4507.59 2229.61 4509.92 2227.41 4510.75C2223.48 4512.23 2207.64 4517.59 2184.84 4517.59ZM1654.25 3887.67C1728.81 3901.21 1896.32 3944.69 1944.87 4066.56C1966.63 4121.16 1969.47 4168.36 1972.23 4214C1976.29 4281.43 1980.12 4345.12 2042.56 4428.08C2121.55 4533.03 2207 4510.65 2223.25 4505.15C2219.43 4491.89 2210.28 4480.76 2197.35 4473.71C2146.91 4446.28 2109.28 4408.31 2085.53 4360.83C2055.2 4300.13 2076.19 4253.36 2098.39 4203.83C2122.21 4150.69 2146.87 4095.75 2106.97 4018.61C1998.87 3809.59 1717.69 3821.51 1695.81 3822.83C1691.59 3827.69 1672.57 3850.51 1654.25 3887.67ZM2225.08 4504.49L2225.07 4504.51L2225.08 4504.49Z" />
			<path id="path44" class="shp5" d="M2226.27 4507.61C2215.92 4511.52 2124.07 4541.91 2039.91 4430.09C2022.69 4407.23 2009.89 4385.75 2000.32 4365.25C1950.76 4259.52 1986.37 4179.69 1941.77 4067.79C1892.88 3945.07 1721.08 3902.71 1649.33 3890.17C1666.64 3854.01 1684.87 3830.67 1691.57 3822.71C1693.28 3820.64 1694.24 3819.59 1694.24 3819.59C1694.24 3819.59 1995.65 3796.08 2109.95 4017.09C2187.32 4166.72 2026.16 4234.55 2088.52 4359.33C2116.23 4414.73 2159.69 4449.44 2198.95 4470.77C2214.16 4479.11 2223.48 4492.31 2226.92 4506C2227.11 4506.73 2226.83 4507.39 2226.27 4507.61" />
			<path id="path46" fill-rule="evenodd" class="shp3" d="M2184.81 4517.63C2147.16 4517.63 2090.57 4502.99 2037.23 4432.11C2020.6 4410.03 2007.53 4388.61 1997.28 4366.68C1971.41 4311.49 1968.56 4264.32 1965.55 4214.37C1962.83 4169.27 1960.01 4122.64 1938.65 4069.03C1890.39 3947.88 1719.84 3905.91 1648.76 3893.48C1647.72 3893.29 1646.83 3892.64 1646.35 3891.71C1645.87 3890.77 1645.85 3889.67 1646.31 3888.72C1663.8 3852.17 1682 3828.87 1689.01 3820.53C1690.76 3818.43 1691.75 3817.33 1691.75 3817.33C1692.32 3816.69 1693.12 3816.31 1693.97 3816.24C1697.01 3815.99 1998.95 3795.12 2112.93 4015.55C2154.29 4095.53 2128.99 4151.97 2104.51 4206.56C2082.96 4254.6 2062.61 4299.97 2091.53 4357.83C2114.65 4404.05 2151.32 4441.07 2200.55 4467.83C2215.69 4476.11 2226.21 4489.37 2230.17 4505.19C2230.77 4507.53 2229.67 4509.87 2227.52 4510.73L2227.45 4510.76C2223.51 4512.24 2207.64 4517.63 2184.81 4517.63ZM1654.29 3887.64C1728.89 3901.2 1896.35 3944.69 1944.89 4066.55C1966.65 4121.15 1969.51 4168.33 1972.25 4213.97C1975.23 4263.25 1978.04 4309.8 2003.36 4363.83C2013.41 4385.35 2026.25 4406.36 2042.59 4428.07C2121.55 4532.96 2206.85 4510.67 2223.21 4505.13C2219.39 4491.91 2210.25 4480.8 2197.33 4473.72C2146.89 4446.29 2109.27 4408.32 2085.52 4360.84C2055.19 4300.13 2076.16 4253.35 2098.37 4203.81C2122.2 4150.68 2146.84 4095.75 2106.96 4018.63C1998.91 3809.68 1717.89 3821.59 1695.84 3822.85C1695.43 3823.33 1694.87 3824 1694.17 3824.84C1687.56 3832.69 1670.84 3854.09 1654.29 3887.64ZM2226.27 4507.61L2226.33 4507.61L2226.27 4507.61ZM2223.67 4506.83L2223.67 4506.84L2223.67 4506.83Z" />
			<path id="path48" class="shp6" d="M2185.15 4492.93C2169.05 4492.93 2148.48 4489.68 2125.89 4478.2C2099.27 4457.48 2073.71 4429.69 2055.19 4392.67C2030.84 4343.95 2040.57 4303.91 2056.87 4264.29C2049.67 4295.77 2050.12 4330.24 2069.43 4368.88C2094.85 4419.71 2135 4460.31 2188.72 4489.51C2190.52 4490.48 2192.13 4491.53 2193.6 4492.63C2190.95 4492.81 2188.12 4492.93 2185.15 4492.93M2093.73 4169.41C2101.64 4134.81 2100.43 4096.49 2076.61 4050.41C2002.15 3906.43 1848.27 3866.23 1750.07 3855.69C1751.55 3850.97 1753.01 3846.25 1754.45 3841.53C1844.48 3847.41 2014.39 3878.73 2090.99 4026.89C2120.57 4084.09 2110.96 4127.2 2093.73 4169.41Z" />
			<path id="path50" fill-rule="evenodd" class="shp1" d="M2184.72 4535.52C2142.71 4535.52 2080.48 4519.49 2022.85 4442.92C1955.95 4354.01 1951.71 4283.59 1947.6 4215.47C1944.85 4169.77 1942.25 4126.61 1921.95 4075.68C1877.04 3962.95 1713.77 3923.09 1645.65 3911.19L1617.95 3906.35L1630.08 3880.96C1652.93 3833.21 1677.49 3806.27 1678.53 3805.13L1684.21 3798.97L1692.57 3798.32C1705.48 3797.32 2009.47 3776.37 2128.89 4007.29C2174.24 4094.99 2145.89 4158.17 2120.91 4213.92C2099.44 4261.77 2082.49 4299.56 2107.6 4349.8C2129.04 4392.67 2163.2 4427.07 2209.13 4452.04C2228.45 4462.59 2242.47 4480.33 2247.61 4500.77C2250.47 4512.05 2244.48 4523.6 2233.69 4527.61C2229.21 4529.29 2210.89 4535.51 2184.72 4535.52ZM1681.57 3874.77C1766.63 3893.33 1914.57 3941.89 1961.59 4059.89C1984.43 4117.19 1987.36 4165.85 1990.2 4212.91C1994.09 4277.56 1997.76 4338.63 2056.95 4417.27C2109.09 4486.56 2162.85 4495.01 2193.71 4492.71C2192.21 4491.59 2190.56 4490.51 2188.72 4489.51C2135 4460.31 2094.85 4419.71 2069.43 4368.88C2035.29 4300.55 2060.09 4245.25 2081.97 4196.47C2105.07 4144.95 2126.88 4096.31 2090.99 4026.89C1995.21 3841.67 1753.61 3839.04 1704.61 3840.47C1699.39 3847.09 1690.88 3858.73 1681.57 3874.77ZM2206.24 4511.17L2206.24 4511.2L2206.24 4511.2L2206.24 4511.17ZM2218.73 4487.65L2218.64 4487.68L2218.73 4487.65Z" />
			<path id="path52" class="shp10" d="M2171.96 4574.69C2049.47 4598.59 1894 4457.87 1821.27 4270.61C1778.97 4161.77 1679.08 4085.04 1612.29 4043.77C1614.05 3980.29 1631.19 3928.19 1649.33 3890.17C1721.08 3902.71 1892.88 3945.07 1941.77 4067.79C1995.01 4201.37 1933.93 4289.29 2039.91 4430.09C2119.59 4535.96 2206.13 4514.35 2223.92 4508.44C2225.59 4507.88 2227.75 4509.6 2228.01 4511.68C2229.8 4525.12 2225.92 4538.4 2216.4 4547.27C2204.51 4558.4 2189.52 4567.73 2171.96 4574.69Z" />
			<path id="path54" fill-rule="evenodd" class="shp1" d="M1615.69 4041.96C1617.36 3990.4 1629.32 3940.61 1651.25 3893.89C1723.76 3906.87 1890.96 3949.27 1938.67 4069.03C1960.04 4122.64 1962.85 4169.28 1965.57 4214.39C1969.69 4282.85 1973.59 4347.52 2037.24 4432.09C2118.56 4540.13 2207.91 4517.28 2224.71 4512.12C2226.43 4525.04 2222.57 4536.96 2214.12 4544.83C2202.43 4555.79 2187.92 4564.75 2171.03 4571.48C2053.21 4594.13 1897.91 4458.73 1824.36 4269.4C1783.05 4163.07 1688.45 4087.17 1615.69 4041.96ZM2144.81 4580.59C2154.25 4580.59 2163.55 4579.72 2172.6 4577.96L2173.19 4577.79C2190.99 4570.75 2206.29 4561.29 2218.68 4549.71C2228.72 4540.35 2233.32 4526.32 2231.32 4511.24C2231.04 4509.11 2229.76 4507.15 2227.91 4506C2226.32 4505.01 2224.49 4504.73 2222.87 4505.28C2206.55 4510.71 2121.13 4532.48 2042.56 4428.08C1980.12 4345.12 1976.29 4281.43 1972.23 4214C1969.47 4168.36 1966.63 4121.16 1944.87 4066.56C1895.35 3942.27 1722.09 3899.51 1649.91 3886.89L1647.41 3886.45L1646.32 3888.73C1623.03 3937.53 1610.45 3989.67 1608.96 4043.69L1608.91 4045.6L1610.55 4046.61C1682.65 4091.17 1777.2 4166.41 1818.16 4271.83C1887.27 4449.75 2028.48 4580.59 2144.81 4580.59Z" />
			<path id="path56" class="shp2" d="M2171.96 4574.68C2150.67 4578.85 2128.33 4578.01 2105.65 4572.83C2096.68 4570.79 2087.64 4568.05 2078.59 4564.67C1978.88 4527.53 1876.36 4412.43 1821.27 4270.61C1778.99 4161.77 1679.08 4085.04 1612.31 4043.77C1614.05 3980.49 1631.09 3928.49 1649.17 3890.49L1649.33 3890.17C1688.91 3897.08 1758.85 3913.07 1821.89 3946.59C1873.16 3973.85 1919.85 4012.75 1941.77 4067.79C1995.01 4201.37 1933.93 4289.29 2039.91 4430.09C2119.59 4535.96 2206.15 4514.36 2223.93 4508.44C2225.6 4507.88 2227.75 4509.61 2228.03 4511.69C2229.8 4525.12 2225.92 4538.4 2216.4 4547.27C2204.52 4558.4 2189.52 4567.73 2171.96 4574.68" />
			<path id="path58" fill-rule="evenodd" class="shp3" d="M2144.09 4580.69C2131.39 4580.69 2118.29 4579.16 2104.91 4576.09C2095.85 4574.05 2086.6 4571.25 2077.41 4567.81C1974.93 4529.65 1873.16 4413.47 1818.13 4271.83C1777.19 4166.43 1682.64 4091.19 1610.53 4046.63C1609.52 4046 1608.91 4044.88 1608.95 4043.68C1610.44 3989.83 1622.95 3937.8 1646.13 3889.05C1646.21 3888.87 1646.48 3888.39 1646.6 3888.23C1647.35 3887.17 1648.6 3886.65 1649.92 3886.87C1687.08 3893.36 1759.07 3909.37 1823.47 3943.63C1884.48 3976.07 1925.33 4017.43 1944.89 4066.55C1966.67 4121.16 1969.51 4168.35 1972.25 4213.99C1976.32 4281.41 1980.16 4345.11 2042.59 4428.07C2121.15 4532.44 2206.56 4510.68 2222.88 4505.25C2224.45 4504.72 2226.29 4504.96 2227.87 4505.95C2229.76 4507.11 2231.05 4509.09 2231.35 4511.24C2233.35 4526.33 2228.75 4540.36 2218.69 4549.72C2206.32 4561.31 2191.01 4570.76 2173.2 4577.81C2173 4577.88 2172.8 4577.95 2172.6 4577.97C2163.37 4579.79 2153.84 4580.69 2144.09 4580.69ZM1615.72 4041.93C1688.48 4087.16 1783.08 4163.05 1824.39 4269.39C1878.76 4409.33 1978.99 4524 2079.76 4561.52C2088.68 4564.87 2097.64 4567.56 2106.4 4569.55C2129.01 4574.72 2150.76 4575.37 2171.01 4571.44C2187.92 4564.72 2202.41 4555.76 2214.11 4544.81C2222.55 4536.95 2226.4 4525.04 2224.69 4512.13C2224.55 4511.91 2224.55 4511.81 2224.63 4511.76C2206.57 4517.64 2117.92 4539.33 2037.23 4432.11C1973.57 4347.53 1969.67 4282.87 1965.55 4214.39C1962.83 4169.28 1960.03 4122.64 1938.65 4069.03C1919.69 4021.43 1879.89 3981.24 1820.32 3949.56C1758.12 3916.48 1688.65 3900.61 1651.23 3893.92C1629.37 3940.53 1617.4 3990.37 1615.72 4041.93ZM2171.96 4574.68L2172.03 4574.68L2171.96 4574.68ZM2225.03 4511.63L2225 4511.63L2225.03 4511.63Z" />
			<path id="path60" class="shp11" d="M2188.39 4542.29C2188.32 4540.99 2188.2 4539.67 2188.03 4538.36C2187.87 4537.17 2187.09 4536.09 2186.15 4535.49C2190.37 4535.47 2194.37 4535.28 2198.15 4534.97C2195.09 4537.55 2191.84 4540 2188.39 4542.29ZM2144.84 4540.96C2108 4540.96 2052.45 4526.57 1999.91 4456.76C1893.93 4315.96 1955.01 4228.04 1901.77 4094.45C1879.85 4039.41 1833.17 4000.52 1781.89 3973.25C1772.96 3968.51 1763.88 3964.11 1754.79 3960.04C1744.56 3950.57 1734.16 3941.93 1724.07 3934.19C1724.49 3932.87 1724.92 3931.52 1725.35 3930.19C1799.84 3952.97 1890.29 3996.23 1921.95 4075.68C1942.25 4126.61 1944.85 4169.77 1947.6 4215.47C1951.71 4283.59 1955.95 4354.01 2022.85 4442.92C2079.61 4518.33 2140.96 4534.95 2182.79 4535.48C2176.2 4537.56 2162.73 4540.96 2144.84 4540.96" />
			<path id="path62" class="shp4" d="M1986.53 4481.47C1928.68 4428.85 1875.77 4352.04 1841.15 4262.89C1809.59 4181.68 1748.77 4117.81 1688.99 4071.09C1696.64 4032.48 1706.63 3990.88 1720.35 3946.13C1731.73 3950.28 1743.28 3954.89 1754.79 3960.04C1790.21 3992.81 1823.77 4035.36 1837 4083.89C1864.29 4183.92 1869.29 4345.23 1986.53 4481.47" />
			<path id="path64" class="shp12" d="M1754.79 3960.04C1743.28 3954.89 1731.73 3950.28 1720.35 3946.13C1721.56 3942.19 1722.8 3938.2 1724.07 3934.19C1734.16 3941.93 1744.56 3950.57 1754.79 3960.04" />
			<path id="path66" fill-rule="evenodd" class="shp1" d="M2144.24 4598.65C2019.39 4598.65 1874.15 4465.67 1801.37 4278.33C1760.16 4172.27 1658.2 4097.21 1601.08 4061.92L1590.63 4055.47L1590.97 4043.19C1592.53 3986.64 1605.69 3932.07 1630.08 3880.99L1637.05 3866.37L1653 3869.16C1728.17 3882.29 1908.71 3927.17 1961.59 4059.89C1984.43 4117.19 1987.36 4165.85 1990.2 4212.91C1994.09 4277.56 1997.76 4338.63 2056.95 4417.27C2128.11 4511.81 2202.93 4492.95 2217.19 4488.2C2223.93 4485.97 2231.31 4486.89 2237.45 4490.73C2243.8 4494.69 2248.17 4501.47 2249.16 4508.84C2251.95 4529.8 2245.31 4549.48 2230.96 4562.87C2216.93 4575.99 2199.72 4586.64 2179.8 4594.52L2177.97 4595.24L2176.04 4595.63C2165.64 4597.65 2155 4598.65 2144.24 4598.65ZM1634.15 4032.32C1707.89 4079.57 1799.73 4156.29 1841.15 4262.89C1911.33 4443.59 2056.59 4573.59 2165.95 4554.11C2178.33 4549.01 2189.12 4542.59 2198.15 4534.97C2157.09 4538.28 2087.03 4528.19 2022.85 4442.92C1955.95 4354.01 1951.71 4283.59 1947.6 4215.47C1944.85 4169.77 1942.25 4126.61 1921.95 4075.68C1880.29 3971.12 1736.81 3929.25 1661.88 3914.24C1645.93 3951.88 1636.63 3991.49 1634.15 4032.32ZM2171.96 4574.68L2172.03 4574.68L2171.96 4574.68Z" />
			<path id="path68" class="shp0" d="M2171.96 4574.69C2077.2 4612.32 1907.69 4580.68 1748.28 4385.71C1640.12 4253.45 1609.77 4136.52 1612.29 4043.77C1679.08 4085.04 1778.97 4161.77 1821.27 4270.61C1894 4457.87 2049.47 4598.59 2171.96 4574.69Z" />
			<path id="path70" class="shp13" d="M2013.69 4576.96C1932.28 4554.29 1838.67 4496.24 1748.28 4385.71C1710.69 4339.75 1682.51 4295.64 1661.83 4253.75C1663.4 4242.04 1664.93 4230 1666.51 4217.63C1670.43 4186.72 1674.69 4153 1680.77 4116.32C1738.07 4199.49 1742.76 4289.61 1792.44 4367.57C1846.28 4452.08 1958.75 4537.15 2013.69 4576.96" />
			<path id="path72" fill-rule="evenodd" class="shp1" d="M2092.99 4610.08C1992.49 4610.08 1859.97 4556.03 1731.76 4399.21C1635.13 4281.05 1587.76 4161.28 1590.97 4043.2L1591.97 4006.15L1623.51 4025.63C1698.83 4072.17 1797.72 4151.11 1841.15 4262.89C1911.76 4444.65 2058.37 4575.12 2167.87 4553.75L2179.84 4594.52C2155.13 4604.32 2125.76 4610.08 2092.99 4610.08ZM1634.67 4084.09C1642.23 4178.99 1685.88 4275.71 1764.8 4372.2C1847 4472.76 1933.83 4529.91 2010.73 4553.87C1927.28 4499.77 1848.88 4400.64 1801.37 4278.33C1767.39 4190.85 1692.07 4124.47 1634.67 4084.09Z" />
			<path id="path74" class="shp14" d="M1784.8 3597.44C1767.36 3720.69 1737.44 3823.79 1710.99 3900.16C1678.93 3992.69 1662.99 4072.64 1652.59 4141.49C1645.39 4189.07 1640.85 4231.31 1635.52 4268.8C1629.6 4310.29 1622.67 4345.92 1610.08 4376.37C1548.91 4524.16 1384.27 4489.97 1333.92 4343.36C1306.56 4263.57 1295.63 4184 1291.73 4121.97C1287.36 4051.36 1292.11 4003.41 1292.11 4003.41C1292.11 4003.41 1249.28 4004.48 1208.53 3999.31C1157.6 3992.8 1121.12 3974.83 1121.12 3974.83C1113.01 4020 1111.79 4068.27 1110.08 4116.69C1107.41 4192.53 1103.63 4268.64 1070.51 4333.23C998.72 4473.39 841.92 4521.44 753.76 4208.32C743.68 4172.48 733.76 4132.32 724.69 4089.44C724.21 4087.09 723.68 4084.69 723.2 4082.29C701.07 3975.79 684.59 3853.44 684.75 3740.85C685.23 3395.52 736.91 3206.03 781.49 3065.71C782.08 3063.89 782.51 3062.13 782.83 3060.32C793.97 3001.55 684.05 2938.03 620.8 2634.93C602.51 2547.2 598.13 2472.43 604.91 2412.32C616.53 2308.64 661.28 2248.64 724.69 2241.17C830.67 2228.69 871.25 2313.01 906.99 2418.77C911.95 2433.49 917.17 2448 922.67 2462.35C1009.01 2688.69 1150.88 2861.28 1150.88 2861.28L1750.51 3013.28C1758.61 3043.68 1765.55 3073.65 1771.47 3103.2C1783.31 3162.13 1790.93 3219.41 1795.25 3274.61C1804.48 3392.48 1798.45 3501.12 1784.8 3597.44Z" />
			<path id="path76" class="shp15" d="M1111.31 4112.05C1108.64 4187.89 1104.85 4264 1071.73 4328.59C999.95 4468.75 843.15 4516.8 754.99 4203.68C744.32 4165.87 733.87 4123.2 724.43 4077.65C799.89 4055.63 986.72 4015.63 1111.31 4112.05Z" />
			<path id="path78" class="shp15" d="M1653.81 4136.85C1638.67 4237.01 1635.31 4313.71 1611.31 4371.73C1550.13 4519.52 1385.49 4485.33 1335.15 4338.72C1307.79 4258.93 1296.85 4179.36 1292.96 4117.33C1379.84 4089.6 1538.03 4057.12 1653.81 4136.85Z" />
			<path id="path80" class="shp16" d="M1316.13 4110.36C1312.49 4045.76 1316.57 4001.88 1316.65 4001.04L1319.23 3974.64L1292.73 3975.33C1292.61 3975.33 1289.05 3975.41 1283.12 3975.41C1268.65 3975.41 1240.05 3974.91 1212.73 3971.41C1166.68 3965.53 1132.99 3949.32 1132.71 3949.17L1104.8 3935.44L1099.31 3966.05C1091.75 4008.11 1089.93 4052.79 1088.41 4096.24C1060.52 4079.09 1030.29 4067.69 999.37 4060.55C989.53 4016.87 972.31 3974.21 956.27 3945.49C917.87 3876.75 917.87 3837.44 917.87 3837.44C917.87 3837.44 1045.83 3911.64 1245.4 3911.64C1246.83 3911.64 1248.21 3911.63 1249.65 3911.63C1451.68 3910.56 1515.2 3885.39 1515.2 3885.39C1515.2 3885.39 1505.65 3922.67 1457.01 3990.19C1442.93 4009.71 1423.63 4036.27 1404.27 4076.75C1401.71 4082.09 1399.36 4087.4 1397.21 4092.67C1367.61 4097.13 1340.04 4103.6 1316.13 4110.36" />
			<path id="path82" class="shp17" d="M934.68 4413.89C932.35 4413.89 930.01 4413.79 927.69 4413.55C868.47 4407.64 815.12 4330.85 777.51 4197.32C772.77 4180.52 768.25 4163.45 763.96 4146.23C799.71 4189.92 849.8 4231.4 911.47 4232.21C912.19 4232.23 912.93 4232.23 913.65 4232.23C1009.97 4232.23 1018.29 4144.49 999.37 4060.55C1030.29 4067.69 1060.52 4079.09 1088.41 4096.24C1088.35 4098.24 1088.28 4100.25 1088.21 4102.25C1085.6 4177.53 1082.91 4255.37 1050.89 4317.88C1020.16 4377.87 976.31 4413.89 934.68 4413.89" />
			<path id="path84" class="shp17" d="M1487.96 4443.64C1486.92 4443.64 1485.87 4443.63 1484.83 4443.59C1431.09 4441.95 1379.84 4396.75 1357.31 4331.12C1329.99 4251.57 1319.59 4171.64 1316.13 4110.36C1340.04 4103.6 1367.61 4097.13 1397.21 4092.67C1347.68 4214.49 1406.64 4315.97 1487.52 4327.63C1492.36 4328.32 1497.67 4328.67 1503.31 4328.67C1534.68 4328.67 1576.48 4317.81 1608.08 4295.28C1603.47 4320.67 1597.83 4343.05 1589.65 4362.79C1568.36 4414.28 1531.36 4443.64 1487.96 4443.64" />
			<path id="path86" fill-rule="evenodd" class="shp1" d="M1487.83 4490.48C1486.35 4490.48 1484.87 4490.47 1483.39 4490.41C1409.16 4488.15 1342.28 4431.59 1312.99 4346.33C1266.29 4210.36 1265.99 4076.84 1268.36 4022.12C1251.73 4021.77 1229.09 4020.73 1206.8 4017.89C1180.52 4014.53 1157.81 4008.35 1141.23 4002.77C1137.41 4034.99 1136.24 4068.68 1135.03 4103.87C1132.24 4184.28 1129.36 4267.43 1092.59 4339.24C1050.53 4421.36 987.19 4466.61 923.05 4460.17C866.64 4454.55 787.77 4406.59 732.43 4210.03C688.48 4054.03 662.36 3876.89 662.55 3736.2C662.99 3405.85 709.84 3213.08 760.4 3053.97C764.83 3040.05 754.37 3021.33 732.2 2983.68C697.21 2924.24 638.65 2824.76 599.08 2635.09C565.36 2473.56 575.65 2344.52 628.03 2271.73C652.33 2237.96 685.23 2217.75 723.16 2213.28C849.12 2198.41 894.61 2300.65 930.4 2406.65C1003.67 2623.68 1138.65 2801.72 1165.49 2835.85L1770.83 2989.33L1774.37 3002.63C1852.87 3296.95 1839.4 3599.95 1734.36 3903.21C1690.21 4030.67 1677.07 4134.33 1666.51 4217.63C1658.47 4281.05 1651.52 4335.84 1632.95 4380.71C1604.39 4449.75 1550.36 4490.48 1487.83 4490.48ZM1319.23 3974.64L1316.65 4001.04C1316.49 4002.69 1301.17 4167.72 1357.31 4331.12C1379.84 4396.75 1431.09 4441.95 1484.83 4443.59C1529.57 4445.04 1567.84 4415.51 1589.65 4362.79C1605.83 4323.72 1612.09 4274.29 1620.03 4211.73C1630.85 4126.28 1644.35 4019.95 1690.08 3887.88C1790.44 3598.16 1804.72 3308.93 1732.59 3027.97L1138.89 2877.44L1134.01 2871.49C1127.35 2863.4 969.93 2670.23 886.01 2421.64C848.03 2309.11 811.63 2250.05 728.65 2259.8C703.77 2262.73 682.71 2275.96 666.05 2299.09C622.09 2360.19 614.4 2479.16 644.93 2625.52C682.95 2807.64 736.88 2899.28 772.57 2959.91C798.73 3004.33 816 3033.68 805.05 3068.16C755.63 3223.69 709.83 3412.28 709.39 3736.27C709.21 3872.88 734.67 4045.24 777.51 4197.32C815.12 4330.85 868.47 4407.64 927.69 4413.55C971.33 4417.87 1018.44 4381.24 1050.89 4317.88C1082.91 4255.37 1085.6 4177.53 1088.21 4102.25C1089.77 4056.92 1091.4 4010.04 1099.31 3966.05L1104.8 3935.44L1132.71 3949.17C1132.99 3949.32 1166.68 3965.53 1212.73 3971.41C1251.27 3976.33 1292.33 3975.35 1292.73 3975.33C1292.73 3975.33 1319.23 3974.64 1319.23 3974.64Z" />
			<path id="path88" class="shp9" d="M2227.56 2277.75C2227.56 2277.75 2215.04 2292.15 2193.61 2309C2208.53 2292.53 2218.11 2278.47 2221.51 2273.21C2225.29 2276.24 2227.56 2277.75 2227.56 2277.75" />
			<path id="path90" fill-rule="evenodd" class="shp1" d="M2195.67 2311.61L2191.13 2306.76C2205.91 2290.48 2215.33 2276.6 2218.71 2271.4L2220.71 2268.31L2223.59 2270.6C2227.17 2273.48 2229.35 2274.93 2229.41 2274.99L2232.55 2277.08L2230.07 2279.95C2229.55 2280.53 2217.11 2294.76 2195.67 2311.61ZM2222.29 2278.05C2221.92 2278.6 2221.53 2279.19 2221.09 2279.8C2221.64 2279.24 2222.13 2278.72 2222.57 2278.27L2222.29 2278.05Z" />
			<path id="path92" class="shp14" d="M2303.68 3620.27C2299.25 3692.69 2186.19 3730.03 2114.83 3730.45C2089.97 3730.61 2053.76 3730.67 2011.95 3723.52C1943.04 3711.73 1858.77 3680.32 1784.8 3597.44C1770.35 3581.28 1756.32 3563.2 1742.88 3542.88L1759.89 3280.96L1771.47 3103.2L1780 2971.89C1799.89 2990.24 1854.13 3104.75 1922.4 3222.45C1970.77 3305.97 2026.13 3391.15 2081.23 3444.8C2106.77 3469.71 2132.32 3487.84 2157.01 3495.84C2250.72 3526.13 2308.32 3543.89 2303.68 3620.27Z" />
			<path id="path94" class="shp15" d="M2303.68 3620.27C2299.25 3692.69 2186.19 3730.03 2114.83 3730.45C2089.97 3730.61 2053.76 3730.67 2011.95 3723.52C1971.92 3611.4 2023.39 3486.55 2081.23 3444.8C2106.77 3469.71 2132.32 3487.84 2157.01 3495.84C2250.72 3526.13 2308.32 3543.89 2303.68 3620.27Z" />
			<path id="path96" class="shp1" d="M2103.6 3753.91C2025.55 3753.91 1849.08 3745.56 1723.33 3555.81C1716.19 3545.04 1719.13 3530.49 1729.91 3523.35C1740.71 3516.2 1755.24 3519.15 1762.39 3529.93C1880.68 3708.43 2044.77 3707.47 2114.68 3707.01C2180.01 3706.63 2277.01 3672.08 2280.28 3618.81C2283.61 3564.2 2250.16 3550.55 2152.91 3519.11L2149.83 3518.12C2031.75 3479.93 1907.59 3248.43 1825.43 3095.23C1800.77 3049.28 1772.85 2997.21 1764.09 2989.11C1754.61 2980.32 1754.03 2965.49 1762.8 2956C1771.59 2946.51 1786.37 2945.91 1795.87 2954.68C1809.77 2967.51 1828.67 3002.16 1866.71 3073.08C1940.53 3210.75 2064.11 3441.16 2164.24 3473.55L2167.32 3474.53C2259.76 3504.41 2332.77 3528.03 2327.04 3621.68C2321.57 3711.03 2197.25 3753.39 2114.95 3753.87C2111.45 3753.88 2107.65 3753.91 2103.6 3753.91" />
			<path id="path98" class="shp18" d="M1753.81 1865.16C1864.84 1648.91 2044.8 1519.76 2079.64 1537.65C2114.49 1555.55 2114.43 1777.04 2003.4 1993.29L1753.81 1865.16Z" />
			<path id="path100" class="shp19" d="M2020.47 1903.95C2016.81 1903.04 2013.13 1902.4 2009.44 1901.99C2002.01 1886.11 1990.35 1865.81 1972.8 1845.85C2002.16 1843.91 2026.52 1839.03 2044.72 1834.13C2037.89 1856.76 2029.87 1880.11 2020.47 1903.95M1945.09 1813.07C1942.39 1813.07 1939.64 1813.04 1936.85 1812.99C1934.04 1810.92 1931.12 1808.91 1928.12 1806.93C1931.45 1807.23 1934.79 1807.36 1938.11 1807.36C1985.24 1807.36 2030.11 1778.33 2046.53 1730.32C2060.76 1688.72 2071.23 1648.44 2078.52 1611.07C2079.92 1654.65 2074.48 1719.91 2055.31 1795.88C2036.73 1802.31 1997.76 1813.07 1945.09 1813.07M1843.93 1773.23C1841 1772.65 1838.03 1772.12 1835 1771.63C1835.52 1770.89 1836.03 1770.16 1836.55 1769.44L1843.93 1773.23Z" />
			<path id="path102" class="shp20" d="M1906.17 1766.15C1901.85 1766.15 1899.16 1764.45 1898.91 1760.35C1895.52 1703.84 2004.25 1615.03 2029.59 1615.03C2029.84 1615.03 2030.09 1615.03 2030.32 1615.05C2046.55 1616.28 2034.17 1646.27 2018.69 1674.6C1998.56 1711.45 1967.61 1741.49 1929.44 1759C1920.17 1763.25 1911.8 1766.15 1906.17 1766.15" />
			<path id="path104" class="shp1" d="M2003.37 2014.64C2000.09 2014.64 1996.77 2013.88 1993.65 2012.28C1983.17 2006.89 1979.04 1994.04 1984.41 1983.56C2089.88 1778.16 2086.88 1586.24 2069.53 1557.35C2035.93 1560.09 1878.25 1669.51 1772.79 1874.91C1767.41 1885.39 1754.53 1889.52 1744.07 1884.13C1733.59 1878.76 1729.45 1865.89 1734.84 1855.41C1801.91 1724.79 1886.52 1637.92 1931 1597.76C1965.05 1567.03 2048.65 1497.76 2089.39 1518.68C2130.12 1539.59 2122.56 1647.89 2117.43 1693.48C2110.72 1753.01 2089.44 1872.41 2022.37 2003.04C2018.59 2010.4 2011.12 2014.64 2003.37 2014.64Z" />
			<path id="path106" class="shp1" d="M1945.77 1846.75C1900.24 1846.75 1845.44 1839.24 1784.59 1816.05C1775.99 1812.77 1771.67 1803.15 1774.95 1794.55C1778.23 1785.93 1787.85 1781.61 1796.45 1784.91C1951.76 1844.07 2066.28 1791.73 2067.41 1791.2C2075.73 1787.29 2085.67 1790.83 2089.6 1799.13C2093.53 1807.44 2090.01 1817.35 2081.72 1821.31C2078.43 1822.87 2026.88 1846.75 1945.77 1846.75" />
			<path id="path108" class="shp1" d="M1985.21 1714.68C1925.11 1714.68 1876.44 1698.67 1873.16 1697.56C1864.44 1694.63 1859.75 1685.17 1862.69 1676.45C1865.63 1667.73 1875.08 1663.07 1883.79 1665.97C1884.97 1666.36 2003.25 1705.05 2090.08 1657.45C2098.16 1653.04 2108.28 1655.99 2112.72 1664.07C2117.13 1672.13 2114.17 1682.27 2106.11 1686.69C2067.09 1708.08 2023.79 1714.68 1985.21 1714.68Z" />
			<path id="path110" class="shp16" d="M1682.59 3286.17C1520.4 3286.17 1357.79 3222.61 1284.11 3183.25C1167.99 3126.03 880.33 2929.12 879.85 2672.71C902.8 2750.83 950.31 2828.68 1020.8 2902.76C1106.89 2993.2 1210.89 3061.61 1279.67 3095.56C1347.33 3131.65 1463.55 3176.31 1587.2 3193.56C1621.65 3198.36 1654.89 3200.75 1686.81 3200.75C1713.96 3200.75 1740.13 3199.01 1765.25 3195.59C1765.29 3195.93 1765.33 3196.24 1765.39 3196.59L1759.89 3280.96C1734.39 3284.56 1708.48 3286.17 1682.59 3286.17" />
			<path id="path112" class="shp1" d="M1765.39 3196.59C1765.33 3196.24 1765.29 3195.93 1765.25 3195.59C1765.31 3195.57 1765.39 3195.56 1765.45 3195.55L1765.39 3196.59Z" />
			<path id="path114" class="shp16" d="M1759.89 3280.96L1759.89 3280.96L1765.39 3196.59L1765.45 3195.55C1801.27 3190.64 1834.91 3182.25 1866.12 3170.45C1877.68 3191.47 1889.75 3213.01 1902.25 3234.63C1868.59 3253.48 1832.51 3266.4 1795.25 3274.61C1783.57 3277.17 1771.79 3279.31 1759.89 3280.96L1759.89 3280.96Z" />
			<path id="path116" class="shp1" d="M1902.25 3234.63C1889.75 3213.01 1877.68 3191.47 1866.12 3170.45C1873.55 3167.65 1880.83 3164.65 1887.96 3161.47C1898.93 3181.36 1910.45 3201.87 1922.4 3222.45C1915.79 3226.76 1909.07 3230.81 1902.25 3234.63Z" />
			<path id="path118" class="shp14" d="M2051.49 2998.31C2048.39 3002.23 2045.27 3006.11 2042.07 3009.97C2036.15 3017.11 2030.05 3024.15 2023.71 3031.11C2004.01 3052.85 1982.2 3073.76 1958.16 3093.49C1750.89 3263.72 1406.99 3139.39 1289.41 3076.59C1169.87 3017.64 868.37 2810.61 885.93 2543C887.91 2512.85 892 2483.79 897.91 2455.88C899.03 2450.47 900.23 2445.08 901.49 2439.73C903.56 2431.05 905.8 2422.56 908.2 2414.15C1002.04 2084.35 1343.09 1922.36 1343.09 1922.36C1343.09 1922.36 1229.76 1738.48 1369.53 1650.88C1478.71 1582.45 1654.71 1720.32 1628.43 1893.57L2053.2 2111.65C2178.64 1989.31 2393.27 2052 2401.29 2180.6C2411.52 2345.23 2196.08 2360.29 2196.08 2360.29C2196.08 2360.29 2262.88 2730.07 2051.49 2998.31" />
			<path id="path120" fill-rule="evenodd" class="shp1" d="M1433.29 1636.33C1462.53 1636.33 1493.73 1646.24 1523.49 1665.76C1580.6 1703.24 1641.48 1785.27 1625.13 1893.08L1624.77 1895.45L2051.67 2114.63L2053.81 2115.72L2055.52 2114.04C2133.57 2037.93 2235.69 2039.59 2299.44 2064.15C2357.97 2086.71 2394.81 2130.32 2397.97 2180.8C2407.87 2340.2 2197.97 2356.83 2195.85 2356.97L2192.15 2357.24L2192.8 2360.89C2193.47 2364.57 2256.87 2732.31 2048.88 2996.24C2045.79 3000.15 2042.69 3004 2039.49 3007.85C2033.27 3015.35 2027.31 3022.21 2021.23 3028.87C2001.27 3050.92 1979.33 3071.8 1956.04 3090.92C1751.51 3258.91 1406.63 3135.4 1290.88 3073.6C1173.29 3015.63 871.92 2807.31 889.27 2543.21C891.16 2514.13 895.16 2484.97 901.16 2456.56C902.28 2451.17 903.48 2445.81 904.73 2440.51C906.75 2432.07 908.92 2423.75 911.4 2415.05C1003.73 2090.55 1341.13 1926.99 1344.53 1925.37L1347.88 1923.77L1345.93 1920.61C1344.83 1918.8 1235.96 1738.53 1371.31 1653.71C1389.84 1642.08 1411 1636.33 1433.29 1636.33ZM1689.25 3182.99C1798.99 3182.99 1889.87 3153.89 1960.27 3096.07C1983.81 3076.75 2005.99 3055.64 2026.16 3033.35C2032.29 3026.63 2038.33 3019.68 2044.63 3012.11C2047.85 3008.21 2050.99 3004.32 2054.11 3000.37L2054.11 3000.36C2252.95 2748.07 2206.01 2402.17 2199.95 2363.28C2228.45 2360.24 2414.19 2334.45 2404.63 2180.39C2401.31 2127.23 2362.88 2081.45 2301.84 2057.93C2236.72 2032.85 2132.68 2030.96 2052.6 2107.6L1632.07 1891.71C1647.65 1781.93 1585.48 1698.48 1527.15 1660.19C1472.48 1624.31 1412.89 1619.76 1367.76 1648.05C1236.95 1730.04 1324.27 1896.03 1338.43 1920.96C1303.19 1938.75 993.27 2102.97 905 2413.23C902.48 2422.01 900.28 2430.43 898.25 2438.97C896.99 2444.35 895.77 2449.76 894.64 2455.19C888.57 2483.91 884.53 2513.37 882.61 2542.79C874.92 2659.91 925.8 2776.84 1033.84 2890.35C1118.41 2979.19 1220.55 3046.35 1287.84 3079.53C1354.11 3114.92 1468.21 3158.79 1589.69 3175.72C1624.43 3180.57 1657.63 3182.99 1689.25 3182.99Z" />
			<path id="path122" class="shp21" d="M2216.65 2127.09C2169.88 2130.48 2134.27 2165.15 2137.12 2204.51C2139.97 2243.88 2180.2 2273.04 2226.99 2269.65C2273.76 2266.27 2309.37 2231.6 2306.52 2192.24C2303.67 2152.87 2263.43 2123.71 2216.65 2127.09Z" />
			<path id="path124" class="shp21" d="M1518.89 1768.85C1543.4 1808.84 1535.99 1857.97 1502.33 1878.6C1468.68 1899.23 1421.53 1883.53 1397.03 1843.55C1372.52 1803.55 1379.93 1754.41 1413.59 1733.79C1447.24 1713.16 1494.39 1728.87 1518.89 1768.85" />
			<path id="path126" class="shp22" d="M2023.71 3031.11C2004.01 3052.85 1982.2 3073.76 1958.16 3093.49C1750.89 3263.72 1406.99 3139.39 1289.41 3076.59C1169.87 3017.64 868.37 2810.61 885.93 2543C887.91 2512.85 892 2483.79 897.91 2455.88C1070.63 2447.64 1299.01 2503.01 1526.71 2619.91C1752.2 2735.68 1929.08 2887.21 2023.71 3031.11Z" />
			<path id="path128" class="shp1" d="M1686.81 3200.75C1654.89 3200.75 1621.65 3198.36 1587.2 3193.56C1463.55 3176.31 1347.33 3131.65 1279.67 3095.56C1210.89 3061.61 1106.89 2993.2 1020.8 2902.76C910.75 2787.12 856.75 2662.24 864.65 2541.61C876.2 2365.79 961.12 2199.55 1110.24 2060.88C1194.89 1982.17 1276.79 1933.52 1313.69 1913.53C1274.77 1837.71 1244.31 1704.2 1358.2 1632.81C1409.45 1600.67 1476.31 1605.29 1537.03 1645.13C1600.24 1686.61 1667.63 1777.41 1649.52 1896.77C1647.75 1908.43 1636.87 1916.41 1625.21 1914.65C1613.57 1912.89 1605.56 1902.01 1607.33 1890.36C1621.45 1797.35 1570.44 1718.09 1513.61 1680.8C1467.21 1650.36 1417.59 1645.93 1380.85 1668.96C1260.43 1744.45 1357.08 1904.39 1361.25 1911.16L1373.73 1931.4L1352.27 1941.61C1348.08 1943.61 933.4 2145.61 907.24 2544.4C890.55 2798.71 1184.27 3000.97 1298.84 3057.44L1299.47 3057.76C1412.15 3117.96 1747.68 3238.77 1944.6 3077C2253.41 2823.32 2175.91 2368.63 2175.08 2364.07L2170.88 2340.68L2194.6 2339.01C2202.49 2338.44 2388.79 2323.32 2379.99 2181.93C2377.29 2138.65 2344.77 2100.91 2292.99 2080.95C2229.59 2056.51 2135.44 2061.24 2068.08 2126.92C2059.65 2135.15 2046.15 2134.99 2037.92 2126.55C2029.69 2118.11 2029.87 2104.6 2038.29 2096.37C2124.72 2012.09 2237.79 2013.95 2308.33 2041.13C2376.11 2067.25 2418.81 2118.91 2422.57 2179.28C2430.92 2313.43 2304.68 2366.48 2220.39 2379.04C2225.64 2420.68 2233.85 2515.59 2219.21 2630.24C2193.43 2832.24 2107.84 2998.13 1971.68 3109.97C1898.63 3169.99 1801.36 3200.75 1686.81 3200.75" />
			<path id="path130" class="shp1" d="M1537.56 2740.85C1523.29 2747.71 1514.81 2759.69 1518.63 2767.64C1522.44 2775.59 1537.11 2776.47 1551.37 2769.63C1565.64 2762.77 1574.12 2750.77 1570.31 2742.83C1566.49 2734.88 1551.83 2734 1537.56 2740.85" />
			<path id="path132" class="shp1" d="M1452.53 2697.19C1455.28 2712.79 1450.47 2726.67 1441.79 2728.2C1433.11 2729.72 1423.85 2718.33 1421.09 2702.73C1418.35 2687.15 1423.16 2673.27 1431.84 2671.73C1440.52 2670.2 1449.77 2681.6 1452.53 2697.19Z" />
			<path id="path134" class="shp23" d="M1984.08 2892.04C1965.6 2928.01 1906.44 2934.49 1851.92 2906.51C1797.4 2878.51 1768.17 2826.65 1786.65 2790.67C1805.12 2754.69 1864.29 2748.21 1918.81 2776.2C1973.33 2804.19 2002.56 2856.05 1984.08 2892.04Z" />
			<path id="path136" class="shp23" d="M1236.16 2506.19C1217.28 2542.99 1156.77 2549.61 1101.03 2520.99C1045.29 2492.37 1015.41 2439.35 1034.31 2402.56C1053.19 2365.76 1113.69 2359.13 1169.44 2387.76C1225.17 2416.37 1255.05 2469.4 1236.16 2506.19Z" />
			<path id="path138" class="shp1" d="M1343.11 1943.71C1335.03 1943.71 1327.31 1939.11 1323.71 1931.29C1318.79 1920.59 1323.47 1907.92 1334.17 1902.99C1336.47 1901.93 1390.75 1877.01 1427.24 1866.23C1438.55 1862.89 1450.41 1869.35 1453.75 1880.64C1457.08 1891.93 1450.64 1903.8 1439.33 1907.15C1405.76 1917.07 1352.55 1941.51 1352.01 1941.75C1349.12 1943.08 1346.08 1943.71 1343.11 1943.71Z" />
			<path id="path140" class="shp0" d="M1744.76 1798.99C1655.24 1743.67 1538.4 1763.43 1474.2 1846.81C1448.21 1880.57 1428.75 1924.72 1430 1980.77C1433.05 2116.53 1563.08 2185.97 1715.44 2224.73C1715.44 2224.73 1700.49 1904.75 1790.17 1833.17C1790.17 1833.17 1773.41 1816.69 1744.76 1798.99Z" />
			<path id="path142" class="shp24" d="M1676.07 1825.27C1646.8 1810.8 1615.31 1803.73 1584.12 1803.73C1576.12 1803.73 1568.13 1804.2 1560.21 1805.12C1583.8 1794.51 1609.43 1789.04 1635.35 1789.04C1657.03 1789.04 1678.92 1792.87 1699.97 1800.69C1691.16 1807.85 1683.12 1816.08 1676.07 1825.27" />
			<path id="path144" class="shp13" d="M1630.01 2175.67C1511.91 2130.12 1453.24 2065.75 1451.33 1980.29C1450.33 1935.95 1463.72 1895.41 1491.11 1859.83C1495.97 1853.51 1501.19 1847.59 1506.69 1842.08C1499.29 1863.68 1495.11 1887.87 1495.69 1914.83C1497.39 1990.07 1538.07 2044.93 1599.95 2085.52C1601.4 2096.07 1603.45 2106.77 1606.19 2117.63C1611.6 2139.08 1619.76 2158.35 1630.01 2175.67" />
			<path id="path146" fill-rule="evenodd" class="shp1" d="M1738.09 2252.51L1710.19 2245.41C1512.92 2195.23 1411.48 2106.35 1408.68 1981.25C1407.45 1926.91 1423.81 1877.31 1457.29 1833.81C1527.93 1742.03 1656.35 1719.27 1755.99 1780.84L1755.99 1780.85C1786.31 1799.59 1804.37 1817.21 1805.13 1817.96L1822.29 1834.84L1803.48 1849.85C1736.95 1902.95 1732.76 2137.75 1736.76 2223.75C1736.76 2223.75 1738.09 2252.51 1738.09 2252.51ZM1635.35 1789.04C1580.36 1789.04 1526.67 1813.63 1491.11 1859.83C1463.72 1895.41 1450.33 1935.95 1451.33 1980.29C1453.56 2079.83 1532.76 2150.76 1693.23 2196.64C1691.68 2118.07 1694.48 1916.95 1759.03 1834.75C1752.33 1829.6 1743.75 1823.44 1733.55 1817.15C1702.88 1798.19 1668.87 1789.04 1635.35 1789.04Z" />
			<path id="path148" class="shp2" d="M1797.44 1789.37C1755.69 1787.83 1715.79 1806.96 1691.16 1840.71C1650.45 1896.48 1597.6 1996.29 1626.87 2112.4C1672.09 2291.8 1937.68 2306.64 1937.68 2306.64C1937.68 2306.64 1954.59 1997.37 2000.05 1937.08C2000.05 1937.08 1966.51 1795.65 1797.44 1789.37Z" />
			<path id="path150" fill-rule="evenodd" class="shp3" d="M1937.68 2309.99L1937.49 2309.99C1934.81 2309.84 1668.91 2292.95 1623.61 2113.23C1593.35 1993.15 1651.24 1889.69 1688.45 1838.73C1713.71 1804.12 1754.4 1784.39 1797.56 1786.01C1967.23 1792.32 2002.99 1934.87 2003.32 1936.31C2003.56 1937.28 2003.33 1938.31 2002.73 1939.11C1958.4 1997.91 1941.2 2303.73 1941.04 2306.81C1940.99 2307.71 1940.59 2308.55 1939.92 2309.13C1939.31 2309.69 1938.51 2309.99 1937.68 2309.99ZM1792.69 1792.64C1753.59 1792.64 1716.91 1811.12 1693.88 1842.68C1649.28 1903.79 1602.01 2000.04 1630.13 2111.59C1671.51 2275.73 1903.76 2300.47 1934.52 2303.03C1936.59 2267.56 1953.63 1996.88 1996.4 1936.4C1992.17 1921.52 1952.57 1798.49 1797.31 1792.72C1795.76 1792.67 1794.23 1792.64 1792.69 1792.64Z" />
			<path id="path152" class="shp25" d="M1943.93 1922.48C1918.69 1880.75 1865.97 1825.95 1762.17 1822.08C1760.64 1822.03 1759.12 1822 1757.59 1822C1752.91 1822 1748.25 1822.25 1743.65 1822.76C1758.53 1814.88 1775.33 1810.61 1792.69 1810.61C1794.01 1810.61 1795.33 1810.64 1796.64 1810.69C1898.23 1814.47 1945.41 1871 1965.68 1908.69C1957.88 1912.11 1950.53 1916.73 1943.93 1922.48" />
			<path id="path154" class="shp4" d="M1904.12 2281.19C1833.87 2270.24 1679.04 2232.13 1647.56 2107.19C1621.15 2002.4 1666.05 1911.28 1708.4 1853.28C1709.53 1851.72 1710.72 1850.19 1711.95 1848.71C1686.05 1903.6 1668.65 1974.27 1688.32 2052.28C1711.87 2145.75 1795.27 2194.55 1869.76 2219.84C1878.33 2243.59 1890.37 2263.89 1904.12 2281.19" />
			<path id="path156" fill-rule="evenodd" class="shp1" d="M1957.81 2329.12L1936.49 2327.93C1925 2327.29 1654.68 2310.01 1606.19 2117.63C1574.12 1990.41 1634.87 1881.64 1673.93 1828.13C1702.72 1788.69 1749.04 1766.21 1798.23 1768.05C1981.4 1774.87 2020.44 1930.59 2020.81 1932.16L2023.13 1941.92L2017.09 1949.92C1986.84 1990.05 1965.39 2190.73 1958.99 2307.8C1958.99 2307.8 1957.81 2329.12 1957.81 2329.12ZM1792.69 1810.61C1759.32 1810.61 1728.04 1826.37 1708.4 1853.28C1666.05 1911.28 1621.15 2002.4 1647.56 2107.19C1681.28 2241 1856.48 2275.21 1917.73 2283.13C1922.49 2210.56 1939.11 2002.55 1976.84 1933.93C1967.16 1905.89 1926.03 1815.49 1796.64 1810.69C1795.33 1810.64 1794.01 1810.61 1792.69 1810.61Z" />
			<path id="path158" class="shp5" d="M2040.95 1915.73C2006.43 1895.96 1962.73 1903.72 1937.15 1934.17C1906.81 1970.27 1870.15 2028.67 1861.43 2106.77C1848.4 2223.43 1907.32 2293.09 1963.6 2330.96C2100.96 2423.4 2227.57 2277.76 2227.57 2277.76C2227.57 2277.76 2137.83 2218.44 2153.75 2096.96C2158.67 2059.48 2148.59 2021.53 2125.56 1991.56C2105.67 1965.67 2077.68 1936.79 2040.95 1915.73" />
			<path id="path160" fill-rule="evenodd" class="shp3" d="M2000.09 1908.19C2013.47 1908.19 2026.97 1911.6 2039.28 1918.64C2070.13 1936.32 2098.27 1961.55 2122.89 1993.6C2145.48 2023.01 2155.27 2059.57 2150.43 2096.53C2136.13 2205.51 2206.56 2266.04 2222.55 2278.25C2204.27 2297.55 2088.45 2410.92 1965.48 2328.17C1912.27 2292.37 1851.61 2224.96 1864.77 2107.15C1873.47 2029.35 1910.32 1971.32 1939.72 1936.33C1955.16 1917.96 1977.44 1908.19 2000.09 1908.19ZM2058.81 2364.83C2154.88 2364.83 2229.13 2281.09 2230.11 2279.97C2230.75 2279.24 2231.03 2278.27 2230.89 2277.32C2230.77 2276.36 2230.23 2275.49 2229.43 2274.96C2228.55 2274.39 2141.63 2215.28 2157.09 2097.4C2162.16 2058.67 2151.91 2020.35 2128.23 1989.51C2103.05 1956.75 2074.25 1930.95 2042.61 1912.81C2006.67 1892.23 1961.23 1900.29 1934.57 1932.01C1904.59 1967.71 1866.97 2026.93 1858.09 2106.4C1844.56 2227.56 1906.97 2296.91 1961.72 2333.75C1995.2 2356.28 2028.11 2364.83 2058.81 2364.83Z" />
			<path id="path162" class="shp26" d="M2200.24 2257.59C2170.8 2236.8 2122.68 2190.15 2119.05 2105.61C2117.41 2067.83 2100.99 2032.19 2073.13 2006.63C2049.09 1984.55 2016.56 1960.89 1976.72 1946.48C1967.53 1943.17 1958.11 1941.57 1948.79 1941.57C1946.33 1941.57 1943.88 1941.69 1941.45 1941.91C1943.91 1936.75 1946.45 1931.76 1949.05 1926.93C1963.51 1914.64 1981.68 1908.19 2000.09 1908.19C2013.47 1908.19 2026.97 1911.6 2039.28 1918.64C2070.13 1936.32 2098.27 1961.55 2122.89 1993.6C2145.48 2023.01 2155.27 2059.57 2150.43 2096.53C2140.03 2175.88 2174.53 2229.56 2200.24 2257.59" />
			<path id="path164" class="shp27" d="M2212.8 2265.69C2209.28 2263.64 2205 2260.95 2200.24 2257.59C2174.53 2229.56 2140.03 2175.88 2150.43 2096.53C2155.27 2059.57 2145.48 2023.01 2122.89 1993.6C2098.27 1961.55 2070.13 1936.32 2039.28 1918.64C2026.97 1911.6 2013.47 1908.19 2000.09 1908.19C1981.68 1908.19 1963.51 1914.64 1949.05 1926.93C1950.41 1924.43 1951.79 1921.96 1953.17 1919.53C1947.31 1923.61 1941.92 1928.49 1937.15 1934.17C1937.03 1934.31 1936.91 1934.45 1936.79 1934.6C1936.91 1934.45 1937.03 1934.31 1937.15 1934.16C1953.23 1915.03 1976.48 1904.84 2000.09 1904.84C2014.05 1904.84 2028.13 1908.4 2040.96 1915.75C2077.67 1936.77 2105.68 1965.67 2125.55 1991.56C2148.57 2021.55 2158.67 2059.45 2153.75 2096.96C2141.96 2186.87 2188.05 2242.69 2212.8 2265.69" />
			<path id="path166" class="shp7" d="M2058.89 2358.04C2029.32 2358.04 1997.64 2349.81 1965.48 2328.17C1912.27 2292.37 1851.61 2224.96 1864.77 2107.15C1872.95 2034 1906.01 1978.33 1934.37 1942.85C1936.71 1942.44 1939.08 1942.12 1941.45 1941.91C1927.93 1970.28 1917.11 2003.59 1912.87 2041.56C1899.83 2158.21 1958.75 2227.89 2015.03 2265.73C2048.13 2288.01 2080.6 2296.47 2110.81 2296.47C2148.41 2296.47 2182.52 2283.37 2210.03 2267.53C2215.36 2272.56 2219.77 2276.13 2222.55 2278.25C2209.05 2292.51 2142.37 2358.05 2058.89 2358.04" />
			<path id="path168" class="shp28" d="M2059.39 2361.68C2029.16 2361.68 1996.69 2353.23 1963.6 2330.95C1907.32 2293.09 1848.4 2223.43 1861.43 2106.77C1870.12 2028.99 1906.53 1970.75 1936.79 1934.6C1934.31 1937.57 1931.8 1940.68 1929.27 1943.93C1930.95 1943.52 1932.65 1943.16 1934.37 1942.85C1906.01 1978.33 1872.95 2034 1864.77 2107.15C1851.61 2224.96 1912.27 2292.37 1965.48 2328.17C1997.64 2349.81 2029.32 2358.04 2058.89 2358.04C2142.37 2358.05 2209.05 2292.51 2222.55 2278.25C2219.77 2276.13 2215.36 2272.56 2210.03 2267.53C2211.01 2266.96 2211.99 2266.4 2212.95 2265.83C2221.55 2273.8 2227.56 2277.76 2227.56 2277.76C2227.56 2277.76 2154.61 2361.68 2059.39 2361.68" />
			<path id="path170" class="shp29" d="M1934.37 1942.85C1936.17 1940.6 1937.96 1938.43 1939.72 1936.33C1942.61 1932.89 1945.73 1929.76 1949.05 1926.93C1946.45 1931.76 1943.91 1936.75 1941.45 1941.91C1939.08 1942.12 1936.71 1942.44 1934.37 1942.85" />
			<path id="path172" class="shp30" d="M1929.27 1943.93C1931.8 1940.68 1934.31 1937.57 1936.79 1934.6C1936.91 1934.45 1937.03 1934.31 1937.15 1934.17C1941.92 1928.49 1947.31 1923.61 1953.17 1919.53C1951.79 1921.96 1950.41 1924.43 1949.05 1926.93C1945.73 1929.76 1942.61 1932.89 1939.72 1936.33C1937.96 1938.43 1936.17 1940.6 1934.37 1942.85C1932.65 1943.16 1930.95 1943.52 1929.27 1943.93" />
			<path id="path174" fill-rule="evenodd" class="shp1" d="M2059.12 2382.73C2024.52 2382.73 1988.03 2373.12 1951.69 2348.67C1903.49 2316.23 1824.93 2241.37 1840.23 2104.4C1849.6 2020.47 1889.23 1958.04 1920.81 1920.44C1953.05 1882.07 2008.04 1872.28 2051.55 1897.23C2085.25 1916.53 2115.84 1943.89 2142.47 1978.56C2169.09 2013.21 2180.6 2056.24 2174.91 2099.73C2160.88 2206.76 2238.55 2259.45 2239.33 2259.97L2259.64 2273.39L2243.67 2291.76C2210.03 2330.45 2139.76 2382.73 2059.12 2382.73ZM1953.48 1947.89C1925.68 1980.97 1890.83 2035.81 1882.64 2109.13C1870.48 2218.01 1926.43 2280.24 1975.51 2313.27C2070.83 2377.39 2160.83 2311.6 2196.04 2279.27C2167.55 2252.13 2119.91 2191.08 2132.6 2094.19C2136.83 2062 2128.31 2030.16 2108.64 2004.55C2085.47 1974.39 2059.12 1950.73 2030.33 1934.24C2020.84 1928.8 2010.41 1926.17 2000.08 1926.17C1982.6 1926.17 1965.4 1933.71 1953.48 1947.89Z" />
			<path id="path176" class="shp1" d="M1708.73 2927.56C1708.37 2928.91 1707.97 2930.23 1707.48 2931.49C1696.16 2963.59 1655.21 2980.47 1613.68 2969.35C1601.04 2965.96 1589.75 2960.36 1580.35 2953.23C1557.53 2936.09 1545.68 2910.15 1552.24 2885.65C1561.49 2851.07 1594.28 2868.92 1637.48 2880.49C1680.68 2892.05 1718 2892.97 1708.73 2927.56Z" />
			<path id="path178" class="shp31" d="M1707.48 2931.49C1696.16 2963.59 1655.21 2980.47 1613.68 2969.35C1601.04 2965.96 1589.75 2960.36 1580.35 2953.23C1591.67 2921.12 1632.56 2904.24 1674.13 2915.37C1686.77 2918.75 1698.08 2924.36 1707.48 2931.49Z" />
			<path id="path180" fill-rule="evenodd" class="shp1" d="M1639.11 2988.72C1629.45 2988.72 1619.51 2987.45 1609.55 2984.79C1557.89 2970.95 1525.24 2924.64 1536.79 2881.55C1540.23 2868.71 1546.75 2859.56 1556.17 2854.32C1573.8 2844.56 1595.53 2851.21 1620.72 2858.91C1627.33 2860.93 1634.32 2863.07 1641.61 2865.03C1648.91 2866.97 1656.03 2868.61 1662.76 2870.17C1688.43 2876.08 1710.59 2881.19 1720.97 2898.45C1726.52 2907.69 1727.6 2918.88 1724.16 2931.71L1724.16 2931.72C1714.84 2966.51 1679.55 2988.72 1639.11 2988.72ZM1571.69 2882.32C1569.67 2883.44 1568.31 2887.49 1567.69 2889.83C1560.72 2915.87 1583.21 2944.6 1617.83 2953.87C1652.4 2963.15 1686.27 2949.49 1693.25 2923.44C1693.87 2921.12 1694.73 2916.93 1693.55 2914.95C1690.16 2909.32 1670.99 2904.91 1655.59 2901.35C1648.49 2899.72 1641.01 2897.99 1633.33 2895.93C1625.67 2893.88 1618.32 2891.64 1611.36 2889.51C1599.28 2885.81 1584.83 2881.4 1576.59 2881.4C1574.52 2881.4 1572.84 2881.68 1571.69 2882.32ZM1708.71 2927.57L1708.77 2927.57L1708.71 2927.57Z" />
			<path id="path182" class="shp1" d="M1343.63 2198.59L1356.35 2231.43C1359.48 2239.53 1355.47 2248.64 1347.36 2251.77C1339.27 2254.92 1330.16 2250.89 1327.01 2242.8C1326.23 2240.73 1325.89 2238.53 1325.97 2236.47L1327.41 2201.27C1327.6 2196.64 1331.52 2193.04 1336.15 2193.23C1339.57 2193.37 1342.45 2195.57 1343.63 2198.59Z" />
			<path id="path184" class="shp1" d="M1294.13 2213.21L1313.6 2243.23C1318.31 2250.49 1316.24 2260.19 1308.99 2264.88C1301.73 2269.59 1292.04 2267.52 1287.33 2260.27C1286.28 2258.64 1285.56 2256.83 1285.16 2255.04L1277.64 2220.05C1276.6 2215.16 1279.71 2210.33 1284.61 2209.28C1288.4 2208.47 1292.15 2210.16 1294.13 2213.21Z" />
			<path id="path186" class="shp1" d="M1243.51 2249.24L1269.52 2266.75C1276.75 2271.61 1278.67 2281.43 1273.8 2288.65C1268.93 2295.89 1259.12 2297.8 1251.89 2292.93C1249.91 2291.6 1248.28 2289.81 1247.12 2287.89L1231.15 2260.91C1228.69 2256.76 1230.07 2251.43 1234.2 2248.97C1237.19 2247.2 1240.8 2247.43 1243.51 2249.24" />
			<path id="path188" class="shp1" d="M1462.16 2411.87C1467.57 2382.15 1463.63 2353.35 1451 2329.27C1438.52 2305.19 1418.03 2286.4 1393.4 2276.43C1381.05 2271.49 1367.89 2268.79 1354.53 2268.47C1351.2 2268.45 1347.85 2268.71 1344.49 2268.77L1334.48 2270.04L1324.52 2272.08L1314.75 2275.11C1288.87 2284.35 1266.17 2303.43 1251.04 2329.39L1251 2329.43C1249.27 2332.4 1245.47 2333.4 1242.49 2331.67C1240.08 2330.27 1238.97 2327.48 1239.56 2324.91C1247.03 2292.41 1270.92 2262.95 1302.55 2247.25C1333.99 2231.13 1373.09 2229.28 1406.75 2242.23C1440.57 2254.87 1468.61 2282.65 1481.08 2316.08C1493.8 2349.29 1491.2 2387.76 1473.63 2416.35C1471.81 2419.28 1467.96 2420.2 1465.01 2418.39C1462.76 2417 1461.69 2414.41 1462.13 2411.96L1462.16 2411.87" />
			<path id="path190" class="shp1" d="M2015.68 2563.96L1986.33 2583.44C1979.09 2588.24 1969.33 2586.27 1964.53 2579.03C1959.72 2571.79 1961.71 2562.03 1968.95 2557.23C1970.77 2556 1972.85 2555.21 1974.89 2554.84L2009.59 2548.72C2014.15 2547.91 2018.49 2550.95 2019.31 2555.52C2019.91 2558.91 2018.37 2562.17 2015.68 2563.96" />
			<path id="path192" class="shp1" d="M2025.39 2616.27L1991.57 2627.96C1983.41 2630.79 1974.49 2626.45 1971.67 2618.28C1968.84 2610.11 1973.17 2601.2 1981.35 2598.37C1983.19 2597.73 1985.11 2597.47 1986.95 2597.52L2022.71 2598.63C2027.72 2598.77 2031.65 2602.96 2031.49 2607.97C2031.37 2611.84 2028.84 2615.07 2025.39 2616.27" />
			<path id="path194" class="shp1" d="M2014.55 2677.2L1983.19 2677.52C1974.47 2677.6 1967.33 2670.6 1967.24 2661.89C1967.16 2653.17 1974.16 2646.04 1982.87 2645.95C1985.27 2645.92 1987.61 2646.47 1989.67 2647.41L2018.12 2660.6C2022.48 2662.61 2024.39 2667.79 2022.36 2672.16C2020.91 2675.31 2017.8 2677.16 2014.55 2677.2" />
			<path id="path196" class="shp1" d="M1755.97 2550.32C1771.32 2520.47 1802.87 2498.33 1837.88 2492C1872.92 2485.35 1911.23 2494.95 1939.55 2517.32C1968.05 2539.4 1986.73 2573.83 1989.23 2609.07C1992.19 2644.24 1979.36 2679.93 1955.44 2703.16C1952.97 2705.55 1949.04 2705.49 1946.64 2703.03C1944.69 2701.03 1944.37 2698.05 1945.64 2695.72L1945.67 2695.67C1960.03 2669.27 1964.59 2639.97 1959.09 2613.05L1956.61 2603.13L1953.2 2593.56L1949.11 2584.33C1947.41 2581.41 1945.89 2578.44 1944.16 2575.59C1936.96 2564.32 1927.83 2554.47 1917.21 2546.47C1895.92 2530.56 1869.24 2522.77 1842.19 2524.56C1815.04 2526.24 1788.36 2537.79 1765.75 2557.81L1765.69 2557.87C1763.11 2560.16 1759.15 2559.92 1756.85 2557.33C1755.11 2555.35 1754.84 2552.55 1755.97 2550.32" />
			<path id="path198" class="shp1" d="M728.65 3121.39C715.72 3121.39 705.23 3110.91 705.23 3097.97L705.23 1632.97C705.23 1620.04 715.72 1609.56 728.65 1609.56C741.6 1609.56 752.08 1620.04 752.08 1632.97L752.08 3097.97C752.08 3110.91 741.6 3121.39 728.65 3121.39Z" />
			<path id="path200" class="shp32" d="M689.81 1532.01L644.29 1608.04C626 1638.59 647.64 1677.48 683.24 1678.04L771.84 1679.45C807.44 1680.01 830.31 1641.83 812.99 1610.72L769.91 1533.28C752.6 1502.17 708.09 1501.47 689.81 1532.01Z" />
			<path id="path202" fill-rule="evenodd" class="shp33" d="M772.6 1682.79C772.33 1682.79 772.05 1682.79 771.79 1682.79L683.19 1681.37C665.27 1681.09 649.36 1671.57 640.64 1655.91C631.93 1640.24 632.23 1621.71 641.44 1606.32L686.95 1530.31C696.15 1514.92 712.47 1506.01 730.28 1506.2C748.2 1506.48 764.11 1516 772.83 1531.67L815.89 1609.09C824.61 1624.76 824.32 1643.29 815.12 1658.68C806.05 1673.83 790.2 1682.79 772.6 1682.79ZM729.45 1512.85C714.23 1512.85 700.52 1520.61 692.67 1533.73L647.16 1609.75C639.19 1623.07 638.92 1639.11 646.47 1652.67C654.01 1666.23 667.77 1674.47 683.29 1674.71L771.89 1676.12C787.52 1676.32 801.43 1668.56 809.39 1655.25C817.36 1641.93 817.61 1625.89 810.08 1612.33L767 1534.91C759.45 1521.35 745.69 1513.11 730.17 1512.87C729.93 1512.85 729.69 1512.85 729.45 1512.85Z" />
			<path id="path204" class="shp34" d="M764.91 1658L683.57 1656.71C670.6 1656.51 664.31 1647.69 662.2 1643.91C660.09 1640.13 655.92 1630.13 662.6 1618.99L703.72 1550.31C711.76 1550.64 719.87 1550.8 727.99 1550.8C729.65 1550.8 731.32 1550.8 732.97 1550.79L766.32 1610.72C775.21 1626.69 773.49 1644.52 764.91 1658Z" />
			<path id="path206" fill-rule="evenodd" class="shp1" d="M772.61 1700.79C772.24 1700.79 771.88 1700.79 771.49 1700.79L682.91 1699.37C658.48 1698.99 636.8 1686.01 624.92 1664.65C613.04 1643.31 613.44 1618.04 626 1597.08L671.51 1521.05C684.05 1500.09 705.87 1487.72 730.56 1488.2C755 1488.59 776.68 1501.56 788.56 1522.92L831.63 1600.35C843.51 1621.69 843.11 1646.96 830.56 1667.92C818.2 1688.56 796.6 1700.79 772.61 1700.79ZM729.51 1530.85C724.96 1530.85 714.6 1532.15 708.12 1542.97L708.11 1542.97L662.6 1618.99C655.92 1630.13 660.09 1640.13 662.2 1643.91C664.31 1647.69 670.6 1656.51 683.57 1656.71L772.17 1658.12C784.85 1658.44 791.73 1649.72 793.95 1646C796.17 1642.29 800.65 1632.44 794.35 1621.08L751.27 1543.65C744.96 1532.31 734.21 1530.93 729.89 1530.85C729.76 1530.85 729.64 1530.85 729.51 1530.85ZM689.81 1532.01L689.88 1532.01L689.81 1532.01Z" />
			<path id="path208" class="shp32" d="M1365.32 805.8C1365.32 1205.47 1079.97 1529.47 727.99 1529.47C375.99 1529.47 90.64 1205.47 90.64 805.8C90.64 406.12 375.99 82.12 727.99 82.12C1079.97 82.12 1365.32 406.12 1365.32 805.8Z" />
			<path id="path210" fill-rule="evenodd" class="shp33" d="M727.99 1532.8C374.72 1532.8 87.31 1206.67 87.31 805.8C87.31 404.92 374.72 78.8 727.99 78.8C1081.25 78.8 1368.65 404.92 1368.65 805.8C1368.65 1206.67 1081.25 1532.8 727.99 1532.8ZM727.99 85.47C378.39 85.47 93.97 408.6 93.97 805.8C93.97 1202.99 378.39 1526.13 727.99 1526.13C1077.57 1526.13 1361.99 1202.99 1361.99 805.8C1361.99 408.6 1077.57 85.47 727.99 85.47Z" />
			<path id="path212" class="shp35" d="M156.39 1064C155.75 1063.4 155.11 1062.8 154.47 1062.2C127.04 982.73 111.97 896.23 111.97 805.8C111.97 418.53 388.32 103.47 727.99 103.47C860.67 103.47 983.68 151.53 1084.33 233.2C991.27 172.79 883.44 138.24 768.53 138.24C416.53 138.24 131.2 462.24 131.2 861.92C131.2 932.05 139.99 999.87 156.39 1064Z" />
			<path id="path214" class="shp36" d="M688 1489.49C619.79 1489.49 554.09 1477.32 492.49 1454.79C342.92 1383.97 222.91 1247.8 160.01 1077.72C158.77 1073.16 157.56 1068.6 156.39 1064C158.48 1065.99 160.59 1067.95 162.71 1069.89C277.12 1194.16 432.25 1270.51 603.09 1270.51C955.09 1270.51 1240.43 946.51 1240.43 546.83C1240.43 493.89 1235.37 442.32 1225.85 392.63C1243.6 420.35 1259.61 449.61 1273.71 480.19C1306.92 567.81 1325.33 664.36 1325.33 765.81C1325.33 1165.49 1040 1489.49 688 1489.49" />
			<path id="path216" class="shp37" d="M160.01 1077.72C158.12 1072.57 156.27 1067.41 154.47 1062.2C155.11 1062.8 155.75 1063.4 156.39 1064C157.56 1068.6 158.77 1073.16 160.01 1077.72Z" />
			<path id="path218" fill-rule="evenodd" class="shp1" d="M727.99 1550.8C364.79 1550.8 69.31 1216.6 69.31 805.8C69.31 395 364.79 60.79 727.99 60.79C1091.17 60.79 1386.65 395 1386.65 805.8C1386.65 1216.6 1091.17 1550.8 727.99 1550.8ZM727.99 103.47C388.32 103.47 111.97 418.53 111.97 805.8C111.97 1193.07 388.32 1508.13 727.99 1508.13C1067.65 1508.13 1343.99 1193.07 1343.99 805.8C1343.99 418.53 1067.65 103.47 727.99 103.47Z" />
			<path id="path220" class="shp38" d="M427.52 832.47C394.84 832.47 358.44 809.79 321.2 753.28C278.19 688.04 266.95 522.89 406.73 398.89C457.05 354.25 505.84 337.87 544.61 337.87C594.91 337.87 628.35 365.44 626.4 394.61C622.96 446.27 576.97 476.68 556.17 645.76C544.67 739.21 493.76 832.47 427.52 832.47" />
			<path id="path222" class="shp16" d="M806.6 3031C802.01 3009.92 789.05 2987.91 772.57 2959.91C766.25 2949.17 759.36 2937.45 752.08 2924.44L752.08 2830.01C786.52 2935 839.47 2964.97 812.37 3020.05C810.44 3023.96 808.52 3027.61 806.6 3031" />
			<path id="path224" class="shp1" d="M782.83 3060.32C787.07 3037.91 773.73 3014.81 752.08 2978.03L752.08 2924.44C759.36 2937.45 766.25 2949.17 772.57 2959.91C789.05 2987.91 802.01 3009.92 806.6 3031C798.63 3045.04 790.69 3054.6 782.83 3060.32" />
			<path id="path226" class="shp16" d="M705.23 2827.79C684.87 2778.27 664.49 2716.15 647.17 2636.08C658.37 2623.57 676.56 2607.01 705.23 2589.37L705.23 2827.79Z" />
			<path id="path228" class="shp1" d="M705.23 2892.28C679.21 2838.65 650.99 2766.76 627.75 2666.52L631.01 2658.72C631.11 2658.49 635.01 2649.68 647.17 2636.08C664.49 2716.15 684.87 2778.27 705.23 2827.79L705.23 2892.28" />
			<path id="path230" class="shp16" d="M752.08 2700.63L752.08 2564.47C767.96 2557.15 785.84 2549.87 805.95 2542.83C834.07 2532.97 857.77 2506.96 873.13 2472C869.03 2495 866.2 2518.23 864.65 2541.61C864.36 2546.11 864.16 2550.63 864.03 2555.15C850.29 2592.44 829.32 2625.43 804.85 2646.35C803.52 2647.47 802.19 2648.53 800.8 2649.6C778.4 2666.65 762.53 2683.69 752.08 2700.63" />
			<path id="path232" class="shp1" d="M864.03 2555.15C864.16 2550.63 864.36 2546.11 864.65 2541.61C866.2 2518.23 869.03 2495 873.13 2472C876.03 2465.41 878.63 2458.51 880.91 2451.33C882.68 2485.73 876.2 2522.12 864.03 2555.15Z" />
			<path id="path234" class="shp1" d="M752.08 2978.03C738.85 2955.55 722.53 2927.96 705.23 2892.28L705.23 2827.79L705.23 2589.37C718.49 2581.2 734 2572.8 752.08 2564.47L752.08 2700.63C736.36 2726.12 732.89 2751.39 737.91 2776.12C741.96 2796.08 746.8 2813.92 752.08 2830.01L752.08 2924.44L752.08 2978.03" />
			<path id="path236" class="shp15" d="M627.93 2657.44C627.93 2657.44 655.43 2591.99 804.84 2539.69C908.88 2503.28 931.43 2254.96 783.16 2211.73C761.72 2205.49 623.91 2202.69 595 2337.95C566.11 2473.21 627.93 2657.44 627.93 2657.44" />
			<path id="path238" class="shp39" d="M615.47 2284.48L615.47 2284.45C629.84 2260.45 648.88 2243.81 669.01 2232.44C668.93 2232.48 668.87 2232.53 668.8 2232.57C648.75 2243.95 629.79 2260.55 615.47 2284.48Z" />
			<path id="path240" class="shp40" d="M668.8 2232.57C668.87 2232.53 668.93 2232.48 669.01 2232.44C680.95 2225.69 693.27 2220.8 705.23 2217.31L705.23 2217.31C693.2 2220.83 680.8 2225.76 668.8 2232.57Z" />
			<path id="path242" class="shp39" d="M796.56 2216.37C792.25 2214.64 787.79 2213.08 783.16 2211.73C779.05 2210.55 770.69 2209.47 759.65 2209.47C757.25 2209.47 754.72 2209.52 752.08 2209.63L752.08 2209.63C754.72 2209.52 757.23 2209.47 759.63 2209.47C770.68 2209.47 779.04 2210.53 783.15 2211.73C787.79 2213.08 792.25 2214.64 796.56 2216.37" />
			<path id="path244" class="shp40" d="M705.23 2217.31L705.23 2217.31C722.29 2212.32 738.63 2210.19 752.08 2209.63L752.08 2209.63C738.63 2210.2 722.28 2212.33 705.23 2217.31Z" />
			<path id="path246" class="shp39" d="M800.41 2218L800.39 2217.99C800.4 2218 800.4 2218 800.41 2218ZM799.92 2217.79C799.89 2217.77 799.89 2217.77 799.87 2217.76C799.88 2217.77 799.91 2217.77 799.92 2217.79ZM799.64 2217.67C799.61 2217.65 799.57 2217.64 799.55 2217.63C799.59 2217.64 799.61 2217.65 799.64 2217.67ZM799.21 2217.48C799.16 2217.45 799.11 2217.44 799.05 2217.41C799.11 2217.44 799.16 2217.45 799.21 2217.48ZM798.88 2217.33C798.81 2217.31 798.73 2217.28 798.67 2217.24C798.73 2217.28 798.81 2217.31 798.88 2217.33ZM798.48 2217.17C798.4 2217.13 798.32 2217.09 798.23 2217.07C798.32 2217.09 798.4 2217.13 798.48 2217.17ZM798.11 2217.01C798 2216.96 797.89 2216.92 797.77 2216.88C797.88 2216.92 798 2216.97 798.11 2217.01ZM797.75 2216.85C797.63 2216.81 797.52 2216.77 797.4 2216.72C797.52 2216.76 797.63 2216.81 797.75 2216.85ZM797.33 2216.69C797.08 2216.59 796.83 2216.48 796.57 2216.37C796.83 2216.48 797.08 2216.59 797.33 2216.69Z" />
			<path id="path248" class="shp41" d="M876.67 2398.85C867.77 2339.8 835.64 2286.19 773.87 2268.16C769.76 2266.97 761.39 2265.91 750.35 2265.91C715.13 2265.91 652.65 2276.75 614.05 2329.05C613.89 2315.99 614.2 2303.35 615 2291.36L615.47 2284.48C629.79 2260.55 648.75 2243.95 668.8 2232.57C680.8 2225.76 693.2 2220.83 705.23 2217.31C722.28 2212.33 738.63 2210.2 752.08 2209.63C754.72 2209.52 757.25 2209.47 759.65 2209.47C770.69 2209.47 779.05 2210.55 783.16 2211.73C787.79 2213.08 792.25 2214.64 796.56 2216.37L796.57 2216.37C796.83 2216.48 797.08 2216.59 797.33 2216.69C797.36 2216.71 797.39 2216.71 797.4 2216.72C797.52 2216.77 797.63 2216.81 797.75 2216.85C797.75 2216.87 797.76 2216.87 797.77 2216.88C797.89 2216.92 798 2216.96 798.11 2217.01C798.16 2217.03 798.19 2217.04 798.23 2217.07C798.32 2217.09 798.4 2217.13 798.48 2217.17C798.55 2217.2 798.6 2217.23 798.67 2217.24C798.73 2217.28 798.81 2217.31 798.88 2217.33C798.93 2217.36 799 2217.39 799.05 2217.41C799.11 2217.44 799.16 2217.45 799.21 2217.48C799.32 2217.53 799.43 2217.57 799.55 2217.63C799.57 2217.64 799.61 2217.65 799.64 2217.67C799.72 2217.69 799.8 2217.73 799.87 2217.76C799.89 2217.77 799.89 2217.77 799.92 2217.79C800.08 2217.85 800.23 2217.92 800.39 2217.99L800.41 2218C862.03 2245.12 888.56 2311.72 888.6 2377.69L885.57 2383.59C882.79 2389.01 879.81 2394.11 876.67 2398.85" />
			<path id="path250" class="shp42" d="M628.76 2648.99C618.67 2616.17 580 2480.48 593.52 2367.39C597.49 2356.75 602.24 2347.17 607.6 2338.59C607.61 2338.92 607.61 2339.27 607.63 2339.61C609.08 2384.35 631.63 2424 669.53 2448.43C691.83 2462.79 717.41 2470.11 743.11 2470.11C760.59 2470.11 778.11 2466.72 794.67 2459.84C805.68 2455.27 817.36 2450.81 829.36 2446.61C847.73 2440.2 864.24 2427.27 877.93 2408.69C878.76 2416.47 879.2 2424.32 879.27 2432.16C867.44 2483.77 839.31 2524.08 803.75 2536.53C681.68 2579.27 640.36 2630.36 628.76 2648.99" />
			<path id="path252" class="shp43" d="M879.27 2432.16C879.2 2424.32 878.76 2416.47 877.93 2408.69C880.16 2405.67 882.32 2402.49 884.39 2399.17C883.41 2410.55 881.68 2421.59 879.27 2432.16ZM593.52 2367.39C594.69 2357.61 596.25 2348.01 598.25 2338.67C600.59 2327.76 603.69 2317.47 607.55 2307.91C607.27 2317.83 607.28 2328.09 607.6 2338.59C602.24 2347.17 597.49 2356.75 593.52 2367.39" />
			<path id="path254" class="shp44" d="M584.96 2387.97C586.08 2370.61 588.24 2353.57 591.72 2337.28C595.49 2319.71 601.21 2303.67 608.73 2289.57L616.04 2275.91L615.47 2284.45C606.57 2299.31 599.47 2316.97 594.99 2337.97C594.03 2342.37 593.17 2346.83 592.43 2351.33C589.4 2362.95 586.92 2375.17 584.96 2387.97Z" />
			<path id="path256" class="shp1" d="M627.6 2666.88L624.79 2658.49C624.24 2656.87 576.89 2513.95 584.96 2387.97C586.92 2375.17 589.4 2362.95 592.43 2351.33C590.72 2361.45 589.51 2371.81 588.69 2382.29C588.69 2382.28 588.69 2382.28 588.69 2382.27C581.11 2477.37 606.51 2583.2 620.03 2631.21C620.28 2632.45 620.53 2633.69 620.8 2634.93C623.05 2645.75 625.37 2656.29 627.75 2666.52L627.6 2666.88M885.56 2416.77C887.59 2403.97 888.63 2390.84 888.61 2377.67L892.29 2370.52L891.87 2385.21C891.75 2389.21 891.55 2393.17 891.24 2397.11C889.24 2403.64 887.35 2410.2 885.56 2416.77" />
			<path id="path258" class="shp1" d="M880.91 2451.33C880.75 2448.16 880.51 2444.99 880.2 2441.85C882.41 2433.71 884.2 2425.32 885.56 2416.77C887.35 2410.2 889.24 2403.64 891.24 2397.11C889.8 2416.24 886.24 2434.52 880.91 2451.33" />
			<path id="path260" class="shp45" d="M647.17 2636.08C646.88 2634.72 646.59 2633.37 646.31 2632C658.04 2619.23 676.6 2602.8 705.23 2585.41L705.23 2589.37C676.56 2607.01 658.37 2623.57 647.17 2636.08Z" />
			<path id="path262" class="shp1" d="M627.75 2666.52C625.37 2656.29 623.05 2645.75 620.8 2634.93C620.53 2633.69 620.28 2632.45 620.03 2631.21C624.68 2647.76 627.93 2657.44 627.93 2657.44C627.93 2657.44 632.16 2647.37 646.31 2632C646.59 2633.37 646.88 2634.72 647.17 2636.08C635.01 2649.68 631.11 2658.49 631.01 2658.72L627.75 2666.52" />
			<path id="path264" class="shp45" d="M752.08 2564.47L752.08 2560.79C767.71 2553.65 785.23 2546.56 804.84 2539.69C838.15 2528.03 863.11 2494.64 876.79 2453.23C875.47 2459.48 874.25 2465.72 873.13 2472C857.77 2506.96 834.07 2532.97 805.95 2542.83C785.84 2549.87 767.96 2557.15 752.08 2564.47Z" />
			<path id="path266" class="shp1" d="M873.13 2472C874.25 2465.72 875.47 2459.48 876.79 2453.23C878.01 2449.49 879.16 2445.71 880.2 2441.85C880.51 2444.99 880.75 2448.16 880.91 2451.33C878.63 2458.51 876.03 2465.41 873.13 2472Z" />
			<path id="path268" class="shp1" d="M705.23 2589.37L705.23 2585.41C718.56 2577.32 734.07 2569.03 752.08 2560.79L752.08 2564.47C734 2572.8 718.49 2581.2 705.23 2589.37" />
			<path id="path270" class="shp17" d="M627.93 2657.44C627.93 2657.44 624.68 2647.76 620.03 2631.21C606.51 2583.2 581.11 2477.37 588.69 2382.27C590.13 2377.09 591.76 2372.12 593.52 2367.39C580 2480.48 618.67 2616.17 628.76 2648.99C640.36 2630.36 681.68 2579.27 803.75 2536.53C839.31 2524.08 867.44 2483.77 879.27 2432.16C879.29 2436.79 879.2 2441.41 878.99 2446.03C885.28 2424.52 888.61 2401.15 888.6 2377.69L888.61 2377.67C888.63 2390.84 887.59 2403.97 885.56 2416.77C884.2 2425.32 882.41 2433.71 880.2 2441.85C879.16 2445.71 878.01 2449.49 876.79 2453.23C863.11 2494.64 838.15 2528.03 804.84 2539.69C785.23 2546.56 767.71 2553.65 752.08 2560.79C734.07 2569.03 718.56 2577.32 705.23 2585.41C676.6 2602.8 658.04 2619.23 646.31 2632C632.16 2647.37 627.93 2657.44 627.93 2657.44M743.11 2470.11C717.41 2470.11 691.83 2462.79 669.53 2448.43C631.63 2424 609.08 2384.35 607.63 2339.61C607.61 2339.27 607.61 2338.92 607.6 2338.59C609.67 2335.27 611.83 2332.09 614.05 2329.05C614.11 2332.48 614.19 2335.92 614.29 2339.4C615.67 2381.91 637.12 2419.6 673.13 2442.81C694.33 2456.48 718.68 2463.45 743.11 2463.45C759.72 2463.45 776.37 2460.23 792.12 2453.68C803.24 2449.05 815.03 2444.56 827.16 2440.32C846.11 2433.71 863 2419.51 876.67 2398.85C877.16 2402.12 877.57 2405.4 877.93 2408.69C864.24 2427.27 847.73 2440.2 829.36 2446.61C817.36 2450.81 805.68 2455.27 794.67 2459.84C778.11 2466.72 760.59 2470.11 743.11 2470.11" />
			<path id="path272" class="shp46" d="M592.43 2351.33C593.17 2346.83 594.03 2342.37 594.99 2337.97C599.47 2316.97 606.57 2299.31 615.47 2284.45L615.47 2284.48C606.59 2299.32 599.48 2316.97 595 2337.95C594.09 2342.23 593.27 2346.56 592.53 2350.93C592.49 2351.07 592.45 2351.2 592.43 2351.33" />
			<path id="path274" class="shp47" d="M588.69 2382.29C589.51 2371.81 590.72 2361.45 592.43 2351.33C592.45 2351.2 592.49 2351.07 592.53 2350.93C590.8 2361.17 589.55 2371.65 588.69 2382.27C588.69 2382.28 588.69 2382.28 588.69 2382.29Z" />
			<path id="path276" class="shp48" d="M878.99 2446.03C879.2 2441.41 879.29 2436.79 879.27 2432.16C881.68 2421.59 883.41 2410.55 884.39 2399.17C882.32 2402.49 880.16 2405.67 877.93 2408.69C877.57 2405.4 877.16 2402.12 876.67 2398.85C879.81 2394.11 882.79 2389.01 885.57 2383.59L888.6 2377.69C888.61 2401.15 885.28 2424.52 878.99 2446.03ZM588.69 2382.27C589.55 2371.65 590.8 2361.17 592.53 2350.93C593.27 2346.56 594.09 2342.23 595 2337.95C599.48 2316.97 606.59 2299.32 615.47 2284.48L615 2291.36C614.2 2303.35 613.89 2315.99 614.05 2329.05C611.83 2332.09 609.67 2335.27 607.6 2338.59C607.28 2328.09 607.27 2317.83 607.55 2307.91C603.69 2317.47 600.59 2327.76 598.25 2338.67C596.25 2348.01 594.69 2357.61 593.52 2367.39C591.76 2372.12 590.13 2377.09 588.69 2382.27" />
			<path id="path278" fill-rule="evenodd" class="shp1" d="M625.31 2724.17L605.73 2664.89C603.12 2657.12 542.19 2472.99 572.09 2333.05C583.32 2280.51 611.57 2239.41 653.79 2214.21C709.25 2181.08 772.83 2184.33 789.71 2189.25C862.71 2210.53 909.55 2280.09 911.95 2370.77C913.99 2447.71 880.51 2538.03 812.57 2561.8C773.29 2575.55 739.32 2591.44 711.57 2609.04C662.15 2640.4 649.47 2666.65 649.35 2666.92C649.35 2666.92 625.31 2724.17 625.31 2724.17ZM677.05 2254.88C646.31 2273.53 626.4 2303.12 617.92 2342.85C598.84 2432.05 622.05 2546.23 637.84 2607.15C649.59 2595.77 665.39 2582.87 686.48 2569.48C717.24 2549.97 754.45 2532.51 797.09 2517.59C837.71 2503.37 866.93 2440.79 865.12 2372.01C864.41 2345.53 855.96 2257.36 776.6 2234.23C773.92 2233.48 768.08 2232.83 760.16 2232.83C740.03 2232.83 706.45 2237.07 677.05 2254.88Z" />
			<path id="path280" class="shp1" d="M1113.4 3991.73C1102.67 3988.56 1093.12 3984.77 1083.47 3980.37C1078.63 3978.28 1073.89 3975.97 1069.23 3973.56C1064.52 3971.23 1059.87 3968.76 1055.32 3966.13C1036.89 3955.97 1019.53 3943.87 1002.64 3931.21C985.84 3918.39 969.81 3904.44 954.81 3889.49C940.11 3874.15 926.36 3857.77 915.41 3839.68C914.44 3838.07 914.95 3835.99 916.56 3835.01C917.73 3834.29 919.17 3834.39 920.23 3835.11L920.32 3835.16C937.44 3846.83 954.43 3857.55 971.84 3867.52C989.36 3877.36 1007.05 3886.59 1024.88 3895.51L1078.79 3921.28C1096.51 3929.99 1114.73 3938.87 1131.31 3948.64L1131.99 3949.04C1143.15 3955.63 1146.85 3970 1140.28 3981.16C1134.69 3990.63 1123.48 3994.72 1113.4 3991.73" />
			<path id="path282" class="shp1" d="M1289.48 3975.76C1297.97 3972.87 1307.96 3970.03 1317.33 3967.25L1345.92 3958.91C1364.95 3953.15 1384.13 3947.64 1403.01 3940.95C1422.01 3934.45 1440.45 3926.61 1458.81 3918.01C1477.35 3909.55 1494.73 3899.07 1512.87 3888.13L1513.03 3888.05C1514.63 3887.08 1516.71 3887.6 1517.68 3889.2C1518.39 3890.37 1518.29 3891.81 1517.56 3892.88C1505.32 3910.49 1490.72 3926.97 1474.19 3941.17C1457.63 3955.28 1439.83 3968.31 1420.84 3979.05C1401.91 3989.93 1382.27 3999.79 1361.67 4007.01C1351.39 4010.67 1340.96 4013.92 1330.29 4016.39C1319.52 4019.01 1309.19 4020.88 1297.17 4021.79C1284.29 4022.76 1273.05 4013.11 1272.08 4000.21C1271.27 3989.35 1278 3979.67 1287.85 3976.31L1289.48 3975.76" />
			<path id="path284" class="shp16" d="M2004.52 3698.41C1928.83 3683.25 1836.59 3641.89 1762.39 3529.93C1759.51 3525.6 1755.45 3522.53 1750.92 3520.88C1759.28 3509.29 1772.95 3502.63 1787.01 3502.63C1797.8 3502.63 1808.83 3506.55 1817.85 3515.19C1877.73 3572.44 1942.32 3599.68 1999.08 3612.57C1996.35 3640.51 1997.69 3669.64 2004.52 3698.41Z" />
			<path id="path286" class="shp17" d="M2102.85 3707.07C2077.43 3707.07 2043.13 3706.15 2004.52 3698.41C1997.69 3669.64 1996.35 3640.51 1999.08 3612.57C2006.76 3614.32 2014.29 3615.8 2021.65 3617.07C2057.77 3623.24 2089.72 3624.04 2113.77 3624.04C2117.56 3624.04 2121.15 3624.01 2124.53 3624C2169.89 3623.72 2232.05 3608.53 2272.48 3578.92C2278.93 3589.56 2281.29 3602.32 2280.28 3618.81C2277.01 3672.08 2180.01 3706.63 2114.68 3707.01C2110.99 3707.04 2107.05 3707.07 2102.85 3707.07" />
			<path id="path288" class="shp1" d="M2104.07 3730.49C2080.01 3730.49 2048.07 3729.69 2011.95 3723.52C1929.6 3709.44 1825.39 3667.36 1742.88 3542.88L1742.89 3542.72C1743.67 3534.27 1746.57 3526.91 1750.92 3520.88C1755.45 3522.53 1759.51 3525.6 1762.39 3529.93C1836.59 3641.89 1928.83 3683.25 2004.52 3698.41C2043.13 3706.15 2077.43 3707.07 2102.85 3707.07C2107.05 3707.07 2110.99 3707.04 2114.68 3707.01C2180.01 3706.63 2277.01 3672.08 2280.28 3618.81C2281.29 3602.32 2278.93 3589.56 2272.48 3578.92C2279.07 3574.09 2285.08 3568.89 2290.35 3563.31C2300.43 3577.92 2305.12 3596.21 2303.68 3620.27C2299.25 3692.69 2186.19 3730.03 2114.83 3730.45C2111.44 3730.47 2107.85 3730.49 2104.07 3730.49" />
		</g>
	</g>
</svg>