<svg xmlns="http://www.w3.org/2000/svg" viewBox="0 0 403 468" width="403" height="468">
	<style>
		tspan { white-space:pre }
		.shp0 { fill: #ffffff } 
		.shp1 { fill: #64cbff } 
		.shp2 { fill: #390075 } 
		.shp3 { fill: #39d5ff } 
		.shp4 { fill: #102770 } 
		.shp5 { fill: #3995d5 } 
		.shp6 { fill: #fd6ccb } 
		.shp7 { fill: #c24bb1 } 
		.shp8 { fill: #fef26b } 
		.shp9 { fill: #c3a96e } 
		.shp10 { fill: #fffac4 } 
		.shp11 { fill: #f883a0 } 
		.shp12 { fill: #ffebf6 } 
		.shp13 { fill: #c3a4cf } 
		.shp14 { fill: #fdc1e5 } 
		.shp15 { fill: #b5e5fb } 
		.shp16 { fill: #fec4ea } 
		.shp17 { fill: #b0eeff } 
		.shp18 { fill: #c3afac } 
		.shp19 { fill: #c389c7 } 
		.shp20 { fill: #8ca6d5 } 
		.shp21 { fill: #c3b2d5 } 
		.shp22 { fill: #fec2e6 } 
		.shp23 { fill: #c387c4 } 
		.shp24 { fill: #9027f4 } 
		.shp25 { fill: #a2e0ff } 
		.shp26 { fill: #fea7e0 } 
		.shp27 { fill: #8866ac } 
		.shp28 { fill: #bc7df8 } 
		.shp29 { fill: #761bce } 
		.shp30 { fill: #fdd800 } 
		.shp31 { fill: #fee659 } 
		.shp32 { fill: #c29723 } 
		.shp33 { fill: #fccdd9 } 
		.shp34 { fill: #c1eaff } 
		.shp35 { fill: #b099c8 } 
		.shp36 { fill: #ffe7f7 } 
		.shp37 { fill: #9fa9c6 } 
		.shp38 { fill: #1c1b72 } 
		.shp39 { fill: #8076ae } 
		.shp40 { fill: #22a7f0 } 
		.shp41 { fill: #398bcf } 
		.shp42 { fill: #1e1972 } 
		.shp43 { fill: #869bcf } 
		.shp44 { fill: #7b6eaa } 
		.shp45 { fill: #b2e5ff } 
		.shp46 { fill: #ff4f90 } 
	</style>
	<g id="g10">
		<g id="g12">
			<path id="path16" class="shp0" d="M359.45 250.42C359.45 252.24 357.97 253.71 356.16 253.71C354.34 253.71 352.87 252.24 352.87 250.42C352.87 248.61 354.34 247.14 356.16 247.14C357.97 247.14 359.45 248.61 359.45 250.42Z" />
			<path id="path18" class="shp0" d="M416 200.26C416 202.07 414.53 203.55 412.71 203.55C410.89 203.55 409.42 202.07 409.42 200.26C409.42 198.44 410.89 196.97 412.71 196.97C414.53 196.97 416 198.44 416 200.26Z" />
			<path id="path20" class="shp0" d="M405.69 84.57C405.69 86.38 404.22 87.86 402.4 87.86C400.59 87.86 399.11 86.38 399.11 84.57C399.11 82.75 400.59 81.28 402.4 81.28C404.22 81.28 405.69 82.75 405.69 84.57Z" />
			<path id="path22" class="shp0" d="M341.71 45.13C341.71 46.94 340.24 48.42 338.42 48.42C336.6 48.42 335.13 46.94 335.13 45.13C335.13 43.31 336.6 41.84 338.42 41.84C340.24 41.84 341.71 43.31 341.71 45.13" />
			<path id="path24" class="shp0" d="M22.57 378.33C22.57 381.04 20.36 383.25 17.65 383.25C14.93 383.25 12.73 381.04 12.73 378.33C12.73 375.61 14.93 373.41 17.65 373.41C20.36 373.41 22.57 375.61 22.57 378.33Z" />
			<path id="path26" class="shp0" d="M-35.26 191.19C-35.36 193.01 -36.91 194.4 -38.72 194.3C-40.54 194.2 -41.93 192.65 -41.83 190.84C-41.73 189.03 -40.18 187.63 -38.37 187.73C-36.56 187.83 -35.16 189.38 -35.26 191.19" />
			<path id="path28" class="shp0" d="M-63.43 115.85C-63.52 117.66 -65.07 119.06 -66.89 118.96C-68.7 118.86 -70.09 117.31 -70 115.5C-69.9 113.68 -68.35 112.29 -66.53 112.39C-64.72 112.49 -63.33 114.04 -63.43 115.85" />
			<path id="path30" class="shp0" d="M-24.16 297.89C-24.16 299.7 -25.63 301.18 -27.45 301.18C-29.27 301.18 -30.74 299.7 -30.74 297.89C-30.74 296.07 -29.27 294.6 -27.45 294.6C-25.63 294.6 -24.16 296.07 -24.16 297.89Z" />
			<path id="path32" class="shp0" d="M-19.52 61.49C-19.62 63.3 -21.17 64.69 -22.98 64.59C-24.79 64.5 -26.19 62.95 -26.09 61.13C-25.99 59.32 -24.44 57.93 -22.63 58.03C-20.81 58.12 -19.42 59.67 -19.52 61.49Z" />
			<path id="path34" class="shp0" d="M415.34 384.98C415.34 386.79 413.87 388.27 412.05 388.27C410.24 388.27 408.76 386.79 408.76 384.98C408.76 383.16 410.24 381.69 412.05 381.69C413.87 381.69 415.34 383.16 415.34 384.98Z" />
			<path id="path36" class="shp0" d="M397.46 456.23C397.46 458.04 395.98 459.52 394.17 459.52C392.35 459.52 390.88 458.04 390.88 456.23C390.88 454.41 392.35 452.94 394.17 452.94C395.98 452.94 397.46 454.41 397.46 456.23Z" />
			<path id="path38" class="shp0" d="M271.88 -6.44C271.88 -4.63 270.41 -3.15 268.59 -3.15C266.78 -3.15 265.31 -4.63 265.31 -6.44C265.31 -8.26 266.78 -9.73 268.59 -9.73C270.41 -9.73 271.88 -8.26 271.88 -6.44Z" />
			<path id="path40" class="shp0" d="M334.57 454.36C334.57 456.17 333.1 457.65 331.28 457.65C329.47 457.65 327.99 456.17 327.99 454.36C327.99 452.54 329.47 451.07 331.28 451.07C333.1 451.07 334.57 452.54 334.57 454.36Z" />
			<path id="path42" class="shp0" d="M47.41 445.07C47.41 446.89 45.94 448.36 44.12 448.36C42.31 448.36 40.83 446.89 40.83 445.07C40.83 443.25 42.31 441.78 44.12 441.78C45.94 441.78 47.41 443.25 47.41 445.07Z" />
			<path id="path44" class="shp0" d="M69 353.36C69 355.18 67.52 356.65 65.71 356.65C63.89 356.65 62.42 355.18 62.42 353.36C62.42 351.54 63.89 350.07 65.71 350.07C67.52 350.07 69 351.54 69 353.36Z" />
			<path id="path46" class="shp0" d="M372.44 156.1C372.44 157.92 370.97 159.39 369.16 159.39C367.34 159.39 365.87 157.92 365.87 156.1C365.87 154.29 367.34 152.81 369.16 152.81C370.97 152.81 372.44 154.29 372.44 156.1Z" />
			<path id="path48" class="shp0" d="M-29.44 422.92C-29.44 424.74 -30.92 426.21 -32.73 426.21C-34.55 426.21 -36.02 424.74 -36.02 422.92C-36.02 421.11 -34.55 419.63 -32.73 419.63C-30.92 419.63 -29.44 421.11 -29.44 422.92Z" />
			<path id="path50" class="shp1" d="M280.53 144.11C271.55 209.49 205.26 254.4 132.46 244.4C59.66 234.4 7.92 173.29 16.89 107.91C25.87 42.52 92.17 -2.38 164.97 7.62C237.77 17.62 289.51 78.72 280.53 144.11Z" />
			<path id="path52" fill-rule="evenodd" class="shp2" d="M164.92 7.99C200.04 12.82 231.36 29.63 253.13 55.34C274.89 81.03 284.49 112.54 280.16 144.06C271.22 209.13 204.99 253.98 132.51 244.03C97.39 239.2 66.06 222.39 44.3 196.68C22.54 170.98 12.94 139.48 17.27 107.96C25.37 48.97 80.55 6.61 144.78 6.61C151.41 6.61 158.14 7.06 164.92 7.99ZM152.65 246.16C217.25 246.16 272.76 203.52 280.91 144.16C285.26 112.43 275.6 80.71 253.71 54.85C231.82 29 200.32 12.09 165.02 7.25C92.13 -2.76 25.51 42.37 16.52 107.86C12.16 139.59 21.82 171.31 43.72 197.17C65.61 223.02 97.1 239.93 132.41 244.77C139.23 245.71 145.98 246.16 152.65 246.16Z" />
			<path id="path54" fill-rule="evenodd" class="shp2" d="M152.81 248.07C145.96 248.07 139.07 247.6 132.15 246.64C58.23 236.49 5.52 174.12 14.65 107.6C23.78 41.09 91.35 -4.78 165.28 5.37C239.2 15.52 291.91 77.9 282.78 144.42C280.18 163.29 273 180.71 261.43 196.2C246.07 216.76 224.26 232.17 198.37 240.76L197.74 240.96C197.47 241.05 197.21 241.14 196.94 241.22C194.49 242.01 192.01 242.72 189.58 243.36C177.58 246.5 165.27 248.07 152.81 248.07ZM144.78 8.5C81.48 8.5 27.11 50.18 19.14 108.22C10.35 172.26 61.32 232.34 132.77 242.15C151.69 244.75 170.42 243.68 188.43 238.97C190.79 238.36 193.19 237.66 195.56 236.9L196.96 236.45C221.95 228.15 242.99 213.29 257.79 193.48C268.9 178.62 275.8 161.9 278.28 143.8C287.08 79.76 236.11 19.67 164.66 9.86C157.97 8.94 151.32 8.5 144.78 8.5Z" />
			<path id="path56" class="shp3" d="M236.31 212.14C230.44 215.57 224.15 218.61 217.52 221.22C211.37 223.65 204.92 225.71 198.23 227.38C197.6 226.07 197.16 224.67 196.97 223.2C196.8 221.98 196.8 220.71 196.99 219.4C197.59 215.4 198.85 211.6 200.51 207.96C214.67 195.38 231.51 185.7 230.81 170.21C230.81 170.14 230.8 170.07 230.8 170C230.51 164.21 229.3 159.82 227.75 156.51C226.28 153.38 224.5 151.21 222.88 149.73C225.73 148.43 230.83 147.42 235.73 148.46C239.22 150.93 242.63 154.14 245.56 157.96C247.16 160.05 248.54 162.33 249.73 164.77C251.53 168.48 252.89 172.57 253.88 176.93C253.9 177.03 253.92 177.13 253.95 177.23C256.91 190.58 250.02 204.12 236.31 212.14" />
			<path id="path58" fill-rule="evenodd" class="shp4" d="M198.23 227.78C198.09 227.78 197.95 227.69 197.88 227.55C197.21 226.16 196.77 224.71 196.58 223.25C196.4 221.97 196.41 220.66 196.6 219.34C197.17 215.57 198.33 211.8 200.15 207.8C200.18 207.75 200.21 207.7 200.25 207.67C203.11 205.13 206.1 202.69 208.99 200.33C220.29 191.11 230.97 182.4 230.42 170.23C230.42 170.16 230.41 170.11 230.41 170.05C230.15 164.88 229.14 160.39 227.39 156.67C226.14 154.01 224.54 151.77 222.62 150.02C222.52 149.93 222.48 149.8 222.5 149.67C222.52 149.54 222.6 149.43 222.72 149.37C225.77 147.99 230.99 147.05 235.81 148.08C235.86 148.09 235.91 148.11 235.96 148.14C239.65 150.75 243.07 154.07 245.87 157.73C247.45 159.78 248.86 162.09 250.08 164.6C251.83 168.19 253.24 172.31 254.26 176.85C254.28 176.95 254.3 177.04 254.33 177.14C257.3 190.53 250.31 204.4 236.51 212.47C230.64 215.91 224.3 218.97 217.67 221.58C211.5 224.02 204.99 226.1 198.33 227.76C198.3 227.77 198.26 227.78 198.23 227.78ZM200.83 208.2C199.06 212.1 197.93 215.79 197.38 219.46C197.2 220.7 197.19 221.94 197.36 223.15C197.52 224.43 197.89 225.7 198.45 226.93C204.97 225.28 211.34 223.24 217.38 220.86C223.97 218.26 230.28 215.21 236.11 211.8C249.61 203.9 256.46 190.36 253.56 177.31C253.54 177.21 253.51 177.1 253.5 177C252.49 172.54 251.1 168.48 249.38 164.94C248.18 162.48 246.79 160.21 245.25 158.2C242.52 154.63 239.17 151.39 235.57 148.83C231.22 147.92 226.55 148.66 223.59 149.85C225.38 151.61 226.9 153.79 228.1 156.34C229.89 160.15 230.93 164.74 231.19 169.98C231.19 170.07 231.2 170.14 231.2 170.21C231.77 182.76 220.94 191.59 209.48 200.94C206.62 203.27 203.66 205.69 200.83 208.2ZM236.31 212.14L236.32 212.14L236.31 212.14Z" />
			<path id="path60" fill-rule="evenodd" class="shp2" d="M186.73 232.13C186.11 232.13 185.52 231.88 185.08 231.43C184.55 230.89 184.32 230.12 184.47 229.37C185.3 225.3 185.57 223.55 185.63 222.83C185.41 222.17 185.49 221.44 185.88 220.84C191.49 212.13 199.77 205.38 207.78 198.85C219.17 189.55 229.01 181.53 228.51 170.32C228.5 170.24 228.49 170.15 228.49 170.06C227.95 159.37 224.16 153.91 221.08 151.2C219.69 149.99 219.5 148.16 220.59 146.66C222.71 143.73 229.91 142.17 234.09 144.65C239.09 147.61 243.69 151.73 247.39 156.56C251.38 161.76 254.32 168.45 256.13 176.42L256.19 176.73C259.35 190.95 252 205.63 237.47 214.12C223.08 222.54 206.64 228.49 188.6 231.83L187.13 232.1C187 232.12 186.86 232.13 186.73 232.13ZM190.25 222.57C190.24 223.45 190.05 224.76 189.65 226.94C206.41 223.65 221.72 218 235.14 210.15C248.11 202.56 254.45 190.14 251.7 177.72L251.63 177.44C249.97 170.12 247.32 164.04 243.73 159.36C240.39 154.99 236.24 151.28 231.75 148.61C229.9 147.52 226.83 148.11 225.24 148.8C228.73 152.36 232.53 158.74 233.09 169.83C233.1 169.94 233.11 170.04 233.11 170.15C233.72 183.63 222.54 192.76 210.69 202.42C203.21 208.52 195.48 214.83 190.25 222.57Z" />
			<path id="path62" class="shp5" d="M215.7 219.48C218.15 215.46 221.89 211.52 226.86 207.75C240.53 197.38 248.64 186.05 250.91 174.54C250.92 174.61 250.94 174.67 250.96 174.74C250.54 187.28 242.75 200.02 227.24 211.79C224.74 213.69 222.64 215.55 220.88 217.36C219.18 218.09 217.45 218.8 215.7 219.48" />
			<path id="path64" class="shp2" d="M214.09 222.53C214.54 221.51 215.08 220.49 215.7 219.48C217.45 218.8 219.18 218.09 220.88 217.36C219.59 218.68 218.48 219.97 217.52 221.22C216.39 221.67 215.25 222.1 214.09 222.53ZM250.96 174.74C250.94 174.67 250.92 174.61 250.91 174.54C250.93 174.42 250.95 174.3 250.97 174.18C250.97 174.37 250.97 174.56 250.96 174.74Z" />
			<path id="path66" class="shp6" d="M225.47 205.91C217.61 211.88 213.71 217.52 211.81 222C210.89 224.43 211.11 227.5 211.75 230.5C211.31 230.69 210.88 230.87 210.44 231.06C208.2 231.99 205.93 232.87 203.61 233.7C200.92 229.27 198.19 224.65 197.09 222.67C197.03 222.57 196.97 222.48 196.93 222.38C196.89 222.33 196.86 222.27 196.83 222.22C196.76 222.09 196.7 221.97 196.63 221.84C195.92 220.44 195.42 218.92 195.2 217.32C195.03 216.1 195.03 214.83 195.23 213.52C198.99 188.35 228.87 171.28 220.73 150.25C220.14 148.72 219.52 147.32 218.88 146.02L218.87 146C218.82 145.89 218.81 145.76 218.85 145.63C219.32 143.69 228.86 140.32 236.65 143.38C239.42 144.47 241.97 146.37 243.82 149.45C244.3 150.26 244.76 151.08 245.2 151.93C254.29 169.56 248.06 188.77 225.47 205.91" />
			<path id="path68" fill-rule="evenodd" class="shp4" d="M203.61 234.09C203.48 234.09 203.35 234.03 203.28 233.91C200.69 229.65 197.89 224.9 196.75 222.86L196.71 222.8C196.66 222.72 196.62 222.64 196.58 222.56L196.54 222.49L196.49 222.41L196.31 222.07C195.52 220.52 195.03 218.96 194.82 217.37C194.64 216.09 194.65 214.77 194.84 213.46C196.5 202.34 203.11 192.95 209.5 183.87C217.4 172.63 224.86 162.01 220.36 150.39C219.81 148.96 219.19 147.54 218.53 146.19C218.52 146.17 218.51 146.16 218.51 146.14C218.42 145.94 218.41 145.73 218.47 145.52C218.65 144.81 219.62 144.17 220.41 143.75C223.46 142.17 230.59 140.58 236.79 143.02C239.93 144.25 242.41 146.35 244.15 149.25C244.65 150.07 245.1 150.89 245.55 151.75C254.97 170.02 247.92 189.37 225.71 206.22C219.07 211.26 214.51 216.62 212.17 222.15C211.41 224.17 211.39 226.95 212.13 230.42C212.17 230.61 212.07 230.79 211.9 230.86L211.38 231.08C211.12 231.19 210.85 231.31 210.59 231.42C208.33 232.36 206.03 233.25 203.74 234.07C203.7 234.09 203.65 234.09 203.61 234.09ZM219.24 145.87C219.91 147.23 220.54 148.66 221.1 150.1C225.74 162.12 218.16 172.9 210.14 184.32C203.8 193.33 197.25 202.64 195.61 213.58C195.43 214.81 195.42 216.05 195.59 217.26C195.79 218.77 196.26 220.25 196.98 221.67L197.26 222.18C197.31 222.27 197.35 222.34 197.39 222.4L197.43 222.47C198.54 224.47 201.24 229.05 203.78 233.23C205.95 232.44 208.14 231.59 210.28 230.69C210.55 230.58 210.81 230.47 211.08 230.36L211.3 230.27C210.59 226.75 210.64 224 211.44 221.86C213.85 216.19 218.49 210.72 225.23 205.6C247.11 189 254.08 170 244.85 152.11C244.42 151.27 243.97 150.46 243.48 149.65C241.83 146.9 239.48 144.91 236.51 143.75C230.55 141.4 223.7 142.93 220.78 144.45C219.73 144.99 219.29 145.46 219.23 145.73C219.21 145.78 219.21 145.8 219.23 145.83L219.24 145.87Z" />
			<path id="path70" fill-rule="evenodd" class="shp2" d="M203.61 236.01C202.83 236.01 202.07 235.61 201.64 234.9C199.13 230.77 196.33 226.02 195.1 223.83C195.04 223.72 194.97 223.62 194.92 223.52C194.89 223.46 194.86 223.41 194.83 223.36C194.74 223.19 194.65 223.02 194.56 222.84C193.02 219.83 192.46 216.47 192.95 213.18C194.68 201.62 201.42 192.03 207.93 182.77C215.86 171.49 222.71 161.75 218.58 151.08C218.04 149.68 217.44 148.32 216.81 147.04C216.49 146.39 215.73 144.13 219.31 142.18C225.12 139 239.31 137.46 245.79 148.26C246.28 149.07 246.76 149.93 247.25 150.87C257.14 170.07 249.9 190.27 226.86 207.75C220.51 212.57 216.17 217.66 213.95 222.86C213.33 224.53 213.35 226.94 214 230.02C214.23 231.11 213.66 232.2 212.64 232.63L211.32 233.18C209.03 234.13 206.7 235.04 204.39 235.87C204.14 235.96 203.87 236.01 203.61 236.01ZM221.52 146.2C222 147.24 222.45 148.31 222.88 149.41C227.9 162.38 220.03 173.57 211.7 185.42C205.49 194.25 199.07 203.37 197.51 213.86C197.15 216.23 197.55 218.56 198.69 220.8C198.75 220.92 198.79 220.99 198.83 221.07C198.84 221.09 198.88 221.16 198.9 221.18C198.92 221.22 198.94 221.26 198.96 221.3C198.99 221.35 199.02 221.41 199.06 221.47C199.07 221.49 199.09 221.52 199.1 221.55C200 223.15 202.14 226.82 204.6 230.89C206.12 230.31 207.65 229.72 209.15 229.09C208.68 225.93 208.84 223.33 209.65 221.19C209.66 221.16 209.67 221.13 209.68 221.1C212.22 215.14 217.06 209.41 224.08 204.08L224.08 204.08C245.13 188.11 251.9 169.96 243.15 152.99C242.71 152.14 242.28 151.37 241.84 150.64C239.7 147.07 236.28 145.02 231.68 144.55C227.25 144.1 223.17 145.3 221.52 146.2Z" />
			<path id="path72" class="shp7" d="M205.82 222.5C206.1 222.28 206.37 222.06 206.64 221.84C206.49 222.14 206.19 222.38 205.82 222.5Z" />
			<path id="path74" class="shp7" d="M223.93 192.21C224.5 189.78 224.95 187.32 225.28 184.82C233.11 177.91 238.46 170.19 240.94 162.11C241.12 161.54 241.28 160.97 241.43 160.4C241.24 170.29 236.43 181.63 223.93 192.21Z" />
			<path id="path76" class="shp8" d="M192.22 114.89C192.22 114.89 209.49 114.65 216.79 133.54C224.93 154.57 176.21 168.58 184.5 196.86C186.81 204.78 196.13 211.63 203.48 214.25C204.7 214.68 205.98 213.7 205.43 212.72C203.01 208.44 200.46 199.29 214.6 190.03C242.43 171.8 243.9 149.81 236.33 136.58C225.24 117.21 202.57 107.68 192.61 110.55L192.22 114.89" />
			<path id="path78" class="shp9" d="M222.17 148.52C221.51 146.21 220.75 143.88 219.91 141.55C219.85 141.4 219.8 141.25 219.75 141.11C220.26 138.42 220.07 135.63 218.94 132.7C217.98 130.22 216.85 128.05 215.62 126.14C218.38 128.8 220.94 132.41 222.83 137.31C224.36 141.25 223.89 144.94 222.17 148.52" />
			<path id="path80" class="shp10" d="M236.44 142.4C230 132.14 220.33 124.86 211.38 120.95C210.54 120.12 209.68 119.38 208.81 118.71C207.88 117.23 207.08 116.02 206.45 115.11C206.67 114.95 206.9 114.78 207.12 114.62C216.69 118.3 227.8 126.31 234.33 137.72C235.16 139.17 235.87 140.74 236.44 142.4" />
			<path id="path82" fill-rule="evenodd" class="shp2" d="M204.1 216.66C203.63 216.66 203.16 216.58 202.71 216.42C194.45 213.48 184.79 206.05 182.29 197.51C177.51 181.21 189.85 169.5 200.73 159.16C209.96 150.4 217.92 142.84 214.64 134.37C208.07 117.38 192.77 117.19 192.26 117.19C192.23 117.19 192.23 117.19 192.22 117.19C191.58 117.19 190.96 116.92 190.53 116.45C190.08 115.98 189.86 115.33 189.92 114.68L190.32 110.34C190.4 109.39 191.06 108.6 191.97 108.33C202.52 105.3 226.38 114.56 238.33 135.44C242.87 143.36 243.8 152.83 240.94 162.11C237.56 173.1 228.89 183.42 215.86 191.96C204.08 199.67 204.78 206.89 207.43 211.59C208.11 212.79 207.97 214.25 207.08 215.31C206.34 216.18 205.24 216.66 204.1 216.66ZM194.72 112.8C200.14 113.56 212.87 117.02 218.94 132.7C223.33 144.06 213.46 153.43 203.91 162.5C193.49 172.39 182.72 182.61 186.71 196.22C188.56 202.53 195.71 208.37 202.23 211.27C200.32 206.05 199.86 196.93 213.34 188.1C240.09 170.58 241.37 150.01 234.33 137.72C224.55 120.64 204.51 111.17 194.75 112.45L194.72 112.8Z" />
			<path id="path84" class="shp0" d="M222.35 188.92C222.24 189.49 222.12 190.07 221.99 190.64C221.75 191.71 221.5 192.77 221.21 193.84C220.31 197.16 219.16 200.52 217.7 203.87C205.18 232.77 162.58 238.23 146.93 237.97C131.28 238.23 88.68 232.77 76.16 203.87C74.75 200.61 73.62 197.36 72.73 194.13C72.56 193.5 72.4 192.87 72.25 192.25C71.99 191.23 71.77 190.22 71.57 189.21C63.69 149.72 90.63 114.51 90.63 114.51C90.63 114.51 68.93 101.38 78.83 84.73C86.57 71.72 112.35 76.68 118.89 96.2L174.97 96.2C181.51 76.68 207.3 71.72 215.04 84.73C224.93 101.38 203.23 114.51 203.23 114.51C203.23 114.51 230.05 149.56 222.35 188.92Z" />
			<path id="path86" fill-rule="evenodd" class="shp2" d="M145.79 238.36C136.92 238.36 123.28 236.76 110.25 232.21C92.87 226.15 81.29 216.67 75.81 204.02C74.43 200.84 73.28 197.55 72.37 194.23C72.2 193.6 72.03 192.97 71.88 192.34C71.63 191.34 71.41 190.31 71.2 189.29C63.78 152.1 87.4 118.29 90.09 114.61C87.31 112.79 69.23 100.13 78.5 84.53C81.7 79.16 88.16 76.44 95.79 77.26C103.94 78.13 114.91 83.51 119.16 95.82L174.7 95.82C178.95 83.52 189.92 78.13 198.07 77.26C205.7 76.44 212.16 79.16 215.36 84.53C224.63 100.13 206.55 112.79 203.78 114.61C206.46 118.29 229.97 151.93 222.72 188.99L222.72 188.99C222.61 189.57 222.49 190.14 222.36 190.73C222.11 191.85 221.85 192.9 221.57 193.94C220.66 197.35 219.47 200.74 218.05 204.02C212.57 216.67 200.99 226.15 183.62 232.21C170.02 236.96 155.74 238.49 146.93 238.35C146.56 238.36 146.18 238.36 145.79 238.36ZM93.17 77.87C86.97 77.87 81.83 80.41 79.15 84.92C69.55 101.06 90.61 114.06 90.83 114.18C90.92 114.24 90.98 114.33 91 114.44C91.02 114.54 90.99 114.65 90.93 114.74C90.66 115.09 64.18 150.28 71.94 189.14C72.15 190.16 72.37 191.17 72.61 192.16C72.77 192.78 72.93 193.4 73.1 194.03C73.99 197.31 75.14 200.57 76.51 203.72C88.86 232.25 131.54 237.85 146.93 237.6C162.33 237.84 205 232.25 217.36 203.72C218.76 200.47 219.94 197.11 220.84 193.74C221.12 192.72 221.37 191.68 221.62 190.56C221.75 189.99 221.87 189.42 221.98 188.85C229.55 150.11 203.2 115.09 202.93 114.74C202.87 114.65 202.84 114.54 202.86 114.44C202.88 114.33 202.95 114.24 203.04 114.18C203.25 114.06 224.3 101.05 214.71 84.92C211.67 79.81 205.48 77.23 198.15 78.01C190.16 78.86 179.4 84.17 175.33 96.32C175.28 96.47 175.13 96.57 174.97 96.57L118.89 96.57C118.73 96.57 118.59 96.47 118.54 96.32C114.46 84.17 103.69 78.86 95.71 78.01C94.85 77.92 94 77.87 93.17 77.87ZM222.35 188.92L222.36 188.92L222.35 188.92Z" />
			<path id="path88" class="shp11" d="M192.87 89.04C188.17 91.9 186.31 97.44 188.72 101.4C191.13 105.35 196.89 106.24 201.6 103.38C206.31 100.52 208.17 94.99 205.76 91.03C203.35 87.07 197.58 86.18 192.87 89.04Z" />
			<path id="path90" class="shp11" d="M100.76 89.04C105.47 91.9 107.33 97.44 104.92 101.4C102.51 105.35 96.74 106.24 92.04 103.38C87.33 100.52 85.47 94.99 87.88 91.03C90.29 87.07 96.06 86.18 100.76 89.04Z" />
			<path id="path92" class="shp12" d="M221.21 194.59C220.31 197.92 219.16 201.27 217.7 204.63C205.18 233.53 162.58 238.98 146.93 238.73C131.28 238.98 88.68 233.53 76.16 204.63C74.75 201.37 73.62 198.11 72.73 194.88C90.34 184.76 117.17 178.29 147.23 178.29C177 178.29 203.6 184.63 221.21 194.59Z" />
			<path id="path94" class="shp13" d="M145.88 235.71C130.04 235.71 89.93 229.95 78.24 202.97C77.17 200.49 76.26 198 75.51 195.52C88.57 220.08 129.56 225.18 146.09 225.18C146.45 225.18 146.81 225.17 147.15 225.17C147.49 225.17 147.85 225.18 148.21 225.18C164.33 225.18 203.75 220.32 217.8 197.27C217.17 199.17 216.44 201.07 215.62 202.97C203.92 229.99 163.7 235.71 147.85 235.71C147.52 235.71 147.2 235.71 146.89 235.7C146.57 235.71 146.23 235.71 145.88 235.71" />
			<path id="path96" class="shp2" d="M148.06 240.25C147.66 240.25 147.27 240.25 146.89 240.24C137.99 240.39 123.46 238.82 109.62 234C91.99 227.84 79.7 217.73 74.08 204.77C65.88 185.84 65.84 163.98 73.96 141.55C78.64 128.6 84.7 119.05 87.41 115.11C79.32 109.38 68.84 97.09 76.88 83.57C80.46 77.54 87.61 74.48 96 75.38C104.75 76.31 116.57 82.14 121.04 95.47C121.44 96.66 120.8 97.95 119.61 98.35C118.43 98.74 117.14 98.1 116.74 96.92C113.2 86.34 103.52 80.74 95.51 79.89C88.93 79.19 83.43 81.43 80.78 85.89C72.15 100.39 91 112.08 91.8 112.57C92.35 112.9 92.74 113.45 92.86 114.09C92.98 114.72 92.82 115.37 92.43 115.88C92.1 116.32 59.53 159.77 78.24 202.97C90.19 230.55 131.84 235.96 146.89 235.7C162.02 235.94 203.67 230.55 215.62 202.97C234.33 159.77 201.76 116.32 201.43 115.88C201.04 115.37 200.89 114.72 201 114.09C201.13 113.45 201.51 112.9 202.06 112.57C202.86 112.08 221.71 100.39 213.08 85.89C210.43 81.43 204.92 79.19 198.35 79.89C190.34 80.74 180.67 86.34 177.12 96.92C176.72 98.1 175.43 98.74 174.25 98.35C173.06 97.95 172.42 96.66 172.82 95.47C177.29 82.14 189.11 76.31 197.87 75.38C206.25 74.49 213.4 77.54 216.98 83.57C225.02 97.09 214.54 109.38 206.45 115.11C209.17 119.05 215.22 128.6 219.91 141.55C228.03 163.98 227.98 185.84 219.78 204.77C214.17 217.73 201.88 227.84 184.24 234C170.99 238.62 157.1 240.25 148.06 240.25" />
			<path id="path98" class="shp14" d="M210.92 181C210.92 185.99 204.79 190.03 197.23 190.03C189.67 190.03 183.54 185.99 183.54 181C183.54 176.01 189.67 171.96 197.23 171.96C204.79 171.96 210.92 176.01 210.92 181Z" />
			<path id="path100" class="shp14" d="M110.77 181.14C110.77 186.05 104.74 190.03 97.3 190.03C89.87 190.03 83.84 186.05 83.84 181.14C83.84 176.23 89.87 172.25 97.3 172.25C104.74 172.25 110.77 176.23 110.77 181.14Z" />
			<path id="path102" class="shp2" d="M90.63 116.78C90.14 116.78 89.64 116.62 89.23 116.29C88.24 115.52 88.07 114.1 88.85 113.11C89.03 112.88 93.35 107.37 96.57 104.3C97.48 103.44 98.92 103.47 99.78 104.38C100.64 105.28 100.61 106.72 99.7 107.58C96.72 110.43 92.46 115.85 92.41 115.91C91.97 116.48 91.3 116.78 90.63 116.78" />
			<path id="path104" class="shp15" d="M202.09 104.2C202.09 104.2 201.56 106.37 200.22 109.28C200.9 106.76 201.15 104.78 201.22 104.05C201.78 104.16 202.09 104.2 202.09 104.2Z" />
			<path id="path106" fill-rule="evenodd" class="shp2" d="M200.22 109.66C200.18 109.66 200.14 109.65 200.1 109.64C199.91 109.57 199.81 109.37 199.86 109.18C200.53 106.68 200.77 104.73 200.84 104.01C200.85 103.9 200.91 103.8 200.99 103.74C201.08 103.68 201.19 103.65 201.29 103.68C201.82 103.78 202.13 103.82 202.14 103.82C202.24 103.83 202.34 103.89 202.41 103.98C202.47 104.07 202.49 104.18 202.46 104.29C202.44 104.38 201.9 106.53 200.57 109.44C200.5 109.58 200.37 109.66 200.22 109.66ZM201.55 104.49C201.53 104.62 201.52 104.76 201.49 104.92C201.54 104.76 201.58 104.62 201.62 104.51C201.6 104.5 201.57 104.5 201.55 104.49Z" />
			<path id="path108" class="shp15" d="M201.24 103.74C201.24 103.74 201.24 103.85 201.22 104.05C200.87 103.97 200.42 103.87 199.91 103.73C200.75 103.77 201.24 103.74 201.24 103.74" />
			<path id="path110" class="shp2" d="M201.22 104.42C201.19 104.42 201.17 104.42 201.14 104.42C200.79 104.34 200.33 104.24 199.8 104.09C199.62 104.04 199.5 103.86 199.53 103.67C199.57 103.48 199.74 103.35 199.93 103.35C200.73 103.4 201.22 103.37 201.22 103.37C201.33 103.36 201.44 103.4 201.52 103.48C201.59 103.56 201.63 103.66 201.62 103.77L201.59 104.08C201.58 104.19 201.53 104.29 201.44 104.35C201.38 104.4 201.3 104.42 201.22 104.42Z" />
			<path id="path112" class="shp2" d="M102.06 162.1C101.9 162.1 101.74 162.08 101.58 162.05C100.35 161.78 99.58 160.57 99.84 159.35C101.75 150.55 107.14 144.93 114.26 144.33C120.86 143.77 127.11 147.86 129.79 154.52C130.26 155.69 129.7 157.01 128.54 157.48C127.38 157.94 126.06 157.38 125.59 156.22C123.65 151.42 119.26 148.46 114.64 148.85C109.61 149.28 105.74 153.56 104.28 160.31C104.05 161.37 103.11 162.1 102.06 162.1" />
			<path id="path114" class="shp2" d="M96.79 156C96.91 156.04 97.18 156.15 97.4 156.2C97.63 156.27 97.86 156.32 98.09 156.35C98.56 156.43 99.03 156.43 99.48 156.38C99.93 156.33 100.36 156.23 100.77 156.05C101.17 155.9 101.55 155.66 101.92 155.42L101.96 155.39C102.82 154.83 103.98 155.06 104.54 155.92C105.11 156.78 104.87 157.94 104.01 158.51C103.93 158.56 103.83 158.62 103.73 158.66C103.06 158.95 102.38 159.21 101.65 159.34C100.93 159.49 100.19 159.52 99.47 159.47C98.75 159.42 98.05 159.27 97.39 159.04C97.06 158.93 96.73 158.79 96.42 158.64C96.09 158.48 95.83 158.33 95.46 158.08C94.9 157.7 94.75 156.94 95.13 156.38C95.45 155.91 96.04 155.73 96.55 155.91L96.79 156" />
			<path id="path116" class="shp2" d="M97.84 151.97C97.95 152.06 98.2 152.25 98.41 152.37C98.63 152.5 98.86 152.62 99.1 152.71C99.58 152.89 100.06 153 100.55 153C101.04 153 101.52 152.97 102.01 152.81C102.24 152.76 102.48 152.63 102.72 152.55C102.95 152.44 103.19 152.31 103.42 152.2L103.58 152.12C104.51 151.68 105.62 152.07 106.06 152.99C106.51 153.92 106.12 155.04 105.19 155.48C105.12 155.52 105.03 155.55 104.95 155.58C104.57 155.7 104.2 155.83 103.81 155.93C103.41 156.01 103.03 156.13 102.61 156.15C101.8 156.27 100.95 156.21 100.13 156.06C99.31 155.91 98.53 155.59 97.83 155.18C97.48 154.97 97.16 154.74 96.85 154.48C96.53 154.2 96.28 153.97 95.95 153.56C95.52 153.04 95.6 152.27 96.13 151.84C96.57 151.48 97.19 151.49 97.62 151.81L97.84 151.97" />
			<path id="path118" class="shp2" d="M100.45 147.64C100.56 147.77 100.78 148.04 100.98 148.21C101.19 148.4 101.41 148.57 101.64 148.71C102.11 148.99 102.59 149.18 103.09 149.22C103.6 149.26 104.1 149.25 104.63 149.09C104.88 149.04 105.15 148.91 105.41 148.83L106.19 148.44L106.32 148.37C107.25 147.92 108.37 148.3 108.82 149.22C109.28 150.14 108.9 151.26 107.97 151.72C107.9 151.75 107.81 151.79 107.73 151.82C107.32 151.95 106.91 152.09 106.5 152.21C106.05 152.29 105.64 152.42 105.18 152.45C104.28 152.56 103.32 152.48 102.41 152.23C101.5 151.99 100.66 151.51 99.97 150.93C99.63 150.64 99.31 150.32 99.04 149.97C98.75 149.61 98.53 149.3 98.28 148.81C97.96 148.21 98.2 147.47 98.8 147.16C99.32 146.89 99.94 147.02 100.3 147.46L100.45 147.64" />
			<path id="path120" class="shp2" d="M196.33 162.1C195.29 162.1 194.35 161.37 194.12 160.31C192.65 153.56 188.78 149.28 183.75 148.85C179.15 148.46 174.74 151.42 172.81 156.22C172.34 157.38 171.01 157.94 169.85 157.48C168.69 157.01 168.13 155.69 168.6 154.52C171.29 147.86 177.53 143.76 184.13 144.33C191.25 144.93 196.64 150.55 198.55 159.35C198.82 160.57 198.04 161.78 196.82 162.05C196.65 162.08 196.49 162.1 196.33 162.1" />
			<path id="path122" class="shp2" d="M202.94 158.08C202.56 158.33 202.3 158.48 201.97 158.64C201.66 158.79 201.34 158.93 201.01 159.04C200.35 159.27 199.65 159.42 198.92 159.47C198.21 159.52 197.46 159.49 196.75 159.34C196.02 159.21 195.33 158.95 194.66 158.66C193.72 158.24 193.29 157.15 193.7 156.2C194.11 155.26 195.21 154.83 196.15 155.24C196.25 155.28 196.34 155.33 196.42 155.39L196.47 155.42C196.84 155.66 197.22 155.9 197.63 156.05C198.03 156.23 198.47 156.33 198.91 156.38C199.36 156.43 199.83 156.43 200.3 156.35C200.53 156.32 200.77 156.27 201 156.2C201.21 156.15 201.48 156.04 201.61 156L201.84 155.92C202.48 155.69 203.18 156.02 203.4 156.66C203.59 157.2 203.39 157.77 202.94 158.08" />
			<path id="path124" class="shp2" d="M202.45 153.56C202.12 153.97 201.86 154.2 201.55 154.48C201.24 154.74 200.91 154.97 200.56 155.18C199.86 155.59 199.08 155.91 198.26 156.06C197.45 156.21 196.59 156.27 195.78 156.15C195.36 156.13 194.98 156.01 194.58 155.93C194.19 155.83 193.82 155.7 193.44 155.58C192.46 155.26 191.92 154.21 192.23 153.23C192.55 152.25 193.6 151.71 194.58 152.03C194.66 152.05 194.73 152.08 194.81 152.12L194.97 152.2C195.21 152.31 195.44 152.44 195.67 152.55C195.91 152.63 196.15 152.76 196.39 152.81C196.87 152.97 197.35 153 197.84 153C198.33 153 198.82 152.89 199.29 152.71C199.53 152.62 199.76 152.5 199.98 152.37C200.19 152.25 200.44 152.06 200.55 151.97L200.77 151.81C201.31 151.41 202.07 151.52 202.48 152.06C202.82 152.52 202.79 153.14 202.45 153.56" />
			<path id="path126" class="shp2" d="M200.12 148.81C199.86 149.3 199.64 149.61 199.36 149.97C199.08 150.32 198.77 150.64 198.42 150.93C197.73 151.51 196.9 151.99 195.98 152.23C195.08 152.48 194.11 152.56 193.22 152.45C192.76 152.42 192.34 152.29 191.9 152.21C191.48 152.09 191.07 151.95 190.66 151.82C189.68 151.49 189.15 150.44 189.47 149.46C189.79 148.49 190.85 147.95 191.83 148.28C191.91 148.3 191.98 148.33 192.06 148.37L192.2 148.44L192.98 148.83C193.24 148.91 193.51 149.04 193.77 149.09C194.29 149.25 194.79 149.26 195.3 149.22C195.8 149.18 196.29 148.99 196.75 148.71C196.98 148.57 197.2 148.4 197.41 148.21C197.61 148.04 197.83 147.77 197.94 147.64L198.09 147.46C198.52 146.94 199.29 146.87 199.81 147.3C200.26 147.67 200.38 148.31 200.12 148.81" />
			<path id="path128" class="shp8" d="M367.62 377.96C368.3 377.85 368.57 378.8 367.93 379.06C362.13 381.44 354.95 382.84 346.07 382.77C306.71 382.47 296.42 341.5 268.44 356.81L266.56 343.71C273.44 337.35 288.58 326.46 305.41 334.08C327.49 344.09 330.56 383.98 367.62 377.96" />
			<path id="path130" class="shp10" d="M331.36 366.51C329.85 366.14 328.34 365.71 326.83 365.23C319.35 355.2 313.17 343.91 302.8 339.21C298.72 337.36 294.74 336.6 290.95 336.6C286.48 336.6 282.28 337.66 278.49 339.24C278.34 338.94 278.19 338.64 278.04 338.34C282.52 335.84 287.8 333.96 293.52 333.96C297.01 333.96 300.66 334.66 304.39 336.35L304.39 336.35C305.09 336.67 305.78 337.02 306.45 337.41C313.06 341.23 317.94 348.17 323.06 355.48C324.01 356.82 324.97 358.19 325.95 359.55C325.95 359.55 325.95 359.55 325.95 359.56C325.96 359.56 325.96 359.56 325.96 359.56C327.66 361.92 329.44 364.28 331.36 366.51" />
			<path id="path132" fill-rule="evenodd" class="shp2" d="M346.68 385.25C346.47 385.25 346.26 385.25 346.05 385.25C326.57 385.1 314.16 375.6 303.2 367.23C291.43 358.22 282.93 351.71 269.63 358.99C268.92 359.38 268.06 359.39 267.33 359.03C266.6 358.67 266.1 357.97 265.98 357.16L264.1 344.06C263.98 343.25 264.27 342.44 264.87 341.89C272.71 334.65 288.53 323.71 306.43 331.82C315.37 335.87 321.35 344.39 327.13 352.63C336.65 366.2 345.65 379.02 367.23 375.51C368.76 375.27 370.24 376.2 370.66 377.7C371.08 379.19 370.31 380.76 368.88 381.35C362.57 383.94 355.1 385.25 346.68 385.25ZM280.48 350.91C290.05 350.91 297.97 356.97 306.22 363.28C316.55 371.19 328.26 380.15 346.09 380.29C348.09 380.3 350.02 380.24 351.89 380.1C338.04 376.82 330.2 365.64 323.06 355.48C317.42 347.43 312.08 339.83 304.39 336.35C289.77 329.72 276.41 338.3 269.2 344.66L270.41 353.09C273.99 351.57 277.32 350.91 280.48 350.91ZM368.02 380.41L368.02 380.41L368.02 380.41Z" />
			<path id="path134" class="shp6" d="M387.44 360.26C384.52 366.65 379.78 372.77 372.19 377C372.14 377.03 372.09 377.05 372.03 377.07C330.76 387.08 328.34 344.47 305.41 334.08C288.58 326.46 273.44 337.35 266.56 343.71L264.75 331.13C272.02 326.1 294.86 312.73 319.71 323.13C341.45 332.23 368.3 372.44 386.6 359.55C387.07 359.22 387.68 359.73 387.44 360.26" />
			<path id="path136" fill-rule="evenodd" class="shp4" d="M360.31 378.98C342.11 378.98 333.32 366.46 324.78 354.28C318.96 345.99 313.47 338.16 305.25 334.44C288.86 327.01 274.14 337.24 266.82 344C266.71 344.1 266.56 344.13 266.43 344.08C266.29 344.03 266.19 343.91 266.17 343.76L264.36 331.18C264.34 331.04 264.4 330.89 264.53 330.8C271.12 326.25 294.59 312.19 319.86 322.77C327.94 326.15 336.82 333.89 345.41 341.37C359.99 354.07 375.07 367.19 386.38 359.23C386.73 358.98 387.2 359 387.54 359.28C387.88 359.56 387.98 360.02 387.8 360.42C384.41 367.83 379.22 373.53 372.38 377.35C372.3 377.39 372.22 377.43 372.12 377.45C367.78 378.5 363.86 378.98 360.31 378.98ZM293.49 331.06C297.35 331.06 301.41 331.84 305.57 333.73C313.98 337.54 319.54 345.45 325.42 353.83C335.48 368.17 345.9 383 371.94 376.69C378.69 372.93 383.77 367.35 387.09 360.09C387.14 359.98 387.07 359.91 387.04 359.88C387 359.85 386.92 359.81 386.83 359.87C375.02 368.19 359.71 354.85 344.9 341.96C336.35 334.52 327.52 326.82 319.56 323.5C294.9 313.17 271.94 326.67 265.17 331.31L266.84 342.92C272.53 337.79 282.16 331.06 293.49 331.06ZM387.44 360.26L387.45 360.26L387.44 360.26Z" />
			<path id="path138" class="shp6" d="M387.44 360.26C384.52 366.65 379.78 372.77 372.19 377C372.14 377.03 372.09 377.05 372.03 377.07C330.76 387.08 328.34 344.47 305.41 334.08C288.58 326.46 273.44 337.35 266.56 343.71L264.75 331.13C272.02 326.1 294.86 312.73 319.71 323.13C341.45 332.23 368.3 372.44 386.6 359.55C387.07 359.22 387.68 359.73 387.44 360.26" />
			<path id="path140" fill-rule="evenodd" class="shp4" d="M360.31 378.98C342.11 378.98 333.32 366.46 324.78 354.28C318.96 345.99 313.47 338.16 305.25 334.44C288.86 327.01 274.14 337.24 266.82 344C266.71 344.1 266.56 344.13 266.43 344.08C266.29 344.03 266.19 343.91 266.17 343.76L264.36 331.18C264.34 331.04 264.4 330.89 264.53 330.8C271.12 326.25 294.59 312.19 319.86 322.77C327.94 326.15 336.82 333.89 345.41 341.37C359.99 354.07 375.07 367.19 386.38 359.23C386.73 358.98 387.2 359 387.54 359.28C387.88 359.56 387.98 360.02 387.8 360.42C384.41 367.83 379.22 373.53 372.38 377.35C372.3 377.39 372.22 377.43 372.12 377.45C367.78 378.5 363.86 378.98 360.31 378.98ZM293.49 331.06C297.35 331.06 301.41 331.84 305.57 333.73C313.98 337.54 319.54 345.45 325.42 353.83C335.48 368.17 345.9 383 371.94 376.69C378.69 372.93 383.77 367.35 387.09 360.09C387.14 359.98 387.07 359.91 387.04 359.88C387 359.85 386.92 359.81 386.83 359.87C375.02 368.19 359.71 354.85 344.9 341.96C336.35 334.52 327.52 326.82 319.56 323.5C294.9 313.17 271.94 326.67 265.17 331.31L266.84 342.92C272.53 337.79 282.16 331.06 293.49 331.06ZM387.44 360.26L387.45 360.26L387.44 360.26Z" />
			<path id="path142" class="shp16" d="M358.87 358.97C345.83 349.15 331.96 334.16 319.72 329.03C313.08 326.25 306.59 325.17 300.5 325.17C296.17 325.17 292.04 325.72 288.2 326.6C289.86 325.34 291.47 323.93 292.94 322.37C295.4 322 297.96 321.79 300.59 321.79C302.11 321.79 303.66 321.86 305.22 322.01C309.61 322.44 314.15 323.5 318.75 325.42C318.87 325.47 318.99 325.52 319.11 325.58C326.3 328.7 334.4 335.6 342.31 342.48C342.72 342.83 343.12 343.18 343.53 343.53C348.96 348.27 354.46 353.05 359.87 356.87C359.56 357.61 359.23 358.31 358.87 358.97" />
			<path id="path144" fill-rule="evenodd" class="shp2" d="M360.37 381.06C341.02 381.06 331.57 367.59 323.06 355.48C317.42 347.43 312.08 339.83 304.39 336.35C289.09 329.42 275.18 339.13 268.24 345.53C267.56 346.16 266.6 346.36 265.73 346.05C264.86 345.74 264.23 344.97 264.1 344.06L262.29 331.48C262.16 330.55 262.56 329.62 263.34 329.09C270.15 324.37 294.42 309.86 320.67 320.84C329.06 324.35 338.07 332.2 346.79 339.79C360.76 351.96 375.21 364.54 385.17 357.52C386.29 356.73 387.81 356.79 388.87 357.67C389.93 358.55 390.27 360.04 389.7 361.29L389.7 361.29C386.12 369.12 380.64 375.13 373.4 379.17C373.15 379.31 372.89 379.41 372.61 379.48C368.13 380.57 364.07 381.06 360.37 381.06ZM293.47 328.96C297.6 328.96 301.95 329.79 306.43 331.82C315.37 335.87 321.35 344.39 327.13 352.63C337.21 366.98 346.73 380.54 371.2 374.71C375.79 372.11 379.57 368.57 382.48 364.14C381.24 364.44 379.99 364.58 378.72 364.58C367.7 364.59 355.46 353.92 343.53 343.53C335.11 336.2 326.4 328.62 318.75 325.42C296.23 315.99 275.07 327.33 267.43 332.32L268.37 338.89C274.45 334.06 283.28 328.96 293.47 328.96ZM371.45 374.65L371.44 374.66L371.45 374.65ZM387.44 360.26L387.45 360.26L387.44 360.26Z" />
			<path id="path146" class="shp3" d="M388.4 358C388.37 358.09 388.31 358.16 388.24 358.23C369.93 374.91 342.11 332.51 319.71 323.13C294.86 312.73 272.02 326.1 264.75 331.13L264.66 330.53C274.4 320.92 296.62 303.33 321.28 312.98C353.79 325.69 360.72 354.79 389.99 332.26C390.71 331.71 391.76 332.16 391.83 333.08C392.16 337.42 392.39 347.82 388.4 358Z" />
			<path id="path148" fill-rule="evenodd" class="shp4" d="M300.61 318.92C284.8 318.92 271.64 326.14 265.85 329.91C276.83 319.37 297.82 304.22 321.14 313.35C332.28 317.7 340.36 323.95 347.48 329.47C361.02 339.95 370.8 347.53 390.23 332.57C390.45 332.4 390.74 332.36 391 332.48C391.26 332.59 391.42 332.83 391.44 333.1C391.75 337.15 392.03 347.66 388.04 357.86C388.02 357.89 388 357.92 387.98 357.94C376.48 368.41 360.69 354.67 345.41 341.37C336.82 333.89 327.94 326.15 319.86 322.77C313.23 320 306.72 318.92 300.61 318.92ZM378.73 362.45C382.2 362.45 385.48 361.27 388.51 358.52C388.62 358.41 388.71 358.29 388.76 358.14C392.82 347.8 392.53 337.15 392.22 333.05C392.18 332.48 391.84 332 391.32 331.77C390.8 331.53 390.2 331.61 389.75 331.95C370.8 346.54 361.22 339.12 347.96 328.85C340.79 323.3 332.67 317.01 321.43 312.62C297.03 303.07 275.21 319.57 264.39 330.25C264.3 330.34 264.26 330.46 264.27 330.58L264.36 331.18C264.38 331.32 264.47 331.43 264.59 331.49C264.72 331.54 264.86 331.53 264.97 331.45C271.48 326.95 294.66 313.07 319.56 323.5C327.52 326.82 336.35 334.52 344.9 341.96C356.52 352.08 368.43 362.45 378.73 362.45ZM388.4 358L388.41 358L388.4 358Z" />
			<path id="path150" class="shp17" d="M362.19 343.45C350.29 339.17 339.97 325.01 319.83 317.14C314.8 315.17 309.87 314.34 305.13 314.34C302.7 314.34 300.31 314.56 297.99 314.96C298.21 314.46 298.41 313.95 298.6 313.44C301.16 312.93 303.79 312.64 306.48 312.64C310.97 312.64 315.63 313.43 320.38 315.29C331.24 319.54 339.19 325.69 346.2 331.12C351.72 335.39 356.77 339.31 362.18 341.43C362.19 342.12 362.19 342.79 362.19 343.45" />
			<path id="path152" fill-rule="evenodd" class="shp2" d="M300.62 316.82C294.07 316.82 287.98 318.02 282.63 319.69C293.15 313.6 306.36 309.81 320.38 315.29C331.24 319.54 339.19 325.69 346.2 331.12C359.49 341.41 370.08 349.61 389.49 335.73C389.63 340.48 389.29 348.66 386.25 356.68C376.14 365.35 361.88 352.93 346.79 339.79C338.07 332.2 329.06 324.35 320.67 320.84C313.75 317.95 306.98 316.82 300.62 316.82ZM378.73 364.62C382.64 364.62 386.39 363.27 389.91 360.07C390.26 359.75 390.54 359.35 390.71 358.91L390.71 358.91C394.92 348.16 394.63 337.13 394.31 332.89C394.21 331.56 393.39 330.4 392.18 329.86C390.95 329.31 389.54 329.48 388.48 330.3C370.81 343.9 362.69 337.61 349.24 327.2C341.96 321.56 333.71 315.18 322.19 310.67C295.73 300.32 271.93 319.88 262.92 328.76C262.36 329.31 262.09 330.1 262.21 330.88L262.29 331.48C262.41 332.33 262.97 333.06 263.76 333.4C264.54 333.75 265.45 333.66 266.16 333.17C272.45 328.82 294.83 315.41 318.75 325.42C326.4 328.62 335.11 336.2 343.53 343.53C355.49 353.95 367.75 364.62 378.73 364.62ZM388.4 358L388.41 358L388.4 358Z" />
			<path id="path154" class="shp9" d="M342.73 380.15C326.76 379 315.89 370.68 306.22 363.28C299.31 358 292.63 352.89 285.02 351.36C284.06 349.66 283.12 347.96 282.19 346.25C286.87 346.3 291.46 347.66 295.53 350.01L307.01 356.64L307.01 356.64C312.94 359.79 319.89 363.03 326.83 365.23C331.28 371.2 336.19 376.73 342.73 380.15" />
			<path id="path156" class="shp18" d="M346.69 380.29C346.49 380.29 346.29 380.29 346.09 380.29C344.95 380.28 343.82 380.23 342.73 380.15C336.19 376.73 331.28 371.2 326.83 365.23C328.34 365.71 329.85 366.14 331.36 366.51C336.68 372.72 343.06 378.01 351.88 380.1C350.2 380.23 348.47 380.29 346.69 380.29" />
			<path id="path158" class="shp2" d="M350.11 383.83C343.52 383.83 331.84 382.25 318.26 373.4L316.66 371.85C304.49 360.88 294.46 356.23 286.83 354.58C286.22 353.51 285.62 352.44 285.02 351.36C292.63 352.89 299.31 358 306.22 363.28C315.89 370.68 326.76 379 342.73 380.15C343.82 380.23 344.95 380.28 346.09 380.29C346.29 380.29 346.49 380.29 346.69 380.29C348.47 380.29 350.2 380.23 351.88 380.1C354.48 380.72 357.3 381.06 360.37 381.06C361.52 381.06 362.71 381.01 363.94 380.91C361.46 381.87 358.77 382.68 355.85 383.35C355.85 383.35 353.76 383.83 350.11 383.83Z" />
			<path id="path160" class="shp7" d="M360.35 376.1C351.35 376.1 344.86 372.78 339.47 367.85C340.32 367.91 341.15 367.95 341.97 367.95C349.16 367.95 355.3 365.51 358.87 358.97C365.83 364.2 372.56 367.97 378.69 367.97C378.99 367.97 379.28 367.96 379.58 367.94C377.19 370.64 374.39 372.9 371.2 374.71C367.21 375.66 363.62 376.1 360.35 376.1" />
			<path id="path162" class="shp19" d="M378.69 367.97C372.56 367.97 365.83 364.2 358.87 358.97C359.23 358.31 359.56 357.61 359.87 356.87C366.36 361.45 372.74 364.62 378.73 364.62C379.99 364.62 381.22 364.48 382.44 364.19C381.57 365.52 380.61 366.77 379.58 367.94C379.28 367.96 378.99 367.97 378.69 367.97" />
			<path id="path164" class="shp2" d="M360.37 381.06C357.3 381.06 354.48 380.72 351.88 380.1C343.06 378.01 336.68 372.72 331.36 366.51C334.13 367.19 336.85 367.66 339.47 367.85C344.86 372.78 351.35 376.1 360.35 376.1C363.62 376.1 367.21 375.66 371.2 374.71C374.39 372.9 377.19 370.64 379.58 367.94C380.61 366.77 381.57 365.52 382.44 364.19C383.51 363.93 384.57 363.55 385.61 363.04C381.42 370.13 374.69 376.78 363.94 380.91C362.71 381.01 361.52 381.06 360.37 381.06" />
			<path id="path166" class="shp5" d="M378.6 359.56C373.41 359.56 367.57 356.42 361.36 351.85C361.87 349.39 362.15 346.61 362.19 343.45C364.42 344.26 366.72 344.72 369.14 344.72C374.64 344.72 380.81 342.37 388.54 336.42C388.76 336.26 389 336.18 389.24 336.18C389.33 336.18 389.41 336.19 389.5 336.21C389.6 341.02 389.19 348.93 386.25 356.68C383.91 358.69 381.35 359.56 378.6 359.56" />
			<path id="path168" class="shp20" d="M369.14 344.72C366.72 344.72 364.42 344.26 362.19 343.45C362.19 342.79 362.19 342.12 362.18 341.43C364.85 342.47 367.62 343.09 370.57 343.09C376.02 343.08 382.12 341 389.49 335.73C389.49 335.89 389.49 336.05 389.5 336.21C389.41 336.19 389.33 336.18 389.24 336.18C389 336.18 388.76 336.26 388.54 336.42C380.81 342.37 374.64 344.72 369.14 344.72" />
			<path id="path170" class="shp2" d="M378.73 364.62C372.74 364.62 366.36 361.45 359.87 356.87C360.48 355.38 360.99 353.71 361.36 351.85C367.57 356.42 373.41 359.56 378.6 359.56C381.35 359.56 383.91 358.69 386.25 356.68C389.19 348.93 389.6 341.02 389.5 336.21C389.49 336.05 389.49 335.89 389.49 335.73C382.12 341 376.02 343.08 370.57 343.09C367.62 343.09 364.85 342.47 362.18 341.43C362.15 340.05 362.07 338.6 361.96 337.09C361.96 337.09 366.36 340.09 373.1 340.09C378.34 340.09 384.98 338.28 392.06 331.85C392.06 331.85 394.28 348.38 385.61 363.04C384.57 363.55 383.51 363.93 382.44 364.19C381.22 364.48 379.99 364.62 378.73 364.62" />
			<path id="path172" class="shp0" d="M270.61 333.13C270.61 333.13 296.86 325.13 297.59 306.94C298.6 281.45 276.7 228.72 261.71 225.06C247.65 221.63 232.36 234.86 232.36 234.86L270.61 333.13" />
			<path id="path174" class="shp2" d="M270.61 333.51C270.44 333.51 270.29 333.41 270.24 333.24C270.18 333.05 270.3 332.84 270.5 332.77C270.76 332.69 296.5 324.64 297.21 306.93C297.68 295.13 293.01 275.91 285.3 257.96C277.39 239.53 268.32 227.06 261.62 225.43C247.92 222.08 232.76 235.02 232.61 235.15C232.45 235.29 232.21 235.27 232.07 235.11C231.94 234.95 231.95 234.72 232.11 234.58C232.27 234.45 247.72 221.25 261.8 224.69C268.82 226.41 277.87 238.74 286 257.67C293.74 275.71 298.44 295.05 297.96 306.96C297.24 325.2 270.98 333.42 270.72 333.5C270.68 333.51 270.64 333.51 270.61 333.51" />
			<path id="path176" class="shp21" d="M273.77 329.53C272.03 325.73 270.46 321.88 269.23 317.95C269.05 317.37 268.87 316.79 268.69 316.21C271.66 315 275.17 313.31 278.47 311.06C279.26 311.99 280.04 312.63 280.8 312.87C281.18 312.99 281.6 313.05 282.05 313.05C283.81 313.05 286 312.13 287.95 310.5C291.23 307.77 292.91 303.99 292.45 300.41C292.19 298.43 291.27 295.1 290.15 291.52C290.41 285.67 289.73 278.63 288.36 271.16C293.04 284.81 295.67 298 295.32 306.85C294.83 319.2 280.74 326.61 273.77 329.53" />
			<path id="path178" class="shp2" d="M270.61 335.4C269.63 335.4 268.73 334.77 268.44 333.8C268.07 332.6 268.75 331.33 269.94 330.97C270.27 330.86 294.67 323.18 295.32 306.85C295.78 295.31 291.17 276.41 283.57 258.71C276 241.08 267.21 228.74 261.17 227.26C248.4 224.14 233.99 236.46 233.84 236.58C232.9 237.4 231.46 237.3 230.64 236.35C229.82 235.4 229.93 233.97 230.87 233.15C231.53 232.58 247.23 219.19 262.24 222.86C273.2 225.53 283.72 247.57 287.73 256.92C295.7 275.48 300.34 294.68 299.85 307.03C299.07 326.6 272.4 334.96 271.27 335.3C271.05 335.37 270.82 335.4 270.61 335.4" />
			<path id="path180" class="shp2" d="M238.86 249.25C238.53 249.25 238.2 249.19 237.89 249.04C236.76 248.5 236.27 247.15 236.81 246.02C243.43 231.96 262.42 224.22 263.22 223.9C264.39 223.44 265.7 224 266.17 225.16C266.64 226.32 266.07 227.64 264.91 228.11C264.73 228.18 246.77 235.52 240.91 247.95C240.52 248.77 239.71 249.25 238.86 249.25" />
			<path id="path182" class="shp0" d="M268.47 286.27C268.47 286.27 277.41 281.63 284.31 275.78C284.31 275.78 291.31 294.51 292.07 300.46C293 307.66 284.88 313.77 280.91 312.51C275.4 310.76 268.47 286.27 268.47 286.27Z" />
			<path id="path184" fill-rule="evenodd" class="shp2" d="M282.05 313.05C281.6 313.05 281.18 312.99 280.8 312.87C275.16 311.08 268.39 287.38 268.1 286.38C268.05 286.2 268.13 286.02 268.29 285.94C268.38 285.89 277.28 281.25 284.07 275.49C284.16 275.41 284.29 275.38 284.41 275.41C284.52 275.44 284.62 275.53 284.66 275.65C284.95 276.41 291.69 294.49 292.45 300.41C292.91 303.99 291.23 307.77 287.95 310.5C286 312.13 283.81 313.05 282.05 313.05ZM268.92 286.46C269.72 289.23 276.09 310.58 281.03 312.15C282.69 312.68 285.21 311.8 287.47 309.92C290.54 307.35 292.13 303.83 291.7 300.51C291.02 295.21 285.26 279.43 284.14 276.41C278.03 281.5 270.44 285.65 268.92 286.46Z" />
			<path id="path186" class="shp21" d="M282.08 312.3C281.7 312.3 281.35 312.25 281.03 312.15C279.39 311.63 277.6 308.95 275.91 305.49C275.96 305.5 276.01 305.5 276.07 305.5C280.26 305.5 286.91 299.84 286.07 293.29C285.68 290.23 283.64 283.82 281.76 278.3C282.57 277.69 283.37 277.06 284.14 276.41C285.26 279.43 291.02 295.21 291.7 300.51C292.13 303.83 290.54 307.35 287.47 309.92C285.65 311.44 283.65 312.3 282.08 312.3" />
			<path id="path188" class="shp2" d="M282.06 312.68C281.65 312.68 281.27 312.62 280.91 312.51C279.16 311.96 277.27 309.1 275.49 305.46C275.63 305.48 275.77 305.49 275.91 305.49C277.6 308.95 279.39 311.63 281.03 312.15C281.35 312.25 281.7 312.3 282.08 312.3C283.65 312.3 285.65 311.44 287.47 309.92C290.54 307.35 292.13 303.83 291.7 300.51C291.02 295.21 285.26 279.43 284.14 276.41C283.37 277.06 282.57 277.69 281.76 278.3C281.72 278.17 281.68 278.05 281.63 277.92C282.54 277.23 283.44 276.51 284.31 275.78C284.31 275.78 291.31 294.51 292.08 300.46C292.91 307.02 286.26 312.68 282.06 312.68Z" />
			<path id="path190" fill-rule="evenodd" class="shp2" d="M282.04 314.94C281.4 314.94 280.79 314.85 280.23 314.67C274.03 312.7 267.99 292.91 266.29 286.89C265.99 285.86 266.47 284.76 267.42 284.26C267.51 284.22 276.23 279.66 282.84 274.05C283.41 273.57 284.17 273.4 284.88 273.58C285.6 273.77 286.17 274.29 286.43 274.99C286.72 275.76 293.53 294.03 294.32 300.17C294.86 304.4 292.94 308.8 289.16 311.95C286.85 313.88 284.27 314.94 282.04 314.94ZM271.15 287.39C274.64 299.13 279.39 309.65 281.6 310.35C282.44 310.62 284.36 310.05 286.26 308.47C287.22 307.66 290.34 304.72 289.83 300.75C289.28 296.5 285.24 284.99 283.27 279.53C278.6 283.11 273.65 286 271.15 287.39Z" />
			<path id="path192" class="shp0" d="M106.97 249.75C106.97 249.75 87.75 246 59.61 232.07C43.9 224.29 26.74 239.53 32.57 256.07C32.66 256.31 32.74 256.56 32.83 256.8C39.63 275.31 76.99 291.48 108.74 290.98C140.49 290.48 140.23 297.73 140.23 297.73L106.97 249.75" />
			<path id="path194" class="shp2" d="M140.23 298.1L140.22 298.1C140.01 298.1 139.85 297.92 139.86 297.71C139.85 297.71 139.84 297.09 138.96 296.23C136.94 294.27 130.33 291.02 108.74 291.35C108.26 291.36 107.77 291.37 107.28 291.37C75.12 291.37 39.06 274.87 32.48 256.93C32.39 256.68 32.3 256.44 32.21 256.19C29.46 248.39 31.6 240.14 37.78 234.66C43.95 229.19 52.38 228.07 59.78 231.73C87.55 245.48 106.85 249.34 107.04 249.38C107.25 249.42 107.38 249.62 107.34 249.82C107.3 250.03 107.1 250.16 106.9 250.12C106.7 250.08 87.31 246.2 59.44 232.41C52.33 228.88 44.22 229.96 38.28 235.22C32.33 240.49 30.28 248.43 32.93 255.94C33.01 256.18 33.1 256.43 33.19 256.67C39.78 274.62 76.48 291.12 108.73 290.6C130.8 290.25 137.54 293.7 139.58 295.79C140.61 296.83 140.61 297.65 140.61 297.74C140.6 297.94 140.43 298.1 140.23 298.1" />
			<path id="path196" class="shp22" d="M67.12 237.46C67.12 237.46 64.04 274.4 42.75 271.56L35.95 263.16L31.84 255.84L30.75 249.47L32.83 241.25L36.82 236.13L44.34 231.98L55.37 230.12L67.12 237.46" />
			<path id="path198" class="shp21" d="M94.04 287.84C76.88 285.61 59.96 279.34 48.47 271.33C52.57 270.37 55.79 267.71 58.32 264.27C68.8 268.54 80.72 271.52 92.41 272.54C92.53 274.6 92.91 279.92 94.04 287.84Z" />
			<path id="path200" class="shp23" d="M48.47 271.33C41.79 266.66 36.94 261.41 34.96 256.02C34.88 255.78 34.79 255.55 34.71 255.31C33.98 253.24 33.64 251.12 33.69 249.06C39.6 254.92 48.3 260.19 58.32 264.27C55.79 267.71 52.57 270.37 48.47 271.33Z" />
			<path id="path202" fill-rule="evenodd" class="shp2" d="M140.23 299.99C140.21 299.99 140.18 299.99 140.15 299.99C139.02 299.95 138.11 299.09 137.98 298C137.7 297.5 134.36 292.83 108.77 293.25C93.16 293.47 75.58 289.79 60.51 283.09C44.76 276.09 34.17 267.03 30.71 257.58C30.61 257.33 30.52 257.08 30.43 256.82C27.42 248.28 29.76 239.24 36.53 233.24C43.28 227.26 52.52 226.03 60.62 230.04C88.11 243.64 107.21 247.49 107.4 247.52C108.63 247.76 109.43 248.96 109.19 250.18C108.95 251.41 107.76 252.21 106.53 251.98C105.74 251.82 86.7 248 58.61 234.1C52.19 230.93 44.88 231.9 39.53 236.64C34.17 241.39 32.32 248.54 34.71 255.31C34.79 255.55 34.88 255.78 34.96 256.02C41.31 273.32 77.17 289.21 108.7 288.71C126.08 288.44 136.92 290.37 140.93 294.46C142.44 296 142.51 297.41 142.5 297.81C142.46 299.03 141.45 299.99 140.23 299.99ZM137.97 297.65L137.97 297.65ZM137.97 297.65L137.97 297.65L137.97 297.65Z" />
			<path id="path204" class="shp0" d="M310.72 404.18C310.72 409.34 309.04 414.48 305.71 418.75C298.54 427.95 285.7 430.64 275.54 424.9C256.68 414.24 243.24 394.25 239.87 388.89C239.45 388.22 239.19 387.78 239.09 387.62C239.08 387.6 239.07 387.58 239.06 387.56L239.04 387.54L199.18 403.9C201.24 412.51 205.06 423.57 208.59 433.03C212.88 444.5 207.45 457.31 196.22 462.18C193.26 463.47 190.14 464.08 187.06 464.08C180.09 464.08 173.3 460.92 168.85 455.13C166.57 452.16 164.36 449.19 162.22 446.23C102.03 362.92 94.8 281.06 94.63 271.54C94.44 261.15 95.43 252.71 95.43 252.71L155.79 251.03L166.39 245.15L248.97 230.29C250.63 243.12 252.4 254.61 254.25 265C258.31 287.76 262.77 305.19 267.39 319.68C273.58 339.05 297.54 377.59 306.6 390.85C309.35 394.88 310.72 399.53 310.72 404.18Z" />
			<path id="path206" fill-rule="evenodd" class="shp2" d="M187.06 464.46C179.75 464.46 173 461.14 168.55 455.36C166.26 452.38 164.03 449.38 161.92 446.45C97.59 357.42 94.27 272.38 94.25 271.55C94.06 261.25 95.04 252.75 95.05 252.67C95.07 252.48 95.23 252.34 95.42 252.33L155.69 250.66L166.21 244.82C166.25 244.8 166.29 244.79 166.33 244.78L248.9 229.92C249 229.9 249.11 229.93 249.19 229.99C249.28 230.05 249.33 230.14 249.34 230.24C250.95 242.64 252.73 254.31 254.62 264.93C258.29 285.51 262.59 303.38 267.75 319.56C274.06 339.31 298.66 378.57 306.91 390.63C309.65 394.64 311.1 399.33 311.1 404.18C311.1 409.51 309.29 414.77 306.01 418.98C298.74 428.31 285.56 430.99 275.36 425.23C256.52 414.58 243.19 394.88 239.55 389.09C239.25 388.61 239.03 388.25 238.89 388.02L199.62 404.13C201.38 411.37 204.52 421.05 208.95 432.9C213.3 444.56 207.78 457.57 196.37 462.53C193.41 463.81 190.28 464.46 187.06 464.46ZM95.77 253.08C95.59 254.73 94.84 262.42 95.01 271.54C95.02 272.37 98.34 357.17 162.53 446.01C164.64 448.94 166.87 451.93 169.15 454.9C173.45 460.5 179.98 463.71 187.06 463.71C190.18 463.71 193.2 463.08 196.07 461.84C207.11 457.04 212.45 444.45 208.24 433.16C203.74 421.11 200.57 411.3 198.81 403.99C198.76 403.81 198.86 403.62 199.03 403.55L238.9 387.2C239.04 387.14 239.2 387.17 239.31 387.28C239.34 387.31 239.37 387.35 239.39 387.38C239.4 387.4 239.41 387.42 239.42 387.44L239.45 387.49C239.57 387.69 239.82 388.1 240.19 388.69C243.81 394.44 257.05 414.01 275.73 424.57C285.61 430.15 298.37 427.55 305.41 418.52C308.59 414.44 310.35 409.34 310.35 404.18C310.35 399.48 308.94 394.94 306.29 391.06C298.02 378.97 273.37 339.62 267.03 319.79C261.86 303.58 257.55 285.67 253.88 265.06C252 254.54 250.24 242.99 248.65 230.73L166.52 245.51L155.98 251.37C155.92 251.39 155.86 251.41 155.8 251.41C155.8 251.41 95.77 253.08 95.77 253.08ZM238.71 387.72L238.71 387.72L238.71 387.72Z" />
			<path id="path208" class="shp22" d="M204.68 421.97C204.68 421.97 187.86 446.36 159.37 439.34L164.47 449.71L169.72 456.4L178.25 462L187.72 462L195.46 461.55L200.81 458.31L205.49 453.13L210.35 445.13L209.3 435.72L204.68 421.97Z" />
			<path id="path210" class="shp22" d="M302.12 383.45C302.12 383.45 286.26 409.88 255.29 406.86L262.66 414.21L267.91 420.9L276.44 426.5L285.91 426.5L293.65 426.05L298.99 422.81L303.68 417.63L308.54 409.63L310.43 399.31L302.12 383.45Z" />
			<path id="path212" class="shp21" d="M198.62 428.63C197.48 425.19 195.74 422.19 193.59 420.28C189.07 416.26 183.46 413.37 181.12 412.26C186.07 411.06 190.86 409.45 195.6 407.73C196.27 407.48 196.94 407.23 197.61 406.98C198.88 411.8 200.67 417.54 202.97 424.14C201.96 425.33 200.5 426.92 198.62 428.63" />
			<path id="path214" class="shp23" d="M187.04 461.82C180.76 461.82 174.66 458.97 170.65 453.75C169.41 452.14 168.19 450.52 166.98 448.89C174.22 452.69 180.21 454.59 185.14 454.59C188.97 454.59 192.16 453.45 194.81 451.18C200.67 446.15 201.15 436.29 198.62 428.63C200.5 426.92 201.96 425.33 202.97 424.14C204.03 427.19 205.2 430.42 206.47 433.83C210.33 444.17 205.43 455.71 195.31 460.1C192.63 461.26 189.82 461.82 187.04 461.82" />
			<path id="path216" class="shp21" d="M179.94 410.93C179.78 408.29 179.76 399.93 185.41 393.85C195.4 383.07 210.22 380.44 221.14 380.44C225.36 380.44 228.99 380.83 231.54 381.3C236.17 382.15 239.42 384.21 240.51 385.81C240.1 385.47 239.58 385.28 239.04 385.28C238.76 385.28 238.46 385.33 238.18 385.45C233.27 387.48 228.34 389.48 223.41 391.46C218.48 393.45 213.52 395.37 208.6 397.4C203.67 399.38 198.79 401.5 193.94 403.68C189.18 405.86 184.47 408.17 179.94 410.93Z" />
			<path id="path218" fill-rule="evenodd" class="shp21" d="M302.06 419.42C303.59 417.92 304.89 416.19 305.9 414.31C306.18 413.79 306.43 413.26 306.66 412.73L303.68 417.63L302.06 419.42ZM294.91 392.21C297.45 389.7 299.32 387.4 300.52 385.78C300.02 385.01 299.53 384.25 299.03 383.48C295.77 378.39 292.59 373.25 289.48 368.07C283.28 357.7 277.28 347.21 271.94 336.29C269.3 330.83 266.75 325.23 264.91 319.31C263.08 313.53 261.42 307.71 259.89 301.85C258.05 294.79 256.42 287.68 254.94 280.55C253.67 281.68 252.39 282.76 251.09 283.8C251.02 283.86 250.93 283.89 250.85 283.89C250.74 283.89 250.63 283.84 250.56 283.75C250.43 283.58 250.45 283.34 250.61 283.21C250.62 283.21 250.62 283.21 250.62 283.21L250.01 282.39C249.88 288.28 250.64 295.65 252.95 304.81C261.58 339.07 278.45 366.34 288.3 381.7C290.9 385.77 293.15 389.2 294.91 392.21Z" />
			<path id="path220" class="shp23" d="M286.98 425.64C286.53 425.64 286.09 425.62 285.64 425.6C282.93 425.41 280.26 424.7 277.82 423.51C276.62 422.97 275.36 422.11 274.13 421.37C272.86 420.65 271.69 419.78 270.49 418.94C269.9 418.51 269.28 418.12 268.71 417.66L266.99 416.29C266.42 415.83 265.83 415.4 265.27 414.92L263.61 413.47C263.06 412.98 262.51 412.48 261.97 411.98C268.94 416.75 275.91 419.44 281.88 419.44C285.85 419.44 289.37 418.25 292.14 415.69C301.22 407.34 300.63 401.99 294.91 392.21C297.45 389.7 299.32 387.4 300.52 385.78C301.67 387.55 302.83 389.32 304.02 391.07L304.65 392.02L305.2 392.89C305.59 393.46 305.89 394.06 306.2 394.67C306.54 395.26 306.75 395.91 307.03 396.53C307.26 397.17 307.48 397.82 307.67 398.47C308.38 401.09 308.6 403.85 308.32 406.56C308.07 408.68 307.51 410.77 306.66 412.73L303.68 417.63L302.06 419.42C299.71 421.74 296.83 423.52 293.69 424.55C291.53 425.26 289.25 425.64 286.98 425.64" />
			<path id="path222" class="shp2" d="M187.04 466.36C179.38 466.36 171.94 462.88 167.05 456.51C95.99 364.03 92.38 272.48 92.36 271.58C92.17 261.16 93.13 252.8 93.17 252.45C93.32 251.21 94.45 250.31 95.69 250.46C96.93 250.61 97.82 251.73 97.68 252.98C97.67 253.06 96.71 261.4 96.9 271.5C96.9 271.74 97.65 296.1 109.12 334.02C122.23 377.4 142.94 417.68 170.65 453.75C176.43 461.28 186.58 463.89 195.31 460.1C205.43 455.71 210.33 444.17 206.47 433.83C201.93 421.68 198.74 411.79 196.97 404.43C196.68 403.21 197.43 401.99 198.65 401.69C199.86 401.4 201.09 402.15 201.38 403.37C203.11 410.55 206.25 420.26 210.72 432.24C215.43 444.84 209.45 458.91 197.12 464.26C193.85 465.68 190.42 466.36 187.04 466.36" />
			<path id="path224" class="shp2" d="M179.72 411.06C184.32 408.24 189.1 405.9 193.94 403.68C198.79 401.5 203.67 399.38 208.6 397.4C213.52 395.37 218.48 393.45 223.41 391.46C228.34 389.48 233.27 387.48 238.18 385.45C239.23 385.02 240.41 385.43 240.98 386.37L241 386.4C242.48 388.85 244.17 391.34 245.9 393.72C246.75 394.93 247.67 396.1 248.55 397.28C249.48 398.43 250.38 399.61 251.33 400.74C255.12 405.28 259.2 409.58 263.61 413.47L265.27 414.92C265.83 415.4 266.42 415.83 266.99 416.29L268.71 417.66C269.28 418.12 269.9 418.51 270.49 418.94C271.69 419.78 272.86 420.65 274.13 421.37C275.36 422.11 276.62 422.97 277.82 423.51C280.26 424.7 282.93 425.41 285.64 425.6C288.36 425.78 291.1 425.4 293.69 424.55C298.87 422.86 303.33 419.11 305.9 414.31C307.18 411.9 308 409.26 308.32 406.56C308.6 403.85 308.38 401.09 307.67 398.47C307.48 397.82 307.26 397.17 307.03 396.53C306.75 395.91 306.54 395.26 306.2 394.67C305.89 394.06 305.59 393.46 305.2 392.89L304.65 392.02L304.02 391.07C302.31 388.56 300.67 386.02 299.03 383.48C295.77 378.39 292.59 373.25 289.48 368.07C283.28 357.7 277.28 347.21 271.94 336.29C269.3 330.83 266.75 325.23 264.91 319.31C263.08 313.53 261.42 307.71 259.89 301.85C256.83 290.13 254.35 278.28 252.2 266.39C250.2 254.49 247.21 242.68 248.22 230.39C248.25 229.96 248.63 229.65 249.05 229.68C249.37 229.71 249.62 229.92 249.72 230.2C253.84 241.78 254.4 253.79 256.66 265.59C258.8 277.39 261.26 289.12 264.28 300.7C265.79 306.49 267.43 312.25 269.23 317.95C270.97 323.54 273.42 328.93 276.02 334.3C281.26 345.02 287.22 355.45 293.37 365.74C296.46 370.88 299.62 375.98 302.85 381.03C304.47 383.55 306.1 386.06 307.77 388.53L308.4 389.46L309.05 390.49C309.51 391.18 309.89 391.91 310.26 392.65C310.67 393.37 310.93 394.16 311.27 394.91C311.55 395.68 311.81 396.47 312.04 397.26C312.9 400.44 313.18 403.78 312.83 407.06C312.44 410.34 311.45 413.54 309.9 416.45C306.78 422.27 301.38 426.81 295.11 428.85C291.98 429.89 288.65 430.34 285.36 430.12C282.06 429.9 278.81 429.04 275.84 427.59C274.3 426.87 273.07 426.02 271.72 425.22C270.37 424.44 269.13 423.52 267.86 422.63C267.23 422.18 266.58 421.76 265.97 421.28L264.16 419.84C263.56 419.36 262.94 418.89 262.35 418.39L260.61 416.87C255.99 412.8 251.76 408.34 247.84 403.64C246.85 402.47 245.92 401.25 244.97 400.06C244.05 398.83 243.1 397.63 242.22 396.38C240.42 393.89 238.72 391.4 237.09 388.69L239.9 389.65C234.98 391.65 230.07 393.69 225.16 395.74C220.26 397.79 215.38 399.9 210.45 401.9C205.55 403.96 200.59 405.88 195.6 407.73C190.6 409.55 185.55 411.24 180.3 412.46C179.89 412.55 179.48 412.3 179.38 411.89C179.3 411.56 179.45 411.23 179.72 411.06" />
			<path id="path226" class="shp2" d="M106.46 249.99C106.26 249.99 106.05 249.96 105.85 249.9C104.64 249.57 103.94 248.31 104.28 247.11L108.32 232.74C108.66 231.54 109.91 230.83 111.12 231.17C112.32 231.51 113.03 232.76 112.69 233.97L108.64 248.34C108.36 249.34 107.45 249.99 106.46 249.99Z" />
			<path id="path228" class="shp0" d="M248.97 230.29C242.68 242.81 211.26 255.38 172.38 259.98C133.49 264.59 99.99 259.71 90.96 248.99L88.5 228.23C88.37 227.14 89.62 226.48 90.48 227.15C102.07 236.27 133.49 240.15 169.53 235.88C205.55 231.61 235.18 220.51 244.33 208.94C245.01 208.08 246.38 208.44 246.51 209.52L248.97 230.29" />
			<path id="path230" fill-rule="evenodd" class="shp2" d="M91.32 248.84L88.88 228.18C88.84 227.84 88.99 227.53 89.29 227.37C89.53 227.23 89.91 227.18 90.25 227.45C102.28 236.91 134.16 240.45 169.57 236.26C204.97 232.06 235.13 221.18 244.63 209.17C244.9 208.83 245.28 208.79 245.54 208.87C245.87 208.96 246.09 209.22 246.13 209.57L248.58 230.22C242.13 242.79 210.12 255.13 172.33 259.61C134.53 264.09 100.51 259.56 91.32 248.84ZM144.23 262.07C153.14 262.07 162.66 261.51 172.42 260.36C210.54 255.84 242.87 243.27 249.31 230.46C249.34 230.4 249.35 230.32 249.34 230.25L246.88 209.48C246.81 208.83 246.37 208.32 245.75 208.14C245.11 207.96 244.46 208.18 244.04 208.7C234.66 220.56 204.7 231.34 169.48 235.51C134.25 239.68 102.6 236.2 90.71 226.86C90.19 226.44 89.5 226.38 88.92 226.71C88.35 227.02 88.05 227.62 88.13 228.27L90.59 249.04C90.6 249.11 90.63 249.18 90.67 249.24C97.54 257.39 118.33 262.07 144.23 262.07Z" />
			<path id="path232" class="shp24" d="M248.97 230.29C242.68 242.81 211.26 255.38 172.38 259.98C133.49 264.59 99.99 259.71 90.96 248.99L88.5 228.23C88.37 227.14 89.62 226.48 90.48 227.15C102.07 236.27 133.49 240.15 169.53 235.88C205.55 231.61 235.18 220.51 244.33 208.94C245.01 208.08 246.38 208.44 246.51 209.52L248.97 230.29" />
			<path id="path234" class="shp25" d="M187.84 232.66C188.74 232.3 189.62 231.93 190.48 231.56C193.27 231.03 195.98 230.47 198.63 229.88C198.7 230 198.77 230.12 198.84 230.24C195.3 231.12 191.62 231.92 187.84 232.66Z" />
			<path id="path236" class="shp26" d="M203.49 229.04C203.44 228.96 203.39 228.87 203.34 228.79C205.26 228.32 207.13 227.84 208.95 227.35C208.96 227.39 208.96 227.43 208.96 227.47C207.18 228.01 205.36 228.53 203.49 229.04" />
			<path id="path238" class="shp27" d="M198.84 230.24C198.77 230.12 198.7 230 198.63 229.88C200.22 229.53 201.8 229.16 203.34 228.79C203.39 228.87 203.44 228.96 203.49 229.04C201.97 229.45 200.42 229.85 198.84 230.24M208.96 227.47C208.96 227.43 208.96 227.39 208.95 227.35C210.03 227.06 211.1 226.76 212.15 226.46C211.1 226.8 210.04 227.14 208.96 227.47" />
			<path id="path240" class="shp27" d="M140.89 237.25C135.65 237.25 130.63 237.06 125.89 236.68C128.97 236.82 132.17 236.88 135.49 236.88C145.89 236.88 157.37 236.21 169.4 234.79C176.72 233.92 183.79 232.83 190.48 231.56C189.62 231.93 188.74 232.3 187.84 232.66C181.95 233.8 175.8 234.76 169.48 235.51C159.54 236.68 149.9 237.25 140.89 237.25Z" />
			<path id="path242" fill-rule="evenodd" class="shp27" d="M141.11 237.62C132.57 237.62 124.63 237.1 117.6 236.13C120.24 236.37 123.01 236.56 125.89 236.68C130.63 237.06 135.65 237.25 140.89 237.25C149.9 237.25 159.54 236.68 169.48 235.51C175.8 234.76 181.95 233.8 187.84 232.66C191.62 231.92 195.3 231.12 198.84 230.24C200.42 229.85 201.97 229.45 203.49 229.04C205.36 228.53 207.18 228.01 208.96 227.47C210.04 227.14 211.1 226.8 212.15 226.46C214.93 225.66 217.58 224.84 220.09 223.98C206.58 229.28 188.99 233.58 169.53 235.88C159.59 237.06 150.02 237.62 141.11 237.62ZM247.25 215.76L246.75 211.57C246.75 211.59 246.76 211.6 246.76 211.62L247.25 215.75C247.25 215.75 247.25 215.75 247.25 215.76Z" />
			<path id="path244" class="shp28" d="M136.27 243.34C115.5 243.34 99.09 240.64 91.51 235.86C91.28 235.72 91.03 235.66 90.78 235.66C90.09 235.66 89.44 236.13 89.52 236.78L88.75 230.33C88.68 229.69 89.33 229.2 90.01 229.2C90.27 229.2 90.52 229.27 90.75 229.41C95.98 232.71 105.42 235.02 117.6 236.13C124.63 237.1 132.57 237.62 141.11 237.62C150.02 237.62 159.59 237.06 169.53 235.88C188.99 233.58 206.58 229.28 220.09 223.98C231.66 220.06 240.29 215.62 244.6 211.2C244.88 210.91 245.26 210.78 245.62 210.78C246.16 210.78 246.66 211.07 246.75 211.57L247.25 215.76C247.01 216.25 246.76 216.75 246.52 217.24C246.48 217.23 246.43 217.23 246.38 217.23C246.02 217.23 245.64 217.36 245.37 217.64C235.99 227.27 206.19 236.97 170.16 241.24C158.15 242.66 146.66 243.34 136.27 243.34Z" />
			<path id="path246" class="shp29" d="M145.5 261.62C118.75 261.62 97.73 256.38 90.81 247.67L89.65 237.9C96.57 246.61 117.6 251.85 144.34 251.85C152.82 251.85 161.86 251.33 171.22 250.22C202.86 246.47 229.51 237.07 241.69 226.55C237.61 234.02 233.93 239.84 231.18 243.91C217.06 251.18 196.12 257.17 172.38 259.98C163.02 261.09 153.97 261.62 145.5 261.62" />
			<path id="path248" fill-rule="evenodd" class="shp2" d="M144.01 263.98C125.32 263.98 109.11 261.56 98.71 256.98C92.8 254.37 88.65 248.72 87.88 242.25L86.25 228.5C86.08 227.09 86.78 225.73 88.01 225.04C89.24 224.35 90.75 224.47 91.85 225.34C103.15 234.28 134.99 237.69 169.26 233.63C203.52 229.57 233.67 218.82 242.59 207.49C243.45 206.39 244.88 205.93 246.24 206.31C247.6 206.69 248.59 207.85 248.76 209.26L251.22 230.03C251.27 230.47 251.2 230.91 251 231.31C244.19 244.86 211.97 257.58 172.65 262.24C162.78 263.4 153.1 263.98 144.01 263.98ZM92.38 241.72C92.96 246.61 96.09 250.86 100.55 252.83C115.29 259.34 142.71 261.21 172.11 257.73C213.59 252.82 240.73 240.11 246.63 229.85L244.54 212.15C233.32 223.79 203.92 234.09 169.79 238.13C135.65 242.18 104.65 239.03 91.03 230.32L92.38 241.72Z" />
			<path id="path250" class="shp0" d="M226.4 251.16C226.4 251.16 238.61 236.29 251.22 208.13C258.26 192.41 280.8 193.22 286.73 209.4C286.82 209.63 286.91 209.87 286.99 210.12C293.42 228.4 275.23 264.02 250.85 283.51L226.4 251.16" />
			<path id="path252" class="shp2" d="M250.85 283.89C250.74 283.89 250.63 283.84 250.56 283.75C250.43 283.58 250.45 283.34 250.61 283.21C275.36 263.43 292.87 227.96 286.63 210.24C286.55 210 286.46 209.76 286.38 209.53C283.68 202.18 277.16 197.45 269.36 197.18C261.57 196.91 254.76 201.16 251.57 208.28C239.08 236.17 226.81 251.25 226.69 251.4C226.56 251.56 226.32 251.58 226.16 251.45C225.99 251.32 225.97 251.08 226.1 250.92C226.23 250.77 238.44 235.76 250.88 207.97C254.2 200.57 261.29 196.15 269.39 196.42C277.5 196.71 284.29 201.63 287.09 209.27C287.17 209.51 287.26 209.75 287.35 209.99C293.67 227.97 276.05 263.84 251.09 283.8C251.02 283.86 250.93 283.89 250.85 283.89" />
			<path id="path254" class="shp22" d="M247.52 216.05C247.52 216.05 257.46 238.1 286.96 233.36L288.28 219.2L287.44 211.59L281.54 203.2L280.31 199.06L273.01 197.27L264.6 196.79L255.69 200.77L251.22 208.13L247.52 216.05" />
			<path id="path256" class="shp21" d="M250.72 283.13C247.94 275.14 249.85 266.26 255.69 260.11C263.2 252.2 269.69 243 274.48 233.8C275.89 233.94 277.37 234.02 278.91 234.02C280.92 234.03 283.03 233.89 285.27 233.6C279.91 250.57 266.86 270.18 250.72 283.13Z" />
			<path id="path258" class="shp2" d="M250.85 283.51C250.8 283.38 250.76 283.26 250.72 283.13C266.86 270.18 279.91 250.57 285.27 233.6C285.42 233.58 285.56 233.56 285.71 233.54C280.29 250.82 266.91 270.67 250.85 283.51" />
			<path id="path260" class="shp21" d="M286.77 210.63L283.09 205.41C283.11 204.87 283.11 204.33 283.1 203.81C284.48 205.46 285.59 207.38 286.38 209.53C286.46 209.76 286.55 210 286.63 210.24C286.68 210.37 286.72 210.5 286.77 210.63" />
			<path id="path262" class="shp2" d="M287.72 225.2L288.28 219.2L287.44 211.59L286.77 210.63C286.72 210.5 286.68 210.37 286.63 210.24C286.55 210 286.46 209.76 286.38 209.53C285.59 207.38 284.48 205.46 283.1 203.81C283.1 203.6 283.09 203.4 283.08 203.2C284.6 204.92 285.85 206.99 286.73 209.39C286.82 209.64 286.9 209.88 286.99 210.12C288.48 214.35 288.65 219.52 287.72 225.2" />
			<path id="path264" class="shp23" d="M278.91 234.02C277.37 234.02 275.89 233.94 274.48 233.8C279.68 223.79 282.86 213.77 283.09 205.41L286.77 210.63L287.44 211.59L288.28 219.2L287.72 225.2C287.29 227.88 286.61 230.67 285.71 233.54C285.56 233.56 285.42 233.58 285.27 233.6C283.03 233.89 280.92 234.03 278.91 234.02Z" />
			<path id="path266" class="shp2" d="M225.81 250.68C227.2 247.05 229.05 243.81 231 240.62C232.91 237.4 234.94 234.27 236.89 231.06C238.86 227.88 240.62 224.56 242.37 221.25C244.09 217.91 245.75 214.55 247.34 211.15L248.51 208.59L249.1 207.31L249.79 205.91C250.77 204.05 252.02 202.31 253.51 200.8C256.48 197.76 260.42 195.7 264.56 194.92C268.71 194.13 273.08 194.54 276.99 196.15C280.91 197.75 284.34 200.59 286.64 204.15C286.91 204.61 287.19 205.06 287.45 205.51L288.16 206.93L288.76 208.38C288.96 208.87 289.11 209.29 289.27 209.81C289.96 211.81 290.25 213.87 290.45 215.9C290.75 219.97 290.34 223.97 289.54 227.82C287.92 235.53 284.94 242.77 281.35 249.6C277.74 256.43 273.44 262.87 268.59 268.87C267.39 270.37 266.13 271.84 264.85 273.28C263.56 274.72 262.31 276.19 260.99 277.61C260.31 278.3 259.64 279 258.91 279.63C258.55 279.95 258.17 280.26 257.79 280.57C257.42 280.87 257.05 281.18 256.65 281.46C255.85 282.02 255.02 282.55 254.15 283C253.25 283.43 252.34 283.84 251.32 284.1C250.88 284.21 250.43 283.95 250.31 283.5C250.26 283.31 250.29 283.11 250.37 282.94L250.38 282.92C250.82 281.97 251.37 281.17 251.93 280.4C252.48 279.61 253.07 278.88 253.69 278.19C254.93 276.8 256.21 275.48 257.55 274.2C258.88 272.92 260.23 271.64 261.46 270.25C262.7 268.87 263.91 267.46 265.07 266.02C269.73 260.24 273.88 254.03 277.34 247.48C280.79 240.94 283.6 234.02 285.09 226.9C285.84 223.35 286.18 219.75 285.93 216.26C285.76 214.54 285.52 212.81 284.96 211.23C284.85 210.85 284.68 210.37 284.52 209.99L284.04 208.82L283.47 207.7L282.83 206.62C281.02 203.82 278.36 201.61 275.27 200.35C272.19 199.07 268.7 198.74 265.42 199.37C262.13 200 259.06 201.61 256.74 203.98C255.58 205.16 254.59 206.53 253.81 208.02L253.24 209.17L252.64 210.47L251.45 213.07C249.84 216.52 248.14 219.94 246.4 223.34C244.62 226.72 242.79 230.07 240.94 233.42C239.11 236.77 237.18 240.08 234.94 243.2C232.73 246.33 230.29 249.33 226.98 251.64C226.62 251.89 226.14 251.8 225.89 251.44C225.73 251.22 225.71 250.95 225.8 250.72L225.81 250.68" />
			<path id="path268" class="shp2" d="M205.77 403.46C205.09 403.46 204.42 403.16 203.97 402.58C183.12 375.54 171.23 338.59 164.93 312.35C158.12 283.99 156.19 261.66 156.17 261.44C156.06 260.19 156.99 259.1 158.24 258.99C159.48 258.89 160.58 259.81 160.69 261.06C160.76 261.94 168.55 349.21 207.57 399.81C208.33 400.8 208.15 402.23 207.15 402.99C206.74 403.31 206.25 403.46 205.77 403.46" />
			<path id="path270" class="shp30" d="M128.4 90.35C128.03 61.66 139.67 38.25 144.29 38.19C148.91 38.13 161.14 61.24 161.51 89.93L128.4 90.35Z" />
			<path id="path272" class="shp31" d="M137.96 71.18C137.73 71.18 137.54 71.07 137.39 70.83C133.88 65.07 140.48 49.55 143.07 48.42C143.23 48.35 143.37 48.32 143.5 48.32C144.89 48.32 145.19 51.79 145.15 55.27C145.09 60.23 143.52 65.07 140.5 69C139.54 70.26 138.61 71.18 137.96 71.18" />
			<path id="path274" class="shp32" d="M158.15 76.18C156.97 75.34 155.52 74.44 153.82 73.64C155.17 72.61 156.3 71.63 157.21 70.77C157.56 72.52 157.87 74.33 158.15 76.18M149.48 72.05C148.93 71.9 148.36 71.76 147.77 71.65C150.64 68.72 152.18 64.53 151.48 60.12C150.61 54.63 149.37 49.54 147.95 45.01C150.6 49.45 153.88 56.88 156.22 66.37C155.1 67.59 152.87 69.78 149.48 72.05Z" />
			<path id="path276" class="shp2" d="M128.4 92.62C127.16 92.62 126.15 91.63 126.13 90.38C125.91 73.09 129.93 59.39 132.34 52.76C133.77 48.83 138.86 36 144.26 35.93C144.27 35.93 144.29 35.93 144.3 35.93C149.68 35.93 155.08 48.57 156.61 52.45C159.19 59.01 163.56 72.61 163.78 89.9C163.8 91.15 162.79 92.18 161.54 92.2C160.3 92.23 159.26 91.21 159.24 89.96C158.89 62.41 147.57 42.13 144.32 40.51C141.11 42.22 130.31 62.78 130.67 90.32C130.68 91.58 129.68 92.61 128.43 92.62L128.4 92.62" />
			<path id="path278" class="shp2" d="M128.65 83.47C127.71 83.47 126.9 82.77 126.78 81.81C126.65 80.78 127.39 79.83 128.42 79.71C147.93 77.29 157 65.48 157.09 65.36C157.71 64.53 158.89 64.36 159.73 64.98C160.56 65.6 160.74 66.78 160.11 67.62C159.71 68.15 150.07 80.83 128.89 83.45C128.81 83.46 128.73 83.47 128.65 83.47Z" />
			<path id="path280" class="shp2" d="M131.27 66.23C130.36 66.23 129.56 65.57 129.41 64.64C129.24 63.62 129.94 62.64 130.97 62.48C131.18 62.44 145.63 59.92 152.06 50.16C152.64 49.28 153.81 49.04 154.68 49.62C155.55 50.19 155.79 51.36 155.22 52.23C147.85 63.42 132.24 66.09 131.58 66.2C131.47 66.22 131.37 66.23 131.27 66.23" />
			<path id="path282" class="shp8" d="M125.98 80.07C113.66 79.1 102.51 87.43 100.27 99.58C99.37 104.5 99.7 110.16 102.84 115.95C110.44 129.97 127.75 130.25 145.75 126.13C145.75 126.13 127.02 93.5 132.55 81.21C132.55 81.21 129.92 80.39 125.98 80.07" />
			<path id="path284" class="shp10" d="M106.38 91.06C109.98 86.22 115.54 82.99 121.78 82.37C121.17 83.67 120.72 85.06 120.45 86.5C115.27 86.53 110.38 88.19 106.38 91.06" />
			<path id="path286" class="shp9" d="M127.78 126.18C116.5 126.18 108.93 122.43 104.84 114.87C102.33 110.24 101.54 105.23 102.5 99.99C102.71 98.9 102.99 97.83 103.34 96.81C103.69 99.63 104.56 102.56 106.17 105.54C110.43 113.4 117.75 116.94 126.53 117.81C127.21 118.77 127.95 119.71 128.77 120.64C130.63 122.76 132.71 124.44 134.91 125.74C132.38 126.03 130.01 126.18 127.78 126.18" />
			<path id="path288" fill-rule="evenodd" class="shp2" d="M127.66 130.73C114.65 130.73 105.81 126.18 100.85 117.03C97.83 111.47 96.89 105.46 98.04 99.17C100.48 85.92 112.57 76.73 126.15 77.81C130.3 78.14 133.11 79.01 133.23 79.04C133.85 79.24 134.36 79.69 134.62 80.28C134.89 80.87 134.89 81.55 134.62 82.14C130.48 91.35 142.67 116.2 147.72 125C148.07 125.62 148.12 126.38 147.83 127.03C147.54 127.69 146.96 128.18 146.26 128.34C139.31 129.93 133.12 130.73 127.66 130.73ZM124 82.26C113.48 82.26 104.41 89.62 102.5 99.99C101.54 105.23 102.33 110.24 104.84 114.87C110.49 125.31 122.76 128.49 142.28 124.55C137.98 116.61 127.12 94.91 129.66 82.86C128.64 82.66 127.32 82.46 125.8 82.33C125.19 82.29 124.59 82.26 124 82.26Z" />
			<path id="path290" class="shp6" d="M130.96 76.24C126.52 78.32 123.38 82.46 122.61 87.31C121.35 95.32 121.18 108.58 130.47 119.14C144.82 135.46 173.36 122.76 173.36 122.76C173.36 122.76 158.54 89.55 160.05 80.81C160.05 80.81 148.96 67.83 130.96 76.24" />
			<path id="path292" fill-rule="evenodd" class="shp4" d="M131.13 76.6C147.66 68.87 158.4 79.61 159.64 80.93C158.41 89.54 171.16 118.75 172.84 122.56C169.5 123.94 143.89 133.81 130.76 118.88C121.84 108.74 121.62 96.14 123 87.37C123.74 82.66 126.78 78.63 131.13 76.6ZM151.25 127.81C162.76 127.81 173.34 123.2 173.52 123.12C173.61 123.08 173.69 123 173.72 122.9C173.76 122.81 173.76 122.7 173.72 122.6C173.57 122.27 158.96 89.4 160.44 80.87C160.46 80.76 160.43 80.64 160.35 80.55C160.24 80.42 148.86 67.45 130.8 75.89C126.21 78.03 123.01 82.28 122.23 87.25C121.07 94.57 120.57 108.48 130.18 119.4C135.85 125.85 143.75 127.81 151.25 127.81Z" />
			<path id="path294" class="shp7" d="M151.26 125.18C144.39 125.18 137.24 123.4 132.17 117.64C123.73 108.04 123.53 96.04 124.85 87.66C124.94 87.14 125.05 86.64 125.19 86.14C125.29 93.45 127.16 102.17 133.67 109.56C139.27 115.95 147.06 117.89 154.46 117.89C156.91 117.89 159.33 117.68 161.61 117.34C163.88 119.45 166.34 120.97 168.82 122.05C164.88 123.37 158.21 125.18 151.26 125.18" />
			<path id="path296" class="shp16" d="M126.61 82.98C127.87 80.98 129.7 79.34 131.92 78.3C136.01 76.39 139.69 75.67 142.92 75.67C148.29 75.67 152.41 77.66 155.03 79.46C154.77 79.8 154.53 80.16 154.32 80.54C153.96 81.09 153.66 81.67 153.41 82.3C150.48 80.49 146.25 78.72 140.95 78.72C137.43 78.72 133.44 79.49 129.03 81.55C128.17 81.96 127.36 82.44 126.61 82.98" />
			<path id="path298" fill-rule="evenodd" class="shp2" d="M157.7 81.62C157.35 90.77 167.02 113.88 170.33 121.51C163.71 123.93 143.1 130.07 132.17 117.64C123.73 108.04 123.53 96.04 124.85 87.66C125.5 83.57 128.14 80.07 131.92 78.3C145.97 71.73 155.26 79.25 157.7 81.62ZM151.27 129.78C162.95 129.78 173.55 125.16 174.28 124.83C174.83 124.59 175.26 124.14 175.48 123.57C175.69 123.01 175.67 122.39 175.43 121.84C169.59 108.74 161.26 87.1 162.29 81.2C162.4 80.53 162.22 79.85 161.78 79.33C161.66 79.19 149.34 65.15 130 74.19C124.85 76.6 121.25 81.37 120.37 86.95C119.17 94.6 118.66 109.14 128.77 120.64C134.94 127.66 143.35 129.78 151.27 129.78Z" />
			<path id="path300" class="shp3" d="M163.18 76.38C158.51 76.17 154.36 79.32 153.33 83.88C152.09 89.28 151.39 97.34 154.67 105.97C159.57 118.86 169.46 122.98 177.37 123.91C196.68 126.2 202.1 104.2 202.1 104.2C202.1 104.2 189.54 102.81 184.69 89.27C183.19 85.09 180.1 81.66 176.09 79.77C172.62 78.13 168.15 76.61 163.18 76.38" />
			<path id="path302" fill-rule="evenodd" class="shp4" d="M162.73 76.77C162.87 76.77 163.02 76.77 163.16 76.77C167.34 76.97 171.63 78.09 175.92 80.12C179.86 81.98 182.84 85.28 184.32 89.4C188.67 101.56 199.28 104.1 201.6 104.51C200.73 107.5 194.71 125.58 177.42 123.52C169.94 122.64 159.98 118.85 155.04 105.83C151.77 97.24 152.51 89.2 153.71 83.96C154.67 79.73 158.43 76.77 162.73 76.77ZM180.11 124.47C197.3 124.47 202.42 104.5 202.48 104.29C202.5 104.18 202.48 104.06 202.42 103.97C202.35 103.88 202.25 103.82 202.14 103.81C202.02 103.79 189.77 102.3 185.06 89.14C183.51 84.82 180.38 81.36 176.25 79.41C171.87 77.34 167.48 76.19 163.2 75.99C158.33 75.78 154.03 79.05 152.94 83.79C151.72 89.13 150.97 97.33 154.31 106.11C159.39 119.49 169.63 123.39 177.33 124.3C178.29 124.42 179.22 124.47 180.11 124.47Z" />
			<path id="path304" class="shp0" d="M188.08 94.97C187.74 94.5 187.41 94 187.1 93.48C187.42 93.98 187.75 94.46 188.09 94.91C188.09 94.93 188.08 94.95 188.08 94.97" />
			<path id="path306" class="shp33" d="M199.91 102.97C199.5 102.95 199.02 102.91 198.48 102.84C195.52 101.76 191.32 99.51 188.08 94.97C188.08 94.95 188.09 94.93 188.09 94.91C191.98 100.09 197.05 102.17 199.91 102.97" />
			<path id="path308" class="shp34" d="M181.11 82.85C179.73 81.44 178.09 80.28 176.25 79.41C171.87 77.34 167.48 76.19 163.2 75.99C163.05 75.99 162.9 75.98 162.75 75.98C162.73 75.98 162.72 75.98 162.7 75.98C162.68 75.86 162.67 75.74 162.65 75.62C162.67 75.62 162.7 75.62 162.73 75.62C162.88 75.62 163.03 75.62 163.18 75.63C168.14 75.86 172.62 77.37 176.09 79.01C178.04 79.93 179.77 81.22 181.2 82.77C181.18 82.8 181.14 82.82 181.11 82.85" />
			<path id="path310" class="shp35" d="M183.3 85.58C182.67 84.59 181.93 83.68 181.11 82.85C181.14 82.82 181.18 82.8 181.2 82.77C182 83.63 182.7 84.57 183.3 85.58Z" />
			<path id="path312" class="shp35" d="M158.9 76.74C158.81 76.67 158.72 76.6 158.63 76.54C159.86 75.96 161.22 75.63 162.65 75.62C162.67 75.74 162.68 75.86 162.7 75.98C161.37 75.99 160.08 76.26 158.9 76.74Z" />
			<path id="path314" class="shp36" d="M154.32 80.54C154.53 80.16 154.77 79.8 155.03 79.46C155.05 79.47 155.07 79.49 155.1 79.5C154.82 79.83 154.56 80.17 154.32 80.54Z" />
			<path id="path316" class="shp35" d="M155.1 79.5C155.07 79.49 155.05 79.47 155.03 79.46C155.97 78.2 157.21 77.2 158.63 76.54C158.72 76.6 158.81 76.67 158.9 76.74C157.43 77.35 156.13 78.3 155.1 79.5Z" />
			<path id="path318" class="shp17" d="M195.03 102.13C190.83 100.92 185.38 98.04 181.53 91.28C179.33 87.42 175.7 84.57 171.42 83.4C168.68 82.64 165.41 82.05 161.88 82.05C160.65 82.05 159.4 82.12 158.12 82.29C156.68 82.47 155.34 82.97 154.17 83.71C154.17 83.29 154.17 82.88 154.18 82.47C155.6 79.05 158.95 76.77 162.73 76.77C162.87 76.77 163.02 76.77 163.16 76.77C167.34 76.97 171.63 78.09 175.92 80.12C179.86 81.98 182.84 85.28 184.32 89.4C186.77 96.25 191.21 100.04 195.03 102.13" />
			<path id="path320" class="shp37" d="M198.48 102.84C197.51 102.72 196.33 102.5 195.03 102.13C191.21 100.04 186.77 96.25 184.32 89.4C182.84 85.28 179.86 81.98 175.92 80.12C171.63 78.09 167.34 76.97 163.16 76.77C163.02 76.77 162.87 76.77 162.73 76.77C158.95 76.77 155.6 79.05 154.18 82.47C154.19 82.14 154.2 81.81 154.22 81.49C153.82 82.23 153.52 83.03 153.33 83.88C153.28 84.05 153.25 84.23 153.21 84.41C153.15 84.46 153.09 84.51 153.02 84.57C153.12 84.07 153.22 83.59 153.33 83.12C153.54 82.2 153.88 81.33 154.32 80.54C154.56 80.17 154.82 79.83 155.1 79.5C156.13 78.3 157.43 77.35 158.9 76.74C160.08 76.26 161.37 75.99 162.7 75.98C162.72 75.98 162.73 75.98 162.75 75.98C162.9 75.98 163.05 75.99 163.2 75.99C167.48 76.19 171.87 77.34 176.25 79.41C178.09 80.28 179.73 81.44 181.11 82.85C181.93 83.68 182.67 84.59 183.3 85.58C183.85 86.5 184.32 87.48 184.69 88.51C185.36 90.39 186.18 92.04 187.1 93.48C187.41 94 187.74 94.5 188.08 94.97C191.32 99.51 195.52 101.76 198.48 102.84" />
			<path id="path322" class="shp5" d="M180.1 123.69C179.24 123.69 178.34 123.63 177.42 123.52C169.94 122.64 159.98 118.85 155.04 105.83C151.79 97.28 152.51 89.27 153.69 84.04C153.85 83.92 154.01 83.81 154.17 83.71C154.22 87.59 154.85 91.92 156.55 96.4C161.44 109.29 171.34 113.4 179.25 114.34C180.2 114.45 181.12 114.51 182.01 114.51C190.83 114.51 196.4 109.2 199.72 104.06C200.55 104.31 201.2 104.44 201.6 104.51C200.78 107.34 195.34 123.69 180.1 123.69" />
			<path id="path324" class="shp38" d="M180.14 124.08C179.25 124.08 178.33 124.02 177.37 123.91C169.46 122.98 159.57 118.86 154.67 105.97C151.5 97.62 152.05 89.8 153.21 84.41C153.36 84.28 153.52 84.16 153.69 84.04C152.51 89.27 151.79 97.28 155.04 105.83C159.98 118.85 169.94 122.64 177.42 123.52C178.34 123.63 179.24 123.69 180.1 123.69C195.34 123.69 200.78 107.34 201.6 104.51C201.2 104.44 200.55 104.31 199.72 104.06C199.79 103.95 199.86 103.84 199.93 103.73C201.25 104.11 202.09 104.2 202.09 104.2C202.09 104.2 197.2 124.08 180.14 124.08" />
			<path id="path326" class="shp20" d="M153.69 84.04C153.7 84.01 153.7 83.99 153.71 83.96C153.82 83.45 153.98 82.95 154.18 82.47C154.17 82.88 154.17 83.29 154.17 83.71C154.01 83.81 153.85 83.92 153.69 84.04" />
			<path id="path328" class="shp39" d="M153.21 84.41C153.25 84.23 153.28 84.05 153.33 83.88C153.52 83.03 153.82 82.23 154.22 81.49C154.2 81.81 154.19 82.14 154.18 82.47C153.98 82.95 153.82 83.45 153.71 83.96C153.7 83.99 153.7 84.01 153.69 84.04C153.52 84.16 153.36 84.28 153.21 84.41" />
			<path id="path330" fill-rule="evenodd" class="shp2" d="M180.09 126.34C179.12 126.34 178.13 126.29 177.11 126.17C170.38 125.37 158.26 121.79 152.55 106.78C149.05 97.56 149.84 88.96 151.11 83.37C152.4 77.75 157.52 73.86 163.28 74.12C167.81 74.33 172.44 75.54 177.06 77.72C181.64 79.88 185.11 83.71 186.82 88.5C191.11 100.48 201.9 101.89 202.35 101.94C203 102.02 203.59 102.37 203.96 102.9C204.33 103.44 204.45 104.11 204.3 104.74C202.38 112.52 194.94 126.34 180.09 126.34ZM155.54 84.38C154.4 89.36 153.69 97.01 156.79 105.17C161.4 117.3 170.67 120.84 177.64 121.66C191.41 123.29 197.32 111.08 199.19 105.89C194.87 104.67 186.46 100.95 182.55 90.03C181.24 86.38 178.6 83.46 175.12 81.82C171.05 79.9 167 78.83 163.08 78.65C162.96 78.64 162.85 78.64 162.73 78.64C159.3 78.64 156.31 81.01 155.54 84.38Z" />
			<path id="path332" class="shp0" d="M117.71 314.97C116.42 309.49 120.6 304.26 126.23 304.27C134.98 304.28 148.16 303.91 162.45 302.1C178.54 300.07 193.52 295.04 202.52 291.54C207.25 289.7 212.55 292.3 214.02 297.16L226.01 336.72C227.35 341.16 225.01 345.88 220.65 347.46C206.4 352.65 174.14 362.53 139.12 360.68C136.01 360.52 133.24 358.69 131.84 355.91C128.57 349.45 122.6 335.9 117.71 314.97" />
			<path id="path334" class="shp2" d="M163.9 360.36C162.88 360.36 161.95 359.67 161.7 358.63L155.66 333.84L145.17 329.9C144.49 329.65 143.97 329.08 143.78 328.37L137.37 304.65C137.05 303.44 137.76 302.2 138.97 301.87C140.18 301.54 141.43 302.26 141.75 303.47L147.86 326.07L158.38 330.02C159.08 330.28 159.61 330.87 159.79 331.6L166.11 357.56C166.4 358.77 165.66 360 164.44 360.3C164.26 360.34 164.08 360.36 163.9 360.36" />
			<path id="path336" class="shp40" d="M182.58 325.87C182.82 327 186.36 335.76 186.36 335.76C186.36 335.76 189.25 335.15 192.79 334.39C197.21 333.44 199.81 328.09 198.6 322.44C197.39 316.79 192.82 312.98 188.4 313.92C185.41 314.57 181.97 315.3 181.97 315.3C181.97 315.3 182.19 324.04 182.58 325.87" />
			<path id="path338" fill-rule="evenodd" class="shp2" d="M186.13 336.2L186.01 335.91C185.87 335.55 182.46 327.1 182.21 325.95C181.82 324.1 181.6 315.67 181.59 315.31L181.59 315L188.32 313.56C192.94 312.56 197.72 316.51 198.97 322.36C200.23 328.2 197.49 333.76 192.87 334.76L186.13 336.2ZM182.95 325.79C183.13 326.63 185.35 332.23 186.59 335.33L192.71 334.02C196.92 333.11 199.4 327.95 198.23 322.52C197.07 317.08 192.69 313.39 188.48 314.29L182.36 315.61C182.4 317.18 182.61 324.21 182.95 325.79Z" />
			<path id="path340" class="shp3" d="M182.58 325.87C182.82 327 186.36 335.76 186.36 335.76C186.36 335.76 189.25 335.15 192.79 334.39C197.21 333.44 199.81 328.09 198.6 322.44C197.39 316.79 192.82 312.98 188.4 313.92C185.41 314.57 181.97 315.3 181.97 315.3C181.97 315.3 182.19 324.04 182.58 325.87" />
			<path id="path342" fill-rule="evenodd" class="shp4" d="M186.36 336.16C186.21 336.16 186.06 336.06 186 335.91C185.85 335.55 182.45 327.1 182.2 325.96C181.8 324.1 181.59 315.67 181.58 315.31C181.58 315.12 181.71 314.96 181.89 314.92L188.31 313.54C192.94 312.55 197.73 316.5 198.99 322.35C200.24 328.21 197.5 333.77 192.87 334.77L186.45 336.15C186.42 336.15 186.39 336.16 186.36 336.16ZM182.97 325.79C183.15 326.66 185.55 332.69 186.6 335.31L192.71 334C196.91 333.1 199.39 327.95 198.22 322.52C197.05 317.09 192.68 313.41 188.48 314.31L182.37 315.62C182.42 317.21 182.63 324.21 182.97 325.79Z" />
			<path id="path344" class="shp17" d="M194.93 318.57C193.65 317.71 192.21 317.22 190.76 317.22C190.3 317.22 189.85 317.27 189.4 317.37C189.33 317.38 189.27 317.39 189.21 317.4C188.99 317.19 188.76 316.98 188.53 316.78C188.18 316.49 187.81 316.23 187.44 315.99L188.78 315.71C189.11 315.64 189.45 315.6 189.78 315.6C191.69 315.6 193.56 316.73 194.93 318.57" />
			<path id="path346" class="shp41" d="M191.07 332.89C191.31 332.53 191.53 332.14 191.74 331.72C192.6 329.95 192.98 327.88 192.84 325.76C194.47 325.3 195.83 324.23 196.81 322.77C196.81 322.79 196.82 322.8 196.82 322.82C197.82 327.48 195.84 331.87 192.4 332.6L191.07 332.89" />
			<path id="path348" fill-rule="evenodd" class="shp2" d="M187.82 337.22C186.13 337.22 184.57 336.2 183.92 334.58C181.03 327.32 180.86 326.55 180.8 326.26C180.57 325.18 180.37 322.18 180.21 317.35C180.14 315.32 181.54 313.53 183.53 313.11L188.02 312.14C193.42 310.99 198.96 315.43 200.39 322.05C201.81 328.68 198.57 335.01 193.17 336.17L188.71 337.13C188.41 337.19 188.11 337.22 187.82 337.22ZM184.36 325.49C184.47 325.9 185.3 328.18 187.31 333.23C187.41 333.48 187.68 333.62 187.94 333.56L192.4 332.6C195.84 331.87 197.82 327.48 196.82 322.82C195.82 318.16 192.22 314.97 188.78 315.71L184.29 316.67C184.03 316.73 183.84 316.96 183.85 317.23C184.07 323.65 184.3 325.17 184.36 325.49Z" />
			<path id="path350" class="shp3" d="M176.16 327.25C177.37 332.9 181.94 336.71 186.36 335.76C190.79 334.82 193.39 329.46 192.18 323.82C190.97 318.16 186.4 314.35 181.97 315.3C177.55 316.25 174.95 321.6 176.16 327.25Z" />
			<path id="path352" fill-rule="evenodd" class="shp4" d="M185 336.3C180.86 336.3 176.9 332.58 175.77 327.34C175.17 324.52 175.46 321.68 176.6 319.34C177.75 316.98 179.63 315.41 181.89 314.92C184.15 314.43 186.51 315.1 188.53 316.78C190.52 318.45 191.96 320.91 192.56 323.73C193.16 326.55 192.87 329.39 191.74 331.72C190.58 334.09 188.71 335.66 186.45 336.15C185.97 336.25 185.48 336.3 185 336.3ZM183.34 315.55C182.91 315.55 182.48 315.59 182.05 315.69C180.03 316.12 178.35 317.54 177.3 319.69C176.24 321.87 175.97 324.52 176.54 327.17C177.71 332.6 182.07 336.28 186.28 335.38C188.3 334.95 189.99 333.53 191.03 331.38C192.09 329.2 192.36 326.54 191.79 323.9C191.23 321.25 189.89 318.94 188.03 317.38C186.58 316.18 184.96 315.55 183.34 315.55Z" />
			<path id="path354" class="shp17" d="M177.11 323.98C176.85 323.54 176.61 323.09 176.39 322.62C176.56 321.58 176.86 320.59 177.3 319.69C178.35 317.54 180.03 316.12 182.05 315.69C182.48 315.59 182.91 315.55 183.34 315.55C184.96 315.55 186.58 316.18 188.03 317.38C189.55 318.65 190.72 320.42 191.4 322.47C191.28 322.94 191.12 323.39 190.94 323.81C189.2 320.98 186.49 319.19 183.7 319.19C183.24 319.19 182.79 319.24 182.33 319.34C179.97 319.85 178.13 321.6 177.11 323.98" />
			<path id="path356" fill-rule="evenodd" class="shp37" d="M176.16 327.25C174.94 321.6 177.55 316.25 181.97 315.3C182.43 315.2 182.89 315.16 183.34 315.16C186.76 315.16 190.05 317.84 191.59 321.83C191.58 321.81 191.58 321.8 191.57 321.79C191.52 322.02 191.47 322.25 191.4 322.47C190.72 320.42 189.55 318.65 188.03 317.38C186.58 316.18 184.96 315.55 183.34 315.55C182.91 315.55 182.48 315.59 182.05 315.69C180.03 316.12 178.35 317.54 177.3 319.69C176.86 320.59 176.56 321.58 176.39 322.62C176.3 322.4 176.21 322.19 176.12 321.97C175.77 323.6 175.77 325.41 176.16 327.25ZM191.59 321.83C191.6 321.85 191.61 321.88 191.62 321.91C191.61 321.88 191.6 321.86 191.59 321.83ZM192.18 323.81C192.09 323.4 191.98 322.99 191.86 322.6C191.98 322.99 192.09 323.4 192.18 323.81Z" />
			<path id="path358" class="shp41" d="M185 335.52C181.22 335.52 177.59 332.05 176.54 327.17C176.48 326.91 176.44 326.66 176.4 326.4C176.55 325.54 176.79 324.73 177.11 323.98C178.84 326.81 181.55 328.6 184.35 328.6C184.81 328.6 185.26 328.55 185.72 328.46C188.08 327.95 189.92 326.2 190.94 323.81C191.39 324.56 191.78 325.37 192.08 326.24C192.13 328.08 191.78 329.85 191.03 331.38C189.99 333.53 188.3 334.95 186.28 335.38C185.85 335.47 185.43 335.52 185 335.52" />
			<path id="path360" class="shp42" d="M184.99 335.91C181.03 335.91 177.24 332.32 176.16 327.25L176.16 327.25L176.16 327.25C176.19 327.38 176.22 327.51 176.25 327.63C176.28 327.21 176.33 326.8 176.4 326.4C176.44 326.66 176.48 326.91 176.54 327.17C177.59 332.05 181.22 335.52 185 335.52C185.43 335.52 185.85 335.47 186.28 335.38C188.3 334.95 189.99 333.53 191.03 331.38C191.78 329.85 192.13 328.08 192.08 326.24C192.22 326.63 192.34 327.04 192.44 327.46C192.5 326.66 192.48 325.83 192.37 324.98C193.02 330.19 190.48 334.88 186.36 335.76C185.91 335.86 185.45 335.91 184.99 335.91M191.86 322.6C191.78 322.36 191.7 322.13 191.62 321.91C191.7 322.13 191.78 322.36 191.86 322.6Z" />
			<path id="path362" class="shp43" d="M176.4 326.4C176.2 325.11 176.2 323.83 176.39 322.62C176.61 323.09 176.85 323.54 177.11 323.98C176.79 324.73 176.55 325.54 176.4 326.4ZM192.08 326.24C191.78 325.37 191.39 324.56 190.94 323.81C191.12 323.39 191.28 322.94 191.4 322.47C191.56 322.93 191.69 323.41 191.79 323.9C191.96 324.68 192.06 325.46 192.08 326.24Z" />
			<path id="path364" class="shp44" d="M176.25 327.63C176.22 327.51 176.19 327.38 176.16 327.25L176.16 327.25C175.77 325.41 175.77 323.6 176.12 321.97C176.21 322.19 176.3 322.4 176.39 322.62C176.2 323.83 176.2 325.11 176.4 326.4C176.33 326.8 176.28 327.21 176.25 327.63ZM192.44 327.46C192.34 327.04 192.22 326.63 192.08 326.24C192.06 325.46 191.96 324.68 191.79 323.9C191.69 323.41 191.56 322.93 191.4 322.47C191.47 322.25 191.52 322.02 191.57 321.79C191.59 321.83 191.6 321.87 191.62 321.91C191.7 322.13 191.78 322.36 191.86 322.6C191.98 322.99 192.09 323.4 192.18 323.81C192.26 324.21 192.33 324.59 192.37 324.98C192.48 325.83 192.5 326.66 192.44 327.46" />
			<path id="path366" fill-rule="evenodd" class="shp2" d="M185.02 337.73C180.21 337.73 175.64 333.55 174.37 327.64C173.7 324.51 174.04 321.34 175.31 318.72C176.66 315.95 178.89 314.1 181.59 313.52C184.29 312.94 187.08 313.71 189.45 315.68C191.69 317.55 193.29 320.3 193.96 323.43C194.63 326.56 194.3 329.73 193.02 332.35C191.67 335.12 189.45 336.97 186.75 337.55C186.17 337.67 185.59 337.73 185.02 337.73ZM182.35 317.09C180.77 317.43 179.44 318.57 178.59 320.31C177.67 322.21 177.44 324.53 177.94 326.87C178.94 331.53 182.54 334.72 185.98 333.98C187.56 333.64 188.9 332.5 189.74 330.76C190.66 328.86 190.9 326.53 190.39 324.2C189.89 321.86 188.73 319.83 187.11 318.48C185.93 317.5 184.62 316.98 183.34 316.98C183.01 316.98 182.68 317.02 182.35 317.09Z" />
			<path id="path368" fill-rule="evenodd" class="shp2" d="M147.8 363.17C144.54 363.17 141.25 363.08 137.93 362.89C134.74 362.7 131.84 360.82 130.36 358C126.86 351.3 120.21 336.57 114.96 313.14C114.35 310.4 115.01 307.57 116.78 305.38C118.55 303.2 121.21 301.96 123.99 301.99C133 302.07 146.94 301.78 162.17 299.85C179.37 297.68 195.42 291.95 203.45 288.74C205.82 287.79 208.5 287.88 210.81 288.98C213.12 290.09 214.87 292.14 215.61 294.59L228.69 337.73C230.08 342.34 227.65 347.27 223.14 348.96C211.17 353.45 181.35 363.17 147.8 363.17ZM134.38 355.9C135.12 357.32 136.59 358.26 138.2 358.36C174.8 360.53 208.68 349.54 221.55 344.71C223.82 343.86 225.05 341.37 224.34 339.05L211.27 295.91C210.89 294.65 210.03 293.64 208.84 293.07C207.67 292.51 206.35 292.46 205.14 292.95C196.9 296.25 180.44 302.11 162.73 304.35C147.26 306.31 133.1 306.61 123.94 306.52C123.92 306.52 123.91 306.52 123.89 306.52C122.49 306.52 121.19 307.14 120.3 308.24C119.41 309.34 119.08 310.77 119.39 312.15C124.52 335.07 130.98 349.4 134.38 355.9Z" />
			<path id="path370" class="shp45" d="M255.17 145.13C254.13 145.13 253.08 144.84 252.14 144.25C251.11 143.59 250.36 142.66 249.94 141.61L249.73 141.11C249 139.29 248.52 137.57 248.13 135.88C247.66 134.18 247.26 132.52 246.99 130.89C246.61 129.26 246.3 127.65 246.07 126.05C245.77 124.45 245.5 122.86 245.32 121.27C244.55 114.91 243.33 108.6 241.5 102.38C239.67 96.17 237.29 90.06 234.44 84.05C233.68 82.58 232.97 81.06 232.22 79.56C231.42 78.08 230.61 76.6 229.83 75.09C228.96 73.63 228.12 72.15 227.28 70.64C226.83 69.91 226.38 69.17 225.94 68.42C225.5 67.67 225.06 66.93 224.63 66.15L224.46 65.84C223.07 63.3 224 60.12 226.54 58.74C227.33 58.3 228.19 58.09 229.04 58.09C230.16 58.09 231.26 58.45 232.16 59.12C232.93 59.69 233.67 60.28 234.43 60.88C235.19 61.47 235.93 62.08 236.67 62.7C238.09 63.99 239.49 65.31 240.88 66.66C242.22 68.04 243.51 69.49 244.82 70.93C246.04 72.43 247.26 73.95 248.45 75.49C253.1 81.76 256.93 88.72 259.77 96.11C262.61 103.51 264.5 111.34 265.16 119.29C265.23 121.29 265.25 123.29 265.15 125.28C264.96 127.27 264.74 129.26 264.35 131.22C263.9 133.18 263.37 135.12 262.69 137.01C261.92 138.9 261.06 140.75 259.94 142.51C258.87 144.2 257.04 145.13 255.17 145.13" />
			<path id="path372" class="shp45" d="M207.43 52.51C206.75 52.51 206.1 52.47 205.47 52.42C204.24 52.34 203.1 52.15 201.99 51.93C200.87 51.72 199.82 51.42 198.79 51.1C197.75 50.79 196.76 50.4 195.78 49.98C194.8 49.59 193.87 49.08 192.91 48.63L190.05 47.26L184.27 44.57C180.39 42.81 176.46 41.1 172.45 39.37C170.44 38.51 168.42 37.64 166.37 36.73C165.35 36.31 164.32 35.84 163.28 35.36C162.25 34.91 161.21 34.42 160.16 33.88L159.93 33.76C157.29 32.38 156.27 29.13 157.64 26.5C158.46 24.94 159.96 23.94 161.57 23.67C162.8 23.48 164.04 23.33 165.29 23.23C166.53 23.15 167.77 23.1 169.01 23.08C169.18 23.08 169.35 23.08 169.51 23.08C170.59 23.08 171.66 23.13 172.74 23.16C173.97 23.23 175.21 23.32 176.45 23.45C181.39 23.97 186.28 25.01 191.05 26.48C193.43 27.22 195.79 28.06 198.09 29.01C200.39 30 202.69 30.99 204.86 32.24C205.94 32.87 206.97 33.59 207.97 34.36C208.96 35.14 209.9 36.02 210.79 36.94C212.54 38.86 214.11 41.01 215.12 43.83C216.31 47.16 214.58 50.82 211.26 52.01C210.8 52.17 210.34 52.28 209.88 52.34L209.39 52.4C208.7 52.48 208.05 52.51 207.43 52.51" />
			<path id="path374" class="shp2" d="M145.57 182.35C146.44 183.48 146.63 184.79 146 185.28C145.37 185.76 144.15 185.24 143.28 184.1C142.41 182.97 142.22 181.66 142.85 181.17C143.48 180.69 144.7 181.21 145.57 182.35Z" />
			<path id="path376" class="shp2" d="M154.2 182.3C153.34 183.44 153.16 184.76 153.8 185.23C154.44 185.71 155.65 185.17 156.51 184.03C157.36 182.88 157.54 181.57 156.9 181.09C156.27 180.61 155.06 181.16 154.2 182.3Z" />
			<path id="path378" class="shp2" d="M137.5 197.11C137.42 200.66 138.29 203.94 139.83 206.59C142 210.33 145.49 212.78 149.49 212.88C153.48 212.97 157.09 210.69 159.43 207.06C161.1 204.49 162.13 201.25 162.21 197.7C162.42 189.16 137.71 188.57 137.5 197.11" />
			<path id="path380" class="shp46" d="M139.83 206.59C142 210.33 145.49 212.78 149.49 212.88C153.48 212.97 157.09 210.69 159.43 207.06C157.26 203.32 153.77 200.86 149.78 200.77C145.78 200.67 142.18 202.96 139.83 206.59" />
			<path id="path382" fill-rule="evenodd" class="shp2" d="M149.72 214.75C149.63 214.75 149.54 214.75 149.44 214.75C145.56 214.66 141.98 212.71 139.37 209.27C136.85 205.96 135.52 201.62 135.63 197.07C135.7 194.34 137.51 192.07 140.74 190.68C143.24 189.59 146.55 189.04 150.06 189.13C157.13 189.3 164.22 192.03 164.08 197.75C163.85 207.2 157.44 214.75 149.72 214.75ZM149.37 192.86C146.66 192.86 144.08 193.31 142.22 194.11C140.36 194.92 139.4 195.94 139.37 197.16C139.28 200.87 140.34 204.37 142.35 207.01C144.26 209.52 146.81 210.95 149.53 211.01C155.3 211.18 160.16 205.16 160.34 197.66C160.41 194.81 155.12 192.99 149.96 192.87C149.77 192.86 149.57 192.86 149.37 192.86Z" />
		</g>
	</g>
</svg>